<?xml version="1.0" encoding="utf-8"?>
<!-- Generator: Adobe Illustrator 22.1.0, SVG Export Plug-In . SVG Version: 6.00 Build 0)  -->
<svg version="1.1" id="Capa_1" xmlns="http://www.w3.org/2000/svg" xmlns:xlink="http://www.w3.org/1999/xlink" x="0px" y="0px"
	 viewBox="0 0 19 20" style="enable-background:new 0 0 19 20;" xml:space="preserve">
<style type="text/css">
	.st0{fill:#2E4E96;}
</style>
<path id="Boletos_icono" class="st0" d="M18.5,0H4.9c0.3,0,0.5,0.2,0.5,0.5V1c0,0.3-0.2,0.4-0.5,0.4C4.6,1.5,4.5,1.3,4.4,1V0.5
	C4.4,0.2,4.7,0,4.9,0H0.5C0.3,0,0.1,0.2,0.1,0.5v9.6c0,0.3,0.2,0.5,0.5,0.5h0.7l3.2-1.4V8.8c0-0.3,0.2-0.5,0.5-0.5
	c0.2,0,0.4,0.1,0.4,0.3l10.1-4.5c0.2-0.1,0.5,0,0.6,0.2l2.7,6c0.1-0.1,0.1-0.2,0.1-0.3V0.5C18.9,0.2,18.7,0,18.5,0
	C18.5,0,18.5,0,18.5,0z M5.4,7.7c0,0.3-0.2,0.4-0.5,0.4c-0.2,0-0.4-0.2-0.4-0.4V6.6c0-0.3,0.2-0.4,0.5-0.4c0.2,0,0.4,0.2,0.4,0.4
	V7.7L5.4,7.7z M5.4,5.5c0,0.3-0.2,0.4-0.5,0.4c-0.2,0-0.4-0.2-0.4-0.4V4.4c0-0.3,0.2-0.4,0.5-0.4c0.2,0,0.4,0.2,0.4,0.4V5.5z
	 M5.4,3.3c0,0.3-0.2,0.4-0.5,0.4c-0.2,0-0.4-0.2-0.4-0.4V2.1c0-0.3,0.2-0.4,0.5-0.4c0.2,0,0.4,0.2,0.4,0.4V3.3z M11.1,4.6H7
	c-0.3,0-0.5-0.2-0.5-0.5c0-0.3,0.2-0.5,0.5-0.5h4.1c0.3,0,0.5,0.2,0.5,0.5C11.6,4.4,11.4,4.6,11.1,4.6L11.1,4.6z M14.6,2.7H7
	c-0.3,0-0.4-0.2-0.4-0.5C6.5,2,6.7,1.8,7,1.8h7.6c0.3,0,0.5,0.2,0.4,0.5C15,2.5,14.8,2.7,14.6,2.7L14.6,2.7L14.6,2.7z M17.7,10.3
	C17.7,10.3,17.7,10.3,17.7,10.3l-2.3-5.1L17.7,10.3z M5.1,9.8L5.1,9.8L5.1,9.8z M6.7,18.2c0.2-0.1,0.4,0,0.6,0.1L19,13.1l-1.3-2.8
	l-2.3-5.1L5.1,9.8l0,0l-1.4,0.6L4,11.2c0.1,0.2,0,0.5-0.2,0.6l0,0c-0.2,0.1-0.5,0-0.6-0.2l-0.3-0.7L0,12.1L3.6,20l2.9-1.3
	C6.4,18.5,6.5,18.3,6.7,18.2L6.7,18.2z M7.2,13c-0.2,0.1-0.5,0-0.6-0.2c-0.1-0.2,0-0.5,0.2-0.6l0,0l0,0l4.4-1.8
	c0.2-0.1,0.5,0,0.6,0.2c0.1,0.2,0,0.5-0.2,0.6l0,0L7.2,13z M15.7,12.6c0.2-0.1,0.5,0,0.6,0.2c0.1,0.2,0,0.5-0.2,0.6l0,0l0,0
	l-7.3,3.2c-0.2,0.1-0.5,0-0.6-0.2s0-0.5,0.2-0.6l0,0l0,0L15.7,12.6z M6.1,10.6l7.3-3.2c0.2-0.1,0.5,0,0.6,0.2c0.1,0.2,0,0.5-0.2,0.6
	l0,0l-7.3,3.2c-0.2,0.1-0.5,0-0.6-0.2C5.8,10.9,5.9,10.7,6.1,10.6L6.1,10.6L6.1,10.6L6.1,10.6z M4.1,13.6l-0.5-1
	c-0.1-0.2,0-0.5,0.2-0.6l0,0c0.2-0.1,0.5,0,0.6,0.2l0.5,1c0.1,0.2,0,0.5-0.2,0.6l0,0C4.5,13.9,4.2,13.8,4.1,13.6L4.1,13.6z M5,15.7
	l-0.5-1c-0.1-0.2,0-0.5,0.2-0.6l0,0c0.2-0.1,0.5,0,0.6,0.2c0,0,0,0,0,0l0.5,1c0.1,0.2,0,0.5-0.2,0.6l0,0C5.4,16,5.2,15.9,5,15.7
	L5,15.7z M6,17.8l-0.5-1c-0.1-0.2,0-0.5,0.2-0.6l0,0c0.2-0.1,0.5,0,0.6,0.2l0.5,1c0.1,0.2,0,0.5-0.2,0.6l0,0C6.4,18.1,6.1,18,6,17.8
	C6,17.8,6,17.8,6,17.8L6,17.8z"/>
</svg>
