<?xml version="1.0" encoding="utf-8"?>
<!-- Generator: Adobe Illustrator 22.1.0, SVG Export Plug-In . SVG Version: 6.00 Build 0)  -->
<svg version="1.1" id="Capa_1" xmlns="http://www.w3.org/2000/svg" xmlns:xlink="http://www.w3.org/1999/xlink" x="0px" y="0px"
	 viewBox="0 0 33.1 28.2" style="enable-background:new 0 0 33.1 28.2;" xml:space="preserve">
<style type="text/css">
	.st0{fill:#2E4E96;}
</style>
<path id="Calendario_icono" class="st0" d="M9.2,1.6v0.6H5.5V1.6c0.2-1,1.1-1.7,2.1-1.5C8.4,0.2,9.1,0.8,9.2,1.6z M27.1,0.5
	c-0.8-0.6-1.8-0.6-2.6,0c-0.3,0.3-0.5,0.7-0.5,1.1v0.6h3.7V1.6C27.6,1.1,27.4,0.7,27.1,0.5z M30.6,3.4H2.5C1.2,3.3,0.1,4.3,0,5.6
	v2.2h33.1V5.6C33,4.3,31.9,3.3,30.6,3.4L30.6,3.4z M0,8.7h33.1V26c-0.1,1.3-1.2,2.2-2.5,2.2H2.5C1.2,28.3,0.1,27.3,0,26V8.7z
	 M24.7,14.6c0,0.2,0.2,0.3,0.4,0.3h4c0.2,0,0.4-0.1,0.4-0.3v-2.3c0-0.2-0.2-0.3-0.4-0.3h-4c-0.2,0-0.4,0.1-0.4,0.3l0,0V14.6z
	 M24.7,19.6c0,0.2,0.2,0.3,0.4,0.3h4c0.2,0,0.4-0.1,0.4-0.3v-2.3c0-0.2-0.2-0.3-0.4-0.3h-4c-0.2,0-0.4,0.1-0.4,0.3l0,0V19.6z
	 M24.7,24.6c0,0.2,0.2,0.3,0.4,0.3h4c0.2,0,0.4-0.1,0.4-0.3v-2.3c0-0.2-0.2-0.3-0.4-0.3h-4c-0.2,0-0.4,0.1-0.4,0.3l0,0V24.6z
	 M17.7,14.6c0,0.2,0.2,0.3,0.4,0.3h4c0.2,0,0.4-0.1,0.4-0.3v-2.3c0-0.2-0.2-0.3-0.4-0.3h-4c-0.2,0-0.4,0.1-0.4,0.3l0,0L17.7,14.6
	L17.7,14.6z M17.7,19.6c0,0.2,0.2,0.3,0.4,0.3h4c0.2,0,0.4-0.1,0.4-0.3v-2.3c0-0.2-0.2-0.3-0.4-0.3h-4c-0.2,0-0.4,0.1-0.4,0.3l0,0
	L17.7,19.6L17.7,19.6z M17.7,24.6c0,0.2,0.2,0.3,0.4,0.3h4c0.2,0,0.4-0.1,0.4-0.3v-2.3c0-0.2-0.2-0.3-0.4-0.3h-4
	c-0.2,0-0.4,0.1-0.4,0.3l0,0L17.7,24.6L17.7,24.6z M10.7,14.6c0,0.2,0.2,0.3,0.4,0.3h4c0.2,0,0.4-0.1,0.4-0.3v-2.3
	c0-0.2-0.2-0.3-0.4-0.3h-4c-0.2,0-0.4,0.1-0.4,0.3l0,0V14.6z M10.7,19.6c0,0.2,0.2,0.3,0.4,0.3h4c0.2,0,0.4-0.1,0.4-0.3v-2.3
	c0-0.2-0.2-0.3-0.4-0.3h-4c-0.2,0-0.4,0.1-0.4,0.3l0,0V19.6z M10.7,24.6c0,0.2,0.2,0.3,0.4,0.3h4c0.2,0,0.4-0.1,0.4-0.3v-2.3
	c0-0.2-0.2-0.3-0.4-0.3h-4c-0.2,0-0.4,0.1-0.4,0.3l0,0V24.6z M3.7,19.6c0,0.2,0.2,0.3,0.4,0.3h4c0.2,0,0.4-0.1,0.4-0.3v-2.3
	c0-0.2-0.2-0.3-0.4-0.3h-4c-0.2,0-0.4,0.1-0.4,0.3l0,0V19.6z M3.7,24.6c0,0.2,0.2,0.3,0.4,0.3h4c0.2,0,0.4-0.1,0.4-0.3v-2.3
	c0-0.2-0.2-0.3-0.4-0.3h-4c-0.2,0-0.4,0.1-0.4,0.3l0,0V24.6z"/>
</svg>
