<?xml version="1.0" encoding="utf-8"?>
<!-- Generator: Adobe Illustrator 22.1.0, SVG Export Plug-In . SVG Version: 6.00 Build 0)  -->
<svg version="1.1" id="Capa_1" xmlns="http://www.w3.org/2000/svg" xmlns:xlink="http://www.w3.org/1999/xlink" x="0px" y="0px"
	 viewBox="0 0 65.9 53.5" style="enable-background:new 0 0 65.9 53.5;" xml:space="preserve">
<style type="text/css">
	.st0{fill:#FFFFFF;}
</style>
<path id="carrito_icono" class="st0" d="M24.3,40.3c-3.6,0.2-6.4,3.3-6.3,6.9c0.2,3.6,3.3,6.4,6.9,6.3c3.5-0.2,6.3-3.1,6.3-6.6
	C31.1,43.1,28,40.2,24.3,40.3z M24.3,49.9c-1.7-0.1-3-1.5-2.9-3.2s1.5-3,3.2-2.9c1.6,0.1,2.9,1.4,2.9,3.1C27.4,48.6,26,50,24.3,49.9
	L24.3,49.9z M47.5,40.3c-3.6,0.2-6.4,3.3-6.3,6.9c0.2,3.6,3.3,6.4,6.9,6.3c3.5-0.2,6.3-3.1,6.3-6.6c-0.1-3.7-3.1-6.6-6.8-6.6
	C47.6,40.3,47.5,40.3,47.5,40.3z M47.5,49.9c-1.7-0.1-3-1.5-2.9-3.2s1.5-3,3.2-2.9c1.6,0.1,2.9,1.4,2.9,3.1
	C50.7,48.6,49.3,50,47.5,49.9C47.5,49.9,47.5,49.9,47.5,49.9L47.5,49.9z M56.6,29.3H20.2c0.4,1.3,0.6,2.3,0.8,2.9
	c0.6,2.5,2.1,2.5,2.1,2.5h29.2c2.8-0.1,5.4,1.7,6.4,4.3c0.3,0.9-0.2,1.9-1.1,2.2c0,0-0.1,0-0.1,0c-0.2,0.1-0.4,0.1-0.6,0.1
	c-0.8,0-1.5-0.4-1.8-1.1c-0.5-1.1-1.6-1.8-2.9-1.8H23.2c0,0-4.3,0.3-5.8-5.2C16.5,29.7,10.7,9,9.1,3.5H1.9C0.9,3.6,0.1,2.8,0,1.9
	S0.7,0.1,1.7,0c0.1,0,0.1,0,0.2,0h8.6c0.8,0,1.5,0.5,1.8,1.3c0,0,4.3,15.3,6.8,24.6h36.1l6.3-18.5H18c-1,0-1.8-0.7-1.8-1.7
	c0-1,0.7-1.8,1.7-1.8c0.1,0,0.1,0,0.2,0H64c0.6,0,1.1,0.3,1.5,0.7c0.4,0.4,0.5,1,0.3,1.6l-7.5,22C58,28.8,57.3,29.3,56.6,29.3
	L56.6,29.3z"/>
</svg>
