<?xml version="1.0" encoding="utf-8"?>
<!-- Generator: Adobe Illustrator 22.1.0, SVG Export Plug-In . SVG Version: 6.00 Build 0)  -->
<svg version="1.1" id="Capa_1" xmlns="http://www.w3.org/2000/svg" xmlns:xlink="http://www.w3.org/1999/xlink" x="0px" y="0px"
	 viewBox="0 0 21 21" style="enable-background:new 0 0 21 21;" xml:space="preserve">
<style type="text/css">
	.st0{fill:#2E4E96;}
</style>
<path id="Codigo_promo_icono" class="st0" d="M8,9.2c0.6,0,1.1-0.5,1.1-1.1S8.6,6.9,8,6.9C7.4,6.9,6.9,7.4,6.9,8
	C6.9,8.6,7.4,9.2,8,9.2C8,9.2,8,9.2,8,9.2z M13,11.8c-0.6,0-1.1,0.5-1.1,1.1s0.5,1.1,1.1,1.1c0.6,0,1.1-0.5,1.1-1.1
	C14.1,12.4,13.6,11.8,13,11.8C13,11.8,13,11.8,13,11.8z M20.4,9.3l-1.4-1.1l0.6-1.6c0.3-0.8-0.1-1.7-0.9-2c-0.1,0-0.2-0.1-0.3-0.1
	l-1.7-0.3l-0.3-1.7c-0.1-0.7-0.8-1.3-1.5-1.3c-0.2,0-0.4,0-0.5,0.1l-1.6,0.6l-1.1-1.4c-0.5-0.7-1.5-0.8-2.2-0.2
	C9.5,0.4,9.4,0.5,9.3,0.6L8.2,1.9L6.6,1.3C6.4,1.2,6.2,1.2,6,1.2c-0.8,0-1.4,0.5-1.5,1.3L4.2,4.2L2.5,4.5C1.7,4.6,1.1,5.4,1.2,6.3
	c0,0.1,0,0.2,0.1,0.3l0.6,1.6L0.6,9.3c-0.7,0.5-0.8,1.5-0.2,2.2c0.1,0.1,0.1,0.2,0.2,0.2l1.4,1.1l-0.6,1.6c-0.3,0.8,0.1,1.7,0.9,2
	c0.1,0,0.2,0.1,0.3,0.1l1.7,0.3l0.3,1.7c0.1,0.7,0.8,1.3,1.5,1.3c0.2,0,0.4,0,0.5-0.1l1.6-0.6l1.1,1.4c0.5,0.7,1.5,0.8,2.2,0.2
	c0.1-0.1,0.2-0.1,0.2-0.2l1.1-1.4l1.6,0.6c0.2,0.1,0.4,0.1,0.5,0.1c0.8,0,1.4-0.5,1.5-1.3l0.3-1.7l1.7-0.3c0.8-0.1,1.4-0.9,1.3-1.8
	c0-0.1,0-0.2-0.1-0.3l-0.6-1.6l1.4-1.1c0.7-0.5,0.8-1.5,0.2-2.2C20.6,9.5,20.5,9.4,20.4,9.3z M8,6.2C9,6.2,9.9,7,9.9,8S9,9.9,8,9.9
	C7,9.9,6.2,9,6.2,8C6.2,7,7,6.2,8,6.2z M7,14.4c-0.1,0.1-0.2,0.1-0.2,0.1c-0.1,0-0.2,0-0.2-0.1c-0.1-0.1-0.1-0.4,0-0.5c0,0,0,0,0,0
	L14,6.5c0.1-0.1,0.4-0.1,0.5,0s0.1,0.4,0,0.5L7,14.4z M13,14.8c-1,0-1.8-0.8-1.8-1.8s0.8-1.8,1.8-1.8c1,0,1.8,0.8,1.8,1.8
	C14.8,14,14,14.8,13,14.8z"/>
</svg>
