<?xml version="1.0" encoding="utf-8"?>
<!-- Generator: Adobe Illustrator 22.1.0, SVG Export Plug-In . SVG Version: 6.00 Build 0)  -->
<svg version="1.1" id="Capa_1" xmlns="http://www.w3.org/2000/svg" xmlns:xlink="http://www.w3.org/1999/xlink" x="0px" y="0px"
	 viewBox="0 0 17 21" style="enable-background:new 0 0 17 21;" xml:space="preserve">
<style type="text/css">
	.st0{fill:#2E4E96;}
</style>
<path id="Precio_icono" class="st0" d="M0,0v16.7L8.5,21l8.5-4.3V0H0z M9.3,14.6c-0.1,0-0.1,0.1-0.1,0.2V16H7.9v-1.2
	c0-0.1-0.1-0.2-0.2-0.2c-0.7,0-1.4-0.2-2-0.6L5.6,14L6,12.8L6.2,13c0.6,0.3,1.3,0.5,2,0.5c0.9,0,1.6-0.4,1.6-1.1
	c0-0.4-0.2-0.9-1.6-1.4C7,10.5,5.7,9.9,5.7,8.6c0.1-1.1,1-2.1,2.1-2.2C7.9,6.4,8,6.3,8,6.2V5h1.3v1.1c0,0.1,0.1,0.2,0.2,0.2
	c0.6,0,1.2,0.2,1.7,0.5l0.1,0.1L10.7,8l-0.2-0.1C10,7.6,9.4,7.5,8.8,7.5c-1,0-1.4,0.5-1.4,1c0,0.5,0.4,0.8,1.7,1.3
	c1.1,0.4,2.4,1,2.4,2.5C11.4,13.5,10.5,14.5,9.3,14.6L9.3,14.6z M15.3,2H1.8C1.7,2,1.6,1.9,1.6,1.7c0-0.1,0.1-0.2,0.2-0.2h13.5
	c0.1,0,0.2,0.2,0.2,0.3C15.5,1.9,15.4,2,15.3,2L15.3,2z"/>
</svg>
