<svg id="Capa_1" data-name="Capa 1" xmlns="http://www.w3.org/2000/svg" viewBox="0 0 180.71 31.45"><defs><style>.cls-1{fill:none;}.cls-2{fill:#def1f9;}</style></defs><title>Conacua - camiseta reverso editable</title><path class="cls-1" d="M150.17,24.13a3.88,3.88,0,0,0,1.07.14,7.59,7.59,0,0,0,4.68-1.78,7,7,0,0,0,2.6-3.58c.09-.31,0-.39-.28-.42a29.41,29.41,0,0,0-3.48-.24,10,10,0,0,0-4.15.75,3.36,3.36,0,0,0-2.08,2.32A2.19,2.19,0,0,0,150.17,24.13Z"/><path class="cls-1" d="M176.26,3.11c-.7,0-.7,0-.7.65v.45c0,.08,0,.18.13.18a1.91,1.91,0,0,0,1.08-.16.56.56,0,0,0,0-1A1,1,0,0,0,176.26,3.11Z"/><path class="cls-1" d="M176.19,1.1a3.38,3.38,0,0,0-3.31,3.5,3.36,3.36,0,1,0,6.71,0A3.4,3.4,0,0,0,176.19,1.1ZM178,6.9c-.82,0-.82,0-1-.8s-.41-1-1.17-1c-.21,0-.29.06-.28.28,0,.41,0,.82,0,1.23,0,.18-.06.25-.26.26-.76.05-.76.05-.76-.71V2.79c0-.14-.05-.31.18-.33a7.35,7.35,0,0,1,2.52,0,1.13,1.13,0,0,1,.94,1.28c-.06.5-.44.75-.9,1A1.55,1.55,0,0,1,178.09,6a2.82,2.82,0,0,0,.15.57C178.35,6.81,178.32,6.9,178,6.9Z"/><path class="cls-1" d="M40.36,12.42h10.8c.18,0,.36.05.33-.27a4.23,4.23,0,0,0-2.6-3.81A7,7,0,0,0,44.13,8a5.76,5.76,0,0,0-4.08,4C39.89,12.42,39.9,12.42,40.36,12.42Z"/><path class="cls-1" d="M79.37,23.31A7.49,7.49,0,1,0,72,15.8,7.51,7.51,0,0,0,79.37,23.31Z"/><path class="cls-2" d="M35,26.66a17.45,17.45,0,0,0,9.35,4.49,13.5,13.5,0,0,1,1.78.3h4.69c.08-.1.18-.06.28-.07a23.07,23.07,0,0,0,8.5-2.26.46.46,0,0,0,.3-.6c-.35-2.32-.69-4.63-1-6.95,0-.29-.09-.39-.4-.21a17.91,17.91,0,0,1-4.69,1.85,15.78,15.78,0,0,1-8.7-.05,7.88,7.88,0,0,1-4.57-3.32c-.08-.13-.26-.27-.16-.42s.28,0,.42,0H60.36c.32,0,.41-.07.41-.41,0-1.38,0-2.75,0-4.13a16,16,0,0,0-.38-3.59,13.51,13.51,0,0,0-8-9.9A16.34,16.34,0,0,0,42.78.29a13.44,13.44,0,0,0-10,7,17.52,17.52,0,0,0-1.62,12.42A13.36,13.36,0,0,0,35,26.66Zm5-14.68a5.76,5.76,0,0,1,4.08-4,7,7,0,0,1,4.76.39,4.23,4.23,0,0,1,2.6,3.81c0,.32-.15.27-.33.27H40.36C39.9,12.42,39.89,12.42,40.05,12Z"/><path class="cls-2" d="M146.4,31.07c.52.16,1,.25,1.58.38h3c0-.1.12-.07.19-.08A12.2,12.2,0,0,0,157,29a8.65,8.65,0,0,0,1.55-1.59.54.54,0,0,1,.06.38c0,.9,0,1.79,0,2.69,0,.32.08.41.41.41,2.5,0,5,0,7.49,0,.37,0,.48-.08.48-.46,0-6.25,0-12.5,0-18.75a15.64,15.64,0,0,0-.12-2.16,9.87,9.87,0,0,0-3.91-6.81,14.43,14.43,0,0,0-8.2-2.65,28.2,28.2,0,0,0-12.15,2.3.35.35,0,0,0-.24.48c.3,1.36.59,2.74.88,4.11l.69,3.21.1,0a16.55,16.55,0,0,1,6.62-2.22,12.12,12.12,0,0,1,5.05.26,3.93,3.93,0,0,1,2.68,2,5.43,5.43,0,0,1,.24,2.16c0,.28-.08.33-.34.29a24.36,24.36,0,0,0-3-.33,20.61,20.61,0,0,0-8.1,1.07,11.76,11.76,0,0,0-4.95,3.19,8.45,8.45,0,0,0-2,7.35A8.42,8.42,0,0,0,146.4,31.07Zm2.13-9.75A3.36,3.36,0,0,1,150.61,19a10,10,0,0,1,4.15-.75,29.41,29.41,0,0,1,3.48.24c.28,0,.37.11.28.42a7,7,0,0,1-2.6,3.58,7.59,7.59,0,0,1-4.68,1.78,3.88,3.88,0,0,1-1.07-.14A2.19,2.19,0,0,1,148.53,21.32Z"/><path class="cls-2" d="M75.83,31.07c.66.14,1.33.25,2,.38h3.43c.17-.15.39-.11.59-.14a14.89,14.89,0,0,0,9.94-5.74c4.1-5.38,4.63-11.24,1.51-17.22A14.88,14.88,0,0,0,80.7.1,14.81,14.81,0,0,0,68.88,4.18,15.43,15.43,0,0,0,64,18.75,15.58,15.58,0,0,0,75.83,31.07ZM79.6,8.34a7.49,7.49,0,0,1-.23,15,7.49,7.49,0,0,1,.23-15Z"/><path class="cls-2" d="M8.36,30.43c0-5.6,0-11.2,0-16.8A4.62,4.62,0,0,1,11.24,9a5.92,5.92,0,0,1,4.58,0,4.36,4.36,0,0,1,2.64,2.89,6.16,6.16,0,0,1,.26,1.91c0,5.58,0,11.15,0,16.73,0,.35.1.43.44.43h7.49c.37,0,.44-.1.44-.45q0-8.35,0-16.7a16.65,16.65,0,0,0-.24-3.07,12.12,12.12,0,0,0-5.06-8.12A14.07,14.07,0,0,0,10.05.46a12.29,12.29,0,0,0-9.77,10A12.73,12.73,0,0,1,0,12V30.92l.44,0c2.49,0,5,0,7.46,0C8.28,30.91,8.36,30.8,8.36,30.43Z"/><path class="cls-2" d="M97.83,8.69q5.34,10.37,10.68,20.73a16.62,16.62,0,0,1,1,2h.15c0-.13.07-.21.12-.31l3.45-6.71q6-11.71,12-23.43c.19-.35.18-.35-.22-.35h-8.76a.47.47,0,0,0-.5.32q-2.61,5.61-5.23,11.22c-.3.66-.61,1.31-1,2a2.54,2.54,0,0,1-.14-.25q-3-6.48-6.09-13a.48.48,0,0,0-.51-.34h-8.8a.47.47,0,0,0-.34,0l.18.36C95.2,3.6,96.51,6.15,97.83,8.69Z"/><path class="cls-2" d="M136.12,11.22q-3.8,0-7.6,0c-.3,0-.39.07-.39.39q0,9.45,0,18.89c0,.3.07.4.39.4h7.6c.31,0,.39-.08.39-.39,0-3.16,0-6.31,0-9.47s0-6.28,0-9.42C136.51,11.31,136.44,11.22,136.12,11.22Z"/><path class="cls-2" d="M132.32,9a4.51,4.51,0,0,0,4.61-4.51,4.61,4.61,0,0,0-9.22,0A4.51,4.51,0,0,0,132.32,9Z"/><path class="cls-2" d="M180.71,4.63a4.48,4.48,0,0,0-9-.1,4.48,4.48,0,0,0,9,.1Zm-4.46,3.43a3.36,3.36,0,0,1-3.37-3.46,3.36,3.36,0,1,1,6.71,0A3.35,3.35,0,0,1,176.25,8.06Z"/><path class="cls-2" d="M178.09,6a1.55,1.55,0,0,0-.83-1.27c.46-.2.84-.45.9-1a1.13,1.13,0,0,0-.94-1.28,7.35,7.35,0,0,0-2.52,0c-.23,0-.18.19-.18.33V6.18c0,.76,0,.76.76.71.2,0,.26-.08.26-.26,0-.41,0-.82,0-1.23,0-.22.07-.27.28-.28.76,0,1,.15,1.17,1s.2.78,1,.8c.32,0,.35-.09.24-.36A2.82,2.82,0,0,1,178.09,6Zm-1.32-1.74a1.91,1.91,0,0,1-1.08.16c-.13,0-.13-.1-.13-.18V3.76c0-.69,0-.69.7-.65a1,1,0,0,1,.52.16A.56.56,0,0,1,176.77,4.23Z"/></svg>