<svg id="Capa_1" data-name="Capa 1" xmlns="http://www.w3.org/2000/svg" viewBox="0 0 177.17 51.88"><defs><style>.cls-1{fill:none;}.cls-2{fill:#def1f9;}</style></defs><title>Conacua - camiseta reverso editable</title><path class="cls-1" d="M121.92,48.5a1,1,0,0,0-.78.33,1.89,1.89,0,0,0,0,2,1,1,0,0,0,1.54,0,1.5,1.5,0,0,0,.3-1,1.52,1.52,0,0,0-.29-1A1,1,0,0,0,121.92,48.5Z"/><path class="cls-1" d="M108.35,48.5a1,1,0,0,0-.78.33,1.89,1.89,0,0,0,0,2,1,1,0,0,0,1.54,0,1.5,1.5,0,0,0,.3-1,1.52,1.52,0,0,0-.29-1A1,1,0,0,0,108.35,48.5Z"/><polygon class="cls-1" points="134.16 50.26 135.22 50.26 134.68 48.8 134.16 50.26"/><path class="cls-1" d="M116.76,15.91a3.27,3.27,0,0,0,.74-2.11,2.82,2.82,0,0,0-1-2.39,5.25,5.25,0,0,0-3.2-.78H103.17V17h9.66C114.84,17,116.16,16.64,116.76,15.91Z"/><path class="cls-1" d="M66.24,48.78a.7.7,0,0,0-.36-.19,3.91,3.91,0,0,0-.64,0h-.35v2.6h.58a2.51,2.51,0,0,0,.48,0,.76.76,0,0,0,.31-.16,1,1,0,0,0,.21-.38,2.7,2.7,0,0,0,.08-.72,2.54,2.54,0,0,0-.08-.7A.9.9,0,0,0,66.24,48.78Z"/><path class="cls-1" d="M69.75,48.5a1,1,0,0,0-.78.33,1.51,1.51,0,0,0-.3,1,1.45,1.45,0,0,0,.31,1,1,1,0,0,0,1.54,0,1.5,1.5,0,0,0,.3-1,1.52,1.52,0,0,0-.29-1A1,1,0,0,0,69.75,48.5Z"/><polygon class="cls-1" points="175.19 48.8 174.66 50.26 175.73 50.26 175.19 48.8"/><polygon class="cls-1" points="13.1 16.29 15.29 16.29 13.1 12.94 13.1 16.29"/><path class="cls-1" d="M26.62,11.58c0-.05,0-.09,0-.14L23.7,15.87A4.53,4.53,0,0,0,26.62,11.58Z"/><path class="cls-1" d="M25.51,16.66a10.57,10.57,0,0,1,3.32,1.7L28,14.16A3.71,3.71,0,0,1,25.51,16.66Z"/><path class="cls-1" d="M25.54,36.48c.45-.15.72-.24.87-.27a4.16,4.16,0,0,0,.33-.47l-.81-.06a1.13,1.13,0,0,1-.23,0s0,.06,0,.1v0A3.07,3.07,0,0,1,25.54,36.48Z"/><path class="cls-1" d="M26.43,36.21a.24.24,0,0,1,.14,0s0,0,0,0A.12.12,0,0,0,26.43,36.21Z"/><path class="cls-1" d="M23.44,37.26l.12-.06c.09-.14.27-.43.45-.78a2,2,0,0,1-.55-.12c0,.11,0,.21,0,.23v0S23.46,37,23.44,37.26Z"/><path class="cls-1" d="M25.43,38.61a4.48,4.48,0,0,1,.45-.41l-.43-.05a.29.29,0,0,0,0,.08v.13S25.44,38.5,25.43,38.61Z"/><path class="cls-1" d="M27.93,37.69s0,.46,0,.56a6,6,0,0,1,.92-.9,1.07,1.07,0,0,0-1-.26l0,0a1,1,0,0,1,.1.4Z"/><polygon class="cls-1" points="19.36 18.37 19.78 17.73 18.94 17.73 19.36 18.37"/><path class="cls-1" d="M28.36,35.3a1.4,1.4,0,0,1-.05.34l.53-.11A1.53,1.53,0,0,1,28.36,35.3Z"/><path class="cls-1" d="M21.86,39.81l.07-.23h0l0,0,0,0s0,0,0,0h0l0,0-.6.33h.47S21.84,39.84,21.86,39.81Z"/><path class="cls-1" d="M20.72,16.29l4.86-7.47a5.65,5.65,0,0,0-3.41-1.46H13.1V8.75L18,16.29Z"/><path class="cls-1" d="M14.44,39.86h2c-.46-.23-.93-.46-1.44-.67A2.1,2.1,0,0,1,14.44,39.86Z"/><path class="cls-1" d="M16.23,17.73H13.1V28.85H23.46s5.74-.21,5.74-5.29-5-5.83-5-5.83H22.49L19.36,22.5Z"/><path class="cls-1" d="M31.3,36.27h0A0,0,0,0,0,31.3,36.27Z"/><path class="cls-1" d="M33.43,34.87h0s0,0,0,0Z"/><path class="cls-1" d="M23.33,39.86H24A1.68,1.68,0,0,0,23.33,39.86Z"/><path class="cls-1" d="M33.53,34.43h0s0,0,0,0Z"/><polygon class="cls-1" points="153.72 10.75 149.77 27.3 157.66 27.3 153.72 10.75"/><path class="cls-1" d="M32.79,49.85a1.5,1.5,0,0,0,.3,1,1,1,0,0,0,.77.35,1,1,0,0,0,.77-.35,1.5,1.5,0,0,0,.3-1,1.47,1.47,0,0,0-.29-1,1,1,0,0,0-.78-.33,1,1,0,0,0-.78.33A1.51,1.51,0,0,0,32.79,49.85Z"/><path class="cls-1" d="M18.91,49.85a1.45,1.45,0,0,0,.31,1,1,1,0,0,0,1.54,0,1.5,1.5,0,0,0,.3-1,1.52,1.52,0,0,0-.29-1,1.09,1.09,0,0,0-1.56,0A1.51,1.51,0,0,0,18.91,49.85Z"/><path class="cls-1" d="M32.41,35s-.06,0-.1,0l.13,0S32.43,35,32.41,35Z"/><path class="cls-1" d="M88.38,48.57a5,5,0,0,0-.57,0H87.2v1h.58a2.47,2.47,0,0,0,.7,0,.37.37,0,0,0,.22-.16.48.48,0,0,0,.08-.3.47.47,0,0,0-.1-.32A.48.48,0,0,0,88.38,48.57Z"/><path class="cls-1" d="M7.44,48.78a.78.78,0,0,0-.36-.19,4.06,4.06,0,0,0-.65,0H6.08v2.6h.59a2.38,2.38,0,0,0,.47,0A.8.8,0,0,0,7.46,51a.84.84,0,0,0,.2-.38,2.7,2.7,0,0,0,.08-.72,2.54,2.54,0,0,0-.08-.7A.89.89,0,0,0,7.44,48.78Z"/><path class="cls-1" d="M27.15,39.7s0,0,0-.06,0,0,0,0a.58.58,0,0,1,0-.1,2.51,2.51,0,0,1-.63,0,1.43,1.43,0,0,0-.68.34h1.36v0Z"/><polygon class="cls-1" points="98.8 48.8 98.27 50.26 99.34 50.26 98.8 48.8"/><path class="cls-1" d="M171.71,48.57a5.31,5.31,0,0,0-.57,0h-.61v1h.57a2.47,2.47,0,0,0,.7,0,.42.42,0,0,0,.23-.16.56.56,0,0,0,.07-.3.47.47,0,0,0-.1-.32A.48.48,0,0,0,171.71,48.57Z"/><path class="cls-1" d="M148.29,48.57a5,5,0,0,0-.57,0h-.61v1h.58a2.52,2.52,0,0,0,.7,0,.4.4,0,0,0,.22-.16.56.56,0,0,0,.08-.3.48.48,0,0,0-.11-.32A.45.45,0,0,0,148.29,48.57Z"/><polygon class="cls-1" points="139.71 48.8 139.18 50.26 140.25 50.26 139.71 48.8"/><polygon class="cls-2" points="3.14 48.56 3.14 47.9 0.48 47.9 0.48 51.82 0.48 51.82 1.26 51.82 1.26 50.15 2.89 50.15 2.89 49.49 1.26 49.49 1.26 48.56 3.14 48.56"/><rect class="cls-2" x="3.76" y="47.9" width="0.78" height="3.92"/><rect class="cls-2" x="75.04" y="0.02" width="12.09" height="44.18"/><path class="cls-2" d="M98.47,0H91.08V44.2h12.09V27.64h5.63q4.15,0,5.7,1.33T116,33.82V44.2h12.09V30.13c0-4.26-2.91-7-7.31-7.29.29-.28,7.48.55,7.48-7.6V7c0-5.44-4.44-7-9.45-7H98.47Zm4.7,10.61h10.11a5.25,5.25,0,0,1,3.2.78,2.82,2.82,0,0,1,1,2.39,3.27,3.27,0,0,1-.74,2.11c-.6.73-1.92,1.1-3.93,1.1h-9.66Z"/><path class="cls-2" d="M143.61,44.18l2.11-6.25h15.69l2.48,6.25h12.6L161.13.05h-14.9L130.29,44.18Zm10.11-33.43,3.94,16.55h-7.89Z"/><path class="cls-2" d="M71.39,17H51.81V12H71.38V0H48.44a8.19,8.19,0,0,0-6.21,2.39A9.77,9.77,0,0,0,40,9.08v35H51.81V27H71.39Z"/><path class="cls-2" d="M7.47,48a3.35,3.35,0,0,0-.74-.07H5.3v3.92H6.77a2.64,2.64,0,0,0,.7-.08A1.52,1.52,0,0,0,8,51.42a1.78,1.78,0,0,0,.41-.7,2.55,2.55,0,0,0,.12-.83A2.78,2.78,0,0,0,8.42,49a1.64,1.64,0,0,0-.37-.63A1.29,1.29,0,0,0,7.47,48Zm.19,2.61a.84.84,0,0,1-.2.38.8.8,0,0,1-.32.16,2.38,2.38,0,0,1-.47,0H6.08v-2.6h.35a4.06,4.06,0,0,1,.65,0,.78.78,0,0,1,.36.19.89.89,0,0,1,.22.37,2.54,2.54,0,0,1,.08.7A2.7,2.7,0,0,1,7.66,50.57Z"/><polygon class="cls-2" points="12.1 48.55 12.1 47.89 9.22 47.89 9.22 51.81 12.17 51.81 12.17 51.15 10 51.15 10 50.09 11.95 50.09 11.95 49.42 10 49.42 10 48.55 12.1 48.55"/><rect class="cls-2" x="12.81" y="47.89" width="0.79" height="3.92"/><path class="cls-2" d="M16,48.5a.8.8,0,0,1,.53.17.85.85,0,0,1,.29.48l.78-.18A1.47,1.47,0,0,0,16,47.82a1.74,1.74,0,0,0-1.33.54,2.17,2.17,0,0,0-.5,1.52,2.05,2.05,0,0,0,.5,1.46,1.68,1.68,0,0,0,1.28.54,1.73,1.73,0,0,0,1-.31,1.77,1.77,0,0,0,.58-1l-.76-.24a1.11,1.11,0,0,1-.33.63.8.8,0,0,1-.54.2.84.84,0,0,1-.69-.32A1.63,1.63,0,0,1,15,49.82a1.54,1.54,0,0,1,.27-1A.89.89,0,0,1,16,48.5Z"/><path class="cls-2" d="M19.15,48a1.3,1.3,0,0,0-.5.35,1.79,1.79,0,0,0-.37.54,2.49,2.49,0,0,0-.17,1,2,2,0,0,0,.51,1.48,1.79,1.79,0,0,0,1.37.53,1.83,1.83,0,0,0,1.37-.53,2.45,2.45,0,0,0,0-3A1.82,1.82,0,0,0,20,47.82,2,2,0,0,0,19.15,48Zm1.62.85a1.52,1.52,0,0,1,.29,1,1.5,1.5,0,0,1-.3,1,1,1,0,0,1-1.54,0,1.45,1.45,0,0,1-.31-1,1.51,1.51,0,0,1,.3-1,1.09,1.09,0,0,1,1.56,0Z"/><polygon class="cls-2" points="23.65 47.89 22.47 47.89 22.47 51.81 23.2 51.81 23.2 48.73 23.97 51.81 24.73 51.81 25.5 48.73 25.5 51.81 26.23 51.81 26.23 47.89 25.05 47.89 24.35 50.56 23.65 47.89"/><rect class="cls-2" x="26.98" y="47.89" width="0.79" height="3.92"/><path class="cls-2" d="M29.92,51.21a.79.79,0,0,1-.56-.19.91.91,0,0,1-.28-.57l-.77.08a1.53,1.53,0,0,0,.47,1,1.68,1.68,0,0,0,1.13.34,2.13,2.13,0,0,0,.85-.14,1.15,1.15,0,0,0,.53-.44,1.21,1.21,0,0,0,.18-.63,1.22,1.22,0,0,0-.15-.63,1.18,1.18,0,0,0-.43-.4,4.4,4.4,0,0,0-.85-.28,2.14,2.14,0,0,1-.72-.26.3.3,0,0,1-.11-.24.29.29,0,0,1,.12-.24.94.94,0,0,1,.54-.14.77.77,0,0,1,.49.13.71.71,0,0,1,.22.43l.78,0a1.11,1.11,0,0,0-.39-.86,1.58,1.58,0,0,0-1.09-.33,1.93,1.93,0,0,0-.77.14,1,1,0,0,0-.65.95,1.05,1.05,0,0,0,.35.79,2.13,2.13,0,0,0,.89.39l.62.17a.56.56,0,0,1,.28.17.32.32,0,0,1,.09.24.47.47,0,0,1-.2.37A.83.83,0,0,1,29.92,51.21Z"/><path class="cls-2" d="M33,48a1.38,1.38,0,0,0-.5.35,1.79,1.79,0,0,0-.37.54,2.49,2.49,0,0,0-.17,1,2.06,2.06,0,0,0,.51,1.48,1.79,1.79,0,0,0,1.37.53,1.81,1.81,0,0,0,1.37-.53,2.45,2.45,0,0,0,0-3,1.82,1.82,0,0,0-1.38-.54A2,2,0,0,0,33,48Zm1.62.85a1.47,1.47,0,0,1,.29,1,1.5,1.5,0,0,1-.3,1,1,1,0,0,1-.77.35,1,1,0,0,1-.77-.35,1.89,1.89,0,0,1,0-2,1,1,0,0,1,.78-.33A1,1,0,0,1,34.64,48.83Z"/><path class="cls-2" d="M37.71,48.48a.75.75,0,0,1,.49.13.71.71,0,0,1,.22.43l.78,0a1.14,1.14,0,0,0-.38-.86,1.62,1.62,0,0,0-1.1-.33A2,2,0,0,0,37,48a1,1,0,0,0-.65.95,1,1,0,0,0,.36.79,2.07,2.07,0,0,0,.88.39l.63.17a.67.67,0,0,1,.28.17.36.36,0,0,1,.08.24.48.48,0,0,1-.19.37.86.86,0,0,1-.57.17A.8.8,0,0,1,37.2,51a1,1,0,0,1-.28-.57l-.76.08a1.44,1.44,0,0,0,.47,1,1.66,1.66,0,0,0,1.13.34,2,2,0,0,0,.84-.14,1.15,1.15,0,0,0,.53-.44,1.21,1.21,0,0,0,.18-.63,1.22,1.22,0,0,0-.15-.63,1.11,1.11,0,0,0-.43-.4,4.17,4.17,0,0,0-.85-.28,2,2,0,0,1-.71-.26.31.31,0,0,1-.12-.24.29.29,0,0,1,.12-.24A.94.94,0,0,1,37.71,48.48Z"/><rect class="cls-2" x="41.46" y="47.89" width="0.79" height="3.92"/><polygon class="cls-2" points="43.76 47.89 42.99 47.89 42.99 51.81 43.72 51.81 43.72 49.24 45.3 51.81 46.08 51.81 46.08 47.89 45.35 47.89 45.35 50.52 43.76 47.89"/><path class="cls-2" d="M48.32,51.21a.84.84,0,0,1-.57-.19,1,1,0,0,1-.27-.57l-.77.08a1.53,1.53,0,0,0,.47,1,1.69,1.69,0,0,0,1.14.34,2.11,2.11,0,0,0,.84-.14,1.18,1.18,0,0,0,.71-1.07,1.14,1.14,0,0,0-.16-.63,1.08,1.08,0,0,0-.42-.4,4.17,4.17,0,0,0-.85-.28,2.14,2.14,0,0,1-.72-.26.31.31,0,0,1-.12-.24.29.29,0,0,1,.13-.24.92.92,0,0,1,.53-.14.77.77,0,0,1,.5.13A.71.71,0,0,1,49,49l.78,0a1.11,1.11,0,0,0-.39-.86,1.59,1.59,0,0,0-1.1-.33,1.94,1.94,0,0,0-.76.14,1,1,0,0,0-.48.39,1,1,0,0,0-.17.56,1.05,1.05,0,0,0,.35.79,2.14,2.14,0,0,0,.88.39l.63.17a.56.56,0,0,1,.28.17.32.32,0,0,1,.08.24.46.46,0,0,1-.19.37A.83.83,0,0,1,48.32,51.21Z"/><polygon class="cls-2" points="52.19 51.81 52.19 48.55 53.33 48.55 53.33 47.89 50.26 47.89 50.26 48.55 51.4 48.55 51.4 51.81 52.19 51.81"/><rect class="cls-2" x="53.83" y="47.89" width="0.78" height="3.92"/><polygon class="cls-2" points="57.01 51.81 57.01 48.55 58.15 48.55 58.15 47.89 55.09 47.89 55.09 48.55 56.23 48.55 56.23 51.81 57.01 51.81"/><path class="cls-2" d="M58.75,51a1.21,1.21,0,0,0,.22.44,1.2,1.2,0,0,0,.45.33,2.08,2.08,0,0,0,.84.13,2,2,0,0,0,.75-.11,1.21,1.21,0,0,0,.46-.33A1.06,1.06,0,0,0,61.7,51a5.66,5.66,0,0,0,.06-1V47.89H61v2.17a3.49,3.49,0,0,1,0,.67.55.55,0,0,1-.2.34.78.78,0,0,1-.5.14.78.78,0,0,1-.51-.15.62.62,0,0,1-.24-.39,4.21,4.21,0,0,1,0-.65V47.89h-.79V50A4.82,4.82,0,0,0,58.75,51Z"/><rect class="cls-2" x="62.57" y="47.89" width="0.79" height="3.92"/><path class="cls-2" d="M66.27,48a3.28,3.28,0,0,0-.74-.07H64.1v3.92h1.48a2.51,2.51,0,0,0,.69-.08,1.44,1.44,0,0,0,.55-.31,1.79,1.79,0,0,0,.42-.7,2.55,2.55,0,0,0,.12-.83,3.06,3.06,0,0,0-.13-.93,1.78,1.78,0,0,0-.37-.63A1.26,1.26,0,0,0,66.27,48Zm.2,2.61a1,1,0,0,1-.21.38.76.76,0,0,1-.31.16,2.51,2.51,0,0,1-.48,0h-.58v-2.6h.35a3.91,3.91,0,0,1,.64,0,.7.7,0,0,1,.36.19.9.9,0,0,1,.23.37,2.54,2.54,0,0,1,.08.7A2.7,2.7,0,0,1,66.47,50.57Z"/><path class="cls-2" d="M69.74,47.82a2,2,0,0,0-.84.16,1.38,1.38,0,0,0-.5.35,2,2,0,0,0-.36.54,2.48,2.48,0,0,0-.18,1,2.06,2.06,0,0,0,.51,1.48,1.8,1.8,0,0,0,1.38.53,1.83,1.83,0,0,0,1.37-.53,2.09,2.09,0,0,0,.51-1.49,2.06,2.06,0,0,0-.52-1.5A1.8,1.8,0,0,0,69.74,47.82Zm.78,3a1,1,0,0,1-1.54,0,1.45,1.45,0,0,1-.31-1,1.51,1.51,0,0,1,.3-1,1.09,1.09,0,0,1,1.56,0,1.52,1.52,0,0,1,.29,1A1.5,1.5,0,0,1,70.52,50.86Z"/><path class="cls-2" d="M73.65,51.21a.8.8,0,0,1-.57-.19,1,1,0,0,1-.27-.57l-.77.08a1.53,1.53,0,0,0,.47,1,1.68,1.68,0,0,0,1.13.34,2.13,2.13,0,0,0,.85-.14A1.08,1.08,0,0,0,75,51.3a1.13,1.13,0,0,0,.19-.63,1.22,1.22,0,0,0-.15-.63,1.14,1.14,0,0,0-.44-.4,4,4,0,0,0-.84-.28,2.14,2.14,0,0,1-.72-.26.31.31,0,0,1-.12-.24.27.27,0,0,1,.13-.24.9.9,0,0,1,.53-.14.79.79,0,0,1,.5.13.71.71,0,0,1,.22.43l.78,0a1.11,1.11,0,0,0-.39-.86,1.61,1.61,0,0,0-1.1-.33,1.94,1.94,0,0,0-.76.14,1.12,1.12,0,0,0-.49.39,1,1,0,0,0-.16.56,1,1,0,0,0,.35.79,2.13,2.13,0,0,0,.89.39l.62.17a.56.56,0,0,1,.28.17.32.32,0,0,1,.08.24.46.46,0,0,1-.19.37A.86.86,0,0,1,73.65,51.21Z"/><polygon class="cls-2" points="80.25 48.55 80.25 47.89 77.37 47.89 77.37 51.81 80.33 51.81 80.33 51.15 78.16 51.15 78.16 50.09 80.1 50.09 80.1 49.42 78.16 49.42 78.16 48.55 80.25 48.55"/><polygon class="cls-2" points="83.3 51.81 84.08 51.81 84.08 47.89 83.35 47.89 83.35 50.52 81.75 47.89 80.99 47.89 80.99 51.81 81.72 51.81 81.72 49.24 83.3 51.81"/><path class="cls-2" d="M89.59,49a1.09,1.09,0,0,0-.17-.62A.86.86,0,0,0,89,48a2.74,2.74,0,0,0-.9-.11H86.42v3.93h.79V50.18h.16a1.24,1.24,0,0,1,.39,0,.69.69,0,0,1,.23.16,4.21,4.21,0,0,1,.42.58l.56.85h.94l-.48-.76a4.4,4.4,0,0,0-.44-.64,1.81,1.81,0,0,0-.42-.33,1.24,1.24,0,0,0,.77-.36A1,1,0,0,0,89.59,49Zm-.89.35a.37.37,0,0,1-.22.16,2.47,2.47,0,0,1-.7,0H87.2v-1h.61a5,5,0,0,1,.57,0,.48.48,0,0,1,.3.15.47.47,0,0,1,.1.32A.48.48,0,0,1,88.7,49.34Z"/><polygon class="cls-2" points="90.34 51.81 93.3 51.81 93.3 51.15 91.13 51.15 91.13 50.09 93.07 50.09 93.07 49.42 91.13 49.42 91.13 48.55 93.22 48.55 93.22 47.89 90.34 47.89 90.34 51.81"/><polygon class="cls-2" points="93.98 47.93 93.98 51.81 96.71 51.81 96.71 51.15 94.77 51.15 94.77 47.93 93.98 47.93"/><path class="cls-2" d="M99.6,50.92l.34.89h.84l-1.56-3.92h-.83l-1.51,3.92h.83l.32-.89Zm-.8-2.12.54,1.46H98.27Z"/><path class="cls-2" d="M102.84,48.5a.79.79,0,0,1,.53.17.8.8,0,0,1,.29.48l.78-.18a1.55,1.55,0,0,0-.4-.73,1.62,1.62,0,0,0-1.16-.42,1.72,1.72,0,0,0-1.32.54,2.17,2.17,0,0,0-.5,1.52,2,2,0,0,0,.5,1.46,1.64,1.64,0,0,0,1.27.54,1.73,1.73,0,0,0,1-.31,1.77,1.77,0,0,0,.58-1l-.76-.24a1.17,1.17,0,0,1-.32.63.8.8,0,0,1-.54.2.85.85,0,0,1-.7-.32,1.7,1.7,0,0,1-.26-1.06,1.54,1.54,0,0,1,.27-1A.87.87,0,0,1,102.84,48.5Z"/><rect class="cls-2" x="105.09" y="47.89" width="0.78" height="3.92"/><path class="cls-2" d="M108.34,47.82a2.06,2.06,0,0,0-.84.16,1.47,1.47,0,0,0-.5.35,2,2,0,0,0-.36.54,2.49,2.49,0,0,0-.17,1,2,2,0,0,0,.51,1.48,1.79,1.79,0,0,0,1.37.53,1.83,1.83,0,0,0,1.37-.53,2.45,2.45,0,0,0,0-3A1.84,1.84,0,0,0,108.34,47.82Zm.78,3a1,1,0,0,1-1.54,0,1.89,1.89,0,0,1,0-2,1.09,1.09,0,0,1,1.56,0,1.52,1.52,0,0,1,.29,1A1.5,1.5,0,0,1,109.12,50.86Z"/><polygon class="cls-2" points="113.21 50.52 111.61 47.89 110.85 47.89 110.85 51.81 111.57 51.81 111.57 49.24 113.15 51.81 113.94 51.81 113.94 47.89 113.21 47.89 113.21 50.52"/><path class="cls-2" d="M117.92,48.5a.82.82,0,0,1,.53.17.91.91,0,0,1,.29.48l.78-.18a1.64,1.64,0,0,0-.4-.73,1.62,1.62,0,0,0-1.16-.42,1.7,1.7,0,0,0-1.32.54,2.13,2.13,0,0,0-.5,1.52,2,2,0,0,0,.49,1.46,1.68,1.68,0,0,0,1.28.54,1.73,1.73,0,0,0,1-.31,1.77,1.77,0,0,0,.58-1l-.76-.24a1.24,1.24,0,0,1-.32.63.88.88,0,0,1-1.24-.12,1.63,1.63,0,0,1-.26-1.06,1.61,1.61,0,0,1,.26-1A.89.89,0,0,1,117.92,48.5Z"/><path class="cls-2" d="M121.91,47.82a2,2,0,0,0-.83.16,1.41,1.41,0,0,0-.51.35,2,2,0,0,0-.36.54,2.68,2.68,0,0,0-.17,1,2,2,0,0,0,.51,1.48,1.79,1.79,0,0,0,1.37.53,1.83,1.83,0,0,0,1.37-.53,2.45,2.45,0,0,0,0-3A1.84,1.84,0,0,0,121.91,47.82Zm.78,3a1,1,0,0,1-1.54,0,1.89,1.89,0,0,1,0-2,1.09,1.09,0,0,1,1.56,0,1.52,1.52,0,0,1,.29,1A1.5,1.5,0,0,1,122.69,50.86Z"/><polygon class="cls-2" points="126.72 51.81 127.5 51.81 127.5 47.89 126.78 47.89 126.78 50.52 125.18 47.89 124.42 47.89 124.42 51.81 125.14 51.81 125.14 49.24 126.72 51.81"/><polygon class="cls-2" points="129.86 51.81 132.59 51.81 132.59 51.15 130.65 51.15 130.65 47.93 129.86 47.93 129.86 51.81"/><path class="cls-2" d="M134.28,47.89l-1.51,3.92h.83l.32-.89h1.56l.34.89h.84l-1.56-3.92Zm-.12,2.37.52-1.46.55,1.46Z"/><path class="cls-2" d="M138.94,50.92h1.57l.33.89h.85l-1.56-3.92h-.83l-1.51,3.92h.83Zm.77-2.12.54,1.46h-1.07Z"/><path class="cls-2" d="M143.9,48.5a.91.91,0,0,1,.56.16.86.86,0,0,1,.31.46l.78-.15a1.42,1.42,0,0,0-.52-.85,1.87,1.87,0,0,0-1.13-.3A2.14,2.14,0,0,0,143,48a1.78,1.78,0,0,0-.75.74,2.4,2.4,0,0,0-.25,1.09,2.31,2.31,0,0,0,.23,1,1.56,1.56,0,0,0,.68.73,2,2,0,0,0,1.06.26,2.62,2.62,0,0,0,.95-.18,2,2,0,0,0,.71-.42V49.71h-1.68v.66h.9v.5a1.94,1.94,0,0,1-.43.24,1.44,1.44,0,0,1-.5.1,1,1,0,0,1-.8-.35,1.53,1.53,0,0,1-.31-1,1.4,1.4,0,0,1,.3-1A1.08,1.08,0,0,1,143.9,48.5Z"/><path class="cls-2" d="M149.5,49a1.18,1.18,0,0,0-.17-.62.86.86,0,0,0-.45-.37,2.78,2.78,0,0,0-.9-.11h-1.65v3.93h.78V50.18h.16a1.36,1.36,0,0,1,.4,0,.69.69,0,0,1,.23.16,4.49,4.49,0,0,1,.41.58l.57.85h.93l-.47-.76a5.39,5.39,0,0,0-.44-.64,2,2,0,0,0-.42-.33,1.21,1.21,0,0,0,.76-.36A1.05,1.05,0,0,0,149.5,49Zm-.89.35a.4.4,0,0,1-.22.16,2.52,2.52,0,0,1-.7,0h-.58v-1h.61a5,5,0,0,1,.57,0,.45.45,0,0,1,.29.15.48.48,0,0,1,.11.32A.56.56,0,0,1,148.61,49.34Z"/><rect class="cls-2" x="150.22" y="47.89" width="0.79" height="3.92"/><path class="cls-2" d="M153.4,48.5a.8.8,0,0,1,.82.65L155,49a1.55,1.55,0,0,0-.4-.73,1.64,1.64,0,0,0-1.16-.42,1.7,1.7,0,0,0-1.32.54,2.13,2.13,0,0,0-.51,1.52,2,2,0,0,0,.51,1.46,1.64,1.64,0,0,0,1.27.54,1.73,1.73,0,0,0,1-.31,1.77,1.77,0,0,0,.58-1l-.76-.24a1.11,1.11,0,0,1-.32.63.82.82,0,0,1-.54.2.85.85,0,0,1-.7-.32,1.63,1.63,0,0,1-.26-1.06,1.61,1.61,0,0,1,.26-1A.9.9,0,0,1,153.4,48.5Z"/><path class="cls-2" d="M155.68,47.89V50a5,5,0,0,0,.07,1,1.21,1.21,0,0,0,.22.44,1.16,1.16,0,0,0,.46.33,2,2,0,0,0,.84.13,2,2,0,0,0,.74-.11,1.21,1.21,0,0,0,.46-.33,1.06,1.06,0,0,0,.23-.49,5.66,5.66,0,0,0,.06-1V47.89H158v2.17a3.49,3.49,0,0,1,0,.67.55.55,0,0,1-.2.34.78.78,0,0,1-.5.14.78.78,0,0,1-.51-.15.62.62,0,0,1-.24-.39,4.21,4.21,0,0,1,0-.65V47.89Z"/><polygon class="cls-2" points="159.62 47.93 159.62 51.81 162.35 51.81 162.35 51.15 160.4 51.15 160.4 47.93 159.62 47.93"/><polygon class="cls-2" points="162.23 48.55 163.38 48.55 163.38 51.81 164.16 51.81 164.16 48.55 165.3 48.55 165.3 47.89 162.23 47.89 162.23 48.55"/><path class="cls-2" d="M165.83,47.89V50a5,5,0,0,0,.07,1,1.21,1.21,0,0,0,.22.44,1.2,1.2,0,0,0,.45.33,2.1,2.1,0,0,0,.85.13,2,2,0,0,0,.74-.11,1.1,1.1,0,0,0,.45-.33,1,1,0,0,0,.24-.49,5.66,5.66,0,0,0,.06-1V47.89h-.78v2.17a3.49,3.49,0,0,1,0,.67.55.55,0,0,1-.2.34.78.78,0,0,1-.5.14.78.78,0,0,1-.51-.15.62.62,0,0,1-.24-.39,4.21,4.21,0,0,1,0-.65V47.89Z"/><path class="cls-2" d="M172.92,49a1.1,1.1,0,0,0-.18-.62.86.86,0,0,0-.45-.37,2.78,2.78,0,0,0-.9-.11h-1.65v3.93h.79V50.18h.16a1.24,1.24,0,0,1,.39,0,.84.84,0,0,1,.24.16,5.84,5.84,0,0,1,.41.58l.56.85h.94l-.48-.76a4.4,4.4,0,0,0-.44-.64,1.81,1.81,0,0,0-.42-.33,1.24,1.24,0,0,0,.77-.36A1.05,1.05,0,0,0,172.92,49Zm-.89.35a.42.42,0,0,1-.23.16,2.47,2.47,0,0,1-.7,0h-.57v-1h.61a5.31,5.31,0,0,1,.57,0,.48.48,0,0,1,.29.15.47.47,0,0,1,.1.32A.56.56,0,0,1,172,49.34Z"/><path class="cls-2" d="M176,50.92l.33.89h.85l-1.57-3.92h-.82l-1.51,3.92h.83l.32-.89Zm-.8-2.12.54,1.46h-1.07Z"/><path class="cls-2" d="M.11,44.06H37.68v-4.2h-10l-.11.1a.23.23,0,0,1-.36-.05s0,0,0,0H25.85a5.51,5.51,0,0,0-.86.82.22.22,0,0,1-.35,0,.45.45,0,0,1-.11-.34.34.34,0,0,1,0-.1s.05-.18.11-.38a1.29,1.29,0,0,1-.62,0h-.7a3.91,3.91,0,0,0-1.09.39.23.23,0,0,1-.33-.14l-.07-.23v0h-.47l-1,.56a9.41,9.41,0,0,1,1.52,1.3.51.51,0,0,1,.11.35h0a.48.48,0,0,1-.14.33l-.61.52a.24.24,0,0,1-.33,0,13.88,13.88,0,0,0-2-1.57,11.64,11.64,0,0,0-1.87,1.54.28.28,0,0,1-.43,0l-.56-.5a.45.45,0,0,1-.13-.35s.09-.31.1-.31a9.24,9.24,0,0,1,1.43-1.31c-.35-.19-.7-.39-1.08-.57h-2a1.1,1.1,0,0,1-.78.25l-1.23-.25H6.29C.58,39.86-.38,44.06.11,44.06Z"/><path class="cls-2" d="M31.5.15H.12v4.2H37.67C38.16,4.35,37.2.15,31.5.15Z"/><path class="cls-2" d="M25.51,16.66A3.71,3.71,0,0,0,28,14.16l-.72-3.81-.71,1.09c0,.05,0,.09,0,.14a4.53,4.53,0,0,1-2.92,4.29l-1.21,1.86h1.67s5,.75,5,5.83-5.74,5.29-5.74,5.29H13.1V17.73h3.13l-.94-1.44H13.1V12.94l-1.7-2.59-.24,1.24V28.53s0,.69-.52.69H9.35v1.4H24.51a7.08,7.08,0,0,0,5.89-3.89l-1.57-8.37A10.57,10.57,0,0,0,25.51,16.66Z"/><path class="cls-2" d="M13.1,7.36h9.07a5.65,5.65,0,0,1,3.41,1.46l.05-.07h2.11C26.2,6.44,22.75,6,22.11,6H9.47V7.41h1s.64.16.64.54v.8H13.1Z"/><polygon class="cls-2" points="18.94 17.73 19.78 17.73 20.72 16.29 18 16.29 18.94 17.73"/><path class="cls-2" d="M8.3,8.75l-.06,1a2,2,0,0,1,.93.54c.41.42.12,1.17.12,1.17L4.9,31.74H3.79v1.61H8.65V31.79a1,1,0,0,1-.88-.37,1,1,0,0,1-.18-.8l3.57-19V8.75Z"/><polygon class="cls-2" points="19.36 18.37 18.94 17.73 16.23 17.73 19.36 22.5 22.48 17.73 19.78 17.73 19.36 18.37"/><path class="cls-2" d="M25.58,8.82l-4.86,7.47h1.69a6.15,6.15,0,0,0,1.29-.42l2.91-4.43A3.74,3.74,0,0,0,25.58,8.82Z"/><polygon class="cls-2" points="13.1 8.75 13.1 12.94 15.29 16.29 18 16.29 13.1 8.75"/><path class="cls-2" d="M30.08,31.85v1.5h4.85V31.74H33.82L29.43,11.42s-.29-.75.12-1.17a2,2,0,0,1,.94-.54l-.06-1H27.74a4.44,4.44,0,0,1,.76,2.56A8.15,8.15,0,0,1,28,14.16l.79,4.2a5.58,5.58,0,0,1,2.36,4.45,9.2,9.2,0,0,1-.79,3.92l.73,3.89a1,1,0,0,1-.18.8A1.17,1.17,0,0,1,30.08,31.85Z"/><path class="cls-2" d="M28.83,18.36l1.57,8.37a9.2,9.2,0,0,0,.79-3.92A5.58,5.58,0,0,0,28.83,18.36Z"/><polygon class="cls-2" points="18 16.29 15.29 16.29 16.23 17.73 18.94 17.73 18 16.29"/><path class="cls-2" d="M13.1,12.94V8.75H11.16v2.84l.24-1.24Z"/><path class="cls-2" d="M25.58,8.82a3.74,3.74,0,0,1,1,2.62l.71-1.09L28,14.16a8.15,8.15,0,0,0,.46-2.85,4.44,4.44,0,0,0-.76-2.56H25.63Z"/><path class="cls-2" d="M20.72,16.29l-.94,1.44h2.71l1.21-1.86a6.15,6.15,0,0,1-1.29.42Z"/><path class="cls-2" d="M22.22,38.08a1,1,0,0,0,.17-.49.7.7,0,0,1-.91.11h0a1.72,1.72,0,0,0-1.36-.26.08.08,0,0,1-.08-.08.14.14,0,0,1,0-.14,1.65,1.65,0,0,1,1.52-.51c.54,0,1.13-.65,1.13-.66h0c.16-.13.3-.14.4,0a.88.88,0,0,1,.16.55c0,.42,0,.87-.06,1.12l.46-.18a12.78,12.78,0,0,0,.74-1.36,2.17,2.17,0,0,1-2-.83.19.19,0,0,1,0-.15s.06-.08.09-.07a2.41,2.41,0,0,0,1.77-.17s.65-.39.79,0a1.39,1.39,0,0,0,.32.45c.05,0,.2.11.19.47a3.57,3.57,0,0,1-.38,1.14c.64-.24,1.14-.4,1.41-.48a5.44,5.44,0,0,0,.63-1,6.38,6.38,0,0,0-1.23-.07s-.47,0-.63-.24a.2.2,0,0,1,0-.09v0c0-.05.05-.08.08-.08a2.55,2.55,0,0,0,1-.3,4.57,4.57,0,0,1,.95-.37c.1,0,.28,0,.39.32,0,0,0,.14.23.22a.39.39,0,0,1,.19.28A1.32,1.32,0,0,1,28,36c.62-.16,1.24-.29,1.85-.39h0a1.15,1.15,0,0,0,.43-.23l-.72,0c-1.17,0-1.44-.69-1.45-.72a.16.16,0,0,1,0-.15.05.05,0,0,1,.09,0c.38.36,1.13.12,1.14.12a4.16,4.16,0,0,1,1.32-.26.53.53,0,0,1,.46.31.68.68,0,0,1,.05.44,1,1,0,0,0,0,.35c.43,0,.84-.09,1.23-.11a1.3,1.3,0,0,0,.41-.77.9.9,0,0,0-.18-.65.22.22,0,0,1,0-.16s.07-.07.1,0a1.18,1.18,0,0,1,.52.77,1.34,1.34,0,0,1,0,.71l.26,0a1.4,1.4,0,0,0,.1-.16.13.13,0,0,0-.06-.07h0v0s0,0,0,0a.12.12,0,0,1,.07.07c.13-.23.23-.47.19-.56a.22.22,0,0,1,0-.16s.07,0,.1,0A.85.85,0,0,1,34,35c.64-.07,1.34,0,1.58.42-.22.45-.9.55-1.55.54a.85.85,0,0,1-.09.81.05.05,0,0,1-.09,0,.2.2,0,0,1,0-.15c.05-.13-.14-.46-.34-.69l-.26,0a1.28,1.28,0,0,1,.13.88,1.25,1.25,0,0,1-.53.74s-.08,0-.1,0a.18.18,0,0,1,0-.16.91.91,0,0,0,.21-.63,1.38,1.38,0,0,0-.48-.83L31.26,36c-.2.61-.76.47-1.18.23l-.57.13a1.45,1.45,0,0,1,.56.34.36.36,0,0,1,.11.21.68.68,0,0,1,0,.15,1.41,1.41,0,0,1-.07.36.68.68,0,0,0,0,.37.3.3,0,0,1,0,.2.42.42,0,0,1-.35.27,6.22,6.22,0,0,0-2.29,1.44s-.06,0-.09,0a.11.11,0,0,1,0-.08.13.13,0,0,1,0-.06,5.29,5.29,0,0,1,1.86-2.19,1.27,1.27,0,0,0-1.36-.56l-.47.15a.46.46,0,0,1,.27.23.73.73,0,0,1,.07.5s0,.64,0,.64.08.52-.21.75c0,0-.27.23-1,.16,0,0-.38,0-1.09.62h.4a1.43,1.43,0,0,1,.68-.34,2.51,2.51,0,0,0,.63,0,.58.58,0,0,0,0,.1s0,0,0,0,0,0,0,.06l.05.14v0h.49a6.49,6.49,0,0,1,2.1-1.31.6.6,0,0,0,.49-.41V37.7l0-.14s.08-.43.08-.43v-.25a.3.3,0,0,0,0-.1.74.74,0,0,0-.08-.15.78.78,0,0,0,1.13-.36,9.76,9.76,0,0,0,1-.13,1,1,0,0,1,.32.56v0a.59.59,0,0,1-.14.37.51.51,0,0,0-.09.3.54.54,0,0,0,0,.19c.08.19.23.26.37.19a1.5,1.5,0,0,0,.65-.92s0-.33,0-.34l0,.08a.55.55,0,0,1,0,.09l.09.3A.24.24,0,0,0,34,37a1.05,1.05,0,0,0,.22-.69.56.56,0,0,1,0-.07c.77,0,1.26-.24,1.47-.67a.4.4,0,0,0,0-.15.34.34,0,0,0,0-.18c-.22-.41-.71-.58-1.5-.54h0A1,1,0,0,0,34,34a.24.24,0,0,0-.37.07l-.07.29,0,.1a1.73,1.73,0,0,1-.08.21,2.23,2.23,0,0,1,0-.26,1.58,1.58,0,0,0-.62-1c-.14-.09-.29,0-.37.15h0l0,.21.08.29a.62.62,0,0,1,.13.37v0a.84.84,0,0,1-.31.54,7.77,7.77,0,0,0-.82.06h-.12v0c0-.07,0-.16,0-.16l-.09-.46a.73.73,0,0,0-.63-.44,4.06,4.06,0,0,0-1.38.26,1.17,1.17,0,0,1-1-.07.23.23,0,0,0-.37.06.43.43,0,0,0,0,.17c-.14-.41-.42-.52-.62-.44a4,4,0,0,0-1,.38,2.56,2.56,0,0,1-.94.28.21.21,0,0,0-.16.08l0,0-.26-.27a1.2,1.2,0,0,0-.81.2,2.12,2.12,0,0,1-1.62.14c-.14,0-.27.06-.33.25l0,.15a.5.5,0,0,0,.11.33,3.07,3.07,0,0,0,.35.28c-.18.18-.63.63-1,.62a1.76,1.76,0,0,0-1.67.59.52.52,0,0,0-.07.46.29.29,0,0,0,.3.24,1.65,1.65,0,0,1,1.21.22,1.06,1.06,0,0,0,.33.12,30.05,30.05,0,0,0-2.75,1.44l.25.15A30.11,30.11,0,0,1,22.22,38.08Zm1.24-1.78a2,2,0,0,0,.55.12c-.18.35-.36.64-.45.78l-.12.06c0-.3,0-.7,0-.7v0S23.47,36.41,23.46,36.3Zm3-.09a.12.12,0,0,1,.11,0s0,0,0,0A.24.24,0,0,0,26.43,36.21Zm-.73-.56a1.13,1.13,0,0,0,.23,0l.81.06a4.16,4.16,0,0,1-.33.47c-.15,0-.42.12-.87.27a3.07,3.07,0,0,0,.18-.69v0S25.7,35.69,25.7,35.65Zm2.66-.35a1.53,1.53,0,0,0,.48.23l-.53.11A1.4,1.4,0,0,0,28.36,35.3Zm-.46,1.79a1.07,1.07,0,0,1,1,.26,6,6,0,0,0-.92.9c0-.1,0-.55,0-.56l0-.18a1,1,0,0,0-.1-.4Zm3.4-.82a0,0,0,0,1,0,0h0Zm2.23-1.84v0a.11.11,0,0,1,0,.05v-.05s0,0,0,0Zm-1.12.6s0,0,0,0l-.13,0S32.38,35,32.41,35Z"/><path class="cls-2" d="M22.07,39.79a2.52,2.52,0,0,1,1.76-1.13h0a.9.9,0,0,0,.3,0,.36.36,0,0,0-.4-.3c-.45.21-1.62.8-2.9,1.55h.54l.6-.33,0,0-.07.23s0,0,0,0h.22A.15.15,0,0,1,22.07,39.79Z"/><path class="cls-2" d="M21.93,39.59h0S21.93,39.58,21.93,39.59Z"/><path class="cls-2" d="M26.46,38.07a3,3,0,0,0-1.33-.2l.07.1a.46.46,0,0,1,.05.34,2.27,2.27,0,0,0,0,.46.68.68,0,0,1-.29.68,1,1,0,0,1-.85.13,2.69,2.69,0,0,0-1.66.28h.92a1.68,1.68,0,0,1,.67,0h.88A3.58,3.58,0,0,1,26.46,38.07Zm-1,.08.43.05a4.48,4.48,0,0,0-.45.41c0-.11,0-.25,0-.25v-.13A.29.29,0,0,1,25.45,38.15Z"/><path class="cls-2" d="M33.47,34.88a.13.13,0,0,1,.06.07h0A.12.12,0,0,0,33.47,34.88Z"/><path class="cls-2" d="M21.93,39.59l0,0Z"/><path class="cls-2" d="M33.54,34.48v.05A.11.11,0,0,0,33.54,34.48Z"/><path class="cls-2" d="M17,42.65c-.1.1-.16,0-.19,0l-.56-.49a.15.15,0,0,1,0-.1h0a.17.17,0,0,1,0-.1,9,9,0,0,1,1.54-1.38l-.24-.14a9.24,9.24,0,0,0-1.43,1.31s-.1.31-.1.31a.45.45,0,0,0,.13.35l.56.5a.28.28,0,0,0,.43,0A11.64,11.64,0,0,1,19,41.33l-.23-.16A10.77,10.77,0,0,0,17,42.65Z"/><path class="cls-2" d="M27.23,39.91a.23.23,0,0,0,.36.05l.11-.1h-.49S27.22,39.89,27.23,39.91Z"/><path class="cls-2" d="M22.16,40s-.07,0-.1,0v-.07h-.22v0l.07.23a.23.23,0,0,0,.33.14,3.91,3.91,0,0,1,1.09-.39h-.92A1.92,1.92,0,0,0,22.16,40Z"/><path class="cls-2" d="M24.86,40.46a.06.06,0,0,1-.1,0,.2.2,0,0,1,0-.11v0a2.75,2.75,0,0,1,.15-.47H24a1.29,1.29,0,0,0,.62,0c-.06.2-.11.35-.11.38a.34.34,0,0,0,0,.1.45.45,0,0,0,.11.34.22.22,0,0,0,.35,0,5.51,5.51,0,0,1,.86-.82h-.4A6.79,6.79,0,0,0,24.86,40.46Z"/><path class="cls-2" d="M20.17,40.26l.24.16,1-.56h-.54Z"/><path class="cls-2" d="M27,38s1-.44-.11-.54c0,0,.76.17-.12.5l-.19.08a3.2,3.2,0,0,0-1.89-.22l-.22.09c.8-.13.71.39.71.39a2.5,2.5,0,0,0-.05.52.55.55,0,0,1-.25.55.91.91,0,0,1-.79.12,3.08,3.08,0,0,0-1.94.4h.26a2.69,2.69,0,0,1,1.66-.28,1,1,0,0,0,.85-.13.68.68,0,0,0,.29-.68,2.27,2.27,0,0,1,0-.46A.46.46,0,0,0,25.2,38l-.07-.1a3,3,0,0,1,1.33.2,3.58,3.58,0,0,0-1.58,1.79H25A3.4,3.4,0,0,1,27,38Z"/><path class="cls-2" d="M33.54,35h0Z"/><path class="cls-2" d="M22.18,38.22l1-.41c.19-.09.39-.16.58-.24.15-.25,1.46-2.38.93-2.46,0,0,.17.22-.2.87a2,2,0,0,1-2-.79A2.4,2.4,0,0,0,24.25,35s.59-.32.71,0a1,1,0,0,0,.33.47s.45,0-.28,1.53l-.4.21-.17.08h0L24,37.5s.84-.34,1.08-.42c.72-.27,1.27-.45,1.55-.54s1.25-1.7.75-1.9c0,0,.19.21-.13.73a5.33,5.33,0,0,0-1.27-.1s-.43,0-.57-.2a2.71,2.71,0,0,0,1-.3,3.74,3.74,0,0,1,.93-.36s.2-.11.3.24c0,0,0,.17.29.29,0,0,.36.18-.07,1.09l-.44.15s-.12.13-.19.08a3,3,0,0,0-.46.24,22.67,22.67,0,0,1,3.07-.78h0c1.25-.5.88-1,.88-1a.53.53,0,0,1-.35.51l-.84-.05c-1.14,0-1.38-.66-1.38-.66.41.38,1.2.13,1.2.13a4.15,4.15,0,0,1,1.29-.26.49.49,0,0,1,.45.6.88.88,0,0,0,0,.51c.46-.06.9-.1,1.31-.12a1.2,1.2,0,0,0,.26-1.63A1.15,1.15,0,0,1,33,35.33l.47-.1c.06-.07.45-.63.34-.91,0,0,.25.24,0,.81a.1.1,0,0,1,0,0c.65-.09,1.34-.08,1.61.27-.26.36-.94.44-1.59.41h0a.82.82,0,0,1,0,.83c.1-.3-.34-.82-.39-.87L33,35.75a1.1,1.1,0,0,1-.21,1.65,1.23,1.23,0,0,0-.29-1.66c-1,.15-2.2.34-3.34.61a2.61,2.61,0,0,1,.89.47s.19.13,0,.56a.9.9,0,0,0,0,.48s.07.21-.29.3a6.11,6.11,0,0,0-2.31,1.46,5,5,0,0,1,1.89-2.17l.39-.22s.4-.17,0-.44c.22.21,0,.3,0,.29l-.4.21a1.38,1.38,0,0,0-1.43-.59c-.06,0-.51.15-.86.27a13.31,13.31,0,0,0-1.43.58,10,10,0,0,1,1.55-.49.47.47,0,0,1,.5.62,2.7,2.7,0,0,0,0,.68.66.66,0,0,1-.17.61s-.19.22-.94.14c0,0-.42,0-1.25.75h.15c.71-.64,1.09-.62,1.09-.62.73.07,1-.13,1-.16.29-.23.21-.72.21-.75s0-.63,0-.64a.73.73,0,0,0-.07-.5.46.46,0,0,0-.27-.23l.47-.15a1.27,1.27,0,0,1,1.36.56,5.29,5.29,0,0,0-1.86,2.19.13.13,0,0,0,0,.06.11.11,0,0,0,0,.08s.06,0,.09,0a6.22,6.22,0,0,1,2.29-1.44.42.42,0,0,0,.35-.27.3.3,0,0,0,0-.2.68.68,0,0,1,0-.37,1.41,1.41,0,0,0,.07-.36.68.68,0,0,0,0-.15.36.36,0,0,0-.11-.21,1.45,1.45,0,0,0-.56-.34l.57-.13c.42.24,1,.38,1.18-.23l1.17-.18a1.38,1.38,0,0,1,.48.83.91.91,0,0,1-.21.63.18.18,0,0,0,0,.16s.06.07.1,0a1.25,1.25,0,0,0,.53-.74,1.28,1.28,0,0,0-.13-.88l.26,0c.2.23.39.56.34.69a.2.2,0,0,0,0,.15.05.05,0,0,0,.09,0A.85.85,0,0,0,34,36c.65,0,1.33-.09,1.55-.54C35.31,35,34.61,35,34,35a.85.85,0,0,0-.13-.8s-.07,0-.1,0a.22.22,0,0,0,0,.16c0,.09-.06.33-.19.56h0a1.4,1.4,0,0,1-.1.16l-.26,0a1.34,1.34,0,0,0,0-.71,1.18,1.18,0,0,0-.52-.77s-.07,0-.1,0a.22.22,0,0,0,0,.16.9.9,0,0,1,.18.65,1.3,1.3,0,0,1-.41.77c-.39,0-.8.06-1.23.11a1,1,0,0,1,0-.35.68.68,0,0,0-.05-.44.53.53,0,0,0-.46-.31,4.16,4.16,0,0,0-1.32.26s-.76.24-1.14-.12a.05.05,0,0,0-.09,0,.16.16,0,0,0,0,.15s.28.74,1.45.72l.72,0a1.15,1.15,0,0,1-.43.23h0c-.61.1-1.23.23-1.85.39a1.32,1.32,0,0,0,.18-.9.39.39,0,0,0-.19-.28c-.2-.08-.23-.21-.23-.22-.11-.34-.29-.36-.39-.32a4.57,4.57,0,0,0-.95.37,2.55,2.55,0,0,1-1,.3s-.06,0-.08.08v0a.2.2,0,0,0,0,.09c.16.25.64.24.63.24a6.38,6.38,0,0,1,1.23.07,5.44,5.44,0,0,1-.63,1c-.27.08-.77.24-1.41.48a3.57,3.57,0,0,0,.38-1.14c0-.36-.14-.44-.19-.47a1.39,1.39,0,0,1-.32-.45c-.14-.35-.79,0-.79,0a2.41,2.41,0,0,1-1.77.17s-.07,0-.09.07a.19.19,0,0,0,0,.15,2.17,2.17,0,0,0,2,.83,12.78,12.78,0,0,1-.74,1.36l-.46.18c0-.25.06-.7.06-1.12a.88.88,0,0,0-.16-.55c-.1-.1-.24-.09-.4,0h0s-.59.67-1.13.66a1.65,1.65,0,0,0-1.52.51.14.14,0,0,0,0,.14.08.08,0,0,0,.08.08,1.72,1.72,0,0,1,1.36.26h0a.7.7,0,0,0,.91-.11,1,1,0,0,1-.17.49,30.11,30.11,0,0,0-3,1.56l.11.06A29.19,29.19,0,0,1,22.18,38.22Zm8-2c.17,0,.71-.12,1-.18C31,36.47,30.6,36.38,30.2,36.21Zm-5.87.2h0Zm-1.86,1.14c.49-.71.52-.27.52-.27.06-.58-.38-.05-.38-.05-.61.75-1.1.36-1.1.36a1.78,1.78,0,0,0-1.4-.28,1.58,1.58,0,0,1,1.45-.49c.58,0,1.19-.68,1.19-.68.45-.35.44.4.44.4,0,.45-.05.93-.07,1.16l-.76.32A.68.68,0,0,0,22.47,37.55Z"/><path class="cls-2" d="M23.84,38.79c1.11,0,1.17-.6.6-.75,0,0,.65.35-.22.55a.47.47,0,0,0-.5-.41s-1.48.7-3.14,1.68h.25c1.28-.75,2.45-1.34,2.9-1.55a.36.36,0,0,1,.4.3.9.9,0,0,1-.3,0h0a2.52,2.52,0,0,0-1.76,1.13.15.15,0,0,0,0,.07h.08A2.42,2.42,0,0,1,23.84,38.79Z"/><path class="cls-2" d="M24.82,40.36a2.5,2.5,0,0,1,.17-.5h-.11a2.75,2.75,0,0,0-.15.47v0a.2.2,0,0,0,0,.11.06.06,0,0,0,.1,0,6.79,6.79,0,0,1,.59-.6H25.3A5.89,5.89,0,0,0,24.82,40.36Z"/><path class="cls-2" d="M20.05,40.18l.12.08.66-.4h-.25Z"/><path class="cls-2" d="M22.13,39.87h-.07v.07s.07.06.1,0a1.92,1.92,0,0,1,.25-.12h-.28Z"/><path class="cls-2" d="M16.9,42.55l-.61-.5a9.35,9.35,0,0,1,1.6-1.42l-.11-.06A9,9,0,0,0,16.24,42a.17.17,0,0,0,0,.1h0a.15.15,0,0,0,0,.1l.56.49s.09.1.19,0a10.77,10.77,0,0,1,1.77-1.48l-.11-.08A11.76,11.76,0,0,0,16.9,42.55Z"/><path class="cls-2" d="M26.69,38.62a2.22,2.22,0,0,0-1.33,1,2.43,2.43,0,0,1,1.37-.85s1-.16.78-.74C27.51,38,27.62,38.4,26.69,38.62Z"/><path class="cls-2" d="M28.11,38.84a3.2,3.2,0,0,1,1.08-.76,4.58,4.58,0,0,0,.75-.42.49.49,0,0,1,0-.14,6.55,6.55,0,0,1-.82.45A2.87,2.87,0,0,0,28.11,38.84Z"/><path class="cls-2" d="M25,38.74h0A0,0,0,0,0,25,38.74Z"/><path class="cls-2" d="M24,39a2.57,2.57,0,0,0-1.23.35,2.6,2.6,0,0,1,1.41-.25s.76,0,.88-.4C25,38.82,24.78,39.09,24,39Z"/><path class="cls-2" d="M27.41,36.18l-.19.08C27.29,36.31,27.38,36.21,27.41,36.18Z"/><path class="cls-2" d="M27.7,34.87c.16.47-.48,1.39-.48,1.39h0l.19-.08h0C28,35.11,27.7,34.87,27.7,34.87Z"/><path class="cls-2" d="M24.44,37.25l.17-.08-.17.08Z"/><path class="cls-2" d="M25.08,35.38c0,.11.08.54-.64,1.87l.17-.08,0,0S25.32,35.77,25.08,35.38Z"/><path class="cls-2" d="M25.08,35.38a.06.06,0,0,0,0,0A.06.06,0,0,1,25.08,35.38Z"/><path class="cls-2" d="M21.68,37.06a1.38,1.38,0,0,0-1,0,1.5,1.5,0,0,1,1,.16s.38.24,1-.67C22.73,36.58,22.14,37.28,21.68,37.06Z"/><path class="cls-2" d="M19.68,39.86A28.2,28.2,0,0,1,23,38.15a25,25,0,0,0-3.5,1.66l.07,0Z"/><path class="cls-2" d="M16.7,41.86l.14.12a13.14,13.14,0,0,1,1.39-1.16l-.17-.1A11.88,11.88,0,0,0,16.7,41.86Z"/><path class="cls-2" d="M19.62,39.9l.06,0h-.13Z"/><path class="cls-2" d="M29.91,34.76a4.44,4.44,0,0,1-1.1.19,2.32,2.32,0,0,0,1.08-.09s.65-.14.72,0C30.57,34.58,29.91,34.76,29.91,34.76Z"/><path class="cls-2" d="M33,34.15v0A0,0,0,0,0,33,34.15Z"/><path class="cls-2" d="M33,34.15a1.45,1.45,0,0,1-.2,1.21h.08A1.4,1.4,0,0,0,33,34.15Z"/><path class="cls-2" d="M32.77,35.81a1.35,1.35,0,0,1,.3,1.15,1.31,1.31,0,0,0-.22-1.16Z"/><path class="cls-2" d="M33.07,37a.06.06,0,0,0,0,0Z"/><path class="cls-2" d="M33.85,34.49a1,1,0,0,1-.23.71h.08A.83.83,0,0,0,33.85,34.49Z"/><path class="cls-2" d="M33.91,36.45a.71.71,0,0,0-.22-.63h-.08A.82.82,0,0,1,33.91,36.45Z"/><path class="cls-2" d="M15,39.19c.51.21,1,.44,1.44.67h.65c-.74-.39-1.48-.73-2.15-1-.56,1.12-1.24,1-1.26,1l-1.41-.29a.13.13,0,0,1-.06-.13c0-.06,0-.11.07-.11a1.72,1.72,0,0,0,1.24-1l-.38-.13a1.66,1.66,0,0,1-1.5,1h0l-1.32-.3a.13.13,0,0,1-.07-.12c0-.07,0-.12.08-.12a1.86,1.86,0,0,0,1.32-.89l-.19-.05h0l-.1,0c-.17.25-.77,1.1-1.62.77L8.69,38a.11.11,0,0,1-.06-.13c0-.07,0-.11.08-.11a1.89,1.89,0,0,0,1.34-.56l-.41-.1a1.61,1.61,0,0,1-1.39.7h0L7,37.54s-.07-.06-.07-.13A.12.12,0,0,1,7,37.29a2.16,2.16,0,0,0,1.12-.5l-.32-.06c-.16.19-.87.87-2.63.62,0,0-.08-.06-.08-.12s0-.12.08-.13a2.11,2.11,0,0,0,1.38-.55l-.36,0a4,4,0,0,1-2.48.57A.13.13,0,0,1,3.59,37c0-.07,0-.12.07-.13a2.14,2.14,0,0,0,1-.48c-1.25-.11-2.13-.13-2.15-.13s-.05,0-.06-.07a.13.13,0,0,1,0-.12c0-.07,0-.07.84-.11.33,0,.81,0,1.39,0a2.34,2.34,0,0,0-1-.6s-.07-.07-.07-.13,0-.11.08-.11a4.2,4.2,0,0,1,2.46.88l.34,0A2.5,2.5,0,0,0,5.21,35s-.07-.08-.07-.14,0-.12.09-.11a3.16,3.16,0,0,1,2.53,1.28l.34.05A3,3,0,0,0,7,35.19a.13.13,0,0,1,0-.14A.09.09,0,0,1,7,35l1.3.16h0a2.14,2.14,0,0,1,1.25,1.22c.12,0,.37.1.5.12a3.17,3.17,0,0,0-1.26-1.23.14.14,0,0,1,0-.14c0-.06,0-.1.09-.09l1.09.16c.86.1,1.26,1.24,1.37,1.61l.32.08a2.83,2.83,0,0,0-1-1.53.17.17,0,0,1,0-.16c0-.06.06-.09.1-.07l1.29.5h0a2.79,2.79,0,0,1,1.17,1.72l.42.14a2.72,2.72,0,0,0-.86-1.63.14.14,0,0,1,0-.15c0-.06,0-.1.09-.08l1.35.6s.77.34.92,1.85a29.49,29.49,0,0,1,3.57,1.62l.26-.17a30.67,30.67,0,0,0-3.65-1.69c-.21-1.48-.94-1.86-1-1.89l-1.36-.6c-.15-.06-.31,0-.36.26a.35.35,0,0,0,0,.07,2.16,2.16,0,0,0-.4-.32l-1.32-.51c-.15-.06-.3,0-.36.24a1.16,1.16,0,0,0-.44-.19L8.91,34.7c-.12,0-.23.09-.29.24l-.21-.11-1.36-.17c-.13,0-.23.09-.28.25a4.71,4.71,0,0,0-1.53-.43c-.15,0-.29.13-.31.35,0,0,0,.05,0,.06a.08.08,0,0,0,0,0,4,4,0,0,0-1.22-.2c-.15,0-.28.17-.29.38h0c0,.22.09.4.23.44l.11,0H3.33c-.93.05-.93.05-1,.25,0,0-.05.23-.05.23l0,.18a.3.3,0,0,0,.26.23l1,.07a.41.41,0,0,0-.2.38c0,.22.11.39.26.41a3.52,3.52,0,0,0,1.2-.09c0,.19.12.35.26.36a4,4,0,0,0,1.6-.07c0,.13.11.24.21.25l1.3.3.25,0a.34.34,0,0,0,.18.22l1.06.4a1.72,1.72,0,0,0,.37.07.38.38,0,0,0,.23.38l1.32.3a1.63,1.63,0,0,0,.39,0c0,.19.11.37.25.39l.17,0h2A2.1,2.1,0,0,0,15,39.19ZM6.86,37.55h0Z"/><path class="cls-2" d="M17.11,39.86h-.65c.38.18.73.38,1.08.57l.26-.19Z"/><path class="cls-2" d="M21.79,42a.15.15,0,0,1,0,.1.13.13,0,0,1,0,.1l-.61.52a.06.06,0,0,1-.09,0,13.38,13.38,0,0,0-1.84-1.5l-.25.17a13.88,13.88,0,0,1,2,1.57.24.24,0,0,0,.33,0l.61-.52a.48.48,0,0,0,.14-.33h0a.51.51,0,0,0-.11-.35,9.41,9.41,0,0,0-1.52-1.3l-.25.16A9,9,0,0,1,21.79,42Z"/><path class="cls-2" d="M14.44,39.86h-2l1.23.25A1.1,1.1,0,0,0,14.44,39.86Z"/><path class="cls-2" d="M18.92,39.8a2.26,2.26,0,0,1,.26-.16l-.25-.15-.26.17Z"/><path class="cls-2" d="M19,41l-.25.18.23.16.25-.17Z"/><path class="cls-2" d="M18,40.38l-.24-.14-.26.19.24.14Z"/><path class="cls-2" d="M19.92,40.41l.24.17.25-.16-.24-.16Z"/><path class="cls-2" d="M19,39.86l.26-.16-.11-.06a2.26,2.26,0,0,0-.26.16l.1.06Z"/><path class="cls-2" d="M18.66,41.09l.11.08L19,41l-.11-.07A2.2,2.2,0,0,0,18.66,41.09Z"/><polygon class="cls-2" points="19.03 39.86 19.02 39.86 19.02 39.86 19.03 39.86"/><path class="cls-2" d="M18.14,40.44l-.1-.06-.26.19.11.06Z"/><path class="cls-2" d="M19.8,40.33l.12.08.25-.15-.12-.08Z"/><path class="cls-2" d="M19.48,39.81l-.19-.11-.26.16h.37Z"/><path class="cls-2" d="M19.36,40.06l.44.27.25-.15-.43-.28Z"/><path class="cls-2" d="M18.23,40.82l.43.27a2.2,2.2,0,0,1,.25-.17c-.14-.1-.29-.18-.43-.27Z"/><path class="cls-2" d="M19.21,40l.19-.11H19Z"/><path class="cls-2" d="M18.32,40.54l-.18-.1-.25.19.17.09Z"/><path class="cls-2" d="M19.48,39.81l-.08,0h.15Z"/><path class="cls-2" d="M18.06,40.72l.17.1.25-.17-.16-.11Z"/><path class="cls-2" d="M19.62,39.9l-.07,0H19.4l-.19.11.15.09Z"/><path class="cls-2" d="M10.72,35.2l1.29.51a2.63,2.63,0,0,1,1.1,1.57l.1,0A2.79,2.79,0,0,0,12,35.59h0l-1.29-.5s-.09,0-.1.07a.17.17,0,0,0,0,.16,2.83,2.83,0,0,1,1,1.53l.1,0A3.13,3.13,0,0,0,10.72,35.2Z"/><path class="cls-2" d="M15,38.72h0l0,.12-.08,0c-.53,1-1.17.88-1.17.88l-1.39-.28a1.85,1.85,0,0,0,1.36-1.18l-.55-.18a1.58,1.58,0,0,1-1.45,1l-1.32-.3a1.93,1.93,0,0,0,1.47-1.1l-.48-.15c-.13.22-.73,1.14-1.56.8l-1.07-.4a1.94,1.94,0,0,0,1.52-.76c-.2,0-.41-.11-.62-.15a1.53,1.53,0,0,1-1.35.71L7,37.41s1-.15,1.29-.71l-.53-.1c0,.08-.71.9-2.59.63,0,0,1.23-.07,1.55-.78l-.55-.07A3.9,3.9,0,0,1,3.67,37s1-.19,1.23-.71c-1.37-.12-2.33-.15-2.33-.15A22.59,22.59,0,0,1,4.9,36c-.19-.53-1.18-.84-1.18-.84A4,4,0,0,1,6.09,36a5.41,5.41,0,0,1,.56,0c-.3-.73-1.43-1.11-1.43-1.11a3.17,3.17,0,0,1,2.44,1.19h0l.06.09.49,0C8,35.58,7,35.08,7,35.08l1.31.15a2,2,0,0,1,1.18,1.14l.72.14a3.23,3.23,0,0,0-1.36-1.39l1.09.16c.76.1,1.15,1,1.29,1.46l.09,0c-.11-.37-.51-1.51-1.37-1.61L8.89,35s-.08,0-.09.09a.14.14,0,0,0,0,.14,3.17,3.17,0,0,1,1.26,1.23c-.13,0-.38-.09-.5-.12a2.14,2.14,0,0,0-1.25-1.22h0L7,35a.09.09,0,0,0-.09.1.13.13,0,0,0,0,.14,3,3,0,0,1,1.1.91l-.34-.05a3.16,3.16,0,0,0-2.53-1.28c-.05,0-.08,0-.09.11s0,.13.07.14a2.5,2.5,0,0,1,1.31.92l-.34,0A4.2,4.2,0,0,0,3.72,35s-.07.05-.08.11,0,.12.07.13a2.34,2.34,0,0,1,1,.6c-.58,0-1.06,0-1.39,0-.81,0-.81,0-.84.11a.13.13,0,0,0,0,.12s0,.07.06.07.9,0,2.15.13a2.14,2.14,0,0,1-1,.48s-.07.06-.07.13a.13.13,0,0,0,.07.12,4,4,0,0,0,2.48-.57l.36,0a2.11,2.11,0,0,1-1.38.55s-.07.06-.08.13,0,.12.08.12c1.76.25,2.47-.43,2.63-.62l.32.06a2.16,2.16,0,0,1-1.12.5.12.12,0,0,0-.07.12c0,.07,0,.12.07.13l1.3.28h0a1.61,1.61,0,0,0,1.39-.7l.41.1a1.89,1.89,0,0,1-1.34.56s-.07,0-.08.11a.11.11,0,0,0,.06.13l1.07.4c.85.33,1.45-.52,1.62-.77l.1,0h0l.19.05a1.86,1.86,0,0,1-1.32.89s-.08,0-.08.12a.13.13,0,0,0,.07.12l1.32.3h0a1.66,1.66,0,0,0,1.5-1l.38.13a1.72,1.72,0,0,1-1.24,1s-.07.05-.07.11a.13.13,0,0,0,.06.13l1.41.29s.7.15,1.26-1c.67.28,1.41.62,2.15,1h.26A25.75,25.75,0,0,0,15,38.72Z"/><path class="cls-2" d="M12.81,35.71l1.35.59s.69.31.86,1.71h0l0,.13-.05,0h0a31.18,31.18,0,0,1,3.53,1.6.41.41,0,0,1,.11-.07A29.49,29.49,0,0,0,15.1,38c-.15-1.51-.89-1.84-.92-1.85l-1.35-.6s-.09,0-.09.08a.14.14,0,0,0,0,.15,2.72,2.72,0,0,1,.86,1.63l.09,0A2.92,2.92,0,0,0,12.81,35.71Z"/><path class="cls-2" d="M17.91,40.16l-.54-.3h-.26l.69.38Z"/><path class="cls-2" d="M21.74,42.05l-.6.51a13.9,13.9,0,0,0-1.78-1.47l-.11.07a13.38,13.38,0,0,1,1.84,1.5.06.06,0,0,0,.09,0l.61-.52a.13.13,0,0,0,0-.1.15.15,0,0,0,0-.1,9,9,0,0,0-1.63-1.37l-.1.06A9.56,9.56,0,0,1,21.74,42.05Z"/><path class="cls-2" d="M18.79,39.86h0l.1-.06-.25-.14a.41.41,0,0,0-.11.07Z"/><path class="cls-2" d="M20.06,40.64l.1-.06-.24-.17-.11.07Z"/><path class="cls-2" d="M17.91,40.16l-.11.08.24.14.11-.08Z"/><path class="cls-2" d="M18.82,39.86h0Z"/><path class="cls-2" d="M19.12,40.93,19,41l.23.17.11-.07Z"/><path class="cls-2" d="M19,39.86l-.1-.06-.1.06Z"/><path class="cls-2" d="M18.91,39.93l.11-.07h-.21Z"/><path class="cls-2" d="M19,40.85l-.1.07L19,41l.1-.06Z"/><path class="cls-2" d="M18.25,40.36l-.1-.06-.11.08.1.06Z"/><path class="cls-2" d="M19.7,40.4l.11.08.11-.07-.12-.08Z"/><path class="cls-2" d="M19.25,40.13l.45.27.1-.07-.44-.27Z"/><path class="cls-2" d="M18.48,40.65c.14.09.29.17.43.27l.1-.07-.43-.28Z"/><path class="cls-2" d="M19.21,40,19,39.86l-.11.07a1.18,1.18,0,0,1,.19.11Z"/><path class="cls-2" d="M18.42,40.47l-.17-.11-.11.08.18.1Z"/><path class="cls-2" d="M18.32,40.54l.16.11.1-.08-.16-.1Z"/><path class="cls-2" d="M19.25,40.13l.11-.07L19.21,40,19.1,40Z"/><path class="cls-2" d="M15.08,38.15l0-.13h0s0,.08,0,.12Z"/><path class="cls-2" d="M18.41,39.82a24.18,24.18,0,0,0-3.26-1.49,26.84,26.84,0,0,1,3.06,1.53h.14Z"/><path class="cls-2" d="M21.31,42.09l.14-.11a10.62,10.62,0,0,0-1.54-1.25l-.16.1A13,13,0,0,1,21.31,42.09Z"/><path class="cls-2" d="M18.21,39.86l.08,0,.06,0Z"/><path class="cls-2" d="M18.49,39.86l-.08,0-.06,0Z"/><path class="cls-2" d="M19.75,40.83l.16-.1-.24-.16-.16.1Z"/><path class="cls-2" d="M18.49,39.86h-.14l-.06,0,.24.15.14-.09Z"/><path class="cls-2" d="M18.77,40l-.1-.06-.14.09.11.06Z"/><path class="cls-2" d="M19.51,40.67l.16-.1-.12-.08-.15.1Z"/><path class="cls-2" d="M19.4,40.59l.15-.1-.44-.27-.14.09Z"/><path class="cls-2" d="M18.77,40l-.13.09.17.11.15-.09Z"/><path class="cls-2" d="M18.81,40.22l.16.09.14-.09L19,40.13Z"/><path class="cls-2" d="M14.87,38.81l.08,0,0-.12h-.05Z"/><path class="cls-2" d="M14.16,38.42v0l.22.08,0,.06.51.27.06-.1h0c-.14-.06-.82-.38-1.07-.48Z"/><path class="cls-2" d="M13.64,37.5a.07.07,0,0,1,0,0l-.42-.14a.43.43,0,0,0,0,0Z"/><path class="cls-2" d="M11.67,36.87v0l-.32-.08v0Z"/><path class="cls-2" d="M13.16,37.46l.57.2s0-.07,0-.18l-.09,0a.07.07,0,0,0,0,0l-.42-.14a.43.43,0,0,1,0,0l-.1,0C13.14,37.36,13.15,37.43,13.16,37.46Z"/><path class="cls-2" d="M11.3,36.9l.51.15c0-.06,0-.12,0-.17l-.1,0v0l-.31-.08v0l-.09,0A.9.9,0,0,1,11.3,36.9Z"/><path class="cls-2" d="M8.28,36.26s0,0,0-.06l-.49,0h0Z"/><path class="cls-2" d="M10.31,36.65s-.05-.09-.07-.14l-.72-.14a.23.23,0,0,1,0,.09C9.75,36.5,10.11,36.61,10.31,36.65Z"/><path class="cls-2" d="M7.78,36.18h0a35.89,35.89,0,0,1,7.14,1.92h0c-.3-.12-.91-.36-1.06-.4a8.66,8.66,0,0,1,1.05.28.12.12,0,0,0,0,0c-.41-.16-.8-.31-1.18-.44,0,.11,0,.18,0,.18l-.57-.2s0-.1-.05-.18l-.53-.17h0l-.13,0-.68-.19s0,.11,0,.17l-.51-.15a.9.9,0,0,0,0-.16l-.44-.1-.13,0h0l-.45-.1c0,.05,0,.09.07.14-.2,0-.56-.15-.75-.19a.23.23,0,0,0,0-.09L9,36.29H8.89l-.63-.08s0,0,0,.06Z"/><path class="cls-2" d="M13.86,37.69c.15,0,.76.28,1.06.4a.49.49,0,0,0,0-.12A8.66,8.66,0,0,0,13.86,37.69Z"/><path class="cls-2" d="M13.67,36.24a1.64,1.64,0,0,1,.6,1.44l.22.07A1.8,1.8,0,0,0,13.67,36.24Z"/><path class="cls-2" d="M13.19,39.24a1,1,0,0,0,1.17-.7l-.2-.12A1,1,0,0,1,13.19,39.24Z"/><path class="cls-2" d="M14.16,38.4v0l.2.12,0-.06Z"/><path class="cls-2" d="M11.6,35.73l0,0Z"/><path class="cls-2" d="M11.6,35.73a1.84,1.84,0,0,1,.77,1.32l.08,0,.13,0A1.91,1.91,0,0,0,11.6,35.73Z"/><path class="cls-2" d="M12.58,37.12h0l-.13,0Z"/><path class="cls-2" d="M11.32,38.61A1.22,1.22,0,0,0,12.59,38l-.21-.07A1.16,1.16,0,0,1,11.32,38.61Z"/><path class="cls-2" d="M11.32,38.61h0Z"/><path class="cls-2" d="M9.74,35.39l-.05,0Z"/><path class="cls-2" d="M9.74,35.39a1.7,1.7,0,0,1,.95,1.22l.13,0,.1,0A1.93,1.93,0,0,0,9.74,35.39Z"/><path class="cls-2" d="M10.69,36.61l.13,0-.13,0Z"/><path class="cls-2" d="M9.56,38h0Z"/><path class="cls-2" d="M9.56,38A1.33,1.33,0,0,0,11,37.42l-.23-.07A1.18,1.18,0,0,1,9.56,38Z"/><path class="cls-2" d="M7.9,35.3a2.16,2.16,0,0,1,1,1h.18A2.25,2.25,0,0,0,7.9,35.3Z"/><path class="cls-2" d="M8.89,36.28h0Z"/><path class="cls-2" d="M7.75,37.44a1.75,1.75,0,0,0,1.3-.54l-.18,0A1.64,1.64,0,0,1,7.75,37.44Z"/><path class="cls-2" d="M6.15,36l.53,0,0-.07a5.41,5.41,0,0,0-.56,0l.07,0Z"/><path class="cls-2" d="M7.72,36.17h0l-.06-.09h0l.06.09Z"/><path class="cls-2" d="M4.18,35.31A2.53,2.53,0,0,1,5.33,36l-.37,0a23,23,0,0,1,2.82.13H7.72l-.06-.09C7.28,36,7,36,6.65,36l0,.07-.53,0h0l-.07,0h-.6A3.54,3.54,0,0,0,4.18,35.31Z"/><path class="cls-2" d="M7.78,36.18h0Z"/><path class="cls-2" d="M7.73,36.17h0Z"/><path class="cls-2" d="M4.19,36.92a3.42,3.42,0,0,0,1.33-.65H5.37A2.58,2.58,0,0,1,4.19,36.92Z"/><path class="cls-2" d="M6.22,35.18l-.09,0A.26.26,0,0,1,6.22,35.18Z"/><path class="cls-2" d="M6.22,35.18c.18.1.6.37.68.72l.19,0A1.86,1.86,0,0,0,6.22,35.18Z"/><path class="cls-2" d="M6.24,37a1.53,1.53,0,0,0,1-.55l-.19,0C6.9,36.78,6.41,37,6.24,37Z"/><path class="cls-2" d="M6.24,37l-.06,0Z"/></svg>