<svg id="Capa_1" data-name="Capa 1" xmlns="http://www.w3.org/2000/svg" viewBox="0 0 207.87 66.4"><defs><style>.cls-1{fill:none;}.cls-2{fill:#def1f9;}</style></defs><title>Conacua - camiseta reverso editable</title><path class="cls-1" d="M13.05,58.35c-.3,1.2-.53,2.1-.74,3-.05.18-.14.46.12.49a5.48,5.48,0,0,0,1.28,0c.21,0,.17-.24.13-.4Z"/><path class="cls-1" d="M48.7,61.86a2.32,2.32,0,0,0,1.24-.07c.32-.19,0-.65-.09-1-.15-.76-.38-1.51-.63-2.47-.27,1.12-.5,2-.71,2.94C48.46,61.5,48.22,61.84,48.7,61.86Z"/><path class="cls-1" d="M158.51,62.67a3.75,3.75,0,0,0,.71-2.32c0-.26,0-.52-.06-.78a2.65,2.65,0,0,0-2.07-2.23,2.35,2.35,0,0,0-2.31,1.91,3.83,3.83,0,0,0,.59,3.46A1.84,1.84,0,0,0,158.51,62.67Z"/><path class="cls-1" d="M195.82,62.61a4.17,4.17,0,0,0,.67-2.39,3.82,3.82,0,0,0-.27-1.28,2.22,2.22,0,0,0-2-1.59,2.17,2.17,0,0,0-2,1.6,3.73,3.73,0,0,0,.42,3.65A1.85,1.85,0,0,0,195.82,62.61Z"/><path class="cls-1" d="M103.54,26.19c.78.48,1.92.17,2.88-.09a2.77,2.77,0,0,0,2.26-2.94,2.8,2.8,0,0,0-2.31-2.91,10.66,10.66,0,0,0-2.45-.24c-.43,0-.59.15-.58.57,0,.86,0,1.72,0,2.58,0,.23,0,.46,0,.69C103.42,24.66,103,25.83,103.54,26.19Z"/><path class="cls-1" d="M175.94,61.85a6,6,0,0,0,1.27,0c.22,0,.18-.24.14-.4-.24-.94-.48-1.87-.8-3.09-.29,1.2-.52,2.1-.74,3C175.77,61.53,175.68,61.82,175.94,61.85Z"/><path class="cls-1" d="M125.9,23c-.82,2.84-1.57,5.43-2.32,8.08h4.62C127.44,28.39,126.7,25.79,125.9,23Z"/><path class="cls-1" d="M134,61.84a6,6,0,0,0,1.27,0c.21,0,.18-.24.14-.4-.23-.94-.48-1.87-.72-2.81l-.16,0c-.22.89-.44,1.77-.65,2.67C133.81,61.52,133.71,61.81,134,61.84Z"/><path class="cls-1" d="M115.83,57.09c-.66,0-.3.6-.36.93a6.48,6.48,0,0,0,0,1.08c0,.8.38,1,1.09.59.47-.27.52-.73.57-1.25a3.2,3.2,0,0,0-.12-.62A1.09,1.09,0,0,0,115.83,57.09Z"/><path class="cls-1" d="M32.34,62.57A4.18,4.18,0,0,0,33,60.28a3.86,3.86,0,0,0-.28-1.38,2.2,2.2,0,0,0-2.07-1.55,2.17,2.17,0,0,0-2,1.55,3.75,3.75,0,0,0,.42,3.74A1.85,1.85,0,0,0,32.34,62.57Z"/><path class="cls-1" d="M102.68,59.83c.88.05,1.16-.6,1.16-1.38s-.54-1.49-1.23-1.36c-.84.17-.18.93-.48,1.39C102.55,58.86,101.59,59.77,102.68,59.83Z"/><path class="cls-1" d="M65.56,57.1c-.42.12-.15.55-.21.84a2.67,2.67,0,0,0,0,.49,2.9,2.9,0,0,0,0,.59c0,.29-.23.73.2.84a1.22,1.22,0,0,0,1-.27,1.74,1.74,0,0,0,.07-2.15A1.15,1.15,0,0,0,65.56,57.1Z"/><path class="cls-1" d="M88.14,62.64c0,1,.21,1.13,1.15.83,1.1-.34,1.69-1.4,1.69-3,0-1.8-.8-3-2.09-3.1-.53-.06-.78.06-.76.67C88.17,59.55,88.14,61.09,88.14,62.64Z"/><path class="cls-2" d="M95.65,14.43a.93.93,0,0,1,.35.78c0,.76.08,1.51.08,2.27,0,7.49,0,15,0,22.46,0,.89.25,1.13,1.11,1.1,1.72-.07,3.43-.07,5.15,0,.85,0,1.08-.28,1-1.08-.06-1.12,0-2.24,0-3.36v-5.5c.29.43.44.64.58.86,1.85,2.81,3.71,5.61,5.54,8.42a1.16,1.16,0,0,0,1.1.66q4.55-.06,9.1,0a.87.87,0,0,0,1-.75c.32-1.07.71-2.12,1.07-3.18.1-.31.15-.64.61-.64,1.94,0,3.87,0,5.81,0,0,.45-.24.68-.41,1-1.12,1.86-2.23,3.73-3.39,5.57a1.13,1.13,0,0,0,0,1.33c1.33,2.35,2.61,4.73,3.92,7.1.61,1.09,1.24,2.18,1.86,3.27-.05-1.27,0-2.5,0-3.71,0-.69.2-.89.86-1a33.53,33.53,0,0,1,4.25-.07,5.14,5.14,0,0,0,4.66-2.43c1.64-2.39,3.13-4.88,4.65-7.35.62-1,1.23-2,1.85-3.08-2.77,1.47-5.73,1.37-8.64,1.56a.86.86,0,0,1-1-.73c-.54-1.8-1.15-3.58-1.72-5.36-.43-1.35-.85-2.71-1.27-4.07a25.38,25.38,0,0,1,1.88,2.92c.39.63.56,1.47,1.22,1.87a19.52,19.52,0,0,1,3.82,3.55,1.2,1.2,0,0,0,1.5.46c.34-.13.72-.15,1.05-.29,1.45-.61,3-1.11,3.93-2.51a5.64,5.64,0,0,0,.09-6c-1.35-2.67-2.88-5.24-4.29-7.88-.34-.62-.64-.67-1.22-.34-2.69,1.54-5.42,3-8.09,4.57-.8.47-1,.29-1.26-.5-.89-2.89-1.87-5.76-2.75-8.65-.24-.78-.54-1.12-1.41-1.07a39.45,39.45,0,0,1-4.35,0c-.84,0-1.19.24-1.45,1C120.58,21.11,118.77,26.54,117,32c-.5,1.52-1,3-1.55,4.69-.92-1.15-1.73-2.18-2.54-3.21l-2.53-3.21c6.5-1.34,7.72-10.13,2.87-14,1.5,0,3,0,4.44,0a1,1,0,0,0,1-.53c1.88-2.83,3.53-5.79,5.35-8.65.32-.51.61-1,.91-1.56a24.19,24.19,0,0,0-3.4,1.89c-.46.31-.71.25-1-.23-.83-1.39-1.77-2.71-2.52-4.13a4.64,4.64,0,0,0-4.1-2.48c-3.51-.3-7-.37-10.56-.4-.56,0-1.12-.06-1.92-.09a19.68,19.68,0,0,1,3.2,2.84A51.56,51.56,0,0,1,110,12.71c.11.24.24.55,0,.72-.72.46-1.35,1.19-2.23,1.21-2.59.06-5.19,0-8,0,1.79-2.91,3.43-5.64,5.14-8.32a1.34,1.34,0,0,0,0-1.69A12.7,12.7,0,0,0,101.14,1a5.19,5.19,0,0,0-7.36,1.3c-1.34,1.91-2.43,4-3.64,6-.22.36-.18.57.15.91A71.75,71.75,0,0,0,95.65,14.43ZM125.9,23c.8,2.83,1.54,5.43,2.3,8.08h-4.62C124.33,28.39,125.08,25.8,125.9,23Zm-22.55.89c0-.23,0-.46,0-.69,0-.86,0-1.72,0-2.58,0-.42.15-.59.58-.57a10.66,10.66,0,0,1,2.45.24,2.8,2.8,0,0,1,2.31,2.91,2.77,2.77,0,0,1-2.26,2.94c-1,.26-2.1.57-2.88.09C103,25.83,103.42,24.66,103.35,23.85Z"/><path class="cls-2" d="M62.28,24.45c-.67,1.17-1.13,2.47-1.86,3.59a5.17,5.17,0,0,0,0,5.76q1.9,3.47,3.83,6.92c.62,1.1,1.27,2.19,1.91,3.29.18-5.09,3.44-8.66,5.77-12.74.13.18.2.23.2.28,0,1.42,0,2.83,0,4.25,0,2.27,0,2.31-2.26,2.27a1.48,1.48,0,0,0-1.58,1,10.84,10.84,0,0,0-1,5.29.91.91,0,0,0,.34.66c1.43,1.41,2.87,2.82,4.26,4.27a1.08,1.08,0,0,0,.85.36c3.07,0,6.14,0,9.21,0,.48,0,.72-.12.72-.66,0-3.43,0-6.86,0-10.29,0-.51-.2-.72-.7-.71-1,0-1.92,0-2.87,0-.77.05-1-.18-1-1,0-3.63,0-7.26,0-10.89,0-.24-.11-.51.12-.74.38.16.49.53.68.82q4.66,7,9.29,14a1.35,1.35,0,0,0,1.35.74C91,41,92.32,41,93.67,41c.84,0,1-.24,1-1.05q0-12.31,0-24.64c0-.67-.25-.77-.8-.75-1.39,0-2.77.09-4.15,0-.89,0-1.1.23-1.09,1.1,0,4.85,0,9.69,0,14.77l-.59-.85c-3.16-4.75-6.33-9.49-9.47-14.25a1.44,1.44,0,0,0-1.43-.76,38.23,38.23,0,0,1-3.86,0c-.87,0-1.19.17-1.16,1.12.07,2.31,0,4.63,0,7-.47-1.41-1.56-1.34-2.69-1.32-2.07.05-4.15,0-6.23,0h-4.5a17.46,17.46,0,0,0,3.07,1.8C62.49,23.49,62.67,23.77,62.28,24.45Z"/><path class="cls-2" d="M.67,54.83C.16,54.88,0,55,0,55.5c0,3.26,0,6.53,0,9.79,0,.86.45.81,1,.74s1.24.37,1.21-.72c-.06-1.91,0-3.83,0-5.74l.18,0c1,1.76,2.09,3.48,2.95,5.31a2,2,0,0,0,2.34,1.21c.38,0,.51-.13.51-.52,0-3.4,0-6.79,0-10.19,0-.4-.14-.52-.52-.49a5.29,5.29,0,0,1-.89,0c-.61-.09-.78.14-.76.76,0,1.68,0,3.36,0,5,0,.22.17.52-.17.69-1-1.76-2.07-3.46-2.94-5.26A1.92,1.92,0,0,0,.67,54.83Z"/><path class="cls-2" d="M77.53,66c.49,0,1.14.29,1.1-.72-.07-1.93,0-3.86,0-5.79l.18,0c1,1.78,2.08,3.52,3,5.35A2,2,0,0,0,84,66.06c.48,0,.6-.19.6-.65,0-3.33,0-6.66,0-10,0-.4-.08-.56-.54-.58-1.59-.09-1.58-.11-1.58,1.52,0,1.42,0,2.83,0,4.25,0,.23.09.51-.18.76-1-1.82-2.08-3.56-3-5.37a1.83,1.83,0,0,0-2-1.18c-.57.06-.79.13-.79.77,0,3.23,0,6.46,0,9.69C76.42,66.26,77,66.05,77.53,66Z"/><path class="cls-2" d="M42,61.43c-1-1.79-2.09-3.55-3-5.39a1.87,1.87,0,0,0-2.12-1.22c-.55.07-.71.18-.71.73,0,3.27,0,6.53,0,9.79,0,.92.55.7,1,.69s1.15.28,1.12-.72c-.06-1.68,0-3.36,0-5,0-.22-.16-.53.22-.66l.3.51,3,5.24A1.92,1.92,0,0,0,44,66c.63-.23.29-.8.3-1.2,0-3.06,0-6.13,0-9.19,0-1.06-.63-.75-1.15-.77s-1.09-.22-1.05.75c.09,1.93,0,3.85,0,5.78Z"/><path class="cls-2" d="M199.87,66a5.7,5.7,0,0,0,1.75,0c.42-.09.2-.63.21-1,0-1.79,0-3.58,0-5.38l.22-.05c1,1.75,2.05,3.47,2.94,5.28a1.88,1.88,0,0,0,2.15,1.21c.55-.06.71-.21.7-.76,0-3.23,0-6.46,0-9.69,0-1.06-.64-.74-1.16-.76s-1.09-.2-1,.76c.08,1.92,0,3.85,0,5.77A43.52,43.52,0,0,1,202.54,56a2,2,0,0,0-2.33-1.2c-.39,0-.5.15-.49.52,0,3.4,0,6.79,0,10.18C199.72,65.7,199.68,66,199.87,66Z"/><path class="cls-2" d="M196.9,65.26c2.35-2.28,2.42-7.16.13-9.47a3.82,3.82,0,0,0-5.69,0,6.43,6.43,0,0,0-1.69,4.51,7.5,7.5,0,0,0,1.43,4.52A3.88,3.88,0,0,0,196.9,65.26ZM192.15,59a2.17,2.17,0,0,1,2-1.6,2.22,2.22,0,0,1,2,1.59,3.82,3.82,0,0,1,.27,1.28,4.17,4.17,0,0,1-.67,2.39,1.85,1.85,0,0,1-3.25,0A3.73,3.73,0,0,1,192.15,59Z"/><path class="cls-2" d="M26.14,60.28a7.44,7.44,0,0,0,1.49,4.61,3.87,3.87,0,0,0,5.82.31,7.34,7.34,0,0,0,.16-9.32,3.82,3.82,0,0,0-5.83,0A6.51,6.51,0,0,0,26.14,60.28Zm2.53-1.38a2.17,2.17,0,0,1,2-1.55A2.2,2.2,0,0,1,32.7,58.9,3.86,3.86,0,0,1,33,60.28a4.18,4.18,0,0,1-.64,2.29,1.85,1.85,0,0,1-3.25.07A3.75,3.75,0,0,1,28.67,58.9Z"/><path class="cls-2" d="M160.32,64.4a7.33,7.33,0,0,0,.4-7.26,4.08,4.08,0,0,0-3.86-2.62,4.29,4.29,0,0,0-3.8,2.74,6.05,6.05,0,0,0-.65,2.77,7.76,7.76,0,0,0,1.07,4.33A3.91,3.91,0,0,0,160.32,64.4Zm-5.54-5.15a2.35,2.35,0,0,1,2.31-1.91,2.65,2.65,0,0,1,2.07,2.23c0,.26,0,.52.06.78a3.75,3.75,0,0,1-.71,2.32,1.84,1.84,0,0,1-3.14,0A3.83,3.83,0,0,1,154.78,59.25Z"/><path class="cls-2" d="M86,63.58c0,2.47,0,2.44,2.52,2.47a4,4,0,0,0,3.88-2.37,6.86,6.86,0,0,0,.51-5.16c-.73-2.61-2.14-3.67-4.85-3.67a5.28,5.28,0,0,1-.89,0C86.29,54.7,85.94,55,86,56c.1,1.47,0,3,0,4.44Zm2.86-6.24c1.29.14,2.09,1.3,2.09,3.1,0,1.63-.59,2.69-1.69,3-.94.3-1.14.15-1.15-.83,0-1.55,0-3.09,0-4.63C88.11,57.4,88.36,57.28,88.89,57.34Z"/><path class="cls-2" d="M117.89,61.33a4,4,0,0,0,1.18-4.68,2.54,2.54,0,0,0-2.46-1.79c-.89,0-1.78,0-2.67,0-.39,0-.6,0-.6.52,0,3.36,0,6.72,0,10.08,0,1,.8.49,1.24.57s.92.15.88-.62c0-1.08,0-2.17,0-3.26a9.43,9.43,0,0,1,1.1,1.93c1,2.1,1,2.1,3.51,1.91-.78-1.39-1.51-2.66-2.21-4C117.75,61.84,117.43,61.66,117.89,61.33Zm-1.34-1.64c-.71.41-1.08.21-1.09-.59a6.48,6.48,0,0,1,0-1.08c.06-.33-.3-.9.36-.93a1.09,1.09,0,0,1,1.17.73,3.2,3.2,0,0,1,.12.62C117.07,59,117,59.42,116.55,59.69Z"/><path class="cls-2" d="M101.14,66c.53,0,1.15.2,1.08-.76s0-2.09,0-3.13a21.14,21.14,0,0,1,1.72,3.29.86.86,0,0,0,1,.61c.58,0,1.17,0,2,0-.83-1.46-1.56-2.74-2.27-4-.09-.17-.42-.37,0-.63,1.73-1.1,1.69-2.77,1.33-4.47a2.52,2.52,0,0,0-2.57-2c-.82,0-1.65,0-2.47,0-.59,0-.79.12-.78.75,0,3.23.05,6.46,0,9.68C100.05,66.23,100.61,66,101.14,66Zm1.47-9c.69-.13,1.23.53,1.23,1.36s-.28,1.43-1.16,1.38c-1.09-.06-.13-1-.55-1.35C102.43,58,101.77,57.26,102.61,57.09Z"/><path class="cls-2" d="M67.78,61.32A4,4,0,0,0,69,56.72a2.51,2.51,0,0,0-2.51-1.86c-.72,0-1.45,0-2.17,0s-1.12.12-1.1,1c.07,2.93,0,5.87,0,8.8,0,1.41,0,1.38,1.45,1.38.58,0,.73-.18.71-.73,0-1.07,0-2.14,0-3.21a11.62,11.62,0,0,1,1.09,2c.94,2,.94,2,3.15,2a1,1,0,0,0,.24-.06c0-.1,0-.13,0-.15-.68-1.24-1.38-2.47-2-3.71C67.66,61.9,67.29,61.7,67.78,61.32Zm-1.21-1.73a1.22,1.22,0,0,1-1,.27c-.43-.11-.15-.55-.2-.84a2.9,2.9,0,0,1,0-.59,2.67,2.67,0,0,1,0-.49c.06-.29-.21-.72.21-.84a1.15,1.15,0,0,1,1.08.34A1.74,1.74,0,0,1,66.57,59.59Z"/><path class="cls-2" d="M132.78,65.28c.12-1,.66-1.3,1.58-1.16a2,2,0,0,0,.69,0c.74-.11,1.19.11,1.25.93s.45,1.21,1.42.93c.17-.26,1.24.66.93-.53-.87-3.36-1.82-6.71-2.73-10.06-.11-.44-.3-.59-.74-.55a5.82,5.82,0,0,1-1.18,0,.57.57,0,0,0-.69.5c-.94,3.38-1.89,6.76-2.82,10.14-.05.16-.18.36,0,.52C131.09,66.39,132.71,65.92,132.78,65.28Zm1.07-3.93c.21-.9.43-1.78.65-2.67l.16,0c.24.94.49,1.87.72,2.81,0,.16.07.38-.14.4a6,6,0,0,1-1.27,0C133.71,61.81,133.81,61.52,133.85,61.35Z"/><path class="cls-2" d="M172.59,66a5.82,5.82,0,0,0,1.77,0c.45-.11.4-.7.49-1.09.13-.6.41-.88,1.07-.78a7.32,7.32,0,0,0,1.48,0c.49,0,.76.14.78.64.06,1.16.73,1.37,1.78,1.32.81,0,.8-.27.61-.92-.88-3.09-1.75-6.18-2.55-9.29-.2-.81-.46-1.26-1.39-1-.42.15-1.11-.4-1.35.46q-1.41,5.07-2.83,10.14C172.4,65.65,172.22,66,172.59,66Zm3.22-4.66c.22-.91.45-1.81.74-3,.32,1.22.56,2.15.8,3.09,0,.16.08.38-.14.4a6,6,0,0,1-1.27,0C175.68,61.82,175.77,61.53,175.81,61.36Z"/><path class="cls-2" d="M13.11,54.88c-.43.13-1.11-.39-1.35.46-.93,3.39-1.88,6.76-2.82,10.14a.63.63,0,0,0,0,.47c.23.34,2.16,0,2.2-.4.12-1.35.94-1.6,2.08-1.43a2.28,2.28,0,0,0,.69,0c.42,0,.74.09.75.55,0,1.31.82,1.48,1.9,1.39.55,0,.74-.07.55-.72-.9-3.12-1.75-6.25-2.58-9.39C14.33,55.18,14.14,54.54,13.11,54.88Zm.6,7a5.48,5.48,0,0,1-1.28,0c-.26,0-.17-.31-.12-.49.21-.91.44-1.81.74-3l.79,3.09C13.88,61.6,13.92,61.82,13.71,61.84Z"/><path class="cls-2" d="M47.39,65.33c.15-1,.65-1.4,1.65-1.21a2.42,2.42,0,0,0,.89,0c.63-.1.92.19,1,.78.08.94.55,1.32,1.49,1.15a6.55,6.55,0,0,1,1.1,0c-1-3.64-2-7.11-2.91-10.6-.14-.5-.35-.62-.8-.59a11.81,11.81,0,0,1-1.19,0,.52.52,0,0,0-.63.45q-1.41,5.13-2.84,10.25c0,.15-.17.3,0,.45C45.52,66.38,47.3,65.9,47.39,65.33Zm1.12-4c.21-.91.44-1.82.71-2.94.25,1,.48,1.71.63,2.47.06.32.41.78.09,1a2.32,2.32,0,0,1-1.24.07C48.22,61.84,48.46,61.5,48.51,61.29Z"/><path class="cls-2" d="M108.44,66.06a17,17,0,0,1,2.67,0c.77.06,1-.18,1-1-.06-1.52,0-1.57-1.55-1.51-.81,0-1.06-.16-1-1s.23-1.09,1-1c.16,0,.33,0,.49,0,.7.12,1-.09.93-.87-.07-1.55,0-1.61-1.52-1.55-.8,0-.87-.31-.9-1s.29-.91,1-.9c1.6,0,1.6,0,1.59-1.58a1.51,1.51,0,0,1,0-.3c.07-.48-.14-.61-.61-.6-1.12,0-2.24,0-3.35,0-.58,0-.72.18-.71.73,0,1.61,0,3.22,0,4.84s0,3.09,0,4.64C107.35,65.9,107.65,66.12,108.44,66.06Z"/><path class="cls-2" d="M97.23,57.31c1.58,0,1.55,0,1.59-1.59,0-.66-.11-.94-.84-.89a24.36,24.36,0,0,1-3,0c-.67,0-.92.12-.89.85.05,1.58,0,3.16,0,4.74s0,3.29,0,4.94c0,.51.14.71.67.68.72,0,1.44,0,2.17,0,2,0,2,0,1.84-2,0-.46-.19-.55-.59-.52s-.67,0-1,0c-.84.14-1-.21-1-1s.15-1.07.93-1c.29,0,.59,0,.88,0,.49.06.6-.13.61-.6,0-1.83.07-1.86-1.43-1.83-.68,0-1-.09-1-.89S96.46,57.29,97.23,57.31Z"/><path class="cls-2" d="M146.7,55.91c-1.16,2-.7,4.44,1,5.28.42.2.86.35,1.26.58a1.09,1.09,0,0,1,.5,1.52c-.32.7-.95.67-1.52.42a8.75,8.75,0,0,1-1.25-.88c-.25.62-.49,1.22-.74,1.82a.56.56,0,0,0,.25.75,3.53,3.53,0,0,0,3.69.68c1.56-.69,1.87-2.13,1.93-3.62a3,3,0,0,0-1.69-3.09,12.83,12.83,0,0,1-1.24-.59.9.9,0,0,1-.41-1.34c.32-.54.81-.51,1.3-.32a5.05,5.05,0,0,1,.86.52c.22-.58.41-1.14.65-1.68.18-.38.09-.56-.26-.78C149.39,54.14,147.57,54.43,146.7,55.91Z"/><path class="cls-2" d="M122.42,63.67a6.81,6.81,0,0,1-1.19-.85c-.24.62-.44,1.21-.7,1.78-.14.31-.15.53.15.75a3.6,3.6,0,0,0,3.59.79c1.49-.58,2-1.82,2.06-3.3s-.15-2.7-1.57-3.43c-.47-.24-1-.43-1.41-.7a.93.93,0,0,1,.83-1.65,1.2,1.2,0,0,1,.53.26c.41.41.57.24.71-.22s.3-.8.45-1.2a.47.47,0,0,0-.11-.61,3.44,3.44,0,0,0-3.62-.31c-1.29.94-1.49,2.31-1.44,3.79a2.69,2.69,0,0,0,2,2.62,5.83,5.83,0,0,1,.72.32,1.1,1.1,0,0,1,.59,1.56C123.67,64,123,64,122.42,63.67Z"/><path class="cls-2" d="M141.37,63.75a5,5,0,0,1-1.32-1c-.26.66-.5,1.29-.76,1.92a.44.44,0,0,0,.07.52,3.31,3.31,0,0,0,5.37-.61c1.14-2.41.41-4.49-2-5.6l-.27-.12c-.61-.3-1-.79-.63-1.43a.94.94,0,0,1,1.53-.23c.63.5.79.19.95-.36a6.38,6.38,0,0,1,.34-.92c.18-.38.06-.58-.28-.8a2.94,2.94,0,0,0-4.32.76c-1.08,1.85-.62,4.43.95,5.23.44.22.92.37,1.34.62a1.07,1.07,0,0,1,.47,1.52C142.51,64,141.94,63.92,141.37,63.75Z"/><path class="cls-2" d="M74.49,54.84c-1.09,0-2.18,0-3.26,0-.57,0-.73.15-.72.72,0,1.61,0,3.22,0,4.84s0,3.23,0,4.84c0,.57.09.85.74.82,1.09-.06,2.18,0,3.26,0,.57,0,.71-.18.72-.73,0-1.74,0-1.74-1.74-1.76H73c-.18,0-.26-.08-.32-.27-.34-1.13,0-1.67,1.22-1.67h.79c.18,0,.35,0,.35-.24A5.82,5.82,0,0,0,75,59.33c-.15-.4-.9-.17-1.37-.13-.72,0-.94-.16-.94-.92s.19-1,1-1c1.62.06,1.62,0,1.61-1.58a.33.33,0,0,1,0-.1C75.31,55.05,75.14,54.8,74.49,54.84Z"/><path class="cls-2" d="M164,65.42a3.37,3.37,0,0,0,3.68.62c.23-.11.52-.15.52-.51v-3c-1.9,1.56-3.46,1-3.93-1.2a4,4,0,0,1-.06-1.47c.4-2.46,1.95-3.12,4-1.57,0-.94,0-1.77,0-2.59a.78.78,0,0,0-.58-.88,3.37,3.37,0,0,0-3.51.55C161.27,57.64,161.21,63.1,164,65.42Z"/><path class="cls-2" d="M16.74,55.57a3,3,0,0,1,0,.79c-.12.78.18,1.11,1,1,.61-.1.79.15.77.76-.05,1.19,0,2.38,0,3.57s.05,2.44,0,3.66.73.64,1.22.71,1,.1,1-.75c-.06-2.41,0-4.82,0-7.22,0-.53.09-.84.69-.73,1,.19,1.19-.31,1.08-1.15a2,2,0,0,1,0-.59c.11-.64-.19-.77-.78-.75-1.38,0-2.77,0-4.15,0C16.85,54.82,16.68,55,16.74,55.57Z"/><path class="cls-2" d="M181.05,57.33c.86-.16.94.3.93,1,0,2.11,0,4.22,0,6.33,0,1.42,0,1.4,1.43,1.4.55,0,.75-.13.73-.72,0-1.18,0-2.37,0-3.56s0-2.44,0-3.66c0-.67.21-.89.83-.79.81.15,1-.24.95-1a3.32,3.32,0,0,1,0-.89c.05-.48-.15-.63-.62-.62-1.12,0-2.24,0-3.36,0-1.68,0-1.65,0-1.66,1.65C180.23,57.13,180.38,57.46,181.05,57.33Z"/><path class="cls-2" d="M54.16,60.4c0,1.65,0,3.3,0,4.95,0,.48.1.72.65.7,1.16,0,2.31,0,3.47,0,.43,0,.53-.15.56-.57.11-1.89.12-1.92-1.77-1.9-.65,0-.81-.19-.8-.82,0-2.18,0-4.36,0-6.53,0-1.42,0-1.39-1.4-1.39-.55,0-.74.14-.72.71C54.18,57.17,54.16,58.78,54.16,60.4Z"/><path class="cls-2" d="M24.22,66c.61,0,1.05,0,1-.83-.08-1.58,0-3.16,0-4.75s0-3.29,0-4.94c0-.48-.06-.76-.63-.67a3,3,0,0,1-.79,0c-.57-.08-.71.16-.71.71,0,3.23.05,6.46,0,9.7C23,66.3,23.69,66,24.22,66Z"/><path class="cls-2" d="M187.7,66c.48,0,1.06.24,1-.69-.07-1.62,0-3.23,0-4.85V56.24c0-1.46,0-1.43-1.48-1.4-.56,0-.64.22-.64.7,0,3.26,0,6.52,0,9.79C186.56,66.34,187.22,66,187.7,66Z"/><path class="cls-2" d="M170.7,66c.61,0,1.05,0,1-.83-.08-1.58,0-3.16,0-4.75s0-3.29,0-4.94c0-.48-.07-.76-.64-.67a2.91,2.91,0,0,1-.78,0c-.58-.08-.72.16-.72.71,0,3.23,0,6.46,0,9.7C169.52,66.3,170.17,66,170.7,66Z"/></svg>