<svg id="Capa_1" data-name="Capa 1" xmlns="http://www.w3.org/2000/svg" viewBox="0 0 196.85 56.15"><defs><style>.cls-1{fill:none;}.cls-2{fill:#def1f9;}</style></defs><title>Conacua - camiseta reverso editable</title><path class="cls-1" d="M168.45,44.72c-.33,0-.4.25-.41.51s.07.58.42.58.42-.25.42-.53S168.81,44.73,168.45,44.72Z"/><path class="cls-1" d="M151.74,45.24c0,.32.09.62.5.61s.44-.29.47-.57-.13-.6-.48-.61S151.74,44.93,151.74,45.24Z"/><path class="cls-1" d="M171.87,44.59c-.24,0-.42.1-.48.45a3,3,0,0,0,.53,0c.13,0,.39.14.37-.16S172.07,44.58,171.87,44.59Z"/><path class="cls-1" d="M193.62,45.25c0-.27-.08-.55-.45-.57s-.51.26-.51.58.08.59.46.59S193.61,45.61,193.62,45.25Z"/><path class="cls-1" d="M131.19,45.72c-.06.19.13.23.29.24s.5-.09.54-.4c0-.08,0-.25-.11-.2S131.3,45.38,131.19,45.72Z"/><path class="cls-1" d="M112.49,12.08l-1,.28a9.8,9.8,0,0,0-2,.62,1,1,0,0,0,.14,2A2.58,2.58,0,0,0,113,12.51C113,11.92,113,11.92,112.49,12.08Z"/><path class="cls-1" d="M8.77,30.59a1.6,1.6,0,0,0-1.14,1.66,1.7,1.7,0,0,0,1.48,1.39,5.26,5.26,0,0,0,4-.79,2.68,2.68,0,0,0,1.22-1.73,7.68,7.68,0,0,0,.1-2l-2.07.53A22.86,22.86,0,0,0,8.77,30.59Z"/><path class="cls-1" d="M36.48,9.06a1.76,1.76,0,0,0-1.78,1.41,4.52,4.52,0,0,0,0,2.5,1.75,1.75,0,0,0,1.36,1.28,1.92,1.92,0,0,0,2-.68,3,3,0,0,0,.5-2,3.5,3.5,0,0,0-.13-1.08A2,2,0,0,0,36.48,9.06Z"/><path class="cls-1" d="M148.83,44.71c-.36,0-.39.25-.41.48s.13.54.45.52.41-.26.39-.55A.41.41,0,0,0,148.83,44.71Z"/><path class="cls-1" d="M145.9,44.93a.3.3,0,0,0-.31-.33A.45.45,0,0,0,145,45a5.32,5.32,0,0,0,.57,0C145.69,45,145.89,45.13,145.9,44.93Z"/><path class="cls-1" d="M161,30.75a1.46,1.46,0,0,0-.52,2.23,2,2,0,0,0,1.16.66,5.36,5.36,0,0,0,3.54-.52,2.93,2.93,0,0,0,1.74-2.44c.05-.51,0-1,0-1.58l-4.32,1A6.26,6.26,0,0,0,161,30.75Z"/><path class="cls-1" d="M181.73,45c.12,0,.26,0,.22-.17s-.25-.29-.47-.27a.38.38,0,0,0-.39.37C181.28,45.1,181.52,45,181.73,45Z"/><path class="cls-1" d="M125.42,33a3.44,3.44,0,0,0,3.92-2.73,5.48,5.48,0,0,0,.15-1.56,6,6,0,0,0-.11-1.41,3.46,3.46,0,0,0-3.24-2.85,3.53,3.53,0,0,0-3.88,2.49,6.61,6.61,0,0,0-.17,2.9A3.48,3.48,0,0,0,125.42,33Z"/><path class="cls-1" d="M102.15,44.57c0-.13,0-.31-.22-.38l-.33,1C102.39,45.24,102.4,45.24,102.15,44.57Z"/><path class="cls-1" d="M111.75,45.74c0,.21.17.2.31.22.3,0,.51-.14.55-.46,0-.1,0-.2-.13-.15C112.23,45.48,111.84,45.37,111.75,45.74Z"/><path class="cls-1" d="M160.54,45.85c.39,0,.42-.31.46-.59s-.12-.6-.49-.59-.48.26-.48.58S160.14,45.86,160.54,45.85Z"/><path class="cls-2" d="M47,56.07a73.09,73.09,0,0,0,21.34-2.2,82.15,82.15,0,0,0,18.68-7.23,61.47,61.47,0,0,0,6.43-3.86c-.07-.12-.19-.1-.3-.1-1.42.74-2.83,1.51-4.26,2.22a73,73,0,0,1-28.08,7.49,74.48,74.48,0,0,1-17.32-1A80.59,80.59,0,0,1,30,47.83,76.07,76.07,0,0,1,14.26,40.2a1,1,0,0,0-.67-.13l-6.07.4-2.08.15.37.29A83,83,0,0,0,28.13,52.53,69.92,69.92,0,0,0,47,56.07Z"/><path class="cls-2" d="M166.42,26.05a70.36,70.36,0,0,1-7.87,1.61,12.12,12.12,0,0,0-4,1.28,4,4,0,0,0-1.83,4.68,4.89,4.89,0,0,0,3.54,3.17,13,13,0,0,0,4.72.41,10.39,10.39,0,0,0,5.91-2c.47-.36.47-.35.61.2.32,1.28.55,1.45,1.84,1.45h5.86a.25.25,0,0,0,0-.27,6.45,6.45,0,0,1-.82-3.7c0-2.16,0-4.32,0-6.49a5.54,5.54,0,0,0-4.6-5.87,28.61,28.61,0,0,0-6.66-.5,18.92,18.92,0,0,0-5.8.72,5.6,5.6,0,0,0-4.05,4c-.06.21-.17.38.23.41,2.17.18,4.34.38,6.51.58a.49.49,0,0,0,.58-.33A2.4,2.4,0,0,1,162.3,24a8.64,8.64,0,0,1,2.77-.18c1.17.11,1.61.5,1.81,1.43C167,25.69,166.9,25.9,166.42,26.05Zm.47,4.63a2.93,2.93,0,0,1-1.74,2.44,5.36,5.36,0,0,1-3.54.52,2,2,0,0,1-1.16-.66,1.46,1.46,0,0,1,.52-2.23,6.26,6.26,0,0,1,1.61-.6l4.32-1C166.9,29.64,166.94,30.17,166.89,30.68Z"/><path class="cls-2" d="M14,26a58.53,58.53,0,0,1-7.42,1.55,15.46,15.46,0,0,0-4.32,1.22,4.07,4.07,0,0,0-1,6.65,5.11,5.11,0,0,0,2.5,1.37c3.79.81,7.45.7,10.73-1.72.23-.16.34-.17.39.14a3.08,3.08,0,0,0,.56,1.39.52.52,0,0,0,.49.28h6.68c0-.2-.09-.33-.16-.48a4.09,4.09,0,0,1-.64-1.76c-.06-2.81,0-5.61,0-8.42a5.51,5.51,0,0,0-4.21-5.57,15.76,15.76,0,0,0-3.8-.53,29.38,29.38,0,0,0-8.32.45c-2.29.53-4.07,1.7-4.77,4.1-.09.3-.13.45.3.48,2.14.16,4.27.37,6.41.57A.47.47,0,0,0,8,25.41,2.47,2.47,0,0,1,9.82,24a8.35,8.35,0,0,1,2.77-.16c1.19.11,1.63.54,1.8,1.56C14.44,25.72,14.39,25.9,14,26Zm.27,5.11a2.68,2.68,0,0,1-1.22,1.73,5.26,5.26,0,0,1-4,.79,1.7,1.7,0,0,1-1.48-1.39,1.6,1.6,0,0,1,1.14-1.66,22.86,22.86,0,0,1,3.56-1l2.07-.53A7.68,7.68,0,0,1,14.3,31.12Z"/><path class="cls-2" d="M62.33,32.29c-1.66.15-2.93-.5-3-2.45,0-.36,0-.71,0-1.07V20.91c0-.28.05-.52-.39-.52q-3.42,0-6.85,0c-.33,0-.38.14-.38.42,0,1,0,2.07,0,3.1,0,2.62-.08,5.24.06,7.86a5.17,5.17,0,0,0,2.86,4.68,8,8,0,0,0,3.53.78,8.93,8.93,0,0,0,5.74-1.58c.55-.42,1.06-.88,1.65-1.43,0,.81,0,1.48,0,2.16,0,.38.07.52.49.51q3,0,6.09,0c.39,0,.51-.1.51-.51q0-7.76,0-15.52c0-.4-.13-.47-.49-.47q-3.3,0-6.6,0c-.39,0-.51.1-.51.5,0,2.3,0,4.6,0,6.9a13.88,13.88,0,0,1-.1,1.82A2.76,2.76,0,0,1,62.33,32.29Z"/><path class="cls-2" d="M118.12,18.8l.25-.3a57.34,57.34,0,0,1,4.08-4.17,48.87,48.87,0,0,1,15.73-10,32.35,32.35,0,0,1,9.31-2.26,70.26,70.26,0,0,1,14.92.59,46.32,46.32,0,0,1,12.33,3.48A30.74,30.74,0,0,1,192.47,26.5a32.36,32.36,0,0,1,1.29,9.64c.15,0,.16-.14.2-.22a23.29,23.29,0,0,0,2.11-4.86,17.24,17.24,0,0,0,.53-8,19.76,19.76,0,0,0-4.52-9.21,35,35,0,0,0-8.7-7.29,21.2,21.2,0,0,0-3.8-2c-2-.73-4.06-1.36-6.13-1.92a71,71,0,0,0-15-2.54,51.64,51.64,0,0,0-17.1,1.79,43,43,0,0,0-15.36,8,39.66,39.66,0,0,0-7.59,8.25A.87.87,0,0,0,118.12,18.8Z"/><path class="cls-2" d="M114.48,29.75a7.83,7.83,0,0,0,4.5,6,13.78,13.78,0,0,0,6.71,1.44A14.86,14.86,0,0,0,132.24,36,8,8,0,0,0,137,27a7.88,7.88,0,0,0-5-5.85,15.22,15.22,0,0,0-6.43-1.12,13.84,13.84,0,0,0-7,1.65A7.85,7.85,0,0,0,114.48,29.75Zm7.78-2.86a3.53,3.53,0,0,1,3.88-2.49,3.46,3.46,0,0,1,3.24,2.85,6,6,0,0,1,.11,1.41,5.48,5.48,0,0,1-.15,1.56A3.44,3.44,0,0,1,125.42,33a3.48,3.48,0,0,1-3.33-3.16A6.61,6.61,0,0,1,122.26,26.89Z"/><path class="cls-2" d="M25.53,30.07a6.24,6.24,0,0,0,.92,2.76,8.83,8.83,0,0,0,4.93,3.67,21.4,21.4,0,0,0,6.67.73,14.69,14.69,0,0,0,4.83-.75,8.34,8.34,0,0,0,5.27-4.91c.14-.35.1-.48-.31-.52-2.16-.18-4.31-.4-6.46-.61a.34.34,0,0,0-.39.23A3.86,3.86,0,0,1,37.29,33a3.85,3.85,0,0,1-4.14-2.78A6.14,6.14,0,0,1,33,28.32a3.81,3.81,0,0,1,2.67-3.73,5.53,5.53,0,0,1,2.71-.11,2.77,2.77,0,0,1,2.29,1.76c.1.25.26.23.44.21l6.77-.75a2.53,2.53,0,0,0-.12-.36,7.68,7.68,0,0,0-5.1-4.57,21.89,21.89,0,0,0-9.89-.37,9.87,9.87,0,0,0-4.3,1.93C25.87,24.3,25.2,27,25.53,30.07Z"/><path class="cls-2" d="M98.84,20.09a12.73,12.73,0,0,0-5.14,1.2c-4.71,2.35-5.59,6.78-4.06,10.77.91,2.36,2.93,3.69,5.3,4.44a18.71,18.71,0,0,0,5.91.7c.54,0,1.08,0,1.62,0a12.52,12.52,0,0,0,5.36-1.33,8.22,8.22,0,0,0,3.87-4.26c.17-.42.07-.56-.35-.56l-.2,0c-2.06-.19-4.11-.38-6.16-.59-.28,0-.38.08-.48.31a3.29,3.29,0,0,1-1.14,1.46,4.77,4.77,0,0,1-4.69.39,3.53,3.53,0,0,1-2.12-3.41,4.39,4.39,0,0,1,1.47-4,4.81,4.81,0,0,1,4-.71,2.6,2.6,0,0,1,2,1.5c.2.46.47.47.86.42,2-.23,4-.47,6-.67.42-.05.51-.12.33-.53a8.15,8.15,0,0,0-5.81-4.68A22.53,22.53,0,0,0,98.84,20.09Z"/><path class="cls-2" d="M148.17,14.14c-2.21,0-4.43,0-6.64,0-.39,0-.51.09-.51.49,0,3.64,0,7.27,0,10.91h0c0,3.63,0,7.27,0,10.9,0,.36.1.45.45.45,2.23,0,4.46,0,6.69,0,.35,0,.47-.08.47-.45q0-10.92,0-21.85C148.64,14.21,148.51,14.14,148.17,14.14Z"/><path class="cls-2" d="M35.2,5.91a4.82,4.82,0,0,0-5.1,3.73,7.65,7.65,0,0,0,0,3.86,4.8,4.8,0,0,0,5.63,3.84,4.71,4.71,0,0,0,3.13-1.82c0,.51,0,.89,0,1.25s.1.38.38.37c1.21,0,2.43,0,3.65,0,.32,0,.35-.14.35-.39q0-7.22,0-14.41c0-.34-.12-.38-.41-.38C41.58,2,40.29,2,39,2c-.35,0-.46.08-.45.44,0,1.42,0,2.84,0,4.26,0,.15.07.33-.07.49A5,5,0,0,0,35.2,5.91Zm3.38,5.68a3,3,0,0,1-.5,2,1.92,1.92,0,0,1-2,.68A1.75,1.75,0,0,1,34.72,13a4.52,4.52,0,0,1,0-2.5,1.76,1.76,0,0,1,1.78-1.41,2,2,0,0,1,2,1.45A3.5,3.5,0,0,1,38.58,11.59Z"/><path class="cls-2" d="M112.69,9.92a29.21,29.21,0,0,1-3.89.9,10.79,10.79,0,0,0-3.15.88,2.82,2.82,0,0,0-.62,4.55,4.25,4.25,0,0,0,2.81,1.11,7,7,0,0,0,5-1.24c.29-.23.41-.34.51.15s.12.86.68.87h4.14a4.61,4.61,0,0,1-.62-2.92V11.08a11.13,11.13,0,0,0-.07-1.73,3.48,3.48,0,0,0-2.49-3,15,15,0,0,0-4.52-.42,10.51,10.51,0,0,0-3.35.45,3.6,3.6,0,0,0-2.62,2.91l4.07.41a.41.41,0,0,0,.51-.27,1.46,1.46,0,0,1,1.1-.88,4.66,4.66,0,0,1,1.86-.07,1.06,1.06,0,0,1,.91.94C113.05,9.7,113,9.82,112.69,9.92Zm.34,2.59A2.58,2.58,0,0,1,109.64,15a1,1,0,0,1-.14-2,9.8,9.8,0,0,1,2-.62l1-.28C113,11.92,113,11.92,113,12.51Z"/><path class="cls-2" d="M14.81,6.52c0,3.42,0,6.83,0,10.25,0,.34.13.38.41.37,1.29,0,2.57,0,3.86,0,.34,0,.41-.1.41-.43,0-1.74,0-3.48,0-5.22a3.33,3.33,0,0,1,.25-1.29,1.78,1.78,0,0,1,1.92-1A1.41,1.41,0,0,1,23,10.67c0,.3,0,.61,0,.91q0,2.56,0,5.13c0,.3,0,.45.41.44q2,0,3.9,0c.32,0,.4-.1.4-.41,0-1,0-2,0-2.94,0-1.52.08-3-.07-4.56A3.4,3.4,0,0,0,25,6.08a6.42,6.42,0,0,0-3.11,0,5.79,5.79,0,0,0-2.71,1.8c0-.52,0-.93,0-1.33s-.05-.44-.41-.44c-1.18,0-2.36,0-3.55,0C14.92,6.14,14.81,6.19,14.81,6.52Z"/><path class="cls-2" d="M50.37,6.14c-1.32,0-2.64,0-4,0-.26,0-.35,0-.34.33,0,2.38,0,4.77,0,7.15a3.35,3.35,0,0,0,1.8,3.23,5.38,5.38,0,0,0,5.36-.31,10.25,10.25,0,0,0,1.33-1.14c0,.52,0,.93,0,1.33s0,.41.38.41q1.8,0,3.6,0c.33,0,.39-.12.38-.42q0-5.09,0-10.19c0-.31-.09-.4-.4-.4-1.29,0-2.57,0-3.86,0-.37,0-.43.13-.42.46,0,1.51,0,3,0,4.51a6.49,6.49,0,0,1-.17,1.71,1.74,1.74,0,0,1-2.05,1.25c-.78-.09-1.22-.62-1.29-1.55,0-.22,0-.44,0-.66,0-1.78,0-3.55,0-5.33C50.76,6.22,50.68,6.14,50.37,6.14Z"/><path class="cls-2" d="M86.34,25.82H77.93c-.33,0-.39.11-.39.41,0,3.34,0,6.69,0,10,0,.38.13.44.46.43q4.17,0,8.32,0c.37,0,.44-.13.44-.47,0-1.65,0-3.31,0-5h0c0-1.68,0-3.35,0-5C86.76,25.93,86.68,25.81,86.34,25.82Z"/><path class="cls-2" d="M64.18,6.26A3.77,3.77,0,0,0,61.81,8a3,3,0,0,0,2,4.28,22.18,22.18,0,0,0,2.91.63c.73.12,1.46.26,2.19.43a.82.82,0,0,1,.7.71.75.75,0,0,1-.38.71A2.53,2.53,0,0,1,65.7,14c-.14-.26-.28-.27-.52-.25-1.29.12-2.59.24-3.89.33-.34,0-.34.13-.25.4A4,4,0,0,0,63.91,17a15.29,15.29,0,0,0,5.64.25,5.85,5.85,0,0,0,3-1.1,3,3,0,0,0-.57-5.34,9.89,9.89,0,0,0-2.83-.71,26.28,26.28,0,0,1-2.8-.43c-.33-.08-.65-.24-.66-.66a.75.75,0,0,1,.62-.76,2.84,2.84,0,0,1,2.12.16,1,1,0,0,1,.5.49c.1.28.27.32.54.3,1.23-.12,2.45-.23,3.68-.32.33,0,.31-.14.2-.38a4.11,4.11,0,0,0-2-2,9.24,9.24,0,0,0-3.66-.56A12.3,12.3,0,0,0,64.18,6.26Z"/><path class="cls-2" d="M82.09,9.23c.61,0,1.21,0,1.82,0,.29,0,.38-.09.37-.38,0-.79,0-1.58,0-2.38,0-.27-.1-.34-.35-.33-.61,0-1.22,0-1.83,0-.34,0-.42-.1-.41-.43,0-1.23,0-2.46,0-3.76-1.41.66-2.76,1.31-4.13,1.9a.78.78,0,0,0-.56.91c0,.43.16,1-.06,1.27s-.82.1-1.25.09-.42.07-.41.39c0,.49,0,1,0,1.47s-.12.89.07,1.13.76.1,1.16.09.5.1.5.5c0,1.6-.08,3.21.08,4.81a2.76,2.76,0,0,0,2.41,2.72,13.16,13.16,0,0,0,4.68-.14c.29-.05.23-.24.21-.42-.06-.52-.14-1-.19-1.56-.08-.94-.08-.94-1-.77l-.3,0c-.92.06-1.2-.17-1.22-1.1,0-1.24,0-2.47,0-3.7C81.69,9.28,81.82,9.22,82.09,9.23Z"/><path class="cls-2" d="M10.94,2C9.51,2,8.07,2,6.63,2c-.36,0-.44.09-.44.45q0,7.14,0,14.29c0,.38.12.44.46.44,1.43,0,2.87,0,4.31,0,.35,0,.45-.09.44-.45q0-3.57,0-7.15t0-7.1C11.4,2.1,11.35,2,10.94,2Z"/><path class="cls-2" d="M90.55,6.15c-1.22,0-2.43,0-3.65,0-.3,0-.35.1-.35.38q0,5.12,0,10.23c0,.32.07.4.39.4,1.28,0,2.57,0,3.85,0,.4,0,.46-.13.45-.49,0-1.28,0-2.56,0-3.85a6.86,6.86,0,0,1,.38-2.33,1.8,1.8,0,0,1,2.14-1.27,3.89,3.89,0,0,1,.58.18c.22.08.36.07.47-.18.38-.83.78-1.65,1.18-2.46.1-.19.1-.29-.12-.38-1.75-.71-3.64-.83-4.81,1.29l-.15.23c0-.54,0-1,0-1.39S90.83,6.14,90.55,6.15Z"/><path class="cls-2" d="M101.37,6.14c-1.28,0-2.57,0-3.85,0-.38,0-.44.12-.43.46,0,1.67,0,3.35,0,5s0,3.41,0,5.12c0,.3,0,.41.38.41,1.3,0,2.61,0,3.91,0,.32,0,.39-.12.39-.41q0-5.1,0-10.2C101.77,6.23,101.69,6.14,101.37,6.14Z"/><path class="cls-2" d="M77.1,22.18A16.13,16.13,0,0,1,77.73,24c.12.46.35.5.76.41,1.88-.42,3.76-.81,5.64-1.21,1.6-.34,3.2-.67,4.8-1,.16,0,.46,0,.38-.32a2.49,2.49,0,0,0-.29-1c-.46-.69-.91-1.39-1.34-2.09a.36.36,0,0,0-.49-.19q-4.95,1.61-9.91,3.18C77,21.86,77,22,77.1,22.18Z"/><path class="cls-2" d="M97.42,2c-.23,0-.34,0-.33.3q0,1.14,0,2.28c0,.27.12.29.33.29h4c.27,0,.41,0,.4-.35,0-.72,0-1.45,0-2.17,0-.26-.07-.35-.34-.35C100.08,2,98.75,2,97.42,2Z"/><path class="cls-2" d="M178.45,43.19a.42.42,0,0,0-.48.37c-.12.49-.27,1-.45,1.58-.11-.4-.18-.67-.26-1-.29-1-.29-1-1.36-1-.34,0-.38.12-.38.4,0,.8,0,1.59,0,2.38,0,.32,0,.5.42.47s.54,0,.5-.45,0-1,0-1.55a8.23,8.23,0,0,1,.61,1.72c.08.37.33.25.54.27s.37,0,.43-.28c.15-.6.34-1.19.51-1.78l.1,0c0,.54,0,1.08,0,1.62,0,.38.09.48.47.47s.46-.09.45-.45c0-.59,0-1.18,0-1.77C179.52,43.18,179.52,43.19,178.45,43.19Z"/><path class="cls-2" d="M140,43.52c0,.86,0,1.73,0,2.59,0,.45.29.32.51.31s.57.15.54-.33,0-.86,0-1.43a13,13,0,0,1,.95,1.27,1,1,0,0,0,1.14.51c.23,0,.29-.1.29-.31,0-.87,0-1.75,0-2.63,0-.5-.37-.27-.59-.3s-.49-.1-.47.31,0,.85,0,1.42a12.06,12.06,0,0,1-1-1.25,1,1,0,0,0-1.05-.49C140.13,43.2,140,43.24,140,43.52Z"/><path class="cls-2" d="M148.6,46.72a1.81,1.81,0,0,0-.76-.21c-.42-.08-.37.16-.27.4a.67.67,0,0,0,.47.36,3,3,0,0,0,1.49,0,.91.91,0,0,0,.74-1c0-.55,0-1.11,0-1.67s-.49-.83-.85-.5-.27.07-.42,0a1,1,0,0,0-1.57,1c0,1,.82,1.45,1.82.92C149.26,46.72,149,47,148.6,46.72Zm.27-1c-.32,0-.43-.2-.45-.52s.05-.49.41-.48a.41.41,0,0,1,.43.45C149.28,45.45,149.19,45.68,148.87,45.71Z"/><path class="cls-2" d="M101.21,46.28c.07-.48.43-.39.74-.38s.71-.14.78.38c0,.14.16.15.28.15h.92c-.37-.9-.77-1.73-1.07-2.6-.18-.53-.46-.73-1-.64-.22,0-.47-.08-.59.24-.39,1-.81,2-1.24,3h.84C101,46.43,101.19,46.47,101.21,46.28Zm.72-2.09c.21.07.18.25.22.38.25.67.24.67-.55.6Z"/><path class="cls-2" d="M168.49,44.1a1.09,1.09,0,0,0-1.28.44,1.51,1.51,0,0,0,.16,1.62,1.06,1.06,0,0,0,1.34.13c.15-.08.16-.11.3.07s.51.1.76,0,.1-.29.11-.44c0-.74,0-1.49,0-2.23,0-.43-.08-.58-.55-.56s-.52.1-.46.48a5.56,5.56,0,0,1,0,.58Zm0,1.71c-.35,0-.41-.28-.42-.58s.08-.51.41-.51.43.27.43.56S168.78,45.81,168.46,45.81Z"/><path class="cls-2" d="M180.09,44.92a1.2,1.2,0,0,0,0,.65,1.07,1.07,0,0,0,.95.85c.68.07,1.4.17,1.91-.59-.47,0-.86-.19-1.24.08a.39.39,0,0,1-.43,0c-.09-.07-.2-.15-.15-.29s.16-.09.25-.09h1.32c.26,0,.35-.06.31-.35-.08-.69-.44-1-1.33-1.09A1.37,1.37,0,0,0,180.09,44.92Zm1.39-.32c.22,0,.42,0,.47.27s-.1.19-.22.17-.45.06-.64-.07A.38.38,0,0,1,181.48,44.6Z"/><path class="cls-2" d="M131.75,44.94l-1.08.26a.59.59,0,0,0-.5.66.63.63,0,0,0,.56.57,1.63,1.63,0,0,0,1,0c.2-.07.34-.2.59,0a.88.88,0,0,0,.73,0c.18-.07,0-.31,0-.49a2.64,2.64,0,0,0,0-.4v-.25c0-.91-.2-1.12-1.11-1.21a4.17,4.17,0,0,0-1,.06.76.76,0,0,0-.57.39c-.05.1-.12.26.06.27s.6.18.86-.06a.57.57,0,0,1,.43-.12c.13,0,.3,0,.32.17S131.85,44.92,131.75,44.94Zm.27.62c0,.31-.28.38-.54.4s-.35-.05-.29-.24.46-.27.72-.36S132,45.48,132,45.56Z"/><path class="cls-2" d="M137.59,44.09c-.42-.07-.64.09-.72.52a7,7,0,0,1-.32,1,5.91,5.91,0,0,1-.31-.88c-.09-.53-.38-.7-.9-.64-.26,0-.37.06-.22.35.27.51.49,1,.73,1.55s.21.72-.45.76c-.1,0-.27-.08-.25.13s-.06.35.13.45a1.42,1.42,0,0,0,1.52-.38c.43-.92.81-1.86,1.23-2.84A2.82,2.82,0,0,1,137.59,44.09Z"/><path class="cls-2" d="M125.08,44.08c-.36,0-.46.13-.43.47s0,.54,0,.81c0,1,.64,1.41,1.56.9.06,0,.15-.2.22,0,.19.45.57.2.82.18s.09-.37.11-.57a3.47,3.47,0,0,0,0-.56,5.45,5.45,0,0,1,0-.7c.07-.43-.13-.48-.5-.49s-.52.13-.49.51a4.39,4.39,0,0,1,0,.81.32.32,0,0,1-.39.35c-.24,0-.31-.18-.32-.38a4.21,4.21,0,0,1,0-.71C125.72,44.19,125.55,44.06,125.08,44.08Z"/><path class="cls-2" d="M112.37,44.93c-.37.09-.75.17-1.12.27a.59.59,0,0,0-.52.65.66.66,0,0,0,.6.59,1.77,1.77,0,0,0,1-.11c.15-.07.24-.14.42,0s.48.05.73.06.14-.07.11-.17a7.37,7.37,0,0,1-.07-1.41.74.74,0,0,0-.67-.75c-.22,0-.44-.05-.65-.07-.44,0-.9,0-1.24.35-.09.1-.3.31,0,.38a.88.88,0,0,0,.86,0,.72.72,0,0,1,.52-.13c.11,0,.22,0,.23.16S112.47,44.91,112.37,44.93Zm.24.57c0,.32-.25.44-.55.46-.14,0-.36,0-.31-.22.09-.37.48-.26.73-.39C112.57,45.3,112.62,45.4,112.61,45.5Z"/><path class="cls-2" d="M119,46.28c.08,0,.17-.21.23-.06.2.45.58.21.82.17s.1-.39.13-.61a2.77,2.77,0,0,0,0-.5c0-.31,0-.61,0-.91,0-.48-.4-.22-.61-.27s-.41-.05-.38.28a6.16,6.16,0,0,1,0,1c0,.24-.13.43-.41.42s-.31-.22-.32-.43a5.48,5.48,0,0,1,0-.81c0-.36-.11-.42-.45-.44s-.61.09-.54.55a6.42,6.42,0,0,1,0,.76C117.48,46.39,118.13,46.76,119,46.28Z"/><path class="cls-2" d="M145.31,45.49c.44,0,.88,0,1.32,0,.28,0,.34-.1.31-.35-.05-.68-.54-1.07-1.44-1.1a1.32,1.32,0,0,0-1.51,1v.05a1.13,1.13,0,0,0,.81,1.25,1.75,1.75,0,0,0,2-.56c-.42,0-.8-.2-1.19.08a.4.4,0,0,1-.43,0c-.1-.07-.21-.15-.2-.28S145.21,45.49,145.31,45.49ZM145,45a.45.45,0,0,1,.58-.44.3.3,0,0,1,.31.33c0,.2-.21.09-.32.1A5.32,5.32,0,0,1,145,45Z"/><path class="cls-2" d="M173.25,44.78a.94.94,0,0,0-.55-.57,2,2,0,0,0-1.71,0,1.18,1.18,0,0,0-.19,2,2.21,2.21,0,0,0,2.16,0c.11-.08.26-.15.24-.36a2,2,0,0,0-1.17.08c-.27.15-.56,0-.63-.41h1.38C173.41,45.49,173.48,45.37,173.25,44.78Zm-1.33.25a3,3,0,0,1-.53,0c.06-.35.24-.44.48-.45s.4.07.42.28S172.05,45,171.92,45Z"/><path class="cls-2" d="M108.84,45.76c-.24,0-.31-.18-.32-.37,0-.36,0-.71,0-1.06s-.24-.26-.38-.22-.58-.22-.6.21a12.69,12.69,0,0,0,0,1.51.65.65,0,0,0,.63.62,1.16,1.16,0,0,0,.87-.17c.06-.05.15-.24.25,0,.2.37.54.17.79.16s.11-.34.14-.51a3.11,3.11,0,0,0,0-.61c0-.3,0-.61,0-.91,0-.47-.35-.25-.55-.27s-.46-.13-.44.27a3.78,3.78,0,0,1,0,1.06A.36.36,0,0,1,108.84,45.76Z"/><path class="cls-2" d="M194.62,45.26c0-.76-.68-1.28-1.61-1.22a1.25,1.25,0,0,0-1.34,1.32,1,1,0,0,0,.44.81,1.51,1.51,0,0,0,1,.29C194,46.47,194.62,46,194.62,45.26Zm-2,0c0-.32.11-.61.51-.58s.44.3.45.57-.13.6-.5.6S192.66,45.56,192.66,45.26Z"/><path class="cls-2" d="M160.42,46.46c1.18,0,1.85-.77,1.49-1.66a1.44,1.44,0,0,0-1.48-.76,1.32,1.32,0,0,0-1.34.88,1.15,1.15,0,0,0,.49,1.32A1.47,1.47,0,0,0,160.42,46.46Zm.09-1.79c.37,0,.46.27.49.59s-.07.58-.46.59-.51-.26-.51-.6S160.16,44.68,160.51,44.67Z"/><path class="cls-2" d="M151.28,44.29a1.14,1.14,0,0,0-.07,1.89,1.65,1.65,0,0,0,1.1.28,1.84,1.84,0,0,0,.35,0,1.23,1.23,0,0,0,1-1,1.12,1.12,0,0,0-.72-1.21A1.83,1.83,0,0,0,151.28,44.29Zm1.43,1c0,.28-.09.56-.47.57s-.5-.29-.5-.61.13-.58.49-.57S152.7,44.94,152.71,45.28Z"/><path class="cls-2" d="M183.25,46.38a1.19,1.19,0,0,0,1.57-.68c.59.79.81.87,1.59.64-.24-.31-.47-.62-.71-.92a.29.29,0,0,1,0-.44c.22-.26.43-.54.65-.83-.67-.15-1.2-.09-1.49.58-.51-.72-.58-.74-1.53-.57a4.73,4.73,0,0,0,.5.64c.34.3.26.55,0,.84S183.45,46.11,183.25,46.38Z"/><path class="cls-2" d="M163.82,46c-.12,0-.28,0-.34-.05-.26-.3-.59-.17-.9-.17s-.27.17-.12.35a1.42,1.42,0,0,0,1.16.38,2.76,2.76,0,0,0,.9-.13.7.7,0,0,0,.5-.68.63.63,0,0,0-.55-.63c-.26-.07-.53-.08-.79-.14s-.38,0-.34-.21.32-.23.46-.12a.94.94,0,0,0,.76.14c.1,0,.26,0,.31-.08s-.08-.26-.19-.33a2.14,2.14,0,0,0-1.8-.13.6.6,0,0,0-.46.6.62.62,0,0,0,.5.62c.31.09.63.14.94.21.11,0,.26,0,.23.2S163.93,46,163.82,46Z"/><path class="cls-2" d="M155.89,44.76c.25.23.5.14.76.13s.34-.16.15-.39a1.83,1.83,0,0,0-2.56.12,1.16,1.16,0,0,0-.18.73c.06.72.55,1.1,1.47,1.12a1.43,1.43,0,0,0,1.38-.58c.05-.09.17-.25,0-.27s-.63-.27-.93.08a.49.49,0,0,1-.77,0,.63.63,0,0,1,0-.84A.47.47,0,0,1,155.89,44.76Z"/><path class="cls-2" d="M114.4,46.12a1.84,1.84,0,0,0,2.63-.5c-.44,0-.81-.22-1.2.17s-.73,0-.77-.4c0-.24,0-.49.21-.64a.57.57,0,0,1,.7.06c.2.15.93.12.93,0a.67.67,0,0,0-.52-.6,2.09,2.09,0,0,0-1.68,0A1.18,1.18,0,0,0,114.4,46.12Z"/><path class="cls-2" d="M105.92,44.75a.73.73,0,0,0,.7.14c.12,0,.31,0,.34-.14s-.1-.24-.2-.34a1.93,1.93,0,0,0-2.41.1.94.94,0,0,0-.23.54A1.12,1.12,0,0,0,105,46.4a1.58,1.58,0,0,0,2.07-.78c-.4,0-.78-.24-1.16.16a.45.45,0,0,1-.67-.11.66.66,0,0,1,0-.84A.46.46,0,0,1,105.92,44.75Z"/><path class="cls-2" d="M190.16,44.75c.25.23.49.16.75.14s.28,0,.29-.13a.51.51,0,0,0-.15-.3,1.9,1.9,0,0,0-2.48.08,1.08,1.08,0,0,0-.23.6,1.14,1.14,0,0,0,.91,1.27c1,.24,1.71,0,2-.78-.38,0-.75-.28-1.11.13a.46.46,0,0,1-.68,0,.64.64,0,0,1,0-.84A.47.47,0,0,1,190.16,44.75Z"/><path class="cls-2" d="M123.46,43.29c-.56.11-.8.6-1.16.94a.57.57,0,0,0,0,.43c.58.15.32.61.35.94,0,.69.22.88.93.86l.36,0c.19,0,.28-.06.25-.26s.05-.36-.23-.36c-.53,0-.28-.39-.31-.62s-.09-.51.31-.46c.23,0,.24-.14.22-.29s.09-.37-.16-.34c-.5,0-.35-.3-.39-.55S123.77,43.23,123.46,43.29Z"/><path class="cls-2" d="M121.31,43.2c-.2,0-.48-.12-.47.3,0,.88,0,1.75,0,2.63,0,.36.21.33.42.29s.59.2.58-.29,0-.88,0-1.32,0-.87,0-1.31S121.52,43.22,121.31,43.2Z"/><path class="cls-2" d="M128.46,46.45c.47,0,.59-.14.53-.56a2.09,2.09,0,0,1,0-.61c0-.3.12-.58.56-.53s.34-.31.38-.5-.23-.17-.37-.2a.6.6,0,0,0-.47.15c-.07.07-.1.09-.22,0-.56-.35-.91-.15-.91.5v.56a5.45,5.45,0,0,1,0,.7C127.93,46.37,128.1,46.43,128.46,46.45Z"/><path class="cls-2" d="M157.52,45.93c0,.4.09.51.49.52s.57-.12.51-.53a4.85,4.85,0,0,1,0-.66h0a7.3,7.3,0,0,1,0-.81c.06-.44-.24-.36-.48-.35s-.56-.11-.52.36A9,9,0,0,1,157.52,45.93Z"/><path class="cls-2" d="M187.35,44.1c-.24,0-.56-.12-.53.35s0,1,0,1.57c0,.33.09.4.42.43.49,0,.67-.11.59-.6a3.49,3.49,0,0,1,0-.56,8,8,0,0,1,0-.85C187.88,44,187.58,44.1,187.35,44.1Z"/><path class="cls-2" d="M158,43.81c.18-.08.51.2.52-.29s-.23-.34-.45-.32-.56-.18-.56.32S157.81,43.77,158,43.81Z"/><path class="cls-2" d="M93.48,42.78a15.54,15.54,0,0,0,1.85-1.27h0l0,0a22,22,0,0,0-2.1,1.22C93.29,42.68,93.41,42.66,93.48,42.78Z"/><path class="cls-2" d="M187.38,43.2c-.21,0-.56-.18-.56.32s.29.24.49.29.52.19.53-.29S187.6,43.17,187.38,43.2Z"/><path class="cls-2" d="M181.16,43.78c.53.14.74-.32,1.1-.56C181.5,43.06,181.48,43.08,181.16,43.78Z"/><path class="cls-2" d="M95.58,41.23l-.3.23,0,0C95.42,41.46,95.54,41.43,95.58,41.23Z"/><path class="cls-2" d="M95.33,41.51l0,0,0,0Z"/><path class="cls-2" d="M118,18.85l0,0s0,0,0,0l0,0Z"/></svg>