<svg id="Capa_1" data-name="Capa 1" xmlns="http://www.w3.org/2000/svg" viewBox="0 0 177.17 79.56"><defs><style>.cls-1{fill:none;}.cls-2{fill:#def1f9;}</style></defs><title>Conacua - camiseta reverso editable</title><path class="cls-1" d="M14.6,44.3H32.71a.63.63,0,0,0,.62-.63V42.23a.63.63,0,0,0-.62-.63H14.6a.63.63,0,0,0-.63.63v1.44A.63.63,0,0,0,14.6,44.3Z"/><path class="cls-1" d="M38.38,43.77c-.16,4.48-2.09,2.92-2.09,4.6,0,.94,1,1.43,1.81,1.43,1.9,0,3.76-.14,5.65-.14,1.7,0,3.24.14,5.1.14,5.52,0,7.35-3.32,7.35-6a4.74,4.74,0,0,0-3.07-4.13c-.27-.13-.58-.24-.58-.59s.25-.52.5-.73A4.33,4.33,0,0,0,54.56,35c0-2.08-1.29-4.43-6.31-4.43-1.29,0-2.55.19-3.84.19-2,0-4.06-.19-6.09-.19-.85,0-2,.49-2,1.51,0,1.87,2.22-.13,2,3.94Zm10.17.71c0,1.4-.55,2.45-2.11,2.45-1.33,0-1.37-.08-1.37-3.21V42.37c0-.57.22-1,1.07-1C48.06,41.37,48.55,42.83,48.55,44.48ZM46,33.35c1.51,0,1.92,1.51,1.92,2.73,0,1.48-.38,2.62-2,2.62-.86,0-.8-.52-.8-1.57V34.94C45.07,34.16,45,33.35,46,33.35Z"/><path class="cls-1" d="M58.5,40.53a17.78,17.78,0,0,1-.11,5.87c-.33.83-1.46.89-1.46,1.86,0,.65.2,1.7,4.91,1.7,1.24,0,4.72,0,4.72-1.84,0-1.43-1.62-.27-1.62-3.46V37.13c0-.57,0-1.19-.85-1.19-.28,0-7.24.81-7.24,2.73C56.85,39.88,58.25,39.59,58.5,40.53Z"/><path class="cls-1" d="M14.6,38.83H32.71a.63.63,0,0,0,.62-.63V36.76a.63.63,0,0,0-.62-.63H14.6a.63.63,0,0,0-.63.63V38.2A.63.63,0,0,0,14.6,38.83Z"/><path class="cls-1" d="M14.6,49.77H32.71a.63.63,0,0,0,.62-.63V47.69a.63.63,0,0,0-.62-.63H14.6a.63.63,0,0,0-.63.63v1.45A.63.63,0,0,0,14.6,49.77Z"/><path class="cls-1" d="M59.51,35.08c1.56,0,5.29-.54,5.29-2.65,0-1.35-1.56-1.7-2.66-1.7-1.4,0-5,.73-5,2.51C57.13,34.57,58.36,35.08,59.51,35.08Z"/><path class="cls-1" d="M14.6,33.37H32.71a.63.63,0,0,0,.62-.63V31.29a.62.62,0,0,0-.62-.62H14.6a.63.63,0,0,0-.63.62v1.45A.63.63,0,0,0,14.6,33.37Z"/><path class="cls-1" d="M123.71,41.5l-.11,4.06c-.08,2.64-1.34,1.48-1.34,2.78,0,1.62,2.8,1.62,3.89,1.62s4.77,0,4.77-1.62c0-1-.93-.57-.93-3.19V43.07c0-1.21-.16-3.08,1.59-3.08,2.58,0,1.81,4.33,1.68,6.24s-1,1.3-1,2.27c0,1.51,2.63,1.46,3.62,1.46,5.16,0,5-1.14,5-1.62,0-1.16-1.13-.68-1.26-2.81-.28-4.11.68-9.59-5-9.59a3.84,3.84,0,0,0-2.93,1.11c-.55.57-.79,1.14-1.23,1.14s-.55-.39-.55-.71c0-.16,0-.32,0-.48a1,1,0,0,0-1-1.06c-.55,0-6.86,1.35-6.86,2.78S123.77,39.51,123.71,41.5Z"/><path class="cls-1" d="M114.27,35.08c1.57,0,5.3-.54,5.3-2.65,0-1.35-1.57-1.7-2.66-1.7-1.4,0-5,.73-5,2.51C111.89,34.57,113.12,35.08,114.27,35.08Z"/><path class="cls-1" d="M138.87,34.69a2.62,2.62,0,1,0-2.65-2.63A2.62,2.62,0,0,0,138.87,34.69Zm0-4.85a2.24,2.24,0,1,1-2.18,2.22A2.16,2.16,0,0,1,138.87,29.84Z"/><path class="cls-1" d="M113.26,40.53a17.51,17.51,0,0,1-.11,5.87c-.33.83-1.45.89-1.45,1.86,0,.65.19,1.7,4.91,1.7,1.23,0,4.71,0,4.71-1.84,0-1.43-1.62-.27-1.62-3.46V37.13c0-.57,0-1.19-.85-1.19-.27,0-7.24.81-7.24,2.73C111.61,39.88,113,39.59,113.26,40.53Z"/><path class="cls-1" d="M73.28,49.94c3.76.74,8.73-1.1,9.48-5.54A7.35,7.35,0,0,0,76.9,36c-4.22-.82-8.71,1.13-9.53,6C66.65,46.22,69.48,49.21,73.28,49.94ZM75.14,39C76.49,39,77,40.72,77,42.84s-.3,3.84-1.83,3.84S73.3,45,73.3,42.84,73.77,39,75.14,39Z"/><path class="cls-1" d="M87.92,50c3.76,0,4.39-1,4.39-1.65,0-1-.74-.81-.74-3.29V42.83c0-1-.14-2.84,1.4-2.84s1.43,2.44,1.43,3.41v1.54c.08,3.21-1.29,2.07-1.32,3.51,0,.75.19,1.51,4.33,1.51,1,0,4.28,0,4.28-1.7,0-1-1-.43-1-3.76V42.83c0-1-.13-2.84,1.4-2.84s1.43,2.27,1.43,3.41v2.43c0,1.56-1,1.54-1,2.54,0,1.4,3.18,1.59,4.08,1.59,1.07,0,4.2-.08,4.2-1.79,0-.78-1-.91-1-2.48V40c0-2.64-1.61-4.05-4.22-4.05-2.82,0-4.38,2.41-4.83,2.41s-.6-2.41-3.86-2.41-4.42,2.41-5,2.41-.47-.92-.47-1.25c0-.56-.06-1.16-.74-1.16-.06,0-6.86.76-6.86,2.76,0,1.35,1.38,0,1.38,3.43v2.48c0,3.38-1.65,2.73-1.65,3.94C83.62,50,86.86,50,87.92,50Z"/><path class="cls-1" d="M138.32,32.28h.51l.84,1.32h.52l-.89-1.35a.79.79,0,0,0,.81-.83c0-.59-.34-.88-1.07-.88h-1.2V33.6h.48Zm0-1.35H139c.32,0,.68.06.68.47s-.39.5-.82.5h-.5Z"/><path class="cls-1" d="M144.46,49.77h18.11a.63.63,0,0,0,.63-.63V47.69a.63.63,0,0,0-.63-.63H144.46a.63.63,0,0,0-.62.63v1.45A.63.63,0,0,0,144.46,49.77Z"/><path class="cls-1" d="M144.46,33.37h18.11a.63.63,0,0,0,.63-.63V31.29a.63.63,0,0,0-.63-.62H144.46a.62.62,0,0,0-.62.62v1.45A.63.63,0,0,0,144.46,33.37Z"/><path class="cls-1" d="M144.46,44.3h18.11a.63.63,0,0,0,.63-.63V42.23a.63.63,0,0,0-.63-.63H144.46a.63.63,0,0,0-.62.63v1.44A.63.63,0,0,0,144.46,44.3Z"/><path class="cls-1" d="M144.46,38.83h18.11a.63.63,0,0,0,.63-.63V36.76a.63.63,0,0,0-.63-.63H144.46a.63.63,0,0,0-.62.63V38.2A.63.63,0,0,0,144.46,38.83Z"/><path class="cls-2" d="M139.64,31.4c0-.41-.36-.47-.68-.47h-.64v1h.5C139.25,31.9,139.64,31.88,139.64,31.4Z"/><path class="cls-2" d="M75.14,46.68C76.67,46.68,77,45,77,42.84S76.49,39,75.14,39s-1.84,1.72-1.84,3.84S73.6,46.68,75.14,46.68Z"/><path class="cls-2" d="M45.07,37.13c0,1-.06,1.57.8,1.57,1.64,0,2-1.14,2-2.62,0-1.22-.41-2.73-1.92-2.73-1,0-.9.81-.9,1.59Z"/><path class="cls-2" d="M138.87,34.31a2.24,2.24,0,1,0-2.18-2.25A2.17,2.17,0,0,0,138.87,34.31Zm-1-3.77H139c.73,0,1.07.29,1.07.88a.79.79,0,0,1-.81.83l.89,1.35h-.52l-.84-1.32h-.51V33.6h-.48Z"/><path class="cls-2" d="M46.14,41.37c-.85,0-1,.43-1.07,1v1.35c0,3.13,0,3.21,1.37,3.21,1.56,0,2.11-1,2.11-2.45C48.55,42.83,48.06,41.37,46.14,41.37Z"/><path class="cls-2" d="M0,79.56H177.17V0H0ZM143.84,31.29a.62.62,0,0,1,.62-.62h18.11a.63.63,0,0,1,.63.62v1.45a.63.63,0,0,1-.63.63H144.46a.63.63,0,0,1-.62-.63Zm0,5.47a.63.63,0,0,1,.62-.63h18.11a.63.63,0,0,1,.63.63V38.2a.63.63,0,0,1-.63.63H144.46a.63.63,0,0,1-.62-.63Zm0,5.47a.63.63,0,0,1,.62-.63h18.11a.63.63,0,0,1,.63.63v1.44a.63.63,0,0,1-.63.63H144.46a.63.63,0,0,1-.62-.63Zm0,5.46a.63.63,0,0,1,.62-.63h18.11a.63.63,0,0,1,.63.63v1.45a.63.63,0,0,1-.63.63H144.46a.63.63,0,0,1-.62-.63Zm-5-18.23a2.62,2.62,0,1,1-2.65,2.6A2.61,2.61,0,0,1,138.87,29.46ZM129,35.94a1,1,0,0,1,1,1.06c0,.16,0,.32,0,.48,0,.32.14.71.55.71s.68-.57,1.23-1.14a3.84,3.84,0,0,1,2.93-1.11c5.68,0,4.72,5.48,5,9.59.13,2.13,1.26,1.65,1.26,2.81,0,.48.11,1.62-5,1.62-1,0-3.62,0-3.62-1.46,0-1,.91-.51,1-2.27s.9-6.24-1.68-6.24c-1.75,0-1.59,1.87-1.59,3.08v2.08c0,2.62.93,2.16.93,3.19,0,1.67-3.64,1.62-4.77,1.62s-3.89,0-3.89-1.62c0-1.3,1.26-.14,1.34-2.78l.11-4.06c.06-2-1.62-1.35-1.62-2.78S128.4,35.94,129,35.94Zm-12-5.21c1.09,0,2.66.35,2.66,1.7,0,2.11-3.73,2.65-5.3,2.65-1.15,0-2.38-.51-2.38-1.84C111.89,31.46,115.51,30.73,116.91,30.73Zm1.94,5.21c.83,0,.85.62.85,1.19v7.53c0,3.19,1.62,2,1.62,3.46,0,1.84-3.48,1.84-4.71,1.84-4.72,0-4.91-1.05-4.91-1.7,0-1,1.12-1,1.45-1.86a17.51,17.51,0,0,0,.11-5.87c-.25-.94-1.65-.65-1.65-1.86C111.61,36.75,118.58,35.94,118.85,35.94ZM85.27,44.61V42.13c0-3.43-1.38-2.08-1.38-3.43,0-2,6.8-2.76,6.86-2.76.68,0,.74.6.74,1.16,0,.33-.11,1.25.47,1.25s1.72-2.41,5-2.41,3.29,2.41,3.86,2.41,2-2.41,4.83-2.41c2.61,0,4.22,1.41,4.22,4.05v5.7c0,1.57,1,1.7,1,2.48,0,1.71-3.13,1.79-4.2,1.79-.9,0-4.08-.19-4.08-1.59,0-1,1-1,1-2.54V43.4c0-1.14.14-3.41-1.43-3.41s-1.4,1.84-1.4,2.84V44.5c0,3.33,1,2.76,1,3.76,0,1.67-3.29,1.7-4.28,1.7-4.14,0-4.36-.76-4.33-1.51,0-1.44,1.4-.3,1.32-3.51V43.4c0-1,.13-3.41-1.43-3.41s-1.4,1.84-1.4,2.84V45c0,2.48.74,2.32.74,3.29,0,.7-.63,1.65-4.39,1.65-1.06,0-4.3,0-4.3-1.41C83.62,47.34,85.27,48,85.27,44.61Zm-17.9-2.67c.82-4.86,5.31-6.81,9.53-6a7.35,7.35,0,0,1,5.86,8.45C82,48.84,77,50.68,73.28,49.94S66.65,46.22,67.37,41.94ZM62.14,30.73c1.1,0,2.66.35,2.66,1.7,0,2.11-3.73,2.65-5.29,2.65-1.15,0-2.38-.51-2.38-1.84C57.13,31.46,60.74,30.73,62.14,30.73Zm2,5.21c.82,0,.85.62.85,1.19v7.53c0,3.19,1.62,2,1.62,3.46C66.56,50,63.08,50,61.84,50c-4.71,0-4.91-1.05-4.91-1.7,0-1,1.13-1,1.46-1.86a17.78,17.78,0,0,0,.11-5.87c-.25-.94-1.65-.65-1.65-1.86C56.85,36.75,63.81,35.94,64.09,35.94ZM36.35,32.05c0-1,1.12-1.51,2-1.51,2,0,4.06.19,6.09.19,1.29,0,2.55-.19,3.84-.19,5,0,6.31,2.35,6.31,4.43a4.33,4.33,0,0,1-1.51,3.35c-.25.21-.5.38-.5.73s.31.46.58.59a4.74,4.74,0,0,1,3.07,4.13c0,2.71-1.83,6-7.35,6-1.86,0-3.4-.14-5.1-.14-1.89,0-3.75.14-5.65.14-.84,0-1.81-.49-1.81-1.43,0-1.68,1.93-.12,2.09-4.6l0-7.78C38.57,31.92,36.35,33.92,36.35,32.05ZM14,31.29a.63.63,0,0,1,.63-.62H32.71a.62.62,0,0,1,.62.62v1.45a.63.63,0,0,1-.62.63H14.6a.63.63,0,0,1-.63-.63Zm0,5.47a.63.63,0,0,1,.63-.63H32.71a.63.63,0,0,1,.62.63V38.2a.63.63,0,0,1-.62.63H14.6A.63.63,0,0,1,14,38.2Zm0,5.47a.63.63,0,0,1,.63-.63H32.71a.63.63,0,0,1,.62.63v1.44a.63.63,0,0,1-.62.63H14.6a.63.63,0,0,1-.63-.63Zm0,5.46a.63.63,0,0,1,.63-.63H32.71a.63.63,0,0,1,.62.63v1.45a.63.63,0,0,1-.62.63H14.6a.63.63,0,0,1-.63-.63Z"/></svg>