<svg id="Capa_1" data-name="Capa 1" xmlns="http://www.w3.org/2000/svg" viewBox="0 0 167.63 93.9"><defs><style>.cls-1{fill:none;}.cls-2{fill:#def1f9;}</style></defs><title>Conacua - camiseta reverso editable</title><path class="cls-1" d="M162,80.73a7.44,7.44,0,0,0-8.57-6.1l-.15,0A7.44,7.44,0,1,0,162,80.73Zm-7.44,4.14h-1.11l0-3.88c-.28.11-.16.05-.38.87a12.37,12.37,0,0,1-1,3.15c-.72,0-.57.08-.82-.92A17.55,17.55,0,0,0,150.4,81a27.24,27.24,0,0,0-.14,4h-1.08v-5.9h1.73c.22.62.81,3.08.91,3.34l.09.19.85-3.51a5.91,5.91,0,0,1,1.83-.08Zm4.56.08c-.9-2-.41-2.18-2.09-2.18v2.16h-1.15V79.06h2.14a4,4,0,0,1,.94.12,1.64,1.64,0,0,1,.71.38A2.14,2.14,0,0,1,160,80a2,2,0,0,1,.18,1.35c-.21.94-.72,1-.91,1.35l1.3,2.3Z"/><path class="cls-1" d="M157.06,80v1.63h0c.94,0,2.09.27,2.14-.79S157.92,80,157.06,80Z"/><path class="cls-1" d="M94.55,61.32a6.88,6.88,0,0,1,.85-2.55H94l-.27,1h-.28l0,.15-.22,1.8h1.31l.06-.4Z"/><path class="cls-1" d="M79.14,42.35l.22-1.77H77.49a.91.91,0,0,1,0,.23l-.26,1.88h1.87Z"/><path class="cls-1" d="M78.05,50.22H76.31l0,.17-.07.52a2.06,2.06,0,0,1-.26.73c0,.06,0,.12,0,.18s0,.16,0,.24h1.75l0-.37h0a2.15,2.15,0,0,1,.31-.82,2.42,2.42,0,0,1,0-.25Z"/><path class="cls-1" d="M78.48,47.34l0-.38a2.37,2.37,0,0,1,.18-.59,1.84,1.84,0,0,1,0-.41v-.35H76.81l0,.12,0,.19-.12.5c0,.07,0,.12-.06.18a1.87,1.87,0,0,1,.1.74Z"/><path class="cls-1" d="M58.56,61.37l.25-1.59-.8,0L58,60l-.25,1.79h.78l.05-.36Z"/><path class="cls-1" d="M59.06,52.07h.8l0-.36a1.9,1.9,0,0,1,.37-.9,1.1,1.1,0,0,1,0-.18v-.41h-.87l0,.17A3.08,3.08,0,0,1,59,51.5a.19.19,0,0,1,0,.07A2.07,2.07,0,0,1,59.06,52.07Z"/><path class="cls-1" d="M59.26,56.49a1.56,1.56,0,0,1,0-.31l.19-1.26h-.79l0,.21-.23,1.42h.84Z"/><polygon class="cls-1" points="79.99 36.26 78.12 36.26 77.88 37.88 79.78 37.88 79.82 37.54 79.99 36.26"/><path class="cls-1" d="M77.15,56.25l.18-1.32H75.61l0,.24-.2,1.29h1.75v-.15A.13.13,0,0,0,77.15,56.25Z"/><path class="cls-1" d="M58.24,64.85a1.57,1.57,0,0,1-.05-.3h-.87l0,.15a2.16,2.16,0,0,1-.18.56,2,2,0,0,1,0,.91l-.14.51h1.29a4.32,4.32,0,0,1-.14-1.13A2,2,0,0,1,58.24,64.85Z"/><path class="cls-1" d="M59.76,47.34h.93l.06-.42a2.13,2.13,0,0,1,.13-.43A1.89,1.89,0,0,1,60.8,46v-.37H60l0,.16s0,.07,0,.11a3.29,3.29,0,0,1-.3.87A2,2,0,0,1,59.76,47.34Z"/><path class="cls-1" d="M61.25,42.41a1.77,1.77,0,0,1,.08-.46,1.3,1.3,0,0,0,.05-.36,4,4,0,0,1,.16-1h-.88a1.92,1.92,0,0,1,0,.24l-.23,1.87h.77Z"/><path class="cls-1" d="M97.77,28.59h1.48c0-.05,0-.09,0-.14a5.35,5.35,0,0,1,.82-2.84H96.94a5.34,5.34,0,0,1,.85,2.83A.77.77,0,0,1,97.77,28.59Z"/><path class="cls-1" d="M62.39,28.59h.92a1.1,1.1,0,0,1,0-.18,4.85,4.85,0,0,1,.36-1.83H62a5.7,5.7,0,0,1,.38,1.84A1,1,0,0,1,62.39,28.59Z"/><path class="cls-1" d="M61.92,37.55v-.07l.25-1.68h-.78a1.62,1.62,0,0,1,0,.22l-.29,1.85h.79Z"/><path class="cls-1" d="M94.24,64.71a1.84,1.84,0,0,1,0-.33v-.62H92.88l-.14.93a1.93,1.93,0,0,1-.17.53,1.93,1.93,0,0,1-.06,1l-.14.44h1.79L94,66A1.92,1.92,0,0,1,94.24,64.71Z"/><path class="cls-1" d="M95.44,45.78s0,.07,0,.11l-.1.5a2,2,0,0,1-.14.43,2,2,0,0,1,0,.49h1.31c0-.13,0-.26,0-.39a2.14,2.14,0,0,1,.22-.63,2,2,0,0,1,0-.54l.12-1H95.57Z"/><path class="cls-1" d="M113.76,53.32h-2.65l-1.29.85H95l-.29.74h-.59l0,.17-.21,1.48h4.94a6.3,6.3,0,0,1,.75,0v0h0v0l3.38,0,3.81,0c1.34,0,2.42,0,3.28,0h3.23l0-.3Z"/><path class="cls-1" d="M62,31.58l-.22,1.48h.79l0-.37.19-1.33H62l0,.16Z"/><path class="cls-1" d="M95.11,50.23h-.25l0,.15a.13.13,0,0,0,0,.06l-.09.51a1.91,1.91,0,0,1-.26.7,2.81,2.81,0,0,1,0,.41h3.19a4.13,4.13,0,0,1-1-1.33l-.07-.13a1.93,1.93,0,0,1-.24-.91h-1C95.11,50.23,95.51,50.06,95.11,50.23Z"/><path class="cls-1" d="M96.88,35.21a2.72,2.72,0,0,1,0,.28l-.32,2.37h1.34v0a1.45,1.45,0,0,1,0-.36l.33-2.22H97.9C97.56,35.21,97.22,35.22,96.88,35.21Z"/><path class="cls-1" d="M97.54,30.7l-.33,2.36h1.35l0-.36.3-2.23H97.57l0,.16S97.54,30.67,97.54,30.7Z"/><path class="cls-1" d="M96.09,40.32a2,2,0,0,1,0,.54l-.25,1.82h1.35l.06-.37s0-.07,0-.1l.26-1.87a2.07,2.07,0,0,1,.19-.61H96.28A1.94,1.94,0,0,1,96.09,40.32Z"/><path class="cls-1" d="M149.63,37l-.09.61-.21,1.51a3.58,3.58,0,0,1-.08.43H151a2.16,2.16,0,0,1,0-.44l.41-2.89h-1.66C149.71,36.51,149.67,36.77,149.63,37Z"/><path class="cls-2" d="M114.11,39.13h16a2.48,2.48,0,0,0-.26-1.2H114.28l0,.22Z"/><path class="cls-2" d="M124.44,71.18H6.41c.35.63,2.38,4,2.75,4.08h16l-.27-.56H44l-.39-.81H87.3l.66-1h16.2l.33-.47c6.28,0,13,.06,19.23,0Z"/><path class="cls-2" d="M6.37,71.18h0s0-.07,0-.08Z"/><path class="cls-2" d="M121.72,19.05H9.08L6.45,23.1H22.52l.43-.58H42.29l.47-.78H88.09L87.71,21l16,0c0-.41-.18-.36-.34-.75H122.5Z"/><path class="cls-2" d="M84.63,77.65h16l.72-.63h19.26l.85-1.25H9.46c.17.19.41.59.62.86l1.39,1.69c1.46,1.74,1.13,1.77,2.66,1.77h15l-.39-.7H47.89l-.69-.95H83.87Z"/><path class="cls-2" d="M58.81,59.78l.06-.33.22-1.33a2.38,2.38,0,0,1,.19-.55,2.28,2.28,0,0,1,0-.26v-.76h-.84l0,.28-.13.81a2.13,2.13,0,0,1-.13.43,2,2,0,0,1,0,.65l-.14,1Z"/><path class="cls-2" d="M40.81,58.18a2.36,2.36,0,0,1,.21-.65,2.36,2.36,0,0,1,0-.46l.06-.51H1a27.92,27.92,0,0,0,1.19,4.68H18.25l-.13-.7H37.38l-.17-.73h3.37l.05-.36Z"/><path class="cls-2" d="M99.61,57.19v-.62h0v.6Z"/><path class="cls-2" d="M93.76,57.6a2.16,2.16,0,0,1-.21.62,2.09,2.09,0,0,1,0,.5l-.15,1.1h.28l.27-1H95.4a6.07,6.07,0,0,1,1.38-1.42l.23-.2a2,2,0,0,1,1.21-.46,6.18,6.18,0,0,1,.62-.12H93.9l0,.2Z"/><path class="cls-2" d="M61.33,25.3a5.69,5.69,0,0,1,.7,1.28h1.62c.06-.15.13-.29.2-.43a2.11,2.11,0,0,1,.45-1,5.68,5.68,0,0,1,2-1.49h-7A5.26,5.26,0,0,1,61.33,25.3Z"/><path class="cls-2" d="M46.56,24.81a5.48,5.48,0,0,1,1.67-1.15H6.12L4,28.12H20.06l.41-.82H39.76l.39-.73h5.28A5.72,5.72,0,0,1,46,25.4,1.89,1.89,0,0,1,46.56,24.81Z"/><path class="cls-2" d="M96.94,25.61h3.12a5.39,5.39,0,0,1,2.06-1.9l.14-.05H94.75l.07,0A5.4,5.4,0,0,1,96.94,25.61Z"/><path class="cls-2" d="M13.42,14l0,0h0Z"/><path class="cls-2" d="M17.58,10c-.53.42-1,.82-1.46,1.2a19.25,19.25,0,0,0-2.67,2.67c3.08.18,9.39,0,13.05,0h2.16c1.5,0,1.11-.37,1.72-.55H48.25c1.79,0,.89,0,1.9-.72l.63-.28c.29-.06,22.86,0,29.61,0l-.53-.69c4.09-.1,9.32,0,13.52,0h2.4l-.94-1c2.4-.06,5.49,0,7.94,0H114a4,4,0,0,0-1.78-1.2H19.72C18.25,9.47,18.52,9.29,17.58,10Z"/><path class="cls-2" d="M12.05,15.33a23.23,23.23,0,0,0-2.59,3.25H25.72L26.4,18H45.09l1.36-.93H74.24c3,0,7.63.09,10.44,0l-.46-.68c2.4-.07,5.67,0,8.17,0,2.07,0,6,.07,7.85,0l-.44-.55V15.7H119c-.61-.78-.78-1.2-1.44-1.2H13.17Z"/><path class="cls-2" d="M79.4,83.1c.73-.63.27-.54,1.58-.54,2.16,0,14.2.08,14.89,0s.33-.67,1.35-.67h17c.6,0,1.62.15,2-.15a3.42,3.42,0,0,0,1-1.1L13.57,80.58a3,3,0,0,0,.8.87c.29.27.49.51.76.78.52.52,1.07.91,1.64,1.44,1.2,1.09,1.2,1.09,2,1.08H34.18L33.53,84H47.89a42.52,42.52,0,0,0,4.79,0L52,83.3H77.46C78.1,83.3,79,83.43,79.4,83.1Z"/><path class="cls-2" d="M61.77,39.92a2.3,2.3,0,0,1-.05-.69l.16-1.36h-.79l0,.2-.24,1.67a2,2,0,0,1-.18.56,1.32,1.32,0,0,1,0,.28h.88A4.77,4.77,0,0,1,61.77,39.92Z"/><path class="cls-2" d="M96.52,38.09l-.24,1.62v0h1.43v0a2,2,0,0,1,0-.49l.17-1.35H96.55Z"/><path class="cls-2" d="M77.49,40.58h1.87l0-.24a2,2,0,0,1,.22-.7,2,2,0,0,1,0-.42l.17-1.34h-1.9l0,.19-.24,1.67a1.87,1.87,0,0,1-.15.49A1.37,1.37,0,0,1,77.49,40.58Z"/><path class="cls-2" d="M43.53,39.74a1.82,1.82,0,0,1,0-.52l.17-1.34H.85l-.5,3.33a1.41,1.41,0,0,1-.07.54c0,.49-.09.28.13.43h16l.16-.67H35.82l1-.93h6.53l0-.28A2,2,0,0,1,43.53,39.74Z"/><path class="cls-2" d="M44.1,35a2,2,0,0,1,.12-.34l.06-.13a2.68,2.68,0,0,1,0-.49l.1-1H2.08A26.74,26.74,0,0,0,1,37.38H17.19l.2-.81H36.7l.17-.75h7.07l.06-.38A1.58,1.58,0,0,1,44.1,35Z"/><path class="cls-2" d="M98.45,34l.11-1H97.21l0,.18L97,34.54a1.86,1.86,0,0,1-.13.46,1.48,1.48,0,0,1,0,.21c.34,0,.68,0,1,0h.35l0-.17a1.75,1.75,0,0,1,.18-.56A1.93,1.93,0,0,1,98.45,34Z"/><path class="cls-2" d="M62.29,34.94a2.1,2.1,0,0,1,.16-.52,1.88,1.88,0,0,1,0-.41l.11-.95h-.79l0,.24-.21,1.29a1.84,1.84,0,0,1-.15.47.78.78,0,0,1,0,.16v.49a.28.28,0,0,1,0,.09h.78l0-.36Z"/><path class="cls-2" d="M22.37,6.51A24.79,24.79,0,0,0,19,8.91H34.89l1.26-.49H53.94c.93,0,1,.15,1.69-.31.45-.34.69-.66,1.36-.68,5.5,0,11.82.11,17.28,0L73,6.48c5.12-.11,10.59,0,15.83,0l-.75-.63c3.06-.08,7,0,10.12,0h8.86c-.21-.5-2.31-1.27-2.39-1.29H26.22C25.38,4.56,23.14,6,22.37,6.51Z"/><path class="cls-2" d="M26.45,89.6H41.58c-.59-.65-.75-.43-1.19-.88,1.7-.13,9.43,0,11.71,0h7.28l-1.2-.91c2.55-.16,14,.1,14.62,0l1.44-.62H89.8l1.53-.71h18.75a7.11,7.11,0,0,0,1.73-1l-75.43-.15c-5.43,0-12.25.07-17.64,0l.26.25.05-.06a51.15,51.15,0,0,0,6,3.83C25.61,89.66,25.61,89.6,26.45,89.6Z"/><path class="cls-2" d="M62.24,29.64,62,31.36h.78l0-.35a.13.13,0,0,1,0-.06L63.2,29a2.38,2.38,0,0,1,.11-.38v-.07h-.92a1.87,1.87,0,0,1-.15.66A2.54,2.54,0,0,1,62.24,29.64Z"/><path class="cls-2" d="M45,29.08a1.94,1.94,0,0,1,.12-.43v-.06H3.59l-1.32,4H18.45l.22-.62c2.25,0,18.59.1,19.29,0l.22-.49,6.41,0,.06-.43Z"/><path class="cls-2" d="M97.66,29.61l-.09.86H98.9l0-.32L99,30l.16-.92a1.79,1.79,0,0,1,.13-.41.13.13,0,0,1,0-.06H97.77a2,2,0,0,1-.12.59A2.06,2.06,0,0,1,97.66,29.61Z"/><path class="cls-2" d="M54.75,93.9c3.73,0,3.6.13,7.09-1a37.74,37.74,0,0,1,5.21-.13c2.66,0,2.18-.56,3.17-.79.36-.08,8.76,0,9.28,0,3.13,0,.72-.62,4.7-.62h16a3.82,3.82,0,0,0,2.33-.38,9.42,9.42,0,0,0,1.76-.9l-77.68,0a22.86,22.86,0,0,0,3.66,1.69,24.59,24.59,0,0,0,8.54,2.15Z"/><path class="cls-2" d="M40.31,61.77H2.3L4,66.21H20.08l-.22-.72H39.07l-.28-.92H40a1.48,1.48,0,0,1,0-.42Z"/><path class="cls-2" d="M58.51,61.78h-.78l0,.21-.38,2.56h.87a1.79,1.79,0,0,1,0-.4Z"/><path class="cls-2" d="M94.23,63.36l.25-1.58H93.17l0,.16v0l-.26,1.79h1.33v-.09C94.21,63.57,94.22,63.46,94.23,63.36Z"/><path class="cls-2" d="M94.23,67.06l-.07-.38H92.37l-.19.57-.09.21a5.31,5.31,0,0,1-.82,1.27H92l3.25,0A8.17,8.17,0,0,1,94.7,68,1.85,1.85,0,0,1,94.23,67.06Z"/><path class="cls-2" d="M40.06,67.05,40,66.62H4.17l1.94,4h16.1L22,69.89H41.16l-.29-.72h.5a5.88,5.88,0,0,1-1-1.36A2,2,0,0,1,40.06,67.05Z"/><path class="cls-2" d="M58.34,67.16a2.59,2.59,0,0,1-.12-.48H56.93l-.16.54a2,2,0,0,1-.41.77,2.71,2.71,0,0,0-.2.27,4.53,4.53,0,0,1-.73.91h4.18a6.1,6.1,0,0,1-1.16-1.71A1.82,1.82,0,0,1,58.34,67.16Z"/><path class="cls-2" d="M42.62,45.23,43,42.68H.17L0,46.82l16.11,0,.26-.39H35.5l0-.84H42.6v-.09C42.6,45.43,42.61,45.33,42.62,45.23Z"/><path class="cls-2" d="M79.4,0H41.84a20.05,20.05,0,0,0-8.13,1.19C32.51,1.63,27.52,3.35,27,4v.08c2,.12,7.82,0,10.19,0h5.07c1.43,0,1.19-.38,2.07-.49.57-.09,20.9,0,23,0a21.07,21.07,0,0,0-4-1.74H79a2.82,2.82,0,0,0-.9-.41c.27-.13,16.21-.07,18.74-.08a16.6,16.6,0,0,0-3.66-1C91.35-.11,81.73,0,79.4,0Z"/><path class="cls-2" d="M42.07,49.52l.32-2.18H0l.06,2.52c.1,2,0,1.74.79,1.72,5-.08,10.48.17,15.45,0l.34-.55h19v-.81H42v-.09A1.77,1.77,0,0,1,42.07,49.52Z"/><path class="cls-2" d="M41.69,52.07H.25l.54,4h16c.3-.13.18-.06.1-.52h19.3l-.08-.66h5.14l.05-.36Z"/><path class="cls-2" d="M94.49,52.22l-.36,2.7h.59l.29-.74h14.81l1.29-.85h2.65l.06-.42,0-.21H101.23c-.35,0-.69,0-1,0s-.74,0-1.11,0a2.26,2.26,0,0,1-.44-.08,3.12,3.12,0,0,1-1-.51H94.49C94.48,52.12,94.5,52.17,94.49,52.22Z"/><path class="cls-2" d="M78.71,45.23l.38-2.54H77.22l0,.14-.39,2.78h1.88v-.14A1.94,1.94,0,0,1,78.71,45.23Z"/><path class="cls-2" d="M78.05,50.13a2,2,0,0,1,.14-.73l.29-2.06h-1.8a1,1,0,0,1,0,.17l-.37,2.71h1.74Z"/><path class="cls-2" d="M75.61,54.93h1.72l0-.36.34-2.51H76a1.47,1.47,0,0,1,0,.21Z"/><path class="cls-2" d="M60.26,50.13a1.66,1.66,0,0,1,0-.32l.4-2.47h-.93a.76.76,0,0,1,0,.15l-.36,2.73h.87Z"/><path class="cls-2" d="M96.53,47.31H95.22a1.08,1.08,0,0,1,0,.18l-.36,2.74h.25c.4-.17,0,0,.26-.53h1a.61.61,0,0,1,0-.14A18.82,18.82,0,0,1,96.53,47.31Z"/><path class="cls-2" d="M60.8,45.45a3,3,0,0,1,0-.31l.38-2.46h-.77l0,.16L60,45.59h.76Z"/><path class="cls-2" d="M59.86,52.07h-.8c0,.07,0,.13,0,.19l-.37,2.66h.79l.06-.35Z"/><path class="cls-2" d="M95.82,42.86l-.25,1.88H96.9l0-.32v-.05l.24-1.69H95.84Z"/><path class="cls-2" d="M163.7,80.93a9.1,9.1,0,1,0-8.06,10A9.09,9.09,0,0,0,163.7,80.93Zm-7.78,8.37a7.44,7.44,0,0,1-2.61-14.64l.15,0a7.44,7.44,0,1,1,2.46,14.67Z"/><polygon class="cls-2" points="91.41 59.73 91.17 61.68 90.87 63.64 90.87 63.64 91.17 61.68 91.41 59.73 91.46 59.31 91.46 59.31 91.41 59.73"/><path class="cls-2" d="M98.11,58.84c-.28.23-.5.41-.68.59C97.61,59.25,97.83,59.07,98.11,58.84Z"/><path class="cls-2" d="M98.94,58.58a3.69,3.69,0,0,0-.65.18v-.07h0v.07A3.69,3.69,0,0,1,98.94,58.58Z"/><path class="cls-2" d="M108.82,58.55h0Z"/><path class="cls-2" d="M103.08,58.54h0Z"/><path class="cls-2" d="M101.16,58.53h0Z"/><path class="cls-2" d="M106.58,58.56h0Z"/><path class="cls-2" d="M99.69,58.52h-.1a3.13,3.13,0,0,0-.43,0,3.57,3.57,0,0,1,.46,0Z"/><path class="cls-2" d="M110.16,58.52Z"/><polygon class="cls-2" points="165.27 45.21 165.27 45.21 165.77 41.46 165.77 41.46 165.27 45.21"/><polygon class="cls-2" points="146.99 41.57 146.99 41.57 147 41.46 147 41.46 146.99 41.57"/><polygon class="cls-2" points="134.94 41.44 134.94 41.44 134.29 45.18 134.29 45.18 134.94 41.44"/><polygon class="cls-2" points="166.93 33.25 166.93 33.25 167.33 30.47 167.33 30.47 166.93 33.25"/><polygon class="cls-2" points="136.41 30.44 136.41 30.44 135.98 33.22 135.98 33.22 136.41 30.44"/><path class="cls-2" d="M131,34.24s0,0,.05-.05l.23-1.6-.23,1.6C131,34.22,131,34.24,131,34.24Z"/><polygon class="cls-2" points="100.58 32.97 100.57 33.06 100.57 33.06 100.58 32.97 100.92 30.47 100.92 30.47 100.58 32.97"/><polygon class="cls-2" points="100.54 33.3 100.54 33.3 100.57 33.06 100.57 33.06 100.54 33.3"/><polygon class="cls-2" points="100.92 30.42 100.92 30.47 100.92 30.47 100.92 30.42 100.92 30.42"/><polygon class="cls-2" points="100.92 30.43 100.93 30.42 100.93 30.42 100.92 30.43 100.92 30.43"/><polygon class="cls-2" points="64.6 32.97 64.84 31.29 64.99 30.44 64.99 30.44 64.84 31.29 64.6 32.97 64.59 33.06 64.59 33.06 64.6 32.97"/><polygon class="cls-2" points="64.59 33.06 64.57 33.22 64.59 33.06 64.59 33.06"/><polygon class="cls-2" points="99.22 42.62 99.39 41.42 99.39 41.42 99.22 42.62 99.22 42.62"/><path class="cls-2" d="M111.75,41.63l.74,0Z"/><path class="cls-2" d="M127,41.67l.13,0Z"/><path class="cls-2" d="M127.33,41.8l.11.06Z"/><path class="cls-2" d="M118.14,41.69h0Z"/><path class="cls-2" d="M126.62,41.6l.13,0Z"/><path class="cls-2" d="M119.75,41.67h0Z"/><path class="cls-2" d="M122.85,41.64h0Z"/><path class="cls-2" d="M125.45,41.62h0Z"/><path class="cls-2" d="M123.82,41.63h0Z"/><path class="cls-2" d="M117.06,41.7h0Z"/><path class="cls-2" d="M125.92,41.6h0Z"/><path class="cls-2" d="M126.32,41.58h0Z"/><polygon class="cls-2" points="111.72 41.63 111.72 41.63 111.74 41.46 111.74 41.46 111.72 41.63"/><path class="cls-2" d="M116,41.7h0Z"/><polygon class="cls-2" points="99.22 42.6 99.22 42.6 99.21 42.69 99.21 42.69 99.22 42.6"/><path class="cls-2" d="M112.75,41.67h0Z"/><path class="cls-2" d="M113.66,41.69h0Z"/><path class="cls-2" d="M128.55,42.74h0l-.09-.12a4.13,4.13,0,0,1-.46-.38,4.13,4.13,0,0,0,.46.38Z"/><path class="cls-2" d="M115.63,41.7h0Z"/><polygon class="cls-2" points="99.21 42.69 99.21 42.69 98.92 44.66 99.21 42.69"/><path class="cls-2" d="M129.11,43.62c-.19-.34-.36-.58-.56-.88h0C128.75,43,128.92,43.28,129.11,43.62Z"/><rect class="cls-2" x="147.12" y="50.64" width="2.48" transform="translate(-6.98 71.7) rotate(-26.57)"/><polygon class="cls-2" points="164.66 49.83 164.66 49.83 164.92 48 164.92 48 164.66 49.83"/><polygon class="cls-2" points="164.92 48 165.03 47.18 164.92 48 164.92 48"/><path class="cls-2" d="M112.56,50.69h0Z"/><polygon class="cls-2" points="129.11 48.59 128.91 49.9 128.91 49.9 129.11 48.59 129.17 47.98 129.17 47.98 129.11 48.59"/><path class="cls-2" d="M110.91,50.69h0Z"/><path class="cls-2" d="M100.19,50.7l1,0h0Z"/><path class="cls-2" d="M98.91,50.5a1,1,0,0,0,.33.17c.32,0,.63,0,1,0-.32,0-.63,0-1,0A1,1,0,0,1,98.91,50.5Z"/><path class="cls-2" d="M102.61,47.2h0Z"/><path class="cls-2" d="M100.79,47.21h0Z"/><path class="cls-2" d="M111.25,47.19h0Z"/><path class="cls-2" d="M109,47.19h0Z"/><path class="cls-2" d="M110.13,47.19h0Z"/><path class="cls-2" d="M107.31,47.19h0Z"/><path class="cls-2" d="M98.71,47.26l.69,0Z"/><path class="cls-2" d="M98.55,47.24h0v.07h0Z"/><polygon class="cls-2" points="129.17 47.98 129.22 47.52 129.17 47.98 129.17 47.98"/><path class="cls-2" d="M98.67,47.26l-.12,0h0Z"/><path class="cls-2" d="M99.47,47.23l1.22,0Z"/><path class="cls-2" d="M106.73,47.19h0Z"/><path class="cls-2" d="M129.24,47.28s-6.62-.05-13.72-.07c7.1,0,13.72.07,13.72.07Z"/><path class="cls-2" d="M112.86,47.2h0Z"/><path class="cls-2" d="M114.09,47.2h0Z"/><path class="cls-2" d="M98.55,47.31h0c0,.17,0,.35-.08.53C98.5,47.66,98.52,47.48,98.55,47.31Z"/><path class="cls-2" d="M138.16,25.7a2.11,2.11,0,0,1,.34-.16A2.11,2.11,0,0,0,138.16,25.7Z"/><path class="cls-2" d="M136.94,27.15l.15-.34Z"/><path class="cls-2" d="M137.46,26.27a2.72,2.72,0,0,1,.24-.24A2.72,2.72,0,0,0,137.46,26.27Z"/><path class="cls-2" d="M137.81,25.94l.24-.17Z"/><path class="cls-2" d="M137.15,26.71a2,2,0,0,1,.25-.37A2,2,0,0,0,137.15,26.71Z"/><path class="cls-2" d="M164.5,25.18l.23,0Z"/><path class="cls-2" d="M166.56,26.06a3.08,3.08,0,0,0-.75-.53h0A3.08,3.08,0,0,1,166.56,26.06Z"/><path class="cls-2" d="M165.12,25.29l.18.05Z"/><path class="cls-2" d="M136.89,27.31l0,.08h0S136.88,27.34,136.89,27.31Z"/><path class="cls-2" d="M142,25.14h0Z"/><path class="cls-2" d="M138.54,25.51l.41-.14Z"/><path class="cls-2" d="M163.3,25.12h0Z"/><path class="cls-2" d="M141.18,25.12h0Z"/><path class="cls-2" d="M163.86,25.13h0Z"/><path class="cls-2" d="M161.45,25.15l.89,0Z"/><path class="cls-2" d="M139.53,25.24l.32,0Z"/><path class="cls-2" d="M140,25.18l.44,0Z"/><path class="cls-2" d="M139.08,25.34l.3-.07Z"/><path class="cls-2" d="M140.51,25.14h0Z"/><path class="cls-2" d="M136.86,27.39c0,.09-.05.19-.07.29a2.45,2.45,0,0,1,.08-.29Z"/><path class="cls-2" d="M136.76,27.85a4.46,4.46,0,0,0-.06.54h0A4.46,4.46,0,0,1,136.76,27.85Z"/><path class="cls-2" d="M167.63,28.44a3.17,3.17,0,0,0-.14-.87,3.17,3.17,0,0,1,.14.87Z"/><path class="cls-2" d="M136.7,28.39h0s0,.05,0,.08S136.7,28.42,136.7,28.39Z"/><path class="cls-2" d="M167.63,28.47h0v0h0Z"/><path class="cls-2" d="M95,26.34a3.25,3.25,0,0,1,.49.77A3.25,3.25,0,0,0,95,26.34Z"/><path class="cls-2" d="M94.32,25.71l-.17-.1h0Z"/><path class="cls-2" d="M77.81,25.13h0Z"/><path class="cls-2" d="M78.65,25.13h0Z"/><path class="cls-2" d="M75.52,25.12h0Z"/><polygon class="cls-2" points="65.83 26.44 65.83 26.44 65.91 26.46 65.91 26.45 65.83 26.44"/><path class="cls-2" d="M94.15,25.61h0l-.23-.14h0Z"/><path class="cls-2" d="M71.81,25.12h0Z"/><path class="cls-2" d="M71.14,25.12h0Z"/><path class="cls-2" d="M73.38,25.12h0Z"/><path class="cls-2" d="M70.2,25.12h0Z"/><path class="cls-2" d="M88.75,25.11h0Z"/><path class="cls-2" d="M90.87,25.1h0Z"/><path class="cls-2" d="M83.06,25.14h0Z"/><path class="cls-2" d="M87.59,25.14h0Z"/><path class="cls-2" d="M90.27,25.09h0Z"/><path class="cls-2" d="M91.85,25.14l.4,0Z"/><path class="cls-2" d="M86.42,25.15h0Z"/><path class="cls-2" d="M92.82,25.24l.31.05Z"/><path class="cls-2" d="M74.77,25.12h0Z"/><path class="cls-2" d="M84.81,25.15h0Z"/><path class="cls-2" d="M68.66,25.14h0Z"/><path class="cls-2" d="M69.65,25.13h0Z"/><path class="cls-2" d="M68.38,25.14h0Z"/><path class="cls-2" d="M121.65,25.18h0Z"/><path class="cls-2" d="M110.87,25.24h0Z"/><path class="cls-2" d="M110.7,25.24h0Z"/><path class="cls-2" d="M129,25.19l.61.08.51.16-.51-.16-.61-.08h-1s0,0-.07,0,.07,0,.07,0Z"/><path class="cls-2" d="M106.31,25.19h-.51A4.34,4.34,0,0,1,106.31,25.19Z"/><path class="cls-2" d="M127.47,25.16h0Z"/><path class="cls-2" d="M127.13,25.16h0Z"/><path class="cls-2" d="M104.59,25.27Z"/><polygon class="cls-2" points="130.82 25.7 130.47 25.55 130.16 25.43 130.47 25.55 130.82 25.7"/><path class="cls-2" d="M109.28,25.24h0Z"/><path class="cls-2" d="M107.53,25.23h0Z"/><polygon class="cls-2" points="131.13 25.84 131.01 25.79 130.82 25.7 131.01 25.79 131.13 25.84"/><path class="cls-2" d="M116.26,25.21h0Z"/><path class="cls-2" d="M126.13,25.16h0Z"/><path class="cls-2" d="M123.6,25.16h0Z"/><path class="cls-2" d="M106.74,25.21h0Z"/><path class="cls-2" d="M107.1,25.22h0Z"/><path class="cls-2" d="M120.62,25.18h0Z"/><path class="cls-2" d="M106.48,25.2h0Z"/><path class="cls-2" d="M127.79,25.17h0Z"/><path class="cls-2" d="M114.06,25.23h0Z"/><polygon class="cls-2" points="131.94 26.62 131.94 26.78 131.94 26.89 131.94 27.01 131.94 27.21 131.94 27.42 131.94 27.42 131.94 27.21 131.94 27.01 131.94 26.89 131.94 26.78 131.94 26.62 131.86 26.5 131.83 26.47 131.86 26.5 131.94 26.62"/><polygon class="cls-2" points="131.66 26.28 131.49 26.11 131.32 25.96 131.49 26.11 131.66 26.28"/><path class="cls-2" d="M122.67,25.17h0Z"/><path class="cls-2" d="M126.7,25.16h0Z"/><path class="cls-2" d="M108.63,25.24h0Z"/><path class="cls-2" d="M115.13,25.22h0Z"/><path class="cls-2" d="M108.05,25.23h0Z"/><path class="cls-2" d="M102.84,25.61h0a3.27,3.27,0,0,0-1.11,1.11A3.27,3.27,0,0,1,102.84,25.61Z"/><path class="cls-2" d="M105.92,25.18h0Z"/><path class="cls-2" d="M103,25.49l.11.07h0l-.11-.07a2.12,2.12,0,0,0-.2.12h0A2.12,2.12,0,0,1,103,25.49Z"/><path class="cls-2" d="M104.59,25.27l-.18,0,.16,0Z"/><path class="cls-2" d="M125.39,68a3,3,0,0,1-.55.38A3,3,0,0,0,125.39,68Z"/><path class="cls-2" d="M124,68.67a3,3,0,0,1-.41.08A3,3,0,0,0,124,68.67Z"/><path class="cls-2" d="M96.2,66.63h0l0,.05h0Z"/><path class="cls-2" d="M124.65,68.43a3.69,3.69,0,0,1-.42.17A3.69,3.69,0,0,0,124.65,68.43Z"/><path class="cls-2" d="M102,68.79h0Z"/><path class="cls-2" d="M123.13,68.79h.18a3.77,3.77,0,0,1-.58,0A2.68,2.68,0,0,0,123.13,68.79Z"/><path class="cls-2" d="M100.7,68.77h0Z"/><path class="cls-2" d="M96.23,66.68l.16.26-.16-.26Z"/><path class="cls-2" d="M61.5,68.17l-.1-.08Z"/><path class="cls-2" d="M90.28,66.61a4.06,4.06,0,0,1-.42.7,4.06,4.06,0,0,0,.42-.7l.07-.21h0Z"/><path class="cls-2" d="M87.67,68.67h0Z"/><path class="cls-2" d="M87.28,68.7h0Z"/><path class="cls-2" d="M61.94,68.41l-.07,0Z"/><path class="cls-2" d="M61,67.76l0,0Z"/><path class="cls-2" d="M60.21,66.41h0a2.25,2.25,0,0,0,.08.24h0A2.25,2.25,0,0,1,60.21,66.41Z"/><path class="cls-2" d="M85.19,68.75h0Z"/><path class="cls-2" d="M64.35,68.77h0Z"/><path class="cls-2" d="M84.27,68.76h0Z"/><path class="cls-2" d="M63.77,68.75h0Z"/><path class="cls-2" d="M86,68.74h0Z"/><path class="cls-2" d="M60.66,67.31l-.09-.13Z"/><path class="cls-2" d="M66.65,68.73l-1.2,0Z"/><polygon class="cls-2" points="60.26 66.61 60.26 66.62 60.26 66.61 60.26 66.61"/><path class="cls-2" d="M62.53,68.6l-.12,0Z"/><path class="cls-2" d="M86.73,68.72h0Z"/><path class="cls-2" d="M63.06,68.7h0Z"/><path class="cls-2" d="M83.27,68.77h0Z"/><polygon class="cls-2" points="90.35 66.4 90.35 66.4 90.61 65.61 90.35 66.4"/><path class="cls-2" d="M60.13,66.14a1.38,1.38,0,0,0,.08.27h0A1.38,1.38,0,0,1,60.13,66.14Z"/><polygon class="cls-2" points="56 59.72 55.73 61.69 55.43 63.65 55.43 63.65 55.73 61.69 56 59.72 56.05 59.31 56.05 59.31 56 59.72"/><polygon class="cls-2" points="162.64 63.62 162.64 63.62 163.27 59.31 163.27 59.31 162.64 63.62"/><polygon class="cls-2" points="56.67 54.82 56.41 56.49 56.41 56.49 56.67 54.82 56.97 52.67 56.97 52.67 56.67 54.82"/><polygon class="cls-2" points="43.64 52.6 43.46 53.88 43.64 52.6 43.64 52.6"/><polygon class="cls-2" points="56.41 56.51 56.41 56.49 56.41 56.49 56.41 56.51"/><polygon class="cls-2" points="163.65 56.49 163.65 56.49 164.19 52.64 164.19 52.64 163.65 56.49"/><polygon class="cls-2" points="164.19 52.64 164.31 51.79 164.31 51.79 164.19 52.64 164.19 52.64"/><polygon class="cls-2" points="163.53 57.31 163.65 56.49 163.65 56.49 163.53 57.31"/><polygon class="cls-2" points="150.51 57.32 163.53 57.31 150.51 57.32 150.51 57.32"/><polygon class="cls-2" points="131.69 63.57 132.32 59.26 132.32 59.26 131.69 63.57 131.69 63.57"/><polygon class="cls-2" points="92.12 54.82 91.9 56.48 92.12 54.82 92.42 52.62 92.42 52.62 92.12 54.82"/><polygon class="cls-2" points="79.67 52.58 79.67 52.58 79.36 54.84 79.67 52.58"/><polygon class="cls-2" points="127.96 56.55 127.96 56.52 127.96 56.55 127.96 56.55"/><polygon class="cls-2" points="128.43 53.24 128.51 52.68 128.51 52.68 128.43 53.24"/><polygon class="cls-2" points="127.84 57.29 115.25 57.29 115.25 57.29 127.84 57.29 127.96 56.55 127.96 56.55 127.84 57.29"/><path class="cls-2" d="M116.63,51.8h0Z"/><path class="cls-2" d="M116.39,51.82h0Z"/><path class="cls-2" d="M128.59,51.87h0Z"/><path class="cls-2" d="M116.07,51.93l.05,0Z"/><path class="cls-2" d="M116.2,51.86l.08,0Z"/><polygon class="cls-2" points="128.51 52.68 128.59 52.04 128.59 52.04 128.51 52.68 128.51 52.68"/><path class="cls-2" d="M117.34,51.84l-.32,0,.32,0Z"/><path class="cls-2" d="M128.57,51.92v0Z"/><polygon class="cls-2" points="81.11 42.69 81.11 42.69 81.12 42.6 81.27 41.42 81.27 41.42 81.12 42.6 81.11 42.69"/><polygon class="cls-2" points="81.11 42.69 81.11 42.69 80.74 45.2 80.74 45.2 81.11 42.69"/><polygon class="cls-2" points="144.87 56.51 144.87 56.51 145.39 52.64 145.39 52.64 144.87 56.51"/><polygon class="cls-2" points="145.39 52.64 145.5 51.79 145.5 51.79 145.39 52.64 145.39 52.64"/><polygon class="cls-2" points="132.58 57.29 144.76 57.31 132.58 57.29 132.58 57.29"/><polygon class="cls-2" points="144.76 57.31 144.87 56.51 144.87 56.51 144.76 57.31"/><polygon class="cls-2" points="73.9 52.63 73.9 52.63 73.6 54.87 73.9 52.63"/><polygon class="cls-2" points="61.81 52.57 61.63 53.88 61.81 52.57 61.81 52.57"/><path class="cls-2" d="M63.37,41.76c0-.08,0-.15,0-.23C63.38,41.61,63.38,41.68,63.37,41.76Z"/><polygon class="cls-2" points="74.84 45.24 74.84 45.24 75.01 44 74.84 45.24"/><path class="cls-2" d="M63.24,42.52h0a1.57,1.57,0,0,0,.08-.33A1.57,1.57,0,0,1,63.24,42.52Z"/><polygon class="cls-2" points="63.24 42.58 63.24 42.58 63.23 42.67 63.23 42.67 63.24 42.58"/><polygon class="cls-2" points="63.23 42.67 63.02 44.02 63.23 42.67 63.23 42.67"/><polygon class="cls-2" points="46.38 32.97 46.45 32.55 46.38 32.97 46.38 33.07 46.38 33.07 46.38 32.97"/><polygon class="cls-2" points="59.77 32.97 59.98 31.58 59.77 32.97 59.72 33.25 59.72 33.25 59.77 32.97"/><polygon class="cls-2" points="60.12 30.47 60.05 31.02 60.12 30.47 60.12 30.47"/><polygon class="cls-2" points="46.38 33.07 46.38 33.07 46.36 33.22 46.36 33.22 46.38 33.07"/><polygon class="cls-2" points="45.91 36.21 45.7 37.8 45.91 36.21 45.91 36.21"/><polygon class="cls-2" points="59.08 37.78 58.96 38.62 58.96 38.62 59.08 37.78 59.31 36.26 59.31 36.26 59.08 37.78"/><polygon class="cls-2" points="58.84 39.46 58.96 38.62 58.96 38.62 58.84 39.46"/><polygon class="cls-2" points="45.96 35.82 45.96 35.82 45.91 36.21 45.91 36.21 45.96 35.82"/><polygon class="cls-2" points="59.31 36.26 59.31 36.26 59.32 36.2 59.31 36.26"/><path class="cls-2" d="M46,35.7l.05-.12L46,35.7l0,.12h0Z"/><path class="cls-2" d="M166.17,38.39a.61.61,0,0,0,0,.18h0a.61.61,0,0,1,0-.18l.31-2.14h0Z"/><path class="cls-2" d="M166,39.39h0l.08-.17Z"/><path class="cls-2" d="M166.08,39a1.39,1.39,0,0,1,0,.17A1.39,1.39,0,0,0,166.08,39Z"/><path class="cls-2" d="M166.09,38.67l0-.1h0Z"/><polygon class="cls-2" points="152.97 39.41 165.97 39.46 152.97 39.41 152.97 39.41"/><polygon class="cls-2" points="166.04 39.23 166.04 39.23 166.04 39.23 166.04 39.23"/><path class="cls-2" d="M166.05,39.17a.1.1,0,0,0,0,0A.1.1,0,0,1,166.05,39.17Z"/><polygon class="cls-2" points="166.04 39.22 166.04 39.22 166.04 39.22 166.04 39.22 166.04 39.22"/><path class="cls-2" d="M166,39.22h0Z"/><polygon class="cls-2" points="166.48 36.25 166.48 36.25 166.63 35.25 166.63 35.25 166.48 36.25"/><path class="cls-2" d="M155,35.17h0Z"/><path class="cls-2" d="M158.84,35.17h0Z"/><path class="cls-2" d="M160.11,35.18h0Z"/><path class="cls-2" d="M155.81,35.17h0Z"/><path class="cls-2" d="M157.89,35.17h0Z"/><polygon class="cls-2" points="166.63 35.25 166.63 35.22 166.63 35.22 166.63 35.25 166.63 35.25"/><path class="cls-2" d="M154.32,35.19h0Z"/><path class="cls-2" d="M156.92,35.17h0Z"/><path class="cls-2" d="M153.57,35.22l.22,0Z"/><path class="cls-2" d="M153.88,35.2h0Z"/><polygon class="cls-2" points="94.54 37.8 94.75 36.26 94.75 36.26 94.54 37.8"/><polygon class="cls-2" points="94.42 38.62 94.54 37.8 94.42 38.62 94.42 38.62"/><polygon class="cls-2" points="81.8 37.8 82 36.26 82 36.26 81.8 37.8"/><polygon class="cls-2" points="82 36.26 82.06 35.8 82.06 35.8 82 36.26 82 36.26"/><polygon class="cls-2" points="94.75 36.26 94.75 36.26 94.88 35.26 94.88 35.26 94.75 36.26"/><polygon class="cls-2" points="94.88 35.26 94.88 35.26 94.88 35.26 94.88 35.26 94.88 35.26"/><polygon class="cls-2" points="82.08 35.69 82.15 35.53 82.08 35.69 82.06 35.8 82.06 35.8 82.08 35.69"/><polygon class="cls-2" points="94.88 35.26 94.89 35.22 94.89 35.22 94.88 35.26 94.88 35.26"/><polygon class="cls-2" points="94.4 35.21 93.91 35.21 88.09 35.21 93.91 35.21 94.4 35.21"/><polygon class="cls-2" points="94.3 39.42 81.61 39.46 81.61 39.46 94.3 39.42 94.42 38.62 94.42 38.62 94.3 39.42"/><polygon class="cls-2" points="99.89 37.76 99.89 37.76 99.92 37.77 99.92 37.77 99.89 37.76"/><polygon class="cls-2" points="112.44 36.57 112.48 36.25 112.48 36.25 112.44 36.57"/><polygon class="cls-2" points="112.48 36.25 112.61 35.29 112.61 35.29 112.48 36.25 112.48 36.25"/><polygon class="cls-2" points="147.39 38.57 147.39 38.57 147.53 37.58 147.39 38.57"/><path class="cls-2" d="M147.72,36.29v0h0Z"/><path class="cls-2" d="M147.33,39a1.22,1.22,0,0,1,0,.26,1.22,1.22,0,0,0,0-.26l.06-.39h0Z"/><path class="cls-2" d="M147.72,36.24h0c.05-.33.09-.67.11-1h0C147.81,35.57,147.77,35.91,147.72,36.24Z"/><path class="cls-2" d="M147.83,35.24v0h0v0Z"/><polygon class="cls-2" points="64.13 36.22 64 37.09 64.13 36.22 64.13 36.22"/><polygon class="cls-2" points="76.2 35.3 76.2 35.3 76.19 35.47 76.2 35.3"/><polygon class="cls-2" points="64.19 35.8 64.19 35.8 64.13 36.22 64.13 36.22 64.19 35.8"/><polygon class="cls-2" points="64.2 35.72 64.24 35.47 64.2 35.72 64.19 35.8 64.19 35.8 64.2 35.72"/><polygon class="cls-2" points="76.2 35.26 76.2 35.26 76.2 35.3 76.2 35.3 76.2 35.26"/><polygon class="cls-2" points="76.2 35.22 76.2 35.22 76.2 35.26 76.2 35.26 76.2 35.22"/><polygon class="cls-2" points="44.32 47.97 44.32 47.97 44.22 48.67 44.32 47.97"/><polygon class="cls-2" points="57.43 49.81 57.67 48.03 57.67 48.03 57.43 49.81 57.43 49.81"/><path class="cls-2" d="M57,50.67h0Z"/><path class="cls-2" d="M44,50.63H56.19l.43,0-.43,0Z"/><path class="cls-2" d="M57.26,50.54l0,0Z"/><path class="cls-2" d="M57.34,50.38l0,0Z"/><path class="cls-2" d="M57.15,50.63l0,0Z"/><polygon class="cls-2" points="57.39 50.12 57.39 50.12 57.39 50.12 57.43 49.81 57.43 49.81 57.39 50.12"/><polygon class="cls-2" points="44.43 47.23 44.44 47.23 44.43 47.23 44.32 47.97 44.32 47.97 44.43 47.23"/><path class="cls-2" d="M46.68,47.16h0Z"/><path class="cls-2" d="M53.15,47.14h0Z"/><path class="cls-2" d="M47.16,47.16h0Z"/><path class="cls-2" d="M53.61,47.14h0Z"/><path class="cls-2" d="M47.73,47.15h0Z"/><path class="cls-2" d="M48.34,47.15h0Z"/><path class="cls-2" d="M44.49,47.22h0Z"/><path class="cls-2" d="M51,47.14h0Z"/><path class="cls-2" d="M50.06,47.14h0Z"/><path class="cls-2" d="M44.62,47.21h0Z"/><path class="cls-2" d="M57.58,47.21h0Z"/><path class="cls-2" d="M49.55,47.14h0Z"/><path class="cls-2" d="M57.39,47.19h0Z"/><path class="cls-2" d="M49,47.14h0Z"/><path class="cls-2" d="M45.08,47.19h0Z"/><path class="cls-2" d="M55.22,47.15h0Z"/><path class="cls-2" d="M45.41,47.18h0Z"/><path class="cls-2" d="M54.72,47.15h0Z"/><path class="cls-2" d="M44.82,47.2h0Z"/><path class="cls-2" d="M55.67,47.16h0Z"/><path class="cls-2" d="M57.76,47.33h0v-.1h0Z"/><path class="cls-2" d="M56.11,47.16h0Z"/><path class="cls-2" d="M57.14,47.19h0Z"/><path class="cls-2" d="M46.2,47.17h0Z"/><path class="cls-2" d="M56.5,47.17h0Z"/><path class="cls-2" d="M51.73,47.13h0Z"/><path class="cls-2" d="M56.85,47.18h0Z"/><path class="cls-2" d="M54.16,47.14h0Z"/><path class="cls-2" d="M45.79,47.18h0Z"/><polygon class="cls-2" points="57.67 48.03 57.67 48.03 57.76 47.33 57.76 47.33 57.67 48.03"/><polygon class="cls-2" points="80.41 47.98 80.41 47.98 80.31 48.67 80.41 47.98"/><polygon class="cls-2" points="92.89 49.85 93.05 48.67 92.89 49.85 92.89 49.85"/><polygon class="cls-2" points="92.83 50.28 92.84 50.23 92.84 50.23 92.83 50.28"/><polygon class="cls-2" points="92.85 50.12 92.84 50.23 92.84 50.23 92.85 50.12 92.89 49.85 92.89 49.85 92.85 50.12"/><path class="cls-2" d="M93.05,47.2h0Z"/><path class="cls-2" d="M88.83,47.12h0Z"/><path class="cls-2" d="M89.34,47.12h0Z"/><path class="cls-2" d="M89.88,47.12h0Z"/><path class="cls-2" d="M83.66,47.13h0Z"/><path class="cls-2" d="M83.15,47.14h0Z"/><path class="cls-2" d="M91.25,47.14h0Z"/><path class="cls-2" d="M91.65,47.15h0Z"/><path class="cls-2" d="M90.79,47.13h0Z"/><path class="cls-2" d="M90.35,47.13h0Z"/><path class="cls-2" d="M81.13,47.18h0Z"/><path class="cls-2" d="M82.64,47.14h0Z"/><path class="cls-2" d="M80.69,47.2h0Z"/><path class="cls-2" d="M80.57,47.22h0Z"/><path class="cls-2" d="M82.21,47.15h0Z"/><path class="cls-2" d="M81.43,47.17h0Z"/><path class="cls-2" d="M81.79,47.16h0Z"/><path class="cls-2" d="M80.88,47.19h0Z"/><path class="cls-2" d="M92.87,47.19h0Z"/><path class="cls-2" d="M93.24,47.23l-.06,0,.06,0Z"/><path class="cls-2" d="M92,47.16h0Z"/><polygon class="cls-2" points="80.51 47.23 80.52 47.23 80.51 47.23 80.41 47.98 80.41 47.98 80.51 47.23"/><path class="cls-2" d="M92.64,47.18h0Z"/><path class="cls-2" d="M92.35,47.17h0Z"/><polygon class="cls-2" points="62.62 47.94 62.62 47.94 62.5 48.68 62.62 47.94"/><polygon class="cls-2" points="74.34 49.88 74.5 48.68 74.34 49.88 74.34 49.88"/><polygon class="cls-2" points="74.24 50.63 62.26 50.63 62.26 50.63 74.24 50.63 74.29 50.22 74.29 50.22 74.24 50.63"/><polygon class="cls-2" points="74.34 49.88 74.34 49.88 74.31 50.12 74.29 50.22 74.29 50.22 74.31 50.12 74.34 49.88"/><path class="cls-2" d="M62.73,47.24l.07,0-.07,0-.11.7h0Z"/><path class="cls-2" d="M62.82,47.22h0Z"/><path class="cls-2" d="M63,47.2h0Z"/><path class="cls-2" d="M63.18,47.19h0Z"/><path class="cls-2" d="M74.23,47.19h0Z"/><path class="cls-2" d="M71.61,47.13h0Z"/><path class="cls-2" d="M63.73,47.16h0Z"/><path class="cls-2" d="M64.07,47.15h0Z"/><path class="cls-2" d="M72.07,47.14h0Z"/><path class="cls-2" d="M63.43,47.18h0Z"/><path class="cls-2" d="M72.5,47.14h0Z"/><path class="cls-2" d="M71.11,47.12h0Z"/><path class="cls-2" d="M64.87,47.14h0Z"/><path class="cls-2" d="M70,47.12h0Z"/><path class="cls-2" d="M65.8,47.12h0Z"/><path class="cls-2" d="M72.92,47.15h0Z"/><path class="cls-2" d="M65.3,47.13h0Z"/><path class="cls-2" d="M70.53,47.12h0Z"/><path class="cls-2" d="M64.45,47.14h0Z"/><path class="cls-2" d="M74.43,47.21h0Z"/><path class="cls-2" d="M66.25,47.12h0Z"/><path class="cls-2" d="M74,47.18h0Z"/><path class="cls-2" d="M74.59,47.22h0Z"/><polygon class="cls-2" points="74.7 47.24 74.69 47.24 74.7 47.24 74.7 47.24"/><path class="cls-2" d="M73.31,47.16h0Z"/><path class="cls-2" d="M73.67,47.17h0Z"/><path class="cls-2" d="M60.21,27.4a3.76,3.76,0,0,0-.2-.46,3.76,3.76,0,0,1,.2.46Z"/><path class="cls-2" d="M49.1,25.47a3.75,3.75,0,0,1,1-.31A3.75,3.75,0,0,0,49.1,25.47Z"/><path class="cls-2" d="M58.48,25.49a3.36,3.36,0,0,1,.76.48A3.36,3.36,0,0,0,58.48,25.49Z"/><path class="cls-2" d="M60.35,27.94a3.29,3.29,0,0,0-.14-.54h0A3.29,3.29,0,0,1,60.35,27.94Z"/><path class="cls-2" d="M51.57,68.77h.09l.27,0,.2,0Z"/><path class="cls-2" d="M52.19,68.69l.11,0,.31-.08.08,0A4.1,4.1,0,0,1,52.19,68.69Z"/><polygon class="cls-2" points="42.03 66.61 42.03 66.61 42.03 66.62 42.03 66.61"/><path class="cls-2" d="M53.43,68.2a2.26,2.26,0,0,0,.37-.26l.09-.07a3.31,3.31,0,0,1-.5.36Z"/><polygon class="cls-2" points="41.98 66.4 41.98 66.4 42.02 66.62 42.02 66.62 41.98 66.4"/><path class="cls-2" d="M42.34,67.18l.09.13Z"/><path class="cls-2" d="M52.79,68.52h0a2.39,2.39,0,0,0,.43-.2l0,0A3.71,3.71,0,0,1,52.79,68.52Z"/><path class="cls-2" d="M45.44,68.74h0Z"/><path class="cls-2" d="M48.45,68.73c.44,0,.85,0,1.24,0C49.3,68.75,48.9,68.73,48.45,68.73Z"/><path class="cls-2" d="M47.27,68.75l1.14,0Z"/><path class="cls-2" d="M42.78,67.76v0Z"/><path class="cls-2" d="M50.85,68.79h0Z"/><path class="cls-2" d="M46.22,68.76h0Z"/><path class="cls-2" d="M43.18,68.09a.41.41,0,0,0,.11.07A.41.41,0,0,1,43.18,68.09Z"/><path class="cls-2" d="M44.81,68.69h0Z"/><path class="cls-2" d="M43.69,68.39l0,0Z"/><path class="cls-2" d="M54.6,67c-.14.2-.23.37-.39.57C54.37,67.37,54.46,67.2,54.6,67Z"/><path class="cls-2" d="M44.21,68.57l.13,0Z"/><path class="cls-2" d="M51.93,68.73l-.27,0Z"/><path class="cls-2" d="M52.61,68.58l-.31.08Z"/><path class="cls-2" d="M53.8,67.94a2.26,2.26,0,0,1-.37.26A2.26,2.26,0,0,0,53.8,67.94Z"/><path class="cls-2" d="M51.31,68.78h0Z"/><polygon class="cls-2" points="42.02 66.62 42.03 66.66 42.03 66.66 42.02 66.62 42.02 66.62"/><path class="cls-2" d="M53.25,68.31a2.39,2.39,0,0,1-.43.2A2.39,2.39,0,0,0,53.25,68.31Z"/><polygon class="cls-2" points="41.82 65.62 41.98 66.4 41.98 66.4 41.82 65.62"/><path class="cls-2" d="M152.93,68.72h0Z"/><path class="cls-2" d="M152.06,68.63l-.15,0Z"/><path class="cls-2" d="M151.69,68.56l-.1,0Z"/><path class="cls-2" d="M158.78,68.77h0a4,4,0,0,1-.49,0A3.71,3.71,0,0,0,158.78,68.77Z"/><path class="cls-2" d="M156,68.77h0Z"/><path class="cls-2" d="M159.68,68.64l-.17,0Z"/><path class="cls-2" d="M154.49,68.77h0Z"/><path class="cls-2" d="M154,68.76h0Z"/><path class="cls-2" d="M153.43,68.75h0Z"/><path class="cls-2" d="M152.47,68.68l-.18,0Z"/><path class="cls-2" d="M155,68.77h0Z"/><path class="cls-2" d="M158.25,68.73h0Z"/><path class="cls-2" d="M157.55,68.74h0Z"/><path class="cls-2" d="M138.45,68.75l-.9,0Z"/><path class="cls-2" d="M135.65,68.77h0Z"/><path class="cls-2" d="M137.5,68.73l-.85,0Z"/><path class="cls-2" d="M141.18,68.52l-.18,0Z"/><path class="cls-2" d="M139.32,68.77h0Z"/><path class="cls-2" d="M140.64,68.66l-.21,0Z"/><path class="cls-2" d="M140.06,68.74h0Z"/><path class="cls-2" d="M134.52,68.71l-.23,0Z"/><path class="cls-2" d="M135.13,68.76l-.24,0Z"/><path class="cls-2" d="M141.69,68.3h0a3.45,3.45,0,0,0,.68-.51,3.45,3.45,0,0,1-.68.51Z"/><path class="cls-2" d="M133.93,68.61l-.18,0Z"/><path class="cls-2" d="M132.24,67.59a3.45,3.45,0,0,0,.48.45A3.45,3.45,0,0,1,132.24,67.59Z"/><path class="cls-2" d="M152.76,79.14l-.85,3.51-.09-.19c-.1-.26-.69-2.72-.91-3.34h-1.73V85h1.08a27.24,27.24,0,0,1,.14-4,17.55,17.55,0,0,1,.89,3.11c.25,1,.1.92.82.92a12.37,12.37,0,0,0,1-3.15c.22-.82.1-.76.38-.87l0,3.88h1.11V79.06A5.91,5.91,0,0,0,152.76,79.14Z"/><path class="cls-2" d="M160.16,81.3A2,2,0,0,0,160,80a2.14,2.14,0,0,0-.28-.39,1.64,1.64,0,0,0-.71-.38,4,4,0,0,0-.94-.12h-2.14v5.87h1.15V82.77c1.68,0,1.19.21,2.09,2.18h1.4l-1.3-2.3C159.44,82.29,160,82.24,160.16,81.3Zm-3.06.29h0V80c.86,0,2.22-.23,2.18.84S158,81.6,157.1,81.59Z"/><path class="cls-2" d="M60.53,61.77h0l-.24,1.84H90.62l.25,0,.3-2,.24-2,0-.42H79.05a2,2,0,0,1-1.49-.66s0-.07-.07-.1H74.8a2,2,0,0,1-1.57.76h-12a1.69,1.69,0,0,1-.33,0l-.09.51-.3,1.89Z"/><path class="cls-2" d="M74.8,58.55h2.69l-.06-.09H74.86Z"/><polygon class="cls-2" points="60.53 61.77 60.28 63.61 60.3 63.61 60.54 61.77 60.53 61.77"/><polygon class="cls-2" points="60.54 61.68 60.84 59.79 60.54 61.68 60.53 61.77 60.53 61.77 60.54 61.68"/><polygon class="cls-2" points="60.53 61.77 60.53 61.77 60.28 63.61 60.28 63.61 60.53 61.77"/><path class="cls-2" d="M60.3,63.61l-.11.8H90.76l.11-.76-.25,0Z"/><polygon class="cls-2" points="60.3 63.61 60.28 63.61 60.18 64.41 60.19 64.41 60.3 63.61"/><polygon class="cls-2" points="60.28 63.61 60.18 64.41 60.18 64.41 60.28 63.61 60.28 63.61"/><path class="cls-2" d="M77.56,58.65a2,2,0,0,0,1.49.66H91.46l.1-.76H77.49S77.53,58.62,77.56,58.65Z"/><path class="cls-2" d="M91.56,58.55v-.09H77.43l.06.09Z"/><path class="cls-2" d="M73.23,59.31a2,2,0,0,0,1.57-.76H61.06L61,59l0,.31a1.69,1.69,0,0,0,.33,0Z"/><path class="cls-2" d="M61.06,58.46,61,59l.08-.42H74.8l.06-.09Z"/><path class="cls-2" d="M115.24,59.29a2,2,0,0,1-1.49-.68l-.07-.09h-3.52c-3,.09-7.37,0-10.54,0a3.37,3.37,0,0,0-1.33.24H98.2l-.09.07c-.28.23-.5.41-.68.59a2.5,2.5,0,0,0-.34.39,2.79,2.79,0,0,0-.31.71,11.19,11.19,0,0,0-.26,1.16l0,.09h0l-.3,1.86h30.46a1.54,1.54,0,0,1,.3,0l.09-.64h0l.19-1.26h0v0l.35-2.46Z"/><path class="cls-2" d="M98.29,58.77a3.37,3.37,0,0,1,1.33-.24c3.17,0,7.57.09,10.54,0h0l-1,0H99.62a3.57,3.57,0,0,0-.46,0l-.22,0a3.69,3.69,0,0,0-.65.18v-.07l-.09.08Z"/><polygon class="cls-2" points="96.22 63.65 96.52 61.78 96.5 61.78 96.21 63.65 96.22 63.65"/><polygon class="cls-2" points="127.27 61.78 127.23 61.78 127.04 63.04 127.07 63.04 127.09 62.95 127.27 61.78"/><polygon class="cls-2" points="126.98 63.68 126.98 63.68 127.07 63.04 127.07 63.04 126.98 63.68"/><path class="cls-2" d="M97.09,59.82a2.5,2.5,0,0,1,.34-.39A2.5,2.5,0,0,0,97.09,59.82Z"/><polygon class="cls-2" points="127.28 61.75 127.63 59.29 127.63 59.29 127.28 61.75"/><path class="cls-2" d="M96.5,61.78h0l0-.09a11.19,11.19,0,0,1,.26-1.16,11.19,11.19,0,0,0-.26,1.16Z"/><polygon class="cls-2" points="127.27 61.78 127.28 61.75 127.27 61.78 127.27 61.78"/><path class="cls-2" d="M98.2,58.77h0l-.09.07Z"/><path class="cls-2" d="M97.09,59.82a2.79,2.79,0,0,0-.31.71A2.79,2.79,0,0,1,97.09,59.82Z"/><path class="cls-2" d="M108.82,58.55h0Z"/><path class="cls-2" d="M98.29,58.69h0l-.09.08h0Z"/><path class="cls-2" d="M104.73,58.55h0Z"/><path class="cls-2" d="M101.79,58.53h0Z"/><path class="cls-2" d="M99.69,58.52h0Z"/><path class="cls-2" d="M98.94,58.58l.22,0Z"/><path class="cls-2" d="M109.11,58.55l1,0Z"/><polygon class="cls-2" points="96.21 63.65 96.21 63.65 96.5 61.78 96.5 61.78 96.21 63.65"/><polygon class="cls-2" points="127.09 62.95 127.07 63.04 127.07 63.04 127.09 62.95 127.27 61.78 127.27 61.78 127.09 62.95"/><path class="cls-2" d="M127,63.68a1.54,1.54,0,0,0-.3,0H96.22v.74h30.66Z"/><polygon class="cls-2" points="96.21 63.65 96.21 63.67 96.21 63.76 96.22 63.65 96.21 63.65"/><polygon class="cls-2" points="126.87 64.38 96.21 64.38 96.21 64.38 126.87 64.38 126.98 63.68 126.98 63.68 126.87 64.38"/><polygon class="cls-2" points="96.21 63.67 96.21 63.65 96.21 63.65 96.21 63.67"/><path class="cls-2" d="M113.75,58.61a2,2,0,0,0,1.49.68h12.39l.1-.77h-14Z"/><polygon class="cls-2" points="127.63 59.29 127.73 58.52 127.73 58.52 127.63 59.29 127.63 59.29"/><path class="cls-2" d="M147,41.46H135.09l-.15,0-.65,3.74H165l.24,0,.5-3.75L153,41.41l-.23,0,0,.18H147Z"/><polygon class="cls-2" points="146.99 41.57 146.99 41.57 152.71 41.57 152.74 41.38 152.74 41.38 152.71 41.57 146.99 41.57"/><path class="cls-2" d="M165.27,45.21l-.24,0H134.29l-.13.76v0l.19,0h5l3,0h6.06l9.09,0h2.23c1.57,0,3.14,0,4.67,0h.6a.38.38,0,0,0,.16-.06l0,0a.43.43,0,0,0,.1-.19Z"/><path class="cls-2" d="M165.1,45.92l0,0Z"/><path class="cls-2" d="M134.41,46h0Z"/><path class="cls-2" d="M135.24,46h0Z"/><path class="cls-2" d="M148.33,46l10.16,0h-1.07Z"/><path class="cls-2" d="M164.92,46h0Z"/><path class="cls-2" d="M164.67,46h0Z"/><path class="cls-2" d="M143,46h0Z"/><path class="cls-2" d="M142.3,46h0Z"/><path class="cls-2" d="M143.34,46h0Z"/><path class="cls-2" d="M164.32,46c-1.53,0-3.1,0-4.67,0C161.22,46,162.79,46,164.32,46Z"/><path class="cls-2" d="M136.4,46h0Z"/><path class="cls-2" d="M153,41.41l12.8.05.12-.91h-13l-.11.84Z"/><polygon class="cls-2" points="152.85 40.55 152.74 41.38 152.74 41.38 152.85 40.55"/><path class="cls-2" d="M135.09,41.46H147l.07-.92h-12l-.16.9Z"/><path class="cls-2" d="M147.84,33.22a2,2,0,0,1,1.46.63,2.55,2.55,0,0,1,.28.39h2.25a2,2,0,0,1,1.44-1,33.12,33.12,0,0,1,3.65-.07l7.12,0,2.6,0,.28,0,.41-2.78H136.69a2.4,2.4,0,0,1-.28,0L136,33.22Z"/><path class="cls-2" d="M167.33,30.47l.15-1H136.69l-.13,0-.15,1a2.4,2.4,0,0,0,.28,0Z"/><path class="cls-2" d="M167.48,29.47v-.06l-30.92,0v.05l.13,0Z"/><path class="cls-2" d="M166.64,33.22l-2.6,0-7.12,0a33.12,33.12,0,0,0-3.65.07,2,2,0,0,0-1.44,1h1.59c.22,0,.81-.06,3.5-.06l7.12,0,2.6,0,.13,0h0l.14-1Z"/><path class="cls-2" d="M164,34.2l-7.12,0c-2.69,0-3.28,0-3.5.06h13.35l-.13,0Z"/><path class="cls-2" d="M149.3,33.85a2,2,0,0,0-1.46-.63H136l-.15,1h12l.1,0h1.64A2.55,2.55,0,0,0,149.3,33.85Z"/><path class="cls-2" d="M135.83,34.22v0h12.11l-.1,0Z"/><path class="cls-2" d="M101.24,30.46a3,3,0,0,1-.31,0v0h0l-.34,2.5v.09h0l0,.24h12.06a2,2,0,0,1,1.5.68,1.79,1.79,0,0,1,.2.28H131s0,0,.05-.05l.23-1.6.3-2.13Z"/><polygon class="cls-2" points="100.55 33.3 100.58 33.06 100.57 33.06 100.54 33.3 100.55 33.3"/><polygon class="cls-2" points="100.92 30.43 100.92 30.43 100.92 30.42 100.92 30.42 100.92 30.47 100.92 30.47 100.93 30.43 100.93 30.42 100.92 30.43"/><polygon class="cls-2" points="131.29 32.59 131.59 30.45 131.59 30.45 131.29 32.59"/><path class="cls-2" d="M100.93,30.43a3,3,0,0,0,.31,0h30.35l.15-1H101.1Z"/><path class="cls-2" d="M101,30.21l0,.21h0l.17-1h0Z"/><polygon class="cls-2" points="100.92 30.42 100.92 30.42 100.92 30.42 100.92 30.42"/><polygon class="cls-2" points="131.59 30.45 131.59 30.45 131.74 29.45 131.74 29.45 131.59 30.45"/><polygon class="cls-2" points="101.1 29.43 101.1 29.43 100.96 30.21 101.1 29.43"/><path class="cls-2" d="M127.45,29.44h4.29V29.4h-4.31Z"/><path class="cls-2" d="M101.17,29.44h26.28l0,0H101.1v0Z"/><polygon class="cls-2" points="131.74 29.45 131.75 29.4 131.75 29.4 131.74 29.45 131.74 29.45"/><polygon class="cls-2" points="101.1 29.4 101.1 29.4 101.1 29.43 101.1 29.43 101.1 29.4"/><path class="cls-2" d="M112.61,33.29H100.55l-.11,1h13.87a1.79,1.79,0,0,0-.2-.28A2,2,0,0,0,112.61,33.29Z"/><polygon class="cls-2" points="100.54 33.3 100.43 34.25 100.44 34.25 100.55 33.3 100.54 33.3"/><path class="cls-2" d="M64.6,33v.09h.07l0,.16H76.2a1.9,1.9,0,0,1,1.74,1h2.61a2,2,0,0,1,1.73-1H94.91a1.9,1.9,0,0,1,.25,0l0-.28.35-2.5H65.29l-.3,0-.15.85Z"/><polygon class="cls-2" points="64.63 33.22 64.66 33.06 64.59 33.06 64.57 33.22 64.57 33.22 64.63 33.22"/><polygon class="cls-2" points="80.55 34.26 80.55 34.26 77.94 34.26 77.94 34.26 80.55 34.26"/><polygon class="cls-2" points="95.2 32.97 95.16 33.25 95.16 33.25 95.2 32.97 95.55 30.47 95.55 30.47 95.2 32.97"/><polygon class="cls-2" points="64.57 33.22 64.57 33.22 64.57 33.22 64.57 33.22"/><path class="cls-2" d="M95.55,30.47V30.3l.09-.83H65.29l-.06,0h-.07l-.17,1,.3,0Z"/><path class="cls-2" d="M65.16,29.44h0Z"/><polygon class="cls-2" points="95.55 30.47 95.55 30.47 95.56 30.42 95.57 30.3 95.56 30.42 95.55 30.47"/><path class="cls-2" d="M65.29,29.47H95.66v0H65.23Z"/><path class="cls-2" d="M95.66,29.45V29.4H65.17v.05h30.5Z"/><path class="cls-2" d="M82.28,34.22H94.9a.42.42,0,0,1,.12,0l.14-1a1.9,1.9,0,0,0-.25,0H82.28a2,2,0,0,0-1.73,1H82A1.09,1.09,0,0,1,82.28,34.22Z"/><polygon class="cls-2" points="95.02 34.25 95.02 34.25 95.16 33.25 95.16 33.25 95.02 34.25"/><polygon class="cls-2" points="82.03 34.26 82.03 34.26 80.55 34.26 80.55 34.26 82.03 34.26"/><path class="cls-2" d="M93.91,34.21H82.28a1.09,1.09,0,0,0-.25,0H95a.42.42,0,0,0-.12,0Z"/><polygon class="cls-2" points="95.02 34.25 95.02 34.25 95.02 34.26 95.02 34.25"/><polygon class="cls-2" points="82.03 34.26 82.03 34.26 95.02 34.26 82.03 34.26"/><path class="cls-2" d="M76.2,34.22a1,1,0,0,1,.17,0h1.57a1.9,1.9,0,0,0-1.74-1H64.63l-.17,1Z"/><polygon class="cls-2" points="64.63 33.22 64.57 33.22 64.44 34.22 64.46 34.22 64.63 33.22"/><polygon class="cls-2" points="76.37 34.26 77.94 34.26 77.94 34.26 76.37 34.26 76.37 34.26"/><polygon class="cls-2" points="64.44 34.22 64.57 33.22 64.57 33.22 64.44 34.22 64.44 34.22"/><path class="cls-2" d="M76.2,34.22H64.46v0H76.37A1,1,0,0,0,76.2,34.22Z"/><polygon class="cls-2" points="64.46 34.25 64.46 34.22 64.44 34.22 64.44 34.25 64.46 34.25"/><polygon class="cls-2" points="76.37 34.26 64.46 34.25 64.46 34.25 76.37 34.26 76.37 34.26"/><polygon class="cls-2" points="64.46 34.25 64.46 34.25 64.44 34.25 64.44 34.22 64.44 34.22 64.44 34.25 64.46 34.25"/><path class="cls-2" d="M111.74,41.46h-12l-.31,0-.17,1.19h0v.06h0l-.29,2.06h0l0,.51c1,0,3-.06,7.87-.06,9,0,22.39.09,22.53.09l.21,0a4.83,4.83,0,0,0-.22-1.36h0c-.28-.48-.47-.73-.76-1.2h.09l-.09-.12a4.13,4.13,0,0,1-.46-.38.65.65,0,0,0-.16-.13,2.59,2.59,0,0,0-.4-.25l-.11-.06-.24-.1-.13,0-.21-.05-.13,0h-3.77l-2.56,0h-7.8l-.74,0h0Z"/><polygon class="cls-2" points="98.92 44.74 98.92 44.74 99.22 42.69 99.21 42.69 98.92 44.66 98.92 44.74"/><path class="cls-2" d="M128.46,42.74c.29.47.48.72.76,1.2h0l0-.12-.11-.2c-.19-.34-.36-.58-.56-.88Z"/><path class="cls-2" d="M126.75,41.62l.21.05Z"/><path class="cls-2" d="M126.39,41.59h0Z"/><path class="cls-2" d="M127.09,41.7l.24.1Z"/><path class="cls-2" d="M125.59,41.61h0Z"/><path class="cls-2" d="M120.29,41.67l2.56,0Z"/><path class="cls-2" d="M126.13,41.59h0Z"/><path class="cls-2" d="M123,41.64h0Z"/><path class="cls-2" d="M113.39,41.68h0Z"/><path class="cls-2" d="M128,42.24a1.07,1.07,0,0,0-.16-.14,3.52,3.52,0,0,0-.4-.24,2.59,2.59,0,0,1,.4.25A.65.65,0,0,1,128,42.24Z"/><path class="cls-2" d="M112.49,41.66h0Z"/><polygon class="cls-2" points="98.92 44.74 98.92 44.74 98.86 45.25 98.86 45.25 98.92 44.74"/><path class="cls-2" d="M129.47,45.3h0a4.83,4.83,0,0,0-.22-1.36h0A4.83,4.83,0,0,1,129.47,45.3Z"/><path class="cls-2" d="M116,41.7h0Z"/><path class="cls-2" d="M125.45,41.62h0Z"/><path class="cls-2" d="M116.72,41.7h0Z"/><path class="cls-2" d="M111.75,41.63h0Z"/><path class="cls-2" d="M119.23,41.68h0Z"/><polygon class="cls-2" points="98.92 44.74 98.92 44.74 98.92 44.66 98.92 44.74"/><path class="cls-2" d="M129.25,43.94h0l0-.12-.11-.2.11.2Z"/><path class="cls-2" d="M129.26,45.28c-.14,0-13.53-.09-22.53-.09-4.82,0-6.89,0-7.87.06l-.09.73h30.68a4.89,4.89,0,0,0,0-.54s0-.09,0-.14Z"/><polygon class="cls-2" points="98.86 45.25 98.77 45.98 98.77 45.98 98.86 45.25 98.86 45.25"/><path class="cls-2" d="M129.48,45.44s0-.09,0-.14h0C129.47,45.35,129.48,45.39,129.48,45.44Z"/><path class="cls-2" d="M99.39,41.43l.31,0h12l0-.34.06-.51H99.5Z"/><polygon class="cls-2" points="111.84 40.61 111.84 40.61 111.78 41.12 111.84 40.61"/><path class="cls-2" d="M147,50.48l.11.16h2.48a2,2,0,0,1,1.64-.86h13.07a2,2,0,0,1,.35,0l.26-1.83h-.09l-.33,0h-.18c-2,0-4.27,0-6.9,0l-7.1,0-6.93,0-2,0c-1.45,0-3.35,0-4.85,0-1.77,0-2.33,0-2.61-.06-.1.59-.18,1.2-.24,1.8H145.5A2,2,0,0,1,147,50.48Z"/><path class="cls-2" d="M136.58,48c1.5,0,3.4,0,4.85,0l2,0,6.93,0,7.1,0c2.63,0,4.88,0,6.9,0h.18l.33,0h.09l.11-.82H134.1c0,.27-.08.53-.13.8C134.25,48,134.81,48,136.58,48Z"/><path class="cls-2" d="M133.73,49.78c.06-.6.14-1.21.24-1.8h0c-.1.59-.18,1.2-.24,1.8Z"/><path class="cls-2" d="M134.1,47.18c0,.27-.08.53-.13.8h0C134,47.71,134.05,47.45,134.1,47.18Z"/><path class="cls-2" d="M151.24,49.78h0a2,2,0,0,0-1.64.86h15l.11-.81a2,2,0,0,0-.35,0Z"/><path class="cls-2" d="M147,50.48a2,2,0,0,0-1.51-.69H133.73c0,.29-.06.57-.08.86h13.47Z"/><path class="cls-2" d="M133.73,49.78c0,.29-.06.57-.08.86h0c0-.29,0-.57.08-.86Z"/><path class="cls-2" d="M98.91,50.5a1,1,0,0,0,.33.17c.32,0,.63,0,1,0l1,0h13.32a2,2,0,0,1,.43-.39,2.8,2.8,0,0,1,1.73-.51h0c.2,0,.41,0,.59,0h11.2a1.9,1.9,0,0,1,.41,0l.08,0,.2-1.31.06-.61H98.77l-.3,0c-.07.56-.13,1.13-.15,1.69A2.74,2.74,0,0,0,98.91,50.5Z"/><path class="cls-2" d="M98.31,49.64h0c0-.56.08-1.13.15-1.69h0C98.39,48.51,98.33,49.07,98.31,49.64Z"/><path class="cls-2" d="M98.55,47.31c0,.21,0,.43-.08.64l.3,0h30.4l.05-.46,0-.24s-6.62-.05-13.72-.07H100.69l-1.22,0H99.4l-.69,0h0l-.12,0h0v0Z"/><path class="cls-2" d="M98.47,48c0-.21,0-.43.08-.64h0c0,.17,0,.35-.08.53V48Z"/><path class="cls-2" d="M109.24,50.68h0Z"/><path class="cls-2" d="M112.47,50.69h0Z"/><path class="cls-2" d="M112.56,50.69h0Z"/><path class="cls-2" d="M98.32,49.64a2.74,2.74,0,0,0,.59.86,2.74,2.74,0,0,1-.59-.86Z"/><path class="cls-2" d="M98.46,48h0c-.07.56-.13,1.12-.15,1.69C98.33,49.07,98.39,48.51,98.46,48Z"/><polygon class="cls-2" points="98.31 49.64 98.32 49.64 98.32 49.64 98.31 49.64"/><path class="cls-2" d="M98.67,47.26h0Z"/><path class="cls-2" d="M104.56,47.19h0Z"/><path class="cls-2" d="M107,47.19h0Z"/><path class="cls-2" d="M108.18,47.19h0Z"/><path class="cls-2" d="M109.57,47.19h0Z"/><path class="cls-2" d="M100.69,47.21h0Z"/><path class="cls-2" d="M102.44,47.2h0Z"/><path class="cls-2" d="M99.4,47.23h0Z"/><path class="cls-2" d="M115.5,47.21h0Z"/><path class="cls-2" d="M112.37,47.2h0Z"/><polygon class="cls-2" points="129.24 47.28 129.24 47.28 129.22 47.52 129.24 47.28"/><path class="cls-2" d="M98.47,47.84s0,.07,0,.11h0Z"/><path class="cls-2" d="M128.91,49.9l-.08,0a1.9,1.9,0,0,0-.41,0h-11.2c-.18,0-.39,0-.59,0h0a2.8,2.8,0,0,0-1.73.51,2,2,0,0,0-.43.39H128.8Z"/><path class="cls-2" d="M127,50.69h0Z"/><path class="cls-2" d="M126.43,50.7h0Z"/><path class="cls-2" d="M128.68,50.67h0Z"/><path class="cls-2" d="M125.63,50.7h0Z"/><path class="cls-2" d="M128.08,50.68h0Z"/><path class="cls-2" d="M114.47,50.7Z"/><path class="cls-2" d="M123.86,50.7h0Z"/><path class="cls-2" d="M124.94,50.7h0Z"/><path class="cls-2" d="M167.44,27.41a3.47,3.47,0,0,0-.57-1c-.1-.11-.2-.22-.31-.32a3.08,3.08,0,0,0-.75-.53h0a2.47,2.47,0,0,0-.5-.19l-.18-.05-.39-.08-.23,0-.39,0h-1.77l-.89,0h-21l-.44,0-.13,0-.32,0-.15,0-.3.07-.13,0-.41.14,0,0a2.11,2.11,0,0,0-.34.16l-.11.07-.24.17-.11.09a2.72,2.72,0,0,0-.24.24l-.06.07a2,2,0,0,0-.25.37l-.06.1-.15.34c0,.05,0,.11-.05.16s0,.05,0,.08Z"/><path class="cls-2" d="M167.49,28.41s.09,0,.14,0a3.17,3.17,0,0,0-.14-.87.75.75,0,0,0-.05-.16l-30.57,0a2.45,2.45,0,0,0-.08.29l0,.17a4.46,4.46,0,0,0-.06.54Z"/><path class="cls-2" d="M167.49,28.41l-30.79,0s0,.05,0,.08h30.94v0S167.54,28.41,167.49,28.41Z"/><path class="cls-2" d="M140.87,25.13h0Z"/><path class="cls-2" d="M141.27,25.13h0Z"/><path class="cls-2" d="M162.34,25.13h0Z"/><path class="cls-2" d="M139.85,25.2l.13,0Z"/><path class="cls-2" d="M140.42,25.14h0Z"/><path class="cls-2" d="M139.38,25.27l.15,0Z"/><path class="cls-2" d="M167.44,27.41a3.47,3.47,0,0,0-.57-1,3.47,3.47,0,0,1,.57,1Z"/><path class="cls-2" d="M165.3,25.34a2.47,2.47,0,0,1,.5.19A2.47,2.47,0,0,0,165.3,25.34Z"/><path class="cls-2" d="M164.73,25.21l.39.08Z"/><path class="cls-2" d="M164.11,25.14l.39,0Z"/><path class="cls-2" d="M163.44,25.12h0Z"/><path class="cls-2" d="M136.89,27.31s0-.11.05-.16S136.91,27.26,136.89,27.31Z"/><path class="cls-2" d="M137.4,26.34l.06-.07Z"/><path class="cls-2" d="M138.05,25.77l.11-.07Z"/><path class="cls-2" d="M137.7,26l.11-.09Z"/><path class="cls-2" d="M137.09,26.81l.06-.1Z"/><path class="cls-2" d="M139,25.37l.13,0Z"/><path class="cls-2" d="M138.5,25.54l0,0Z"/><path class="cls-2" d="M167.49,27.57a.75.75,0,0,0-.05-.16h0A.75.75,0,0,1,167.49,27.57Z"/><path class="cls-2" d="M136.76,27.85l0-.17Z"/><path class="cls-2" d="M95.49,27.11a3.25,3.25,0,0,0-.49-.77,3.14,3.14,0,0,0-.68-.63l-.17-.1h-.22c-2-.6-5-.32-7.18-.32-2,0-17.78-.09-18.51,0a3.68,3.68,0,0,0-2.36,1.26,1.11,1.11,0,0,0-.07.16c-.12.26-.24.44-.33.68H95.6Z"/><path class="cls-2" d="M65.88,26.55a3.68,3.68,0,0,1,2.36-1.26c.73-.09,16.51,0,18.51,0,2.2,0,5.23-.28,7.18.32h.22l-.23-.14h0a4.8,4.8,0,0,0-.77-.18l-.31-.05-.57-.07-.4,0c-.18,0-.35,0-.54,0H88.75l-.72,0H68.23a3.75,3.75,0,0,0-1.9.8,3.86,3.86,0,0,0-.5.49l.08,0h0Z"/><path class="cls-2" d="M95.67,28.4a.45.45,0,0,1,.11,0,3.23,3.23,0,0,0-.18-1H65.48a3,3,0,0,0-.18,1Z"/><path class="cls-2" d="M95.79,28.47s0,0,0,0a.45.45,0,0,0-.11,0H65.3s0,.05,0,.08Z"/><path class="cls-2" d="M65.88,26.55a1.11,1.11,0,0,0-.07.16,1.11,1.11,0,0,1,.07-.16Z"/><path class="cls-2" d="M65.91,26.46h0l0,.09h0Z"/><path class="cls-2" d="M93.13,25.29a4.8,4.8,0,0,1,.77.18A4.8,4.8,0,0,0,93.13,25.29Z"/><path class="cls-2" d="M86.74,25.15h0Z"/><path class="cls-2" d="M84.69,25.15h0Z"/><path class="cls-2" d="M82.37,25.14h0Z"/><path class="cls-2" d="M78.57,25.13h0Z"/><path class="cls-2" d="M91.31,25.11c.19,0,.36,0,.54,0C91.67,25.13,91.5,25.11,91.31,25.11Z"/><path class="cls-2" d="M88,25.13l.72,0Z"/><path class="cls-2" d="M65.83,26.44h0a3.86,3.86,0,0,1,.5-.49A3.86,3.86,0,0,0,65.83,26.44Z"/><path class="cls-2" d="M92.25,25.17l.57.07Z"/><path class="cls-2" d="M89.4,25.1h0Z"/><path class="cls-2" d="M90.34,25.09h0Z"/><path class="cls-2" d="M69.15,25.13h0Z"/><path class="cls-2" d="M68.44,25.14h0Z"/><path class="cls-2" d="M68.38,25.14h-.16a3.76,3.76,0,0,0-1.89.8,3.75,3.75,0,0,1,1.9-.8Z"/><path class="cls-2" d="M68.75,25.13h0Z"/><path class="cls-2" d="M69.85,25.12h0Z"/><path class="cls-2" d="M70.53,25.12h0Z"/><path class="cls-2" d="M74.32,25.12h0Z"/><path class="cls-2" d="M72.29,25.12h0Z"/><path class="cls-2" d="M75.2,25.12h0Z"/><path class="cls-2" d="M71.15,25.12h0Z"/><path class="cls-2" d="M131.94,27.42v-.8l-.08-.12,0,0-.05-.06-.12-.13-.17-.17-.16-.15-.09-.07-.11-.05-.12-.05-.19-.09-.34-.15-.32-.12-.51-.16-.61-.08h-1s0,0-.07,0h-7.35l-2.42,0H106.31a4.34,4.34,0,0,0-.51,0,9.83,9.83,0,0,0-1.21.08h0l-.26.05a8.33,8.33,0,0,0-.84.17c-.16,0-.31.07-.46.12h-.17a3.27,3.27,0,0,0-1.11,1.11,3.22,3.22,0,0,0-.31.68h30.32Z"/><path class="cls-2" d="M104.57,25.27l-.16,0-.1,0Z"/><path class="cls-2" d="M103,25.49a2.12,2.12,0,0,0-.2.12H103c.15-.05.3-.08.46-.12l-.31.07h0Z"/><path class="cls-2" d="M101.24,28.4h30.5a1.42,1.42,0,0,1,.2,0v-1l-.2,0H101.42l-.06.15A4,4,0,0,0,101.24,28.4Z"/><path class="cls-2" d="M131.74,28.4h-30.5v.06h30.7v0A1.42,1.42,0,0,0,131.74,28.4Z"/><path class="cls-2" d="M107.89,25.23h0Z"/><path class="cls-2" d="M107,25.22h0Z"/><path class="cls-2" d="M118.2,25.2l2.42,0Z"/><path class="cls-2" d="M108.44,25.24h0Z"/><path class="cls-2" d="M113.84,25.23h0Z"/><path class="cls-2" d="M106.63,25.21h0Z"/><path class="cls-2" d="M116,25.21h0Z"/><path class="cls-2" d="M110.7,25.24h0Z"/><path class="cls-2" d="M109.08,25.24h0Z"/><path class="cls-2" d="M114.92,25.22h0Z"/><path class="cls-2" d="M126.54,25.16h0Z"/><path class="cls-2" d="M127.4,25.16h0Z"/><path class="cls-2" d="M127,25.16h0Z"/><path class="cls-2" d="M127.93,25.18h0Z"/><path class="cls-2" d="M120.64,25.18h0Z"/><path class="cls-2" d="M127.74,25.17h0Z"/><path class="cls-2" d="M121.72,25.18h0Z"/><path class="cls-2" d="M106.36,25.19h0Z"/><path class="cls-2" d="M123.71,25.16h0Z"/><path class="cls-2" d="M122.76,25.17h0Z"/><path class="cls-2" d="M107.39,25.23h0Z"/><path class="cls-2" d="M105.8,25.19h-.34l-.29,0-.58.06h0A9.83,9.83,0,0,1,105.8,25.19Z"/><polygon class="cls-2" points="131.32 25.96 131.24 25.89 131.13 25.84 131.24 25.89 131.32 25.96"/><path class="cls-2" d="M104.31,25.32a8.33,8.33,0,0,0-.84.17A8.33,8.33,0,0,1,104.31,25.32Z"/><polygon class="cls-2" points="131.83 26.47 131.78 26.41 131.66 26.28 131.78 26.41 131.83 26.47"/><path class="cls-2" d="M110,25.24h0Z"/><path class="cls-2" d="M104.59,25.27l.58-.06Z"/><path class="cls-2" d="M105.46,25.19h0Z"/><path class="cls-2" d="M104.31,25.32l.1,0a8.66,8.66,0,0,0-1.25.26l.31-.07A8.33,8.33,0,0,1,104.31,25.32Z"/><path class="cls-2" d="M101.36,27.55a4,4,0,0,0-.12.85h0A4,4,0,0,1,101.36,27.55Z"/><path class="cls-2" d="M101.24,28.4v0Z"/><path class="cls-2" d="M96.21,66.38h-.07l0,.31h0v-.05h0l0,.05h0a7.1,7.1,0,0,0,.81,1.16,5.89,5.89,0,0,0,.55.44,6.44,6.44,0,0,0,.63.36c.6.06,1.2.09,1.8.12h.67l1.19,0h20.84a3.77,3.77,0,0,0,.58,0l.27,0a3,3,0,0,0,.41-.08l.24-.07a3.69,3.69,0,0,0,.42-.17l.19-.1a3,3,0,0,0,.55-.38h0c.09-.12.17-.2.25-.29l.26-.3c.21-.26.27-.42.45-.66l.09-.31Z"/><polygon class="cls-2" points="96.19 66.7 96.19 66.68 96.19 66.68 96.19 66.7"/><path class="cls-2" d="M96.23,66.68l.16.26a6.18,6.18,0,0,0,.64.88l0,0a7.1,7.1,0,0,1-.81-1.16Z"/><path class="cls-2" d="M96.21,66.38h30.24l.23-.74H96l.14.73Z"/><path class="cls-2" d="M124.23,68.6l-.24.07Z"/><path class="cls-2" d="M97.6,68.28a6.44,6.44,0,0,0,.63.36c.6.06,1.2.09,1.8.12-.6,0-1.2-.06-1.8-.12A6.44,6.44,0,0,1,97.6,68.28Z"/><path class="cls-2" d="M123.58,68.75l-.27,0Z"/><polygon class="cls-2" points="126.36 66.69 126.45 66.38 126.45 66.38 126.36 66.69"/><path class="cls-2" d="M105.16,68.77h0Z"/><path class="cls-2" d="M101.89,68.79l-1.19,0Z"/><path class="cls-2" d="M124.84,68.33l-.19.1Z"/><path class="cls-2" d="M125.39,68h0c.09-.12.17-.2.25-.29-.08.09-.16.17-.25.29Z"/><path class="cls-2" d="M125.65,67.65l.26-.3c.21-.26.27-.42.45-.66-.18.24-.24.4-.45.66Z"/><polygon class="cls-2" points="96.19 66.68 96.14 66.37 96.14 66.37 96.19 66.68 96.19 66.68"/><polygon class="cls-2" points="96.19 66.68 96.19 66.7 96.19 66.68 96.19 66.68"/><path class="cls-2" d="M97,67.82a6.18,6.18,0,0,1-.64-.88A6.18,6.18,0,0,0,97,67.82Z"/><polygon class="cls-2" points="126.45 66.38 126.68 65.64 126.68 65.64 126.45 66.38 126.45 66.38"/><polygon class="cls-2" points="96 65.64 96 65.64 96.14 66.37 96.14 66.37 96 65.64"/><path class="cls-2" d="M90.35,66.4H60.21a2.25,2.25,0,0,0,.08.24h0l0,0h0c.1.21.21.39.31.56l.09.13a3.43,3.43,0,0,0,.32.41l0,0a2,2,0,0,0,.39.33l.1.08a3.47,3.47,0,0,0,.37.21l.07,0a3.71,3.71,0,0,0,.47.16l.12,0c.14,0,.29.06.43.09h.1l.56,0h.15l.51,0h.12l1,0,1.2,0h8.59c.63,0,3.92,0,7,0H86l.62,0h.09l.5,0h0l.38,0h0l.22,0a3.85,3.85,0,0,0,2-1.33,4.06,4.06,0,0,0,.42-.7Z"/><path class="cls-2" d="M90.35,66.4l.27-.79H60.08a2.32,2.32,0,0,0,.05.53,1.38,1.38,0,0,0,.08.27Z"/><path class="cls-2" d="M62.41,68.57a3.71,3.71,0,0,1-.47-.16A3.71,3.71,0,0,0,62.41,68.57Z"/><path class="cls-2" d="M89.3,67.89a3.84,3.84,0,0,1-1.41.75A3.84,3.84,0,0,0,89.3,67.89Z"/><path class="cls-2" d="M60.57,67.18c-.1-.17-.21-.35-.31-.56C60.36,66.83,60.47,67,60.57,67.18Z"/><path class="cls-2" d="M61.87,68.38a3.47,3.47,0,0,1-.37-.21A3.47,3.47,0,0,0,61.87,68.38Z"/><polygon class="cls-2" points="60.29 66.65 60.26 66.61 60.26 66.61 60.29 66.65 60.29 66.65"/><path class="cls-2" d="M63.62,68.75l-.56,0Z"/><path class="cls-2" d="M61,67.72a3.43,3.43,0,0,1-.32-.41A3.43,3.43,0,0,0,61,67.72Z"/><path class="cls-2" d="M75.24,68.73h0c.7,0,4.66,0,8,0h-1C79.16,68.77,75.87,68.73,75.24,68.73Z"/><path class="cls-2" d="M61.4,68.09a2,2,0,0,1-.39-.33A2,2,0,0,0,61.4,68.09Z"/><path class="cls-2" d="M63,68.69c-.14,0-.29,0-.43-.09C62.67,68.64,62.82,68.66,63,68.69Z"/><path class="cls-2" d="M87.66,68.67l-.38,0Z"/><path class="cls-2" d="M87.23,68.7l-.5,0Z"/><path class="cls-2" d="M86.64,68.72l-.62,0Z"/><path class="cls-2" d="M87.89,68.64l-.22,0Z"/><path class="cls-2" d="M65.45,68.75l-1,0Z"/><path class="cls-2" d="M84.17,68.76h0Z"/><path class="cls-2" d="M64.28,68.77l-.51,0Z"/><path class="cls-2" d="M85.08,68.75h0Z"/><path class="cls-2" d="M85.92,68.74h0Z"/><path class="cls-2" d="M56,59.72l0-.41H43a3,3,0,0,1-.31,0l-.09.55h0l-.26,1.85v.09h0l-.25,1.85H55.15a2.4,2.4,0,0,1,.28,0l.29-2Z"/><path class="cls-2" d="M42.7,59.28h0l-.07.46v.09h0Z"/><polygon class="cls-2" points="42.33 61.77 42.08 63.62 42.09 63.62 42.34 61.77 42.33 61.77"/><polygon class="cls-2" points="42.34 61.68 42.6 59.83 42.6 59.83 42.34 61.68 42.33 61.77 42.33 61.77 42.34 61.68"/><polygon class="cls-2" points="42.61 59.74 42.68 59.28 42.68 59.28 42.61 59.74 42.6 59.83 42.6 59.83 42.61 59.74"/><polygon class="cls-2" points="42.33 61.77 42.33 61.77 42.08 63.62 42.08 63.62 42.33 61.77"/><path class="cls-2" d="M56.05,59.31l.11-.76H42.81l-.11.73a3,3,0,0,0,.31,0Z"/><path class="cls-2" d="M42.7,59.28l.11-.73H56.16v-.09H42.79l-.11.82Z"/><polygon class="cls-2" points="42.79 58.46 42.68 59.28 42.68 59.28 42.79 58.46"/><path class="cls-2" d="M42.09,63.62l-.1.78H55.32l.11-.75a2.4,2.4,0,0,0-.28,0Z"/><polygon class="cls-2" points="42.09 63.62 42.08 63.62 41.98 64.4 41.99 64.4 42.09 63.62"/><polygon class="cls-2" points="42.08 63.62 41.98 64.4 41.98 64.4 42.08 63.62 42.08 63.62"/><path class="cls-2" d="M162.64,63.62l.63-4.31H150.51a1.73,1.73,0,0,1-.32,0l-.58,4.28,12.74,0A1.43,1.43,0,0,1,162.64,63.62Z"/><polygon class="cls-2" points="149.61 63.57 150.19 59.29 150.19 59.29 149.61 63.57 149.61 63.57"/><path class="cls-2" d="M150.51,59.32h12.76l.12-.85H150.3l-.11.83A1.73,1.73,0,0,0,150.51,59.32Z"/><polygon class="cls-2" points="150.3 58.46 150.19 59.29 150.19 59.29 150.3 58.46"/><path class="cls-2" d="M162.35,63.59l-12.74,0-.11.82h13l.11-.76A1.43,1.43,0,0,0,162.35,63.59Z"/><polygon class="cls-2" points="162.53 64.38 162.53 64.38 156.02 64.38 162.53 64.38"/><polygon class="cls-2" points="149.61 63.57 149.5 64.39 149.5 64.39 149.61 63.57 149.61 63.57"/><path class="cls-2" d="M57,52.67h0l-.41,0-.36,0H44c-.11,0-.21,0-.32,0l-.33,2.32h0l-.2,1.54H56.17l.24,0,.26-1.67Z"/><path class="cls-2" d="M43.31,54.92h0l.33-2.32h0l-.18,1.28-.14.95Z"/><path class="cls-2" d="M56.41,56.49l-.24,0H43.11v.06l-.09.79H56.25l.12-.76h0v-.06Z"/><polygon class="cls-2" points="56.25 57.31 56.27 57.31 56.4 56.55 56.37 56.55 56.25 57.31"/><polygon class="cls-2" points="43.31 54.92 43.31 54.92 43.11 56.46 43.11 56.46 43.31 54.92"/><polygon class="cls-2" points="43.32 54.83 43.46 53.88 43.32 54.83 43.31 54.92 43.31 54.92 43.32 54.83"/><polygon class="cls-2" points="43.11 56.46 43.11 56.46 43.1 56.52 43.11 56.46"/><path class="cls-2" d="M43.71,52.07h0l-.08.53c.11,0,.21,0,.32,0H56.19l.36,0,.41,0h0l0-.13.08-.56a.49.49,0,0,1,0-.17h0v0h-.1l-.14,0H45.27l-.53,0h-.41a.27.27,0,0,0-.09,0H44l-.09,0h-.07l-.07,0,0,0a.14.14,0,0,0-.05.11h0Z"/><path class="cls-2" d="M43.71,52.07l-.07.53h0l.08-.53Z"/><path class="cls-2" d="M44.33,51.74h0Z"/><polygon class="cls-2" points="57.07 51.98 57.07 51.98 56.99 52.54 57.07 51.98"/><path class="cls-2" d="M44.13,51.74h0Z"/><path class="cls-2" d="M57,51.78h0Z"/><path class="cls-2" d="M43.73,52a.14.14,0,0,1,.05-.11A.14.14,0,0,0,43.73,52Z"/><path class="cls-2" d="M57,51.77Z"/><path class="cls-2" d="M57,51.81h0Z"/><path class="cls-2" d="M43.81,51.83l.07,0Z"/><path class="cls-2" d="M57,51.79h0Z"/><polygon class="cls-2" points="56.79 51.77 56.79 51.77 56.79 51.77 45.27 51.77 45.27 51.77 45.27 51.77 56.79 51.77"/><path class="cls-2" d="M44,51.77l.09,0Z"/><path class="cls-2" d="M45.21,41.43,45,42.58v.1h0l-.38,2.53c1-.07,2.92-.08,7.07-.08,4.38,0,5.75,0,6.34.12l.36-2.67.14-1.12H45.5A2.85,2.85,0,0,1,45.21,41.43Z"/><path class="cls-2" d="M45,42.68l-.38,2.53h0L45,42.68Z"/><polygon class="cls-2" points="58.56 41.46 58.56 41.46 58.43 42.58 58.07 45.25 58.07 45.25 58.43 42.58 58.56 41.46"/><path class="cls-2" d="M45,42.58l.17-1.15h0c-.08.56-.17,1.15-.17,1.15v.1h0Z"/><polygon class="cls-2" points="45.03 42.69 45.03 42.69 44.65 45.21 44.65 45.21 45.03 42.69"/><path class="cls-2" d="M45.5,41.46H58.57l.1-.88H45.33l-.12.85A2.85,2.85,0,0,0,45.5,41.46Z"/><polygon class="cls-2" points="58.56 41.46 58.67 40.58 58.56 41.46 58.56 41.46"/><path class="cls-2" d="M45.33,40.58s-.06.44-.12.85h0Z"/><path class="cls-2" d="M51.73,45.13c-4.15,0-6.07,0-7.07.08l-.06.41V46H57.27l.31,0h0l.12,0h0l.08,0,0-.05a.44.44,0,0,0,.06-.1s0,0,0-.06a2.3,2.3,0,0,0,.07-.26l0-.23C57.48,45.17,56.11,45.13,51.73,45.13Z"/><path class="cls-2" d="M44.65,45.21l0,.32v.09l.06-.41Z"/><path class="cls-2" d="M58,45.8a.44.44,0,0,1-.06.1A.44.44,0,0,0,58,45.8Z"/><path class="cls-2" d="M57.58,46l-.31,0Z"/><path class="cls-2" d="M57.86,46l-.08,0Z"/><path class="cls-2" d="M58,45.48a2.3,2.3,0,0,1-.07.26A2.3,2.3,0,0,0,58,45.48Z"/><path class="cls-2" d="M57.74,46l-.12,0Z"/><polygon class="cls-2" points="58.04 45.48 58.07 45.25 58.07 45.25 58.04 45.48"/><polygon class="cls-2" points="44.65 45.21 44.6 45.53 44.65 45.21 44.65 45.21"/><path class="cls-2" d="M163.65,56.49l.54-3.85H151.12l-.5,3.82h12.77A2.3,2.3,0,0,1,163.65,56.49Z"/><polygon class="cls-2" points="151.12 52.64 164.19 52.64 164.31 51.79 151.24 51.78 151.12 52.64"/><path class="cls-2" d="M163.39,56.46H150.62l-.11.86h13l.12-.82A2.3,2.3,0,0,0,163.39,56.46Z"/><polygon class="cls-2" points="150.62 56.46 151.12 52.64 151.12 52.64 150.62 56.46 150.62 56.46"/><polygon class="cls-2" points="151.24 51.78 164.31 51.79 164.31 51.79 151.24 51.78 151.12 52.64 151.12 52.64 151.24 51.78"/><polygon class="cls-2" points="150.62 56.46 150.51 57.32 150.51 57.32 150.62 56.46 150.62 56.46"/><path class="cls-2" d="M143.86,63.62l.59-4.31-11.87,0a2.3,2.3,0,0,1-.26,0l-.63,4.31,11.86,0A1.55,1.55,0,0,1,143.86,63.62Z"/><polygon class="cls-2" points="143.86 63.62 143.86 63.62 144.45 59.31 144.45 59.31 143.86 63.62"/><path class="cls-2" d="M132.58,59.29l11.87,0,.12-.84H132.44l-.12.8A2.3,2.3,0,0,0,132.58,59.29Z"/><polygon class="cls-2" points="144.45 59.31 144.57 58.47 144.45 59.31 144.45 59.31"/><path class="cls-2" d="M143.86,63.62a1.55,1.55,0,0,0-.31,0l-11.86,0-.11.79,12.17,0Z"/><polygon class="cls-2" points="143.75 64.38 131.58 64.36 131.58 64.36 143.75 64.38 143.86 63.62 143.86 63.62 143.75 64.38"/><path class="cls-2" d="M92.42,52.62H80.05a2.33,2.33,0,0,1-.37,0l-.32,2.35h0l-.21,1.53H91.57a1.86,1.86,0,0,1,.33,0h0l.22-1.67Z"/><polygon class="cls-2" points="79.35 54.93 79.36 54.93 79.68 52.58 79.67 52.58 79.36 54.84 79.35 54.93"/><path class="cls-2" d="M79.14,56.46v.06l-.08.79H91.78l.12-.81a1.86,1.86,0,0,0-.33,0Z"/><path class="cls-2" d="M79.74,52.05h0l-.08.53a2.33,2.33,0,0,0,.37,0H92.42l.09-.66c-.05-.1,0-.13,0-.15h0l-.16,0H80l-.13,0h-.06s0,0-.09.14h0Z"/><polygon class="cls-2" points="79.75 52.05 79.74 52.05 79.67 52.58 79.68 52.58 79.75 52.05"/><path class="cls-2" d="M92.3,51.77l.16,0-.16,0H80l-.13,0,.13,0Z"/><path class="cls-2" d="M92.49,51.8h0Z"/><path class="cls-2" d="M121.94,52.7h-6l-.09.61h0l-.44,3.19v0h12.39l.23,0v0l.47-3.28.08-.56C127.82,52.69,126.18,52.7,121.94,52.7Z"/><path class="cls-2" d="M115.78,53.31h0l.09-.61h0l-.07.49Z"/><path class="cls-2" d="M115.34,56.57l-.09.72h12.59l.12-.75-.23,0H115.34v0Z"/><polygon class="cls-2" points="115.34 56.57 115.33 56.57 115.25 57.29 115.25 57.29 115.34 56.57"/><path class="cls-2" d="M116,52l0,.08h0l-.09.62h6c4.24,0,5.88,0,6.57,0l.09-.64a.25.25,0,0,1,0-.12v0l0,0h0l-.13,0H117.34l-.32,0h-.63l-.11,0-.08,0-.08,0-.05,0a.31.31,0,0,0-.06.13Z"/><path class="cls-2" d="M116,52.08h0l-.09.62h0Z"/><polygon class="cls-2" points="115.34 56.52 115.34 56.5 115.34 56.52 115.34 56.52"/><polygon class="cls-2" points="115.87 52.7 115.87 52.7 115.8 53.19 115.87 52.7"/><polygon class="cls-2" points="115.34 56.52 115.34 56.52 115.33 56.57 115.33 56.57 115.34 56.52"/><polygon class="cls-2" points="115.33 56.57 115.25 57.29 115.25 57.29 115.33 56.57 115.33 56.57"/><path class="cls-2" d="M116,52l0,.06a.31.31,0,0,1,.06-.13.31.31,0,0,0-.06.13l0-.07,0,.09h0Z"/><path class="cls-2" d="M128.6,52h0a.25.25,0,0,1,0-.12A.25.25,0,0,0,128.6,52Z"/><path class="cls-2" d="M116.12,51.91l.08,0Z"/><path class="cls-2" d="M116.28,51.84l.11,0Z"/><path class="cls-2" d="M128.42,51.84l.13,0Z"/><path class="cls-2" d="M116.67,51.81h0Z"/><path class="cls-2" d="M116.49,51.81h0Z"/><path class="cls-2" d="M128.59,51.87l0,0S128.58,51.87,128.59,51.87Z"/><polygon class="cls-2" points="115.87 52.7 115.96 52.08 115.96 52.08 115.87 52.7 115.87 52.7"/><path class="cls-2" d="M81.6,41.46a1.86,1.86,0,0,1-.33,0l-.15,1.18v.08h0l-.37,2.52c1-.07,2.77-.09,6.46-.09,4,0,5.55,0,6.28.13l.35-2.64L94,41.42l-12.39,0Z"/><path class="cls-2" d="M81.11,42.68l-.37,2.52h0l.37-2.52Z"/><polygon class="cls-2" points="93.84 42.6 93.49 45.24 93.49 45.24 93.84 42.6 94 41.42 94 41.42 93.84 42.6"/><path class="cls-2" d="M81.37,40.59l-.1.83a1.86,1.86,0,0,0,.33,0h0l12.39,0,.11-.83C89.94,40.71,85.59,40.61,81.37,40.59Z"/><path class="cls-2" d="M94.11,40.59H81.37C85.59,40.61,89.94,40.71,94.11,40.59Z"/><polygon class="cls-2" points="94 41.42 94 41.42 94.11 40.59 94.11 40.59 94 41.42"/><polygon class="cls-2" points="94.11 40.59 94.11 40.59 94.11 40.58 94.11 40.59"/><path class="cls-2" d="M87.21,45.11c-3.69,0-5.49,0-6.46.09l-.06.41h0V46H93.36l.09-.5,0-.28C92.76,45.14,91.23,45.11,87.21,45.11Z"/><path class="cls-2" d="M80.69,45.52v.09h0l.06-.41h0Z"/><polygon class="cls-2" points="93.45 45.52 93.49 45.24 93.49 45.24 93.45 45.52"/><polygon class="cls-2" points="80.69 45.61 80.68 46.01 80.68 46.01 80.69 45.61 80.69 45.61"/><polygon class="cls-2" points="80.69 45.52 80.69 45.61 80.69 45.61 80.69 45.52"/><path class="cls-2" d="M144.87,56.5l.52-3.86H133.65a1.9,1.9,0,0,1-.41,0l-.54,3.86h11.87Z"/><path class="cls-2" d="M133.24,52.6a1.9,1.9,0,0,0,.41,0h11.74l.11-.85H133.36Z"/><path class="cls-2" d="M144.57,56.47H132.7l-.12.83,12.18,0,.11-.81Z"/><polygon class="cls-2" points="132.7 56.46 133.25 52.6 133.25 52.6 132.7 56.46 132.7 56.46"/><polygon class="cls-2" points="133.36 51.78 145.5 51.79 145.5 51.79 133.36 51.78 133.25 52.6 133.25 52.6 133.36 51.78"/><polygon class="cls-2" points="132.7 56.46 132.58 57.29 132.58 57.29 132.7 56.46 132.7 56.46"/><path class="cls-2" d="M73.51,54.93l.3-2.3H62.26a2.12,2.12,0,0,1-.44-.05l-.31,2.34h0l-.23,1.54h12.1l.23-1.53Z"/><polygon class="cls-2" points="73.59 54.93 73.6 54.87 73.9 52.63 73.81 52.63 73.5 54.93 73.59 54.93"/><path class="cls-2" d="M61.49,54.92h0l.31-2.34h0l-.17,1.31-.13.95Z"/><polygon class="cls-2" points="73.36 56.46 61.26 56.46 61.26 56.48 61.26 57.31 73.14 57.31 73.25 56.61 73.34 56.61 73.35 56.55 73.36 56.46"/><polygon class="cls-2" points="73.14 57.31 73.23 57.31 73.34 56.61 73.25 56.61 73.14 57.31"/><polygon class="cls-2" points="61.49 54.92 61.49 54.92 61.26 56.46 61.26 56.46 61.49 54.92"/><polygon class="cls-2" points="61.51 54.83 61.63 53.88 61.51 54.83 61.49 54.92 61.49 54.92 61.51 54.83"/><polygon class="cls-2" points="61.26 56.46 61.26 56.46 61.26 56.48 61.26 56.46"/><path class="cls-2" d="M61.89,52.06l-.07.52a2.12,2.12,0,0,0,.44.05H73.81l.08-.56H74V52a.4.4,0,0,1,0-.13h0a.16.16,0,0,0,0,0h0l-.14,0H62.15l-.11,0h0s0,0-.1.15h0v.07Z"/><polygon class="cls-2" points="73.98 52.07 73.89 52.07 73.81 52.63 73.9 52.63 73.98 52.07"/><path class="cls-2" d="M61.88,52.06l-.07.51h0l.07-.52Z"/><path class="cls-2" d="M74,51.83a.16.16,0,0,1,0,0A.08.08,0,0,0,74,51.83Z"/><path class="cls-2" d="M74,52h0a.4.4,0,0,1,0-.13A.4.4,0,0,0,74,52Z"/><path class="cls-2" d="M73.8,51.8l.14,0-.14,0H62.15l-.11,0,.11,0Z"/><path class="cls-2" d="M62,51.85s0,0-.1.14h0C62,51.9,62,51.87,62,51.85Z"/><path class="cls-2" d="M63.23,42.67h0l-.38,2.54c.78-.07,2.28-.1,5.46-.1,4.05,0,5.71,0,6.52.13L75,44l.21-1.45.15-1.09H63.71a3,3,0,0,1-.31,0,.34.34,0,0,0,0,.1c0,.08,0,.15,0,.23a2.37,2.37,0,0,1,0,.43,1.57,1.57,0,0,1-.08.33v.06h0Z"/><path class="cls-2" d="M62.86,45.21l.38-2.54h0L63,44l-.18,1.2Z"/><polygon class="cls-2" points="75.22 42.55 75.01 44 75.22 42.55 75.37 41.46 75.37 41.46 75.22 42.55"/><path class="cls-2" d="M63.32,42.19a2.37,2.37,0,0,0,0-.43A2.37,2.37,0,0,1,63.32,42.19Z"/><path class="cls-2" d="M63.4,41.43a.34.34,0,0,0,0,.1.34.34,0,0,1,0-.1Z"/><polygon class="cls-2" points="63.02 44.02 62.84 45.21 62.84 45.21 63.02 44.02"/><path class="cls-2" d="M63.66,40.58a2.32,2.32,0,0,0-.26.85,3,3,0,0,0,.31,0H75.37l.13-.88Z"/><path class="cls-2" d="M75.5,40.58v-.06H63.69l0,.06Z"/><polygon class="cls-2" points="75.37 41.46 75.37 41.46 75.5 40.58 75.5 40.58 75.37 41.46"/><path class="cls-2" d="M63.66,40.58h0a2.32,2.32,0,0,0-.26.85h0A2.32,2.32,0,0,1,63.66,40.58Z"/><path class="cls-2" d="M63.69,40.52h0l0,.06h0Z"/><polygon class="cls-2" points="75.5 40.58 75.5 40.52 75.5 40.58 75.5 40.58"/><path class="cls-2" d="M74.81,45.46l0-.22c-.81-.1-2.47-.13-6.52-.13-3.18,0-4.68,0-5.46.1l-.06.37V46H74.69Z"/><path class="cls-2" d="M62.84,45.21l0,.24v.13l.06-.37Z"/><polygon class="cls-2" points="62.84 45.21 62.8 45.45 62.8 45.45 62.84 45.21 62.84 45.21"/><path class="cls-2" d="M46.38,33.07h0l0,.15h13a3.16,3.16,0,0,1,.32,0l.05-.28L60,31.58l0-.3,0-.26.07-.55H47.06a2.85,2.85,0,0,1-.29,0l-.15.95h0l-.16,1.16-.06.42Z"/><polygon class="cls-2" points="46.38 33.07 46.38 33.07 46.36 33.22 46.37 33.22 46.38 33.07"/><path class="cls-2" d="M46.62,31.29v.1h0l.15-.95h0Z"/><polygon class="cls-2" points="46.61 31.39 46.45 32.55 46.61 31.39 46.61 31.39"/><polygon class="cls-2" points="60.05 31.02 60.02 31.28 59.98 31.58 60.02 31.28 60.05 31.02"/><polygon class="cls-2" points="46.63 31.29 46.76 30.44 46.76 30.44 46.63 31.29 46.61 31.39 46.61 31.39 46.63 31.29"/><path class="cls-2" d="M59.4,34.22a.9.9,0,0,1,.16,0l.16-1a3.16,3.16,0,0,0-.32,0h-13l-.1,1Z"/><polygon class="cls-2" points="46.37 33.22 46.36 33.22 46.26 34.22 46.27 34.22 46.37 33.22"/><path class="cls-2" d="M59.4,34.22H46.27v0h13.3A.9.9,0,0,0,59.4,34.22Z"/><polygon class="cls-2" points="46.27 34.22 46.26 34.22 46.25 34.25 46.26 34.25 46.27 34.22"/><polygon class="cls-2" points="59.56 34.26 46.26 34.25 46.26 34.25 59.56 34.26 59.56 34.26"/><path class="cls-2" d="M46.92,29.48l-.15,1a2.85,2.85,0,0,0,.29,0H60.12l.12-1Z"/><path class="cls-2" d="M46.77,30.44l.15-1h.14c-.05,0-.1,0-.14,0l-.08.47-.08.53Z"/><polygon class="cls-2" points="46.84 29.91 46.76 30.44 46.76 30.44 46.84 29.91"/><path class="cls-2" d="M46.92,29.39v.05s.09,0,.14,0H60.24V29.4Z"/><path class="cls-2" d="M58.67,38.58a1.45,1.45,0,0,1,.29,0l.12-.84.23-1.52H46.25a2,2,0,0,1-.34,0l-.21,1.58,0,.25-.06.54Z"/><polygon class="cls-2" points="45.67 38.04 45.61 38.58 45.61 38.58 45.67 38.04"/><path class="cls-2" d="M59,38.62a1.45,1.45,0,0,0-.29,0H45.61l-.1.88H58.84Z"/><polygon class="cls-2" points="45.61 38.58 45.5 39.46 45.51 39.46 45.61 38.58 45.61 38.58"/><path class="cls-2" d="M59.4,35.71v-.4H46.17L46,35.6c-.06.07,0,.06-.06.19v0h0l-.05.39a2,2,0,0,0,.34,0H59.31V36.2Z"/><path class="cls-2" d="M46,35.82h0v0c.06-.13,0-.12.06-.19l.13-.29H59.4v-.05H46.25l-.09,0-.12.28a.15.15,0,0,1,0,.07L46,35.7Z"/><path class="cls-2" d="M46.17,35.22h0l.09,0H59.4v0Z"/><polygon class="cls-2" points="59.4 35.71 59.4 35.71 59.32 36.2 59.4 35.71"/><path class="cls-2" d="M46.16,35.23h0l-.12.28a.15.15,0,0,1,0,.07.15.15,0,0,0,0-.07Z"/><polygon class="cls-2" points="46.17 35.22 59.4 35.22 59.4 35.22 46.17 35.22 46.16 35.23 46.16 35.23 46.17 35.22"/><path class="cls-2" d="M153.6,38.55h12.29l.23,0a.61.61,0,0,1,0-.18l.31-2.14H153.42l-.33,2.31Z"/><polygon class="cls-2" points="166.04 39.22 166.04 39.22 166.04 39.22 166.04 39.22 166.04 39.22"/><polygon class="cls-2" points="166.04 39.23 166.04 39.23 166.04 39.23 166.04 39.22 166.04 39.22 166.04 39.23"/><path class="cls-2" d="M165.89,38.55h-12.8l-.12.86,13,.05v-.07h0l.08-.17h0a.1.1,0,0,1,0,0v0a1.39,1.39,0,0,0,0-.17h0c0-.09,0-.19,0-.29l0-.1Z"/><polygon class="cls-2" points="166.63 35.25 153.56 35.24 153.42 36.24 166.48 36.25 166.63 35.25"/><path class="cls-2" d="M153.56,35.25h13.07v0l-6,0h-6.81l-.22,0h0Z"/><polygon class="cls-2" points="153.42 36.24 153.42 36.24 153.09 38.55 153.09 38.55 153.42 36.24"/><path class="cls-2" d="M166,39.23Z"/><path class="cls-2" d="M166.05,39.13v0Z"/><path class="cls-2" d="M166,39.22h0Z"/><polygon class="cls-2" points="166.04 39.22 166.04 39.22 166.04 39.22 166.04 39.22"/><path class="cls-2" d="M166.08,39h0c0-.09,0-.19,0-.29,0,.1,0,.2,0,.29Z"/><polygon class="cls-2" points="153.09 38.55 152.97 39.41 152.97 39.41 153.09 38.55 153.09 38.55"/><polygon class="cls-2" points="153.42 36.24 153.56 35.24 153.56 35.24 153.42 36.24 153.42 36.24"/><path class="cls-2" d="M156.45,35.17h0Z"/><path class="cls-2" d="M157.34,35.17h0Z"/><path class="cls-2" d="M158.48,35.17h0Z"/><polygon class="cls-2" points="153.56 35.22 153.57 35.22 153.56 35.22 153.56 35.24 153.56 35.24 153.56 35.22"/><path class="cls-2" d="M159.51,35.17h0Z"/><path class="cls-2" d="M155.64,35.17h0Z"/><path class="cls-2" d="M166.64,35.22l-6,0,6,0Z"/><path class="cls-2" d="M154.84,35.18h0Z"/><path class="cls-2" d="M153.79,35.2h0Z"/><path class="cls-2" d="M154.27,35.19h0Z"/><path class="cls-2" d="M82,36.26l-.2,1.53v.09h0l-.08.7H94.11a1.55,1.55,0,0,1,.31,0l.12-.83.21-1.53Z"/><polygon class="cls-2" points="81.8 37.88 81.79 37.88 81.71 38.58 81.72 38.58 81.8 37.88"/><path class="cls-2" d="M82.37,35.33l-.22.47h-.09l-.06.46H94.75l.13-1c-.29,0-.59,0-.89.07Z"/><path class="cls-2" d="M82.06,35.8h.09l.22-.47H94c.3,0,.6,0,.89-.07H82.27l-.12.27-.07.16Z"/><polygon class="cls-2" points="82.27 35.26 94.88 35.26 94.89 35.22 94.4 35.21 93.91 35.21 88.09 35.21 82.28 35.22 82.27 35.26"/><path class="cls-2" d="M94.3,39.42l.12-.8a1.55,1.55,0,0,0-.31,0H81.72l-.11.88Z"/><polygon class="cls-2" points="81.72 38.58 81.71 38.58 81.6 39.46 81.61 39.46 81.72 38.58"/><polygon class="cls-2" points="82.27 35.26 82.27 35.26 82.15 35.53 82.27 35.26"/><polygon class="cls-2" points="82.28 35.22 88.09 35.21 82.28 35.22 82.27 35.26 82.27 35.26 82.28 35.22"/><polygon class="cls-2" points="94.89 35.22 94.4 35.21 94.89 35.22 94.89 35.22"/><path class="cls-2" d="M109.82,36.25h-9.39l-.3,0-.23,1.54h0v.09h0l-.1.75h12a1.73,1.73,0,0,1,.32,0l.12-.79.16-1.28,0-.32Z"/><polygon class="cls-2" points="99.82 38.61 99.92 37.86 99.91 37.86 99.81 38.61 99.82 38.61"/><path class="cls-2" d="M100.43,36.25h12.06l.12-1h-12l-.24.07h-.09l-.12.86Z"/><path class="cls-2" d="M112.16,38.64a1.73,1.73,0,0,0-.32,0h-12l-.11.85H112l.06-.41Z"/><polygon class="cls-2" points="99.81 38.61 99.7 39.46 99.72 39.46 99.82 38.61 99.81 38.61"/><polygon class="cls-2" points="99.92 37.77 99.92 37.77 99.91 37.86 99.91 37.86 99.92 37.77"/><polygon class="cls-2" points="99.89 37.76 100.13 36.22 100.13 36.22 99.89 37.76 99.89 37.76"/><polygon class="cls-2" points="112.16 38.64 112.16 38.64 112.28 37.85 112.44 36.57 112.28 37.85 112.16 38.64"/><polygon class="cls-2" points="99.81 38.61 99.91 37.86 99.91 37.86 99.81 38.61 99.81 38.61"/><polygon class="cls-2" points="112.61 35.29 112.61 35.29 100.58 35.29 100.34 35.36 100.58 35.29 112.61 35.29"/><polygon class="cls-2" points="100.25 35.36 100.13 36.22 100.13 36.22 100.25 35.36"/><polygon class="cls-2" points="112.1 39.05 112.04 39.46 112.1 39.05 112.16 38.64 112.16 38.64 112.1 39.05"/><polygon class="cls-2" points="99.7 39.46 99.81 38.61 99.81 38.61 99.7 39.46"/><path class="cls-2" d="M135.83,36.24a1.9,1.9,0,0,1-.25,0l-.35,2.33h11.84a1.73,1.73,0,0,1,.32,0l.14-1,0-.23c.05-.35.11-.71.16-1.06v0Z"/><path class="cls-2" d="M147.39,38.57a1.73,1.73,0,0,0-.32,0H135.23l-.14.92h12.1a1.28,1.28,0,0,0,.11-.24,1.22,1.22,0,0,0,0-.26Z"/><path class="cls-2" d="M147.72,36.24c.05-.33.09-.67.11-1h-12l-.08,0h0l-.15,1a1.9,1.9,0,0,0,.25,0Z"/><path class="cls-2" d="M135.83,35.24h12v0H135.75Z"/><path class="cls-2" d="M147.53,37.58l0-.23c.05-.35.11-.71.16-1.06-.05.35-.11.71-.16,1.06Z"/><polygon class="cls-2" points="135.58 36.21 135.58 36.21 135.23 38.54 135.23 38.54 135.58 36.21"/><polygon class="cls-2" points="135.23 38.54 135.09 39.46 135.23 38.54 135.23 38.54"/><polygon class="cls-2" points="135.73 35.22 135.75 35.22 135.75 35.22 135.73 35.22 135.58 36.21 135.58 36.21 135.73 35.22"/><polygon class="cls-2" points="147.84 35.22 147.84 35.22 135.75 35.22 135.75 35.22 147.84 35.22"/><path class="cls-2" d="M63.82,38.52H75.5l.27,0,.11-.77.22-1.53H64.44l-.31,0-.13.87-.1.68Z"/><path class="cls-2" d="M76.19,35.47V35.3H64.29l-.08.5h0l-.06.42.31,0H76.1l.08-.53Z"/><path class="cls-2" d="M64.19,35.8h0l.08-.5H76.2v0H64.44a.7.7,0,0,1-.14,0h0l0,.25,0,.25Z"/><path class="cls-2" d="M64.3,35.22a.7.7,0,0,0,.14,0H76.2v0Z"/><path class="cls-2" d="M63.82,38.52l-.11.94H75.64l.13-.91-.27,0Z"/><polygon class="cls-2" points="76.1 36.26 75.88 37.78 76.1 36.26 76.1 36.26"/><polygon class="cls-2" points="63.9 37.77 64 37.09 63.9 37.77 63.82 38.52 63.82 38.52 63.9 37.77"/><polygon class="cls-2" points="76.17 35.72 76.19 35.47 76.17 35.72 76.1 36.26 76.1 36.26 76.17 35.72"/><polygon class="cls-2" points="64.3 35.22 64.3 35.22 64.27 35.22 64.24 35.47 64.27 35.22 64.3 35.22"/><polygon class="cls-2" points="76.2 35.22 76.2 35.22 64.3 35.22 64.3 35.22 76.2 35.22"/><polygon class="cls-2" points="63.82 38.52 63.82 38.52 63.71 39.46 63.82 38.52"/><path class="cls-2" d="M44.27,49.73l.51,0,.49,0H57a1.5,1.5,0,0,1,.37,0L57.64,48h0a2.82,2.82,0,0,1-.39,0H44.6l-.28,0-.1.7-.17,1.09A1.66,1.66,0,0,1,44.27,49.73Z"/><path class="cls-2" d="M57.43,49.81,57.67,48h0l-.23,1.78Z"/><path class="cls-2" d="M57.35,50.22l.06-.41a1.5,1.5,0,0,0-.37,0H45.27l-.49,0-.51,0a1.66,1.66,0,0,0-.22,0l0,.34,0,0v.51H56.19l.43,0,.32,0H57l.11,0,0,0,.08-.05,0,0a.28.28,0,0,0,.05-.11l0,0,0-.16Z"/><polygon class="cls-2" points="43.97 50.13 43.97 50.22 43.98 50.12 43.97 50.13"/><path class="cls-2" d="M57.43,49.81h0l-.06.41h0a.36.36,0,0,1,0-.1h0Z"/><path class="cls-2" d="M44.32,48l.28,0H57.2a2.82,2.82,0,0,0,.39,0h0l.1-.7h0v-.1H44.43Z"/><path class="cls-2" d="M57.76,47.33h0l-.1.7h0Z"/><polygon class="cls-2" points="44.22 48.67 44.05 49.76 44.05 49.76 44.22 48.67"/><polygon class="cls-2" points="44 50.1 44.05 49.76 44.05 49.76 44 50.1 43.98 50.12 43.98 50.12 44 50.1"/><path class="cls-2" d="M57.34,50.38l0-.16h0Z"/><path class="cls-2" d="M57.23,50.58l-.08.05Z"/><path class="cls-2" d="M56.94,50.67l-.32,0Z"/><path class="cls-2" d="M57.31,50.43a.28.28,0,0,1-.05.11A.28.28,0,0,0,57.31,50.43Z"/><path class="cls-2" d="M57.1,50.65l-.11,0Z"/><polygon class="cls-2" points="43.98 50.12 43.97 50.13 43.97 50.13 43.98 50.12 43.98 50.12"/><path class="cls-2" d="M57.37,50.22h0s0-.06,0-.1A.36.36,0,0,0,57.37,50.22Z"/><path class="cls-2" d="M46.94,47.16h0Z"/><path class="cls-2" d="M48,47.15h0Z"/><path class="cls-2" d="M50.9,47.14h0Z"/><path class="cls-2" d="M55,47.15h0Z"/><path class="cls-2" d="M44.94,47.2h0Z"/><path class="cls-2" d="M44.44,47.23h0Z"/><path class="cls-2" d="M49.8,47.14h0Z"/><path class="cls-2" d="M51.31,47.14h0Z"/><path class="cls-2" d="M57.29,47.19h0Z"/><path class="cls-2" d="M57,47.18h0Z"/><path class="cls-2" d="M48.56,47.14h0Z"/><path class="cls-2" d="M44.54,47.22h0Z"/><path class="cls-2" d="M57.67,47.21h0Z"/><path class="cls-2" d="M49.16,47.14h0Z"/><path class="cls-2" d="M57.51,47.2h0Z"/><path class="cls-2" d="M52.74,47.14h0Z"/><path class="cls-2" d="M46.43,47.17h0Z"/><path class="cls-2" d="M56.69,47.17h0Z"/><path class="cls-2" d="M53.42,47.14h0Z"/><path class="cls-2" d="M56.34,47.17h0Z"/><path class="cls-2" d="M44.72,47.2h0Z"/><path class="cls-2" d="M47.45,47.15h0Z"/><path class="cls-2" d="M55.94,47.16h0Z"/><path class="cls-2" d="M54,47.14h0Z"/><path class="cls-2" d="M45.23,47.19h0Z"/><path class="cls-2" d="M45.56,47.18h0Z"/><path class="cls-2" d="M46,47.17h0Z"/><path class="cls-2" d="M55.48,47.15h0Z"/><path class="cls-2" d="M54.5,47.14h0Z"/><path class="cls-2" d="M92.3,49.77a2.34,2.34,0,0,1,.38,0l.16,0L93.08,48H80.68a2.23,2.23,0,0,1-.27,0l-.1.69-.15,1.1Z"/><path class="cls-2" d="M93.08,48l-.24,1.82h0l.16-1.18.08-.65Z"/><path class="cls-2" d="M92.79,50.23v0l0-.35-.16,0a2.34,2.34,0,0,0-.38,0H80.16l0,.33,0,0,0,.1v.4H92.77l.06-.34v-.05Z"/><polygon class="cls-2" points="80.06 50.22 80.07 50.12 80.06 50.13 80.06 50.22"/><path class="cls-2" d="M92.79,50.23h0v-.11l0-.27h0l0,.35Z"/><path class="cls-2" d="M80.41,48a2.23,2.23,0,0,0,.27,0h12.4l.1-.71h0v-.08l-.06,0h-6l-3.46,0H80.51Z"/><polygon class="cls-2" points="93.23 47.31 93.18 47.31 93.08 48.02 93.13 48.02 93.23 47.31"/><polygon class="cls-2" points="80.31 48.67 80.16 49.77 80.16 49.77 80.31 48.67"/><polygon class="cls-2" points="93.05 48.67 93.13 48.02 93.13 48.02 93.05 48.67"/><polygon class="cls-2" points="80.07 50.12 80.07 50.12 80.11 50.1 80.16 49.77 80.16 49.77 80.11 50.1 80.07 50.12"/><polygon class="cls-2" points="80.06 50.62 80.06 50.22 80.06 50.22 80.06 50.62 92.77 50.62 92.83 50.28 92.77 50.62 80.06 50.62"/><polygon class="cls-2" points="80.06 50.13 80.07 50.12 80.07 50.12 80.06 50.13 80.06 50.22 80.06 50.22 80.06 50.13"/><path class="cls-2" d="M93,47.2h0Z"/><path class="cls-2" d="M93.16,47.21h0Z"/><path class="cls-2" d="M88.83,47.12c-1.67,0-3.54,0-5.08,0l3.46,0Z"/><path class="cls-2" d="M88.9,47.12h0Z"/><path class="cls-2" d="M92.79,47.18h0Z"/><path class="cls-2" d="M83.21,47.14h0Z"/><path class="cls-2" d="M81.56,47.17h0Z"/><path class="cls-2" d="M82.29,47.15h0Z"/><path class="cls-2" d="M82.78,47.14h0Z"/><path class="cls-2" d="M81.91,47.16h0Z"/><path class="cls-2" d="M80.52,47.23h0Z"/><path class="cls-2" d="M81,47.19h0Z"/><path class="cls-2" d="M80.62,47.21h0Z"/><path class="cls-2" d="M80.76,47.2h0Z"/><path class="cls-2" d="M81.24,47.18h0Z"/><path class="cls-2" d="M91.4,47.14h0Z"/><path class="cls-2" d="M91.84,47.15h0Z"/><path class="cls-2" d="M92.51,47.17h0Z"/><path class="cls-2" d="M91,47.14h0Z"/><path class="cls-2" d="M92.19,47.16h0Z"/><polygon class="cls-2" points="93.23 47.31 93.24 47.23 93.24 47.23 93.23 47.31 93.23 47.31"/><path class="cls-2" d="M90.49,47.13h0Z"/><path class="cls-2" d="M89.94,47.12h0Z"/><path class="cls-2" d="M89.45,47.12h0Z"/><polygon class="cls-2" points="93.13 48.02 93.13 48.02 93.23 47.31 93.23 47.31 93.13 48.02"/><path class="cls-2" d="M73.8,49.8a1.84,1.84,0,0,1,.41.05L74.47,48H62.8l-.18,0-.12.74-.19,1.12Z"/><path class="cls-2" d="M74.22,49.85l.12,0,.17-1.2L74.6,48h-.13l-.26,1.89Z"/><path class="cls-2" d="M74.29,50.22h-.13l0-.37a1.84,1.84,0,0,0-.41-.05H62.31l-.05.33v.5h12Z"/><path class="cls-2" d="M74.21,49.85l0,.37h.13l0-.1,0-.24-.12,0Z"/><path class="cls-2" d="M62.62,47.94l.18,0H74.47l.09-.62h.13v-.1H62.8l-.07,0Z"/><polygon class="cls-2" points="74.69 47.34 74.56 47.34 74.47 47.96 74.6 47.96 74.69 47.34"/><polygon class="cls-2" points="62.5 48.68 62.31 49.8 62.31 49.8 62.5 48.68"/><polygon class="cls-2" points="74.6 47.96 74.6 47.96 74.5 48.68 74.6 47.96"/><polygon class="cls-2" points="62.31 49.8 62.26 50.13 62.26 50.13 62.31 49.8 62.31 49.8"/><path class="cls-2" d="M68.89,47.11h0Z"/><path class="cls-2" d="M62.8,47.22h0Z"/><path class="cls-2" d="M68.9,47.11h0Z"/><path class="cls-2" d="M70.07,47.12h0Z"/><path class="cls-2" d="M70.66,47.12h0Z"/><path class="cls-2" d="M71.15,47.13h0Z"/><polygon class="cls-2" points="74.69 47.34 74.7 47.24 74.7 47.24 74.69 47.34 74.69 47.34"/><path class="cls-2" d="M74.1,47.19h0Z"/><path class="cls-2" d="M73.81,47.18h0Z"/><path class="cls-2" d="M74.34,47.2h0Z"/><path class="cls-2" d="M73.48,47.17h0Z"/><path class="cls-2" d="M62.92,47.21h0Z"/><path class="cls-2" d="M71.69,47.13h0Z"/><path class="cls-2" d="M74.64,47.23h0Z"/><path class="cls-2" d="M72.21,47.14h0Z"/><path class="cls-2" d="M74.52,47.21h0Z"/><path class="cls-2" d="M72.68,47.15h0Z"/><path class="cls-2" d="M65.88,47.12h0Z"/><path class="cls-2" d="M73.1,47.16h0Z"/><path class="cls-2" d="M63.91,47.16h0Z"/><path class="cls-2" d="M63.32,47.18h0Z"/><path class="cls-2" d="M63.59,47.17h0Z"/><path class="cls-2" d="M64.26,47.15h0Z"/><path class="cls-2" d="M65.46,47.13h0Z"/><path class="cls-2" d="M65,47.13h0Z"/><path class="cls-2" d="M64.63,47.14h0Z"/><path class="cls-2" d="M63.1,47.19h0Z"/><polygon class="cls-2" points="74.6 47.96 74.6 47.96 74.69 47.34 74.69 47.34 74.6 47.96"/><path class="cls-2" d="M59.65,26.58a3.31,3.31,0,0,0-2.39-1.33H50.07a3.7,3.7,0,0,0-2.39,1.31h-.06a4,4,0,0,0-.37.82h13a3.76,3.76,0,0,0-.2-.46c-.07-.12-.15-.24-.23-.36Z"/><path class="cls-2" d="M47.68,26.47l-.06.1h.06a3.7,3.7,0,0,1,2.39-1.31h7.19a3.31,3.31,0,0,1,2.39,1.33h.13l-.06-.09a3,3,0,0,0-.48-.52,3.36,3.36,0,0,0-.76-.48,3.3,3.3,0,0,0-1.15-.33H50.15a3.75,3.75,0,0,0-1,.31,3.69,3.69,0,0,0-1.35,1Z"/><path class="cls-2" d="M60.4,28.43a2.72,2.72,0,0,0,0-.49,3.29,3.29,0,0,0-.14-.54h-13s0,0,0,0a3.88,3.88,0,0,0-.18,1H60.25S60.35,28.43,60.4,28.43Z"/><path class="cls-2" d="M60.41,28.47s0,0,0,0-.1,0-.15,0H47.06v.08Z"/><path class="cls-2" d="M60,26.94c-.07-.12-.15-.24-.23-.36h0C59.86,26.7,59.94,26.82,60,26.94Z"/><path class="cls-2" d="M47.62,26.57h0a4,4,0,0,0-.37.82h0A4,4,0,0,1,47.62,26.57Z"/><path class="cls-2" d="M59.78,26.58h0l-.06-.09a3,3,0,0,0-.48-.52,3,3,0,0,1,.48.52Z"/><path class="cls-2" d="M57.33,25.16a3.3,3.3,0,0,1,1.15.33A3.3,3.3,0,0,0,57.33,25.16Z"/><path class="cls-2" d="M47.68,26.47h.07a3.69,3.69,0,0,1,1.35-1,3.69,3.69,0,0,0-1.35,1h-.07l-.06.1h0Z"/><path class="cls-2" d="M47.25,27.39s0,0,0,0,0,0,0,0Z"/><path class="cls-2" d="M42,66.4l0,.22h0a4.86,4.86,0,0,0,.31.56l.09.13a3.79,3.79,0,0,0,.34.43v0a3,3,0,0,0,.4.33.41.41,0,0,0,.11.07,3.18,3.18,0,0,0,.4.23l0,0c.15.06.31.11.48.16l.13,0a3.55,3.55,0,0,0,.47.09h.06l.57,0h1.83l1.14,0h0c.45,0,.85,0,1.24,0l1.16,0h.72l.56-.07h.06a4.1,4.1,0,0,0,.5-.14l.1,0a3.71,3.71,0,0,0,.5-.23l.1-.06a3.31,3.31,0,0,0,.5-.36h0c.13-.11.23-.21.32-.3s.25-.37.39-.57.15-.21.25-.33l.08-.27Z"/><polygon class="cls-2" points="42.03 66.66 42.03 66.62 42.02 66.62 42.03 66.66"/><polygon class="cls-2" points="41.82 65.62 41.98 66.4 41.98 66.4 54.93 66.4 55.15 65.62 41.82 65.62"/><path class="cls-2" d="M42,66.62a4.86,4.86,0,0,0,.31.56A4.86,4.86,0,0,1,42,66.62Z"/><path class="cls-2" d="M45.59,68.75h0Z"/><path class="cls-2" d="M44.87,68.7l.57,0Z"/><path class="cls-2" d="M50.85,68.79l-1.16,0Z"/><path class="cls-2" d="M48.45,68.73h0Z"/><path class="cls-2" d="M44.34,68.6a3.55,3.55,0,0,0,.47.09A3.55,3.55,0,0,1,44.34,68.6Z"/><path class="cls-2" d="M42.43,67.31a3.79,3.79,0,0,0,.34.43A3.79,3.79,0,0,1,42.43,67.31Z"/><path class="cls-2" d="M43.73,68.41c.15.06.31.11.48.16C44,68.52,43.88,68.47,43.73,68.41Z"/><path class="cls-2" d="M43.29,68.16a3.18,3.18,0,0,0,.4.23A3.18,3.18,0,0,1,43.29,68.16Z"/><path class="cls-2" d="M43.18,68.09a3,3,0,0,1-.4-.33A3,3,0,0,0,43.18,68.09Z"/><path class="cls-2" d="M52.69,68.55l.1,0Z"/><path class="cls-2" d="M52.13,68.7h0Z"/><path class="cls-2" d="M53.29,68.29l.1-.06Z"/><path class="cls-2" d="M47.27,68.75h0Z"/><path class="cls-2" d="M51.43,68.78h0Z"/><path class="cls-2" d="M53.89,67.87h0c.13-.11.23-.21.32-.3-.09.09-.19.19-.32.3Z"/><path class="cls-2" d="M149.5,66.39h0a3.66,3.66,0,0,0,.21.53,3.28,3.28,0,0,0,1.67,1.55,1.12,1.12,0,0,0,.24.08l.1,0,.22,0,.15,0,.23,0,.18,0,.26,0h.2l.28,0H156l.81,0h1.48a4,4,0,0,0,.49,0,3.37,3.37,0,0,0,.71-.09l.17,0a3.57,3.57,0,0,0,.68-.27,3.7,3.7,0,0,0,1.77-2Z"/><path class="cls-2" d="M149.5,66.39h12.63a3.72,3.72,0,0,0,.22-.79l-13,0a3.55,3.55,0,0,0,.06.47,3.37,3.37,0,0,0,.09.34Z"/><path class="cls-2" d="M153.21,68.74l-.28,0Z"/><path class="cls-2" d="M154.82,68.77h0Z"/><path class="cls-2" d="M153.72,68.76h0Z"/><path class="cls-2" d="M154.26,68.77h0Z"/><path class="cls-2" d="M155.86,68.77h0Z"/><path class="cls-2" d="M149.47,66.38h0a3.66,3.66,0,0,0,.21.53A3.66,3.66,0,0,1,149.47,66.38Z"/><path class="cls-2" d="M152.73,68.71l-.26,0Z"/><path class="cls-2" d="M158.25,68.73h0Z"/><path class="cls-2" d="M156.83,68.75l-.81,0Z"/><path class="cls-2" d="M160.36,68.37a3.57,3.57,0,0,1-.68.27A3.57,3.57,0,0,0,160.36,68.37Z"/><path class="cls-2" d="M159.51,68.68a3.37,3.37,0,0,1-.71.09A3.37,3.37,0,0,0,159.51,68.68Z"/><path class="cls-2" d="M152.29,68.66l-.23,0Z"/><path class="cls-2" d="M151.91,68.61l-.22,0Z"/><path class="cls-2" d="M157.69,68.74h0Z"/><path class="cls-2" d="M149.68,66.91a3.28,3.28,0,0,0,1.67,1.55,1.12,1.12,0,0,0,.24.08l-.24-.08A3.28,3.28,0,0,1,149.68,66.91Z"/><path class="cls-2" d="M149.38,66a3.37,3.37,0,0,0,.09.34h0A3.37,3.37,0,0,1,149.38,66Z"/><path class="cls-2" d="M131.59,66.36a3.39,3.39,0,0,0,.65,1.23,3.45,3.45,0,0,0,.48.45,3.16,3.16,0,0,0,.56.36,2.17,2.17,0,0,0,.47.17l.18,0,.36.08.23,0c.12,0,.24,0,.37,0l.24,0h.62l.9,0,.85,0h.05l.9,0,.82,0h.16l.42,0h.21l.37,0,.21,0a2.37,2.37,0,0,0,.36-.09l.18,0a3.27,3.27,0,0,0,.51-.22h0a3.45,3.45,0,0,0,.68-.51,4,4,0,0,0,1-1.41Z"/><path class="cls-2" d="M143.33,66.38a4.42,4.42,0,0,0,.22-.79l-12.09,0a3.42,3.42,0,0,0,0,.45,1.89,1.89,0,0,0,.09.34Z"/><path class="cls-2" d="M136.65,68.75l-.9,0Z"/><path class="cls-2" d="M137.5,68.73h0Z"/><path class="cls-2" d="M139.27,68.77l-.82,0Z"/><path class="cls-2" d="M134.89,68.74c-.13,0-.25,0-.37,0C134.64,68.72,134.76,68.74,134.89,68.74Z"/><path class="cls-2" d="M135.53,68.77h0Z"/><path class="cls-2" d="M142.37,67.79a4,4,0,0,0,1-1.41h0A4,4,0,0,1,142.37,67.79Z"/><path class="cls-2" d="M139.85,68.75l-.42,0Z"/><path class="cls-2" d="M141.69,68.3a3.27,3.27,0,0,1-.51.22A3.27,3.27,0,0,0,141.69,68.3Z"/><path class="cls-2" d="M141,68.57a2.37,2.37,0,0,1-.36.09A2.37,2.37,0,0,0,141,68.57Z"/><path class="cls-2" d="M140.43,68.7l-.37,0Z"/><path class="cls-2" d="M134.29,68.69l-.36-.08Z"/><path class="cls-2" d="M132.72,68a3.16,3.16,0,0,0,.56.36,2.17,2.17,0,0,0,.47.17,2.17,2.17,0,0,1-.47-.17A3.16,3.16,0,0,1,132.72,68Z"/><path class="cls-2" d="M131.59,66.36h0a3.39,3.39,0,0,0,.65,1.23A3.39,3.39,0,0,1,131.59,66.36Z"/><path class="cls-2" d="M131.5,66a1.89,1.89,0,0,0,.09.34h0A1.89,1.89,0,0,1,131.5,66Z"/><path class="cls-2" d="M143.33,66.38a4.42,4.42,0,0,0,.22-.79,4.42,4.42,0,0,1-.22.79Z"/></svg>