<svg id="Capa_1" data-name="Capa 1" xmlns="http://www.w3.org/2000/svg" viewBox="0 0 146.7 65.85"><defs><style>.cls-1{fill:none;}.cls-2{fill:#def1f9;}</style></defs><title>Conacua - camiseta reverso editable</title><path class="cls-1" d="M141.08,23.67a3.87,3.87,0,0,0,.82.6,2.56,2.56,0,0,0,1.46.29,3,3,0,0,0,.8-.09h0a3.21,3.21,0,0,0,2.09-2.09,3.47,3.47,0,0,0-.11-2,3.25,3.25,0,0,0-1.58-1.65,2.48,2.48,0,0,0-1.3-.24,2.19,2.19,0,0,0-.85.09,3.14,3.14,0,0,0-2.1,2.09,2.58,2.58,0,0,0-.08.88,2.54,2.54,0,0,0,.08.87A3.21,3.21,0,0,0,141.08,23.67Zm.92-4.12h.79c1.18,0,1.52.07,1.81.35a.83.83,0,0,1,.28.67.72.72,0,0,1-.11.47,1.09,1.09,0,0,1-.64.51l-.27.07s0,.05.11.1.51.49,1,1.3l.12.22h-.56l-.35-.59c-.55-.92-.68-1-1.35-1h-.32v1.6H142V21.39h0Z"/><path class="cls-1" d="M144.06,21.15a.56.56,0,0,0,.35-.6.58.58,0,0,0-.36-.53c-.15-.07-.26-.08-.87-.09l-.7,0v1.36h.7C143.84,21.24,143.89,21.24,144.06,21.15Z"/><path class="cls-1" d="M84.16,32.84c-2.48,0-3.81,2.53-5,8.42-.87,4.19-.83,5.8,0,6.83a2.28,2.28,0,0,0,1.91.77c2.41,0,3.58-1.46,4.8-7.35.87-4.21,1-6.89.13-7.92A2.22,2.22,0,0,0,84.16,32.84Z"/><polygon class="cls-1" points="41.26 45.82 42.15 41.55 42.13 41.55 41.26 45.82"/><path class="cls-1" d="M41.65,41.82c-.52.2-1.66.39-2.36.57a11.07,11.07,0,0,0-1.83.57c-1.78.75-2.69,2-3.16,4.24a3.7,3.7,0,0,0,.47,3.12,2.28,2.28,0,0,0,1.86.82c3.17,0,4.16-3,4.63-5.32l.86-4.27A1.56,1.56,0,0,1,41.65,41.82Z"/><path class="cls-2" d="M39.5,38.67l-4.06.92c-6.11,1.37-8.55,3.64-9.66,9-.57,2.75-.31,4.81.76,6.12s2.66,1.8,5,1.8c2.84,0,6.15-1.45,7.61-3.8l.18-.28h.45l-.08,1.18c-.06.65-.1,1.28-.1,1.88a2.28,2.28,0,0,0,0,.26h8.13a7.82,7.82,0,0,1-.09-1.12,24,24,0,0,1,.65-4.77l3-14.36a13.42,13.42,0,0,0,.32-2.79,5.54,5.54,0,0,0-1.1-3.56c-1.33-1.62-4-2.39-8.3-2.39-3.9,0-10.61,1.16-12.56,8.7h7.26c.72-2.8,1.88-3.92,4-3.92a2.66,2.66,0,0,1,2.16.83A3.07,3.07,0,0,1,43.5,35C43.07,37.07,41.91,38.13,39.5,38.67Zm1.76,7.15c-.47,2.29-1.46,5.32-4.63,5.32a2.28,2.28,0,0,1-1.86-.82,3.7,3.7,0,0,1-.47-3.12c.47-2.26,1.38-3.49,3.16-4.24a11.07,11.07,0,0,1,1.83-.57c.7-.18,1.84-.37,2.36-.57a1.56,1.56,0,0,0,.47-.27h0Z"/><path class="cls-2" d="M88.21,31.61h-.59l-.05-.55c-.36-3.55-3.41-4.3-5.43-4.3C77.89,26.76,73,29,70.42,41.89c-1.18,5.9-.85,9.22.87,11.32a5.08,5.08,0,0,0,4.24,1.73,8.56,8.56,0,0,0,7.6-4.1l.18-.3h.63l-1.31,6.33C81.87,60.53,80.32,61,78.7,61a1.84,1.84,0,0,1-1.8-.85,4.81,4.81,0,0,1-.29-2H68.92a15,15,0,0,0-.11,2c.17,1.34,1.26,5.68,8.62,5.68,7.94,0,12.27-3.36,13.66-10.1,0,0,5.58-26.84,5.87-28.22h-7.9C88.9,28.27,88.21,31.61,88.21,31.61Zm-2.34,9.9c-1.22,5.89-2.39,7.35-4.8,7.35a2.28,2.28,0,0,1-1.91-.77c-.85-1-.89-2.64,0-6.83,1.21-5.89,2.54-8.42,5-8.42a2.22,2.22,0,0,1,1.84.75C86.83,34.62,86.74,37.3,85.87,41.51Z"/><path class="cls-2" d="M101.08,27.53c-.18.9-5.56,26.86-5.84,28.22h8.56c.19-.9,5.55-26.86,5.83-28.22Z"/><path class="cls-2" d="M109,55.75h8.56c.19-.92,7.5-36.25,7.79-37.64h-8.56C116.6,19,109.29,54.36,109,55.75Z"/><path class="cls-2" d="M122.72,55.75h8.55c.2-.92,7.51-36.25,7.8-37.64h-8.56C130.32,19,123,54.36,122.72,55.75Z"/><path class="cls-2" d="M50.84,55.75H59.4c.54-2.65,3.21-15.57,3.21-15.57.81-3.89,3.09-5.7,7.17-5.7a12.83,12.83,0,0,1,1.93.13l1.63-7.85h-.83a9.37,9.37,0,0,0-7.77,5.12l-.17.32h-.63s.76-3.63,1-4.67H56a7.82,7.82,0,0,1,.09,1.12,17.32,17.32,0,0,1-.35,3.21C54.2,39.52,51.05,54.71,50.84,55.75Z"/><path class="cls-2" d="M10.45,57.06c8.19,0,13.24-4.38,15-13l.45-2.15H17.43c-1.47,7-2.63,9.51-5.56,9.51a2.67,2.67,0,0,1-2.22-.88C8.37,49,9,45.33,10.61,37.38c2.12-10.25,3.34-13.8,7.07-13.8a2.27,2.27,0,0,1,1.9.94,3.14,3.14,0,0,1,.43,2c0,.89-.62,4.9-.62,4.9h8.42l.41-2a19.13,19.13,0,0,0,.42-3.77,7.73,7.73,0,0,0-1.51-4.95c-1.53-1.88-4.33-2.84-8.33-2.84-10,0-14.4,5-17.44,19.69-1.91,9.2-1.81,14,.32,16.65C3.23,56.17,6,57.06,10.45,57.06Z"/><path class="cls-2" d="M49.65,24.17c3.82-6.43,7.69-11.41,14.28-13.27,4.19-1.18,7.48-.91,15.57,3.61,3.73,2.08,12.17,8.34,21.24,9.59a56.21,56.21,0,0,0,9.63.1C111,8.69,92.34-3,74.88.66S49,19.47,46.8,24.17Z"/><path class="cls-2" d="M142.82,24.91h0a2.7,2.7,0,0,0,.85,0,3.28,3.28,0,0,0,2-1,3.2,3.2,0,0,0,1-2.43,3.31,3.31,0,0,0-1.36-2.73,3.34,3.34,0,0,0-2.41-.67,3.05,3.05,0,0,0-1.18.34,3.53,3.53,0,0,0-1.52,1.49,3.34,3.34,0,0,0-.36,2,3,3,0,0,0,.36,1.21A3.47,3.47,0,0,0,142.82,24.91Zm-2.51-4.28a3.14,3.14,0,0,1,2.1-2.09,2.19,2.19,0,0,1,.85-.09,2.48,2.48,0,0,1,1.3.24,3.25,3.25,0,0,1,1.58,1.65,3.47,3.47,0,0,1,.11,2,3.21,3.21,0,0,1-2.09,2.09h0a3,3,0,0,1-.8.09,2.56,2.56,0,0,1-1.46-.29,3.87,3.87,0,0,1-.82-.6,3.21,3.21,0,0,1-.77-1.29,2.54,2.54,0,0,1-.08-.87A2.58,2.58,0,0,1,140.31,20.63Z"/><path class="cls-2" d="M142,23.24h.48v-1.6h.32c.67,0,.8.09,1.35,1l.35.59h.56l-.12-.22c-.46-.81-.73-1.17-1-1.3s-.14-.09-.11-.1l.27-.07a1.09,1.09,0,0,0,.64-.51.72.72,0,0,0,.11-.47.83.83,0,0,0-.28-.67c-.29-.28-.63-.35-1.81-.35H142v1.84h0Zm.48-2.65v-.68l.7,0c.61,0,.72,0,.87.09a.58.58,0,0,1,.36.53.56.56,0,0,1-.35.6c-.17.09-.22.09-.88.11h-.7Z"/></svg>