<?xml version="1.0" encoding="utf-8"?>
<!-- Generator: Adobe Illustrator 22.1.0, SVG Export Plug-In . SVG Version: 6.00 Build 0)  -->
<svg version="1.1" id="Capa_1" xmlns="http://www.w3.org/2000/svg" xmlns:xlink="http://www.w3.org/1999/xlink" x="0px" y="0px"
	 viewBox="0 0 82.6 82.6" style="enable-background:new 0 0 82.6 82.6;" xml:space="preserve">
<style type="text/css">
	.st0{fill:#A1A1A1;}
</style>
<path id="Forma_2" class="st0" d="M51.2,43.3H31.3c-6.3,0-11.4,5.1-11.4,11.4v7.9h42.7v-7.9C62.5,48.4,57.4,43.4,51.2,43.3z
	 M41.2,20c5.9,0,10.6,4.8,10.6,10.7c0,5.9-4.8,10.6-10.7,10.6c-5.9,0-10.6-4.8-10.6-10.7C30.6,24.7,35.3,20,41.2,20L41.2,20L41.2,20
	z M41.2,82.6C18.4,82.5,0,64,0,41.2S18.5,0,41.3,0c22.8,0,41.2,18.5,41.2,41.3C82.5,64.1,64,82.5,41.2,82.6z M41.2,2.7
	C19.9,2.7,2.6,20,2.7,41.3c0,21.3,17.3,38.6,38.7,38.6c21.3,0,38.6-17.3,38.6-38.6C79.8,19.9,62.6,2.7,41.2,2.7z"/>
</svg>
