<?xml version="1.0" encoding="utf-8"?>
<!-- Generator: Adobe Illustrator 22.1.0, SVG Export Plug-In . SVG Version: 6.00 Build 0)  -->
<svg version="1.1" id="Capa_1" xmlns="http://www.w3.org/2000/svg" xmlns:xlink="http://www.w3.org/1999/xlink" x="0px" y="0px"
	 viewBox="0 0 171 92" style="enable-background:new 0 0 171 92;" xml:space="preserve">
<style type="text/css">
	.st0{fill:#2E4E96;}
</style>
<path id="Logo_conacua" class="st0" d="M18.6,72.7c0,4.8-3.3,7.5-7.5,7.5c-4,0.2-7.4-2.9-7.5-6.9c0-0.2,0-0.4,0-0.7V47.6
	c0-5.2,3.4-7.5,7.5-7.5c4-0.2,7.4,3,7.5,7c0,0.2,0,0.4,0,0.6v1.3h-4.4v-1.3c0-1.8-1.5-3.2-3.2-3.1c-1.7,0-3.1,1.4-3.1,3.1v25.1
	c0,1.8,1.5,3.2,3.2,3.1c1.7,0,3.1-1.4,3.1-3.1v-0.5l4.4-1.4V72.7z M36.6,72.7c0,4.2-3.4,7.5-7.5,7.5c-4.2,0-7.5-3.4-7.5-7.5l0,0
	V47.6c-0.2-4,2.9-7.4,6.9-7.5c0.2,0,0.4,0,0.6,0c3.9-0.2,7.3,2.8,7.5,6.7c0,0.3,0,0.5,0,0.8V72.7z M32.2,47.6c0-1.8-1.5-3.1-3.2-3.1
	c-1.7,0-3.1,1.4-3.1,3.1v25.1c0,1.8,1.5,3.1,3.2,3.1c1.7,0,3.1-1.4,3.1-3.1V47.6z M7,87.5c-0.1,1.7-0.9,2.7-2.2,2.7
	c-1.5,0-2.4-1.2-2.4-3.9s0.9-3.9,2.4-3.9c1.1-0.1,2.1,0.8,2.2,2c0,0.1,0,0.2,0,0.4H6.2C6.4,83.9,5.8,83.2,5,83c-0.1,0-0.2,0-0.2,0
	C3.7,83,3,83.9,3,86.3s0.7,3.3,1.7,3.3c0.9,0,1.5-0.8,1.6-2.1L7,87.5z M10.1,84.4c1.2,0,1.9,1,1.9,2.9s-0.7,2.9-1.9,2.9
	s-1.9-1-1.9-2.9S8.8,84.4,10.1,84.4L10.1,84.4z M10.1,89.7c0.7,0,1.2-0.6,1.2-2.4s-0.5-2.4-1.2-2.4s-1.2,0.6-1.2,2.4
	S9.4,89.7,10.1,89.7L10.1,89.7z M13.4,84.5H14v0.8h0c0.3-0.6,0.8-0.9,1.4-0.9c0.7-0.1,1.4,0.5,1.4,1.2c0,0.1,0,0.2,0,0.3v4.2h-0.6
	v-4c0.1-0.5-0.2-1-0.7-1.1c-0.1,0-0.2,0-0.3,0c-0.7,0-1.3,0.6-1.2,1.3c0,0,0,0.1,0,0.1v3.7h-0.6L13.4,84.5L13.4,84.5z M21.5,84.5
	h0.6v5.2c0,1.5-0.6,2.3-1.8,2.3c-0.8,0.1-1.5-0.4-1.6-1.2c0-0.1,0-0.1,0-0.2h0.6c0,0.5,0.5,0.9,1,0.8c0,0,0,0,0,0
	c0.8,0,1.2-0.5,1.2-1.5v-0.9h0c-0.1,0.6-0.7,1-1.3,1c-0.9,0-1.7-0.6-1.7-2.8c0-1.9,0.6-2.9,1.8-2.9c0.6,0,1.1,0.4,1.3,1h0L21.5,84.5
	L21.5,84.5z M20.2,89.5c0.8,0,1.2-0.5,1.2-2.3s-0.4-2.3-1.2-2.3s-1.2,0.5-1.2,2.3S19.5,89.5,20.2,89.5L20.2,89.5z M23.8,84.5h0.6
	v0.9h0c0.2-0.6,0.8-1,1.4-1c0.1,0,0.1,0,0.2,0V85c-0.1,0-0.2,0-0.3,0c-0.8,0-1.4,0.6-1.4,1.4c0,0.1,0,0.1,0,0.2v3.5h-0.6L23.8,84.5
	L23.8,84.5z M30.7,88.2c0.1,1-0.7,1.9-1.7,2c0,0,0,0-0.1,0c-1.2,0-1.9-0.8-1.9-2.9c0-1.9,0.7-2.9,1.9-2.9s1.8,0.9,1.8,2.7v0.2h-3
	v0.3c0,1.6,0.6,2.1,1.2,2.1c0.7,0,1.1-0.5,1.2-1.4L30.7,88.2L30.7,88.2z M30.1,86.8c0-1.4-0.4-1.9-1.2-1.9s-1.2,0.5-1.2,1.9H30.1z
	 M33.1,87.3c-0.6-0.1-1.1-0.7-1.1-1.3c-0.1-0.8,0.5-1.5,1.3-1.6c0.1,0,0.2,0,0.3,0c0.7-0.1,1.4,0.4,1.5,1.2c0,0.1,0,0.3,0,0.4v0.2
	h-0.6v-0.2c0.1-0.5-0.2-0.9-0.7-1c-0.1,0-0.2,0-0.2,0c-0.5-0.1-0.9,0.2-1,0.7c0,0.1,0,0.2,0,0.2c0,0.5,0.3,0.9,0.8,0.9l0.9,0.3
	c0.6,0.2,1.1,0.8,1,1.4c0.1,0.9-0.6,1.6-1.4,1.7c-0.1,0-0.2,0-0.3,0c-0.8,0.1-1.6-0.4-1.7-1.2c0-0.2,0-0.4,0-0.6v-0.2h0.6v0.1
	c-0.1,0.6,0.2,1.1,0.8,1.2c0.1,0,0.2,0,0.3,0c0.5,0.1,1-0.3,1.1-0.8c0-0.1,0-0.1,0-0.2c0-0.5-0.3-0.9-0.8-1L33.1,87.3z M38.5,84.4
	c1.2,0,1.9,1,1.9,2.9s-0.7,2.9-1.9,2.9s-1.9-1-1.9-2.9S37.3,84.4,38.5,84.4L38.5,84.4z M38.5,89.7c0.7,0,1.2-0.6,1.2-2.4
	s-0.5-2.4-1.2-2.4s-1.2,0.6-1.2,2.4S37.8,89.7,38.5,89.7L38.5,89.7z M47.8,89.1L47.8,89.1c-0.2,0.6-0.7,1.1-1.4,1
	c-1.2,0-1.8-1-1.8-2.9s0.6-2.9,1.8-2.9c0.6,0,1.2,0.4,1.3,1h0v-2.8h0.6v7.5h-0.6L47.8,89.1L47.8,89.1z M46.6,89.7
	c0.6,0,1.2-0.3,1.2-2.4s-0.6-2.4-1.2-2.4s-1.2,0.3-1.2,2.4S45.9,89.7,46.6,89.7L46.6,89.7z M53.5,88.2c0.1,1-0.7,1.9-1.7,2
	c0,0,0,0-0.1,0c-1.2,0-1.9-0.8-1.9-2.9c0-1.9,0.7-2.9,1.9-2.9s1.8,0.9,1.8,2.7v0.2h-3v0.3c0,1.6,0.6,2.1,1.2,2.1
	c0.7,0,1.1-0.5,1.2-1.4L53.5,88.2L53.5,88.2z M52.9,86.8c0-1.4-0.4-1.9-1.2-1.9s-1.2,0.5-1.2,1.9H52.9z M59.4,82.6h0.8l2.2,7.5h-0.7
	l-0.6-2.2h-2.6l-0.6,2.2h-0.7L59.4,82.6z M60.9,87.3l-1.2-4.2h0l-1.2,4.2H60.9L60.9,87.3z M66.9,88.2c0.1,1-0.7,1.9-1.7,2
	c0,0,0,0,0,0c-1.2,0-1.9-0.8-1.9-2.9c0-1.9,0.7-2.9,1.9-2.9c0.9,0,1.7,0.7,1.7,1.6c0,0.1,0,0.2,0,0.2h-0.6c0.1-0.6-0.3-1.1-0.9-1.2
	c-0.1,0-0.1,0-0.2,0c-0.7,0-1.3,0.4-1.3,2.4c0,2.1,0.6,2.4,1.2,2.4c0.6,0,1-0.5,1.2-1.4L66.9,88.2z M68.3,84.5H69v3.9
	c0,0.9,0.3,1.2,1,1.2c0.7,0,1.2-0.6,1.2-1.3c0,0,0-0.1,0-0.1v-3.7h0.6v5.6h-0.6v-0.8h0c-0.3,0.6-0.8,0.9-1.4,0.9
	c-0.7,0.1-1.4-0.5-1.4-1.2c0-0.1,0-0.2,0-0.3L68.3,84.5L68.3,84.5z M73.4,86.1c-0.1-0.8,0.5-1.6,1.3-1.8c0.1,0,0.3,0,0.4,0
	c0.7-0.1,1.4,0.3,1.6,1.1c0,0.1,0,0.3,0,0.4v3.3c0,0.3,0.1,0.5,0.3,0.5h0.2v0.5c-0.1,0-0.2,0.1-0.3,0.1c-0.5,0-0.8-0.1-0.8-0.7v-0.2
	h0c-0.2,0.6-0.8,1-1.4,0.9c-0.7,0.1-1.4-0.5-1.4-1.3c0-0.1,0-0.2,0-0.3c-0.1-0.7,0.4-1.4,1.1-1.5l1.2-0.3c0.4-0.1,0.5-0.2,0.5-0.9
	c0.1-0.5-0.3-0.9-0.7-1c-0.1,0-0.2,0-0.2,0c-0.6,0-1.1,0.4-1.1,1c0,0.1,0,0.2,0,0.3L73.4,86.1z M76.1,86.9L76.1,86.9
	c-0.2,0.2-0.4,0.3-0.7,0.4l-0.5,0.1c-0.6,0.1-1,0.6-1,1.2c-0.1,0.5,0.3,1,0.8,1.1c0,0,0.1,0,0.1,0c0.7,0,1.3-0.6,1.3-1.4
	c0-0.1,0-0.1,0-0.2L76.1,86.9L76.1,86.9z M81.9,88.2c0.1,1-0.7,1.9-1.7,2c0,0,0,0,0,0c-1.2,0-1.9-0.8-1.9-2.9c0-1.9,0.7-2.9,1.9-2.9
	c0.9,0,1.7,0.6,1.7,1.6c0,0.1,0,0.2,0,0.2h-0.6c0.1-0.6-0.3-1.1-0.9-1.2c-0.1,0-0.1,0-0.2,0c-0.7,0-1.2,0.4-1.2,2.4
	c0,2.1,0.6,2.4,1.2,2.4c0.6,0,1-0.5,1.2-1.4L81.9,88.2z M83.3,84.5H84v3.9c0,0.9,0.3,1.2,1,1.2c0.7,0,1.3-0.6,1.2-1.3
	c0,0,0-0.1,0-0.1v-3.7h0.6v5.6h-0.6v-0.8h0c-0.3,0.6-0.8,0.9-1.4,0.9c-0.7,0.1-1.4-0.5-1.4-1.2c0-0.1,0-0.2,0-0.3L83.3,84.5z
	 M88.6,82.6h0.6v7.5h-0.6V82.6z M91.2,85h-0.8v-0.5h0.8V83h0.6v1.5h1V85h-1v4c-0.1,0.3,0.1,0.5,0.4,0.6c0.1,0,0.1,0,0.2,0
	c0.1,0,0.3,0,0.4-0.1v0.5c-0.1,0.1-0.3,0.1-0.4,0.1c-0.9,0-1.2-0.2-1.2-1L91.2,85L91.2,85z M94,84.5h0.6v3.9c0,0.9,0.3,1.2,1,1.2
	c0.7,0,1.2-0.6,1.2-1.3c0,0,0-0.1,0-0.1v-3.7h0.6v5.6h-0.6v-0.8h0c-0.3,0.6-0.8,0.9-1.4,0.9c-0.7,0.1-1.4-0.5-1.4-1.2
	c0-0.1,0-0.2,0-0.3V84.5L94,84.5z M99.2,84.5h0.6v0.9h0c0.2-0.6,0.8-1,1.4-1c0.1,0,0.1,0,0.2,0V85c-0.1,0-0.2,0-0.3,0
	c-0.8,0-1.4,0.6-1.4,1.4c0,0.1,0,0.1,0,0.2v3.5h-0.6L99.2,84.5L99.2,84.5z M102.5,86.1c-0.1-0.8,0.5-1.6,1.3-1.8c0.1,0,0.3,0,0.4,0
	c0.7-0.1,1.4,0.3,1.6,1.1c0,0.1,0,0.3,0,0.4v3.3c0,0.3,0.1,0.5,0.3,0.5h0.2v0.5c-0.1,0-0.2,0.1-0.3,0.1c-0.5,0-0.8-0.1-0.8-0.7v-0.2
	h0c-0.3,0.8-1.2,1.1-1.9,0.8c-0.6-0.2-1-0.8-0.9-1.5c-0.1-0.7,0.4-1.4,1.1-1.5l1.2-0.3c0.4-0.1,0.5-0.2,0.5-0.9
	c0.1-0.5-0.3-0.9-0.7-1c-0.1,0-0.2,0-0.2,0c-0.6,0-1.1,0.4-1.1,1c0,0.1,0,0.2,0,0.3L102.5,86.1z M105.2,86.9L105.2,86.9
	c-0.2,0.2-0.4,0.3-0.7,0.4l-0.5,0.1c-0.6,0.1-1,0.6-1,1.2c-0.1,0.5,0.3,1,0.8,1.1c0,0,0.1,0,0.1,0c0.7,0,1.3-0.6,1.3-1.4
	c0-0.1,0-0.1,0-0.2L105.2,86.9L105.2,86.9z M113.6,89.1L113.6,89.1c-0.2,0.6-0.7,1.1-1.4,1c-1.2,0-1.8-1-1.8-2.9s0.6-2.9,1.8-2.9
	c0.6,0,1.2,0.4,1.3,1h0v-2.8h0.6v7.5h-0.6L113.6,89.1L113.6,89.1z M112.4,89.7c0.6,0,1.2-0.3,1.2-2.4s-0.6-2.4-1.2-2.4
	s-1.2,0.3-1.2,2.4S111.7,89.7,112.4,89.7L112.4,89.7z M119.3,88.2c0.1,1-0.7,1.9-1.7,2c0,0,0,0-0.1,0c-1.2,0-1.9-0.8-1.9-2.9
	c0-1.9,0.7-2.9,1.9-2.9s1.8,0.9,1.8,2.7v0.2h-3v0.3c0,1.6,0.6,2.1,1.2,2.1c0.7,0,1.1-0.5,1.2-1.4L119.3,88.2L119.3,88.2z
	 M118.7,86.8c0-1.4-0.4-1.9-1.2-1.9s-1.2,0.5-1.2,1.9H118.7z M128.5,87.5c-0.1,1.7-0.9,2.7-2.2,2.7c-1.5,0-2.4-1.2-2.4-3.9
	s0.9-3.9,2.4-3.9c1.1-0.1,2.1,0.8,2.2,2c0,0.1,0,0.2,0,0.4h-0.7c0.1-0.8-0.4-1.6-1.3-1.7c-0.1,0-0.1,0-0.2,0c-1.1,0-1.7,0.9-1.7,3.3
	s0.7,3.3,1.7,3.3c0.9,0,1.5-0.8,1.6-2.1L128.5,87.5z M129.8,86.1c-0.1-0.9,0.5-1.6,1.3-1.8c0.1,0,0.3,0,0.4,0
	c0.7-0.1,1.4,0.3,1.6,1.1c0,0.1,0,0.3,0,0.4v3.3c0,0.3,0.1,0.5,0.3,0.5h0.2v0.5c-0.1,0-0.2,0.1-0.3,0.1c-0.5,0-0.8-0.1-0.8-0.7v-0.2
	h0c-0.2,0.6-0.8,1-1.4,0.9c-0.7,0-1.4-0.5-1.4-1.3c0-0.1,0-0.2,0-0.3c-0.1-0.7,0.4-1.4,1.1-1.5l1.2-0.3c0.4-0.1,0.5-0.2,0.5-0.9
	c0.1-0.5-0.3-0.9-0.7-1c-0.1,0-0.2,0-0.2,0c-0.6,0-1.1,0.4-1.1,1c0,0.1,0,0.2,0,0.3L129.8,86.1z M132.5,86.9L132.5,86.9
	c-0.2,0.2-0.4,0.3-0.7,0.4l-0.5,0.1c-0.6,0.1-1,0.6-1,1.2c-0.1,0.5,0.3,1,0.8,1.1c0,0,0.1,0,0.1,0c0.7,0,1.3-0.6,1.3-1.4
	c0-0.1,0-0.1,0-0.2V86.9L132.5,86.9z M135,84.5h0.6v0.8h0c0.2-0.6,0.8-0.9,1.4-0.9c0.6,0,1.1,0.4,1.2,1h0c0.2-0.6,0.8-1,1.4-1
	c0.7,0,1.3,0.5,1.3,1.1c0,0.1,0,0.2,0,0.3v4.3h-0.6v-4.2c0.1-0.5-0.2-0.9-0.7-1c-0.1,0-0.1,0-0.2,0c-0.7,0.1-1.2,0.7-1.1,1.4
	c0,0,0,0,0,0.1v3.7h-0.6v-4.2c0.1-0.5-0.2-0.9-0.7-1c-0.1,0-0.1,0-0.2,0c-0.7,0.1-1.2,0.7-1.1,1.4c0,0,0,0,0,0.1v3.7H135L135,84.5
	L135,84.5z M142.5,86.1c-0.1-0.9,0.5-1.6,1.3-1.8c0.1,0,0.3,0,0.4,0c0.7-0.1,1.4,0.3,1.6,1.1c0,0.1,0,0.3,0,0.4v3.3
	c0,0.3,0.1,0.5,0.3,0.5h0.2v0.5c-0.1,0-0.2,0.1-0.3,0.1c-0.5,0-0.8-0.1-0.8-0.7v-0.2h0c-0.2,0.6-0.8,1-1.4,0.9
	c-0.7,0.1-1.4-0.5-1.4-1.3c0-0.1,0-0.2,0-0.3c-0.1-0.7,0.4-1.4,1.1-1.5l1.2-0.3c0.4-0.1,0.5-0.2,0.5-0.9c0.1-0.5-0.3-0.9-0.7-1
	c-0.1,0-0.2,0-0.2,0c-0.6,0-1.1,0.4-1.1,1c0,0.1,0,0.2,0,0.3L142.5,86.1z M145.2,86.9L145.2,86.9c-0.2,0.2-0.4,0.3-0.7,0.4l-0.5,0.1
	c-0.6,0.1-1,0.6-1,1.2c-0.1,0.5,0.3,1,0.8,1.1c0,0,0.1,0,0.1,0c0.7,0,1.3-0.6,1.3-1.4c0-0.1,0-0.1,0-0.2V86.9L145.2,86.9z
	 M147.6,84.5h0.6v0.9h0c0.2-0.6,0.8-1,1.4-1c0.1,0,0.2,0,0.2,0V85c-0.1,0-0.2,0-0.3,0c-0.8,0-1.4,0.6-1.4,1.4c0,0.1,0,0.1,0,0.2v3.5
	h-0.6L147.6,84.5L147.6,84.5z M152.7,84.4c1.2,0,1.9,1,1.9,2.9s-0.7,2.9-1.9,2.9s-1.9-1-1.9-2.9S151.5,84.4,152.7,84.4L152.7,84.4z
	 M152.7,89.7c0.7,0,1.2-0.6,1.2-2.4s-0.5-2.4-1.2-2.4s-1.3,0.6-1.3,2.4S152,89.7,152.7,89.7L152.7,89.7z M153.8,82.3l-1,1.5h-0.5
	l0.8-1.5H153.8z M156.1,84.5h0.6v0.8h0c0.3-0.6,0.8-0.9,1.4-0.9c0.7-0.1,1.4,0.5,1.4,1.2c0,0.1,0,0.2,0,0.3v4.2h-0.6v-4
	c0.1-0.5-0.2-1-0.7-1.1c-0.1,0-0.2,0-0.3,0c-0.7,0-1.3,0.6-1.2,1.3c0,0,0,0.1,0,0.1v3.7h-0.6V84.5z M50.2,79.2l3.5-22.7V40.8h-4.1
	v23.9l-6.6-23.9h-4.4v38.8h4.1V55.9l7.1,23.6h0.4C50.1,79.4,50.1,79.3,50.2,79.2z M67.7,79.4h-4.4l-0.6-4.8h-5.5l-0.6,4.8h-4.7
	l6-38.8h4L67.7,79.4z M62.1,70.6l-2.2-17l-2.3,17H62.1z M83.2,72.6c0,4.8-3.3,7.5-7.5,7.5c-4,0.2-7.4-2.9-7.5-6.9c0-0.2,0-0.5,0-0.7
	V47.5c0-5.2,3.4-7.5,7.5-7.5c4-0.2,7.4,3,7.5,7c0,0.2,0,0.4,0,0.6v1.3h-4.4v-1.3c0-1.8-1.5-3.2-3.2-3.1c-1.7,0-3.1,1.4-3.1,3.1v25.1
	c0,1.8,1.5,3.2,3.2,3.1c1.7,0,3.1-1.4,3.1-3.1v-0.5l4.4-1.4L83.2,72.6L83.2,72.6z M99.9,72.6c0,4.2-3.5,7.5-7.6,7.5
	c-4.1,0-7.4-3.4-7.5-7.5v-32h4.4v32c0,1.8,1.5,3.1,3.2,3.1c1.7,0,3.1-1.4,3.1-3.1v-32h4.4V72.6z M116.9,79.4h-4.4l-0.6-4.8h-5.5
	l-0.6,4.8H101l6-38.8h4L116.9,79.4z M111.3,70.6l-2.2-17l-2.3,17H111.3L111.3,70.6z M122,26.4c1.3,0.3,2.4,1.2,3,2.4l9.9-3.8
	C130.8,25.4,126.4,25.9,122,26.4z M116.1,30.1c0.3-1.4,1.2-2.6,2.4-3.3c-18.8,2.2-36.8,4.9-36.8,4.9l4.3-2.3
	c-3.8,0.2-17.4,2.5-17.4,2.5l5.3-2.8c-6-0.8-17.6,1.7-17.6,1.7l5.1-2.8c-3.8,0.2-17,3.4-17,3.4l4.9-2.4c-8.2-0.2-29,4.6-29,4.6
	C8.7,32.7,2.3,38,2.3,38L0,39.7c12.9-5.4,17.2-2.2,20.2-2.2c0,0,13.5-5.3,21-5.1L36,36c0,0,12.8-4.2,16.3-4.3L46.6,35
	c0,0,12-3.7,17.4-3l-6.6,3.2c0,0,14.2-3.1,17.7-3.2l-5.6,3.8C69.5,35.9,95.7,32.2,116.1,30.1L116.1,30.1z M116.1,31.6l-7.4,3.2
	c0,0,3.1-0.2,8.2-1.1C116.5,33.1,116.2,32.4,116.1,31.6L116.1,31.6z M158.2,21.5c-22.7,6.4-30.4,7.7-33,7.9c0.1,0.3,0.2,0.7,0.2,1
	c0.1,0.6,0,1.2-0.1,1.7c3.8-0.8,8.2-1.8,12.8-3.1c-4.3,3.1-8.8,6-13.4,8.4C141.5,32.7,158.2,21.5,158.2,21.5L158.2,21.5z
	 M124.1,30.6c0,1.9-1.5,3.5-3.5,3.5s-3.5-1.5-3.5-3.5c0-1.9,1.5-3.5,3.5-3.5C122.6,27.1,124.1,28.7,124.1,30.6
	C124.1,30.6,124.1,30.6,124.1,30.6z M143.6,36.6c-4.3,0-8.6-0.3-12.9-0.9c-0.4-0.1-0.6-0.4-0.6-0.8c0.1-0.4,0.4-0.6,0.8-0.6l0,0
	c0.3,0,26.7,4.1,33.3-5.4c2.4-3.5,1.8-8.5-1.8-14.9C156.3,2.9,142,1,131.2,1.4C118.5,1.8,103,5.6,89.7,11.6
	C75.2,18.2,56.9,24.2,39,24.2c-12.3,0-24.4-2.8-35.2-10.2c-0.3-0.2-0.4-0.6-0.3-0.9s0.6-0.4,0.9-0.3c0,0,0.1,0,0.1,0.1
	c25.9,17.7,60.3,8.4,84.6-2.5c13.4-6,29.1-9.9,41.9-10.3c16.1-0.5,27.4,4.1,32.5,13.3c3.9,6.9,4.4,12.4,1.7,16.4
	c-3,4.3-9.8,6.6-20.1,6.8C144.7,36.6,144.1,36.6,143.6,36.6z M131.2,35.5c-0.4,0-0.7-0.3-0.7-0.7c0-0.3,0.3-0.6,0.6-0.6
	c0.3,0,31.2-1.8,37.4-13.2c1.6-3,1.4-6.4-0.7-10.3c-3.7-6.6-9-9.2-16.8-8.3c-7,0.8-15.2,4.5-23.2,8c-6.8,3-13.9,6.2-20.3,7.6
	c-17.8,3.9-36.4,3.3-48.9,2.1c-15-1.5-27.1-4.2-33-6.2c-0.4-0.1-0.6-0.5-0.4-0.8s0.5-0.6,0.8-0.4c0,0,0,0,0,0
	c6.3,2.1,18.8,4.7,32.7,6.1c12.4,1.2,30.9,1.8,48.5-2c6.3-1.4,13.2-4.5,20-7.5c16.2-7.2,33-14.7,41.7,0.9c2.4,4.3,2.6,8.2,0.8,11.6
	c-2.8,5.1-10.2,8.9-21.9,11.5C142.4,34.3,136.8,35.1,131.2,35.5L131.2,35.5z M120.4,41.1h1v39.4h-1V41.1z M139.9,79.3h-4.4V46.9h-3
	v-3.6c2,0,3-0.9,3-2.8h4.4V79.3L139.9,79.3z M128.2,39.2h1.2L129,50.4c0,1.9-1,2.7-2.1,2.7c-1.4-0.1-2.4-1.3-2.3-2.7
	c0-0.5,0.1-1,0.3-1.5L128.2,39.2z M158.8,72.2c0,1.1-0.2,2.1-0.6,3.1c-0.3,0.9-0.9,1.7-1.6,2.4c-0.7,0.7-1.5,1.2-2.4,1.5
	c-1,0.4-2,0.5-3,0.5c-2,0.1-3.9-0.6-5.4-2c-1.4-1.5-2.2-3.5-2.1-5.5v-1.3h4.3v1.3c0,1.7,1.4,3.2,3.2,3.2c0.8,0,1.6-0.3,2.2-0.9
	c0.6-0.6,1-1.4,0.9-2.2v-7.4c-0.4,0.3-0.9,0.6-1.4,0.8c-0.8,0.3-1.7,0.5-2.6,0.4c-0.8,0-1.7-0.2-2.4-0.5c-0.8-0.3-1.5-0.8-2.1-1.5
	c-0.6-0.7-1.2-1.5-1.5-2.3c-0.4-1-0.6-2.1-0.6-3.2V47.2c0-1,0.2-2,0.6-2.9c0.4-0.9,0.9-1.7,1.6-2.4c1.4-1.4,3.3-2.2,5.4-2.2
	c1,0,2,0.2,2.9,0.6c0.9,0.4,1.7,0.9,2.4,1.6c1.4,1.4,2.2,3.3,2.2,5.3L158.8,72.2z M154.5,47.2c0-1.7-1.4-3.2-3.2-3.1
	c-0.8,0-1.6,0.3-2.2,0.9c-0.6,0.6-0.9,1.4-0.9,2.2v11.3c0,1.7,1.4,3.1,3.1,3.2c0,0,0,0,0,0h0.1c0.9,0,1.7-0.3,2.3-1
	c0.6-0.7,0.9-1.5,0.8-2.4L154.5,47.2z"/>
</svg>
