<?xml version="1.0" encoding="utf-8"?>
<!-- Generator: Adobe Illustrator 22.1.0, SVG Export Plug-In . SVG Version: 6.00 Build 0)  -->
<svg version="1.1" id="Capa_1" xmlns="http://www.w3.org/2000/svg" xmlns:xlink="http://www.w3.org/1999/xlink" x="0px" y="0px"
	 viewBox="0 0 62 61.9" style="enable-background:new 0 0 62 61.9;" xml:space="preserve">
<style type="text/css">
	.st0{fill:#53A2B7;}
</style>
<path id="Palomita" class="st0" d="M55.8,30.9c-0.1,13.7-11.2,24.7-24.9,24.7S6.1,44.3,6.2,30.6C6.3,16.9,17.4,5.9,31.1,5.9
	c2.3,0,4.5,0.3,6.7,1l5-5C21.9-5.1,0,7.8,0,30.9c0,17.1,13.9,31,31,31s31-13.9,31-31H55.8z M60.2,13.6L29.3,44.5
	c-5.6-5.1-10.7-10.7-16.1-16l6.1-6.3l10,9.9L54,7.4L60.2,13.6z"/>
</svg>
