<?xml version="1.0" encoding="utf-8"?>
<!-- Generator: Adobe Illustrator 22.1.0, SVG Export Plug-In . SVG Version: 6.00 Build 0)  -->
<svg version="1.1" id="Capa_1" xmlns="http://www.w3.org/2000/svg" xmlns:xlink="http://www.w3.org/1999/xlink" x="0px" y="0px"
	 viewBox="0 0 38 26" style="enable-background:new 0 0 38 26;" xml:space="preserve">
<style type="text/css">
	.st0{fill:#2E4E96;}
</style>
<path id="Tarjeta_icono" class="st0" d="M34.7,26H3.3C1.5,26,0,24.5,0,22.7V3.3C0,1.5,1.5,0,3.3,0h31.4C36.5,0,38,1.5,38,3.3v19.4
	C38,24.5,36.5,26,34.7,26z M3.3,2C2.6,2,2,2.6,2,3.3v19.4C2,23.4,2.6,24,3.3,24h31.4c0.7,0,1.3-0.6,1.3-1.3V3.3
	C36,2.6,35.4,2,34.7,2H3.3L3.3,2z M25.3,14h-20c-0.6,0-1-0.4-1-1s0.4-1,1-1h20c0.6,0,1,0.4,1,1S25.8,14,25.3,14z M10.3,17.7h-5
	c-0.6,0-1-0.4-1-1s0.4-1,1-1h5c0.6,0,1,0.4,1,1S10.8,17.7,10.3,17.7z M36,8.9H2V5.4h34L36,8.9L36,8.9z M29,14L29,14
	c-0.6,0-1-0.4-1-1l0,0c0-0.6,0.4-1,1-1l0,0c0.6,0,1,0.4,1,1l0,0C30,13.6,29.5,14,29,14L29,14z M31.3,14L31.3,14c-0.6,0-1-0.4-1-1
	l0,0c0-0.6,0.4-1,1-1l0,0c0.6,0,1,0.4,1,1l0,0C32.3,13.6,31.9,14,31.3,14L31.3,14z M33.7,14L33.7,14c-0.6,0-1-0.4-1-1l0,0
	c0-0.6,0.4-1,1-1l0,0c0.6,0,1,0.4,1,1l0,0C34.7,13.6,34.3,14,33.7,14L33.7,14z"/>
</svg>
