<?xml version="1.0" encoding="utf-8"?>
<!-- Generator: Adobe Illustrator 22.1.0, SVG Export Plug-In . SVG Version: 6.00 Build 0)  -->
<svg version="1.1" id="Capa_1" xmlns="http://www.w3.org/2000/svg" xmlns:xlink="http://www.w3.org/1999/xlink" x="0px" y="0px"
	 viewBox="0 0 113 117" style="enable-background:new 0 0 113 117;" xml:space="preserve">
<style type="text/css">
	.st0{fill:#2E4E96;}
</style>
<path id="Boletos_icono" class="st0" d="M109.8,0H29.2c1.5,0,2.7,1.2,2.7,2.7V6c0,1.5-1.2,2.7-2.7,2.7c-1.5,0-2.7-1.2-2.7-2.7V2.7
	c0-1.5,1.2-2.7,2.7-2.7h-26C1.7,0,0.5,1.2,0.5,2.7v56.2c0,1.5,1.2,2.7,2.7,2.7h4.1l19.1-8.4v-1.6c0-1.5,1.3-2.7,2.8-2.7
	c1.2,0,2.2,0.8,2.6,1.9l60.3-26.5c0.7-0.3,1.4-0.3,2.1-0.1c0.7,0.2,1.2,0.8,1.5,1.4l16,35.1c0.5-0.5,0.8-1.1,0.8-1.8V2.7
	C112.5,1.2,111.3,0,109.8,0z M31.9,45.1c0,1.5-1.2,2.7-2.7,2.7c-1.5,0-2.7-1.2-2.7-2.7v-6.5c0-1.5,1.2-2.7,2.7-2.7
	c1.5,0,2.7,1.2,2.7,2.7V45.1z M31.9,32.1c0,1.5-1.2,2.7-2.7,2.7c-1.5,0-2.7-1.2-2.7-2.7v-6.5c0-1.5,1.2-2.7,2.7-2.7
	c1.5,0,2.7,1.2,2.7,2.7V32.1L31.9,32.1z M31.9,19.1c0,1.5-1.2,2.7-2.7,2.7c-1.5,0-2.7-1.2-2.7-2.7v-6.5c0-1.5,1.2-2.7,2.7-2.7
	c1.5,0,2.7,1.2,2.7,2.7V19.1L31.9,19.1z M66.1,26.8H41.5c-1.5,0-2.7-1.1-2.7-2.6c0-1.5,1.1-2.7,2.6-2.7c0,0,0.1,0,0.1,0h24.6
	c1.5,0,2.7,1.1,2.7,2.6s-1.1,2.7-2.6,2.7C66.2,26.8,66.1,26.8,66.1,26.8L66.1,26.8z M86.6,16.1H41.5c-1.5,0-2.7-1.1-2.7-2.6
	c0-1.5,1.1-2.7,2.6-2.7c0,0,0.1,0,0.1,0h45.1c1.5,0,2.7,1.1,2.7,2.6s-1.1,2.7-2.6,2.7C86.7,16.1,86.6,16.1,86.6,16.1L86.6,16.1z
	 M105.4,60c0,0,0,0.1,0.1,0.1L91.9,30.3L105.4,60z M30.3,57.4L30.3,57.4L30.3,57.4z M39.9,106.5c1.1-0.5,2.5-0.2,3.3,0.8L113,76.6
	l-7.5-16.5L91.9,30.3L30.3,57.4l-0.1,0.1l-8.5,3.7l1.9,4.1c0.6,1.3,0,2.9-1.3,3.5c0,0,0,0,0,0c0,0,0,0,0,0c-1.4,0.6-3,0-3.6-1.3
	l-1.9-4.1L0,70.7L21.1,117l17.3-7.6C38.2,108.2,38.8,107,39.9,106.5L39.9,106.5z M42.5,76.1c-1.4,0.6-3-0.1-3.6-1.4
	c-0.6-1.4,0.1-2.9,1.4-3.5c0,0,0,0,0,0l0,0l25.9-10.7c1.4-0.6,3,0.1,3.6,1.4c0.6,1.4-0.1,2.9-1.4,3.5c0,0,0,0,0,0c0,0,0,0,0,0
	L42.5,76.1z M93.7,73.9c1.4-0.6,3,0,3.6,1.4c0.6,1.3,0,2.9-1.4,3.5c0,0,0,0,0,0c0,0,0,0,0,0L52.1,97.5c-1.4,0.6-3,0-3.6-1.4
	c-0.6-1.3,0-2.9,1.4-3.5c0,0,0,0,0,0c0,0,0,0,0,0L93.7,73.9z M36.3,61.8L80,43.1c1.4-0.6,3,0,3.6,1.4c0.6,1.3,0,2.9-1.4,3.5
	c0,0,0,0,0,0c0,0,0,0,0,0L38.5,66.7c-1.4,0.6-3,0-3.6-1.4C34.3,64,34.9,62.4,36.3,61.8C36.2,61.8,36.3,61.8,36.3,61.8
	C36.3,61.8,36.3,61.8,36.3,61.8L36.3,61.8z M24.3,79.6l-2.8-6.1c-0.6-1.3,0-2.9,1.3-3.5c0,0,0,0,0,0c0,0,0,0,0,0
	c1.4-0.6,3,0,3.6,1.3l2.8,6.1c0.6,1.3,0,2.9-1.3,3.5c0,0,0,0,0,0c0,0,0,0,0,0C26.6,81.6,25,81,24.3,79.6L24.3,79.6z M30,91.8
	l-2.8-6.1c-0.6-1.3-0.1-2.9,1.3-3.5c0,0,0,0,0,0c0,0,0,0,0,0c1.4-0.6,3,0,3.6,1.3l2.8,6.1c0.6,1.3,0.1,2.9-1.3,3.5c0,0,0,0,0,0
	c0,0,0,0,0,0C32.3,93.8,30.7,93.2,30,91.8L30,91.8z M35.7,104l-2.8-6.1c-0.6-1.3,0-2.9,1.3-3.5c0,0,0,0,0,0c0,0,0,0,0,0
	c1.4-0.6,3,0,3.6,1.3l2.9,6.1c0.6,1.3,0,2.9-1.3,3.5c0,0,0,0,0,0l0,0C38,105.9,36.4,105.3,35.7,104L35.7,104z"/>
</svg>
