<?xml version="1.0" encoding="utf-8"?>
<!-- Generator: Adobe Illustrator 22.1.0, SVG Export Plug-In . SVG Version: 6.00 Build 0)  -->
<svg version="1.1" id="Capa_1" xmlns="http://www.w3.org/2000/svg" xmlns:xlink="http://www.w3.org/1999/xlink" x="0px" y="0px"
	 viewBox="0 0 683.9 368.2" style="enable-background:new 0 0 683.9 368.2;" xml:space="preserve">
<style type="text/css">
	.st0{fill:#B81918;}
	.st1{fill:#878787;}
	.st2{fill:#1E629D;}
</style>
<title>Conacua19_logo</title>
<g>
	<path class="st0" d="M74.6,291c0,19.2-13.3,30.1-30.2,30.1c-16.4,0-30.2-11.1-30.2-30.1V190.7c0-20.6,13.7-30.2,30.2-30.2
		c16.9,0,30.2,11.9,30.2,30.2v5.2H57.1v-5.2c0-8.7-5.8-12.7-12.7-12.7c-7.1,0-12.7,4-12.7,12.7V291c0,7,5.7,12.7,12.7,12.7
		c7,0,12.7-5.7,12.7-12.7v-2l17.5-5.8L74.6,291z"/>
	<path class="st0" d="M146.4,291c0,17.9-13.3,30.1-30.2,30.1c-16.5,0-30.1-12.1-30.1-30.1V190.7c0-18.9,13.7-30.2,30.1-30.2
		c16.9,0,30.2,11.1,30.2,30.2V291z M128.9,190.7c0-7.9-5.8-12.7-12.7-12.7c-7.1,0-12.7,4.8-12.7,12.7V291c0,8.1,5.6,12.7,12.7,12.7
		c6.9,0,12.7-4.6,12.7-12.7V190.7z"/>
	<path class="st1" d="M28,350.3c-0.4,6.9-3.5,10.7-8.9,10.7c-6.1,0-9.6-4.7-9.6-15.5S13,330,19.1,330s8.6,4.3,8.6,9.2H25
		c0-4.1-2-7-5.9-7c-4.3,0-6.9,3.5-6.9,13.2s2.6,13.2,6.9,13.2c3.8,0,5.9-3.2,6.2-8.4L28,350.3z"/>
	<path class="st1" d="M40.3,337.7c4.9,0,7.7,3.9,7.7,11.6S45.2,361,40.3,361s-7.7-3.9-7.7-11.7S35.4,337.7,40.3,337.7z M40.3,358.9
		c2.8,0,5-2.4,5-9.6s-2.2-9.5-5-9.5s-5,2.4-5,9.5S37.5,358.9,40.3,358.9L40.3,358.9z"/>
	<path class="st1" d="M53.8,338.2H56v3.1h0.1c1-2.2,3.3-3.6,5.7-3.6c3.4,0,5.7,1.8,5.7,6v16.8H65v-16.1c0-3.1-1.3-4.6-3.8-4.6
		c-2.9,0-4.9,2.3-4.9,5.7v15h-2.5V338.2z"/>
	<path class="st1" d="M86,338.2h2.3v20.7c0,6.2-2.3,9.3-7.3,9.3c-4.3,0-6.6-2.3-6.6-5.5h2.5c0,2.1,2,3.4,4.2,3.4
		c3.1,0,4.7-2.1,4.7-6.1v-3.5h-0.1c-0.6,2.4-2.7,4.1-5.2,4c-3.4,0-6.9-2.3-6.9-11.2c0-7.7,2.2-11.6,7.1-11.6c2.4,0,4.6,1.6,5.2,4H86
		L86,338.2z M81,358.4c3,0,4.7-2.2,4.7-9.3s-1.8-9.3-4.7-9.3s-4.8,2.2-4.8,9.3S78,358.4,81,358.4z"/>
	<path class="st1" d="M95.3,338.2h2.5v3.5h0.1c0.8-2.4,3.1-4,5.6-4c0.3,0,0.6,0,0.9,0.1v2.5c-0.4-0.1-0.8-0.1-1.2-0.1
		c-2.8,0-5.4,2-5.4,6.4v14h-2.5L95.3,338.2z"/>
	<path class="st1" d="M122.8,353.1c-0.4,4.7-3,7.9-7.2,7.9c-4.7,0-7.5-3.3-7.5-11.7c0-7.7,2.8-11.6,7.7-11.6s7.2,3.4,7.2,10.8v0.9
		h-12.2v1c0,6.4,2.3,8.4,4.8,8.4c2.6,0,4.3-1.9,4.7-5.8L122.8,353.1z M120.3,347.3c-0.1-5.5-1.6-7.6-4.7-7.6s-4.7,2-4.8,7.6H120.3z"
		/>
	<path class="st1" d="M132.6,349.4c-3.1-1.2-4.3-3.1-4.3-5.3c0-4.6,2.9-6.4,6.6-6.4c4.2,0,6.1,2.1,6.1,6.2v0.6h-2.5v-0.6
		c0-2.9-1.4-4.1-3.7-4.1c-2.9,0-4.1,1.5-4.1,3.8c0,1.6,0.5,2.8,3,3.7l3.7,1.4c3,1.1,4.2,3.2,4.2,5.7c0,3.8-2.2,6.6-6.9,6.6
		s-6.8-1.9-6.8-6.9v-0.7h2.5v0.6c0,3.3,1.4,5,4.3,5c2.7,0,4.4-1.5,4.4-4c0-2-0.8-3.2-3-4.1L132.6,349.4z"/>
	<path class="st1" d="M154,337.7c4.9,0,7.7,3.9,7.7,11.6S158.9,361,154,361s-7.7-3.9-7.7-11.7S149.1,337.7,154,337.7z M154,358.9
		c2.8,0,5-2.4,5-9.6s-2.2-9.5-5-9.5s-5,2.4-5,9.5S151.2,358.9,154,358.9L154,358.9z"/>
	<path class="st1" d="M191.4,356.8L191.4,356.8c-0.7,2.5-3,4.3-5.6,4.2c-4.9,0-7.1-4-7.1-11.7s2.2-11.6,7.1-11.6
		c2.5-0.2,4.7,1.5,5.2,3.9h0.1v-11h2.5v30h-2.3V356.8z M186.3,358.9c2.6,0,4.9-1.3,4.9-9.6s-2.3-9.5-4.9-9.5s-4.9,1.3-4.9,9.5
		S183.8,358.9,186.3,358.9z"/>
	<path class="st1" d="M214.1,353.1c-0.4,4.7-3,7.9-7.2,7.9c-4.7,0-7.5-3.3-7.5-11.7c0-7.7,2.8-11.6,7.7-11.6s7.2,3.4,7.2,10.8v0.9
		h-12.2v1c0,6.4,2.3,8.4,4.8,8.4c2.6,0,4.3-1.9,4.7-5.8L214.1,353.1z M211.7,347.3c-0.1-5.5-1.6-7.6-4.7-7.6s-4.7,2-4.8,7.6H211.7z"
		/>
	<path class="st1" d="M237.4,330.5h3.4l8.9,30h-2.9l-2.4-8.7h-10.5l-2.4,8.7h-2.9L237.4,330.5z M243.8,349.5l-4.6-16.9h-0.1
		l-4.6,16.9H243.8z"/>
	<path class="st1" d="M267.5,353.1c-0.4,4.7-3,7.9-7.1,7.9c-4.7,0-7.5-3.3-7.5-11.7c0-7.7,2.8-11.6,7.7-11.6c4.2,0,6.6,2.6,6.9,7.1
		H265c-0.3-3.5-1.7-5-4.4-5s-5,1.7-5,9.6c0,8.4,2.4,9.5,4.8,9.5c2.6,0,4.2-1.9,4.6-5.8L267.5,353.1z"/>
	<path class="st1" d="M273.3,338.2h2.5v15.7c0,3.6,1.2,5,3.9,5c2.9,0,4.9-2.3,4.9-5.7v-15h2.5v22.3h-2.3v-3.1h-0.1
		c-1,2.2-3.3,3.6-5.7,3.6c-3.4,0-5.7-1.8-5.7-6V338.2z"/>
	<path class="st1" d="M293.6,344.8c0-4.6,2.2-7.1,6.9-7.1s6.3,2.4,6.3,5.9v13.2c0,1.3,0.4,1.9,1.3,1.9h0.7v1.9
		c-0.4,0.2-0.8,0.2-1.2,0.2c-2,0-3.2-0.5-3.2-2.8v-0.8h-0.1c-1,2.9-3.3,3.8-5.8,3.8c-3.9,0-5.7-2.4-5.7-6.3c0-3,1.3-5.3,4.5-6.2
		l4.8-1.3c1.8-0.5,2.1-0.9,2.1-3.5c0-2.9-1.6-3.9-3.9-3.9c-3,0-4.3,1.8-4.3,5L293.6,344.8z M304.3,347.9L304.3,347.9
		c-0.3,0.8-1.8,1.2-2.8,1.5l-2.1,0.5c-2.5,0.7-3.8,2-3.8,4.6s1.3,4.4,3.5,4.4c3.1,0,5.2-2.3,5.2-6.3L304.3,347.9z"/>
	<path class="st1" d="M327.5,353.1c-0.4,4.7-3,7.9-7.1,7.9c-4.7,0-7.5-3.3-7.5-11.7c0-7.7,2.8-11.6,7.7-11.6c4.2,0,6.6,2.6,6.9,7.1
		h-2.5c-0.3-3.5-1.7-5-4.4-5s-5,1.7-5,9.6c0,8.4,2.4,9.5,4.8,9.5c2.6,0,4.2-1.9,4.6-5.8L327.5,353.1z"/>
	<path class="st1" d="M333.3,338.2h2.5v15.7c0,3.6,1.2,5,3.9,5c2.9,0,4.9-2.3,4.9-5.7v-15h2.5v22.3h-2.3v-3.1h-0.1
		c-1,2.2-3.3,3.6-5.7,3.6c-3.4,0-5.7-1.8-5.7-6L333.3,338.2z"/>
	<path class="st1" d="M354.2,330.5h2.5v30h-2.5V330.5z"/>
	<path class="st1" d="M364.8,340.3h-3.1v-2.1h3.1V332h2.5v6.2h4v2.1h-4v16c0,1.8,0.8,2.4,2.4,2.4c0.5,0,1-0.1,1.5-0.2v2.1
		c-0.6,0.2-1.2,0.3-1.8,0.2c-3.4,0-4.7-0.9-4.7-3.9L364.8,340.3z"/>
	<path class="st1" d="M376.1,338.2h2.5v15.7c0,3.6,1.2,5,3.9,5c2.9,0,4.9-2.3,4.9-5.7v-15h2.5v22.3h-2.3v-3.1h-0.1
		c-1,2.2-3.3,3.6-5.7,3.6c-3.4,0-5.7-1.8-5.7-6V338.2z"/>
	<path class="st1" d="M396.8,338.2h2.5v3.5h0.1c0.8-2.4,3.1-4,5.6-4c0.3,0,0.6,0,0.9,0.1v2.5c-0.4-0.1-0.8-0.1-1.2-0.1
		c-2.8,0-5.4,2-5.4,6.4v14h-2.5V338.2z"/>
	<path class="st1" d="M410.1,344.8c0-4.6,2.2-7.1,6.9-7.1s6.3,2.4,6.3,5.9v13.2c0,1.3,0.4,1.9,1.3,1.9h0.7v1.9
		c-0.4,0.2-0.8,0.2-1.2,0.2c-2,0-3.2-0.5-3.2-2.8v-0.8h-0.1c-1,2.9-3.3,3.8-5.8,3.8c-3.9,0-5.7-2.4-5.7-6.3c0-3,1.4-5.3,4.5-6.2
		l4.8-1.3c1.8-0.5,2.1-0.9,2.1-3.5c0-2.9-1.6-3.9-3.9-3.9c-3,0-4.3,1.8-4.3,5L410.1,344.8z M420.8,347.9L420.8,347.9
		c-0.3,0.8-1.8,1.2-2.8,1.5l-2.1,0.5c-2.5,0.7-3.8,2-3.8,4.6s1.4,4.4,3.5,4.4c3.1,0,5.2-2.3,5.2-6.3L420.8,347.9z"/>
	<path class="st1" d="M454.5,356.8L454.5,356.8c-0.7,2.5-3,4.3-5.5,4.2c-4.9,0-7.1-4-7.1-11.7s2.2-11.6,7.1-11.6
		c2.4-0.2,4.7,1.5,5.2,3.9h0.1v-11h2.5v30h-2.3V356.8z M449.4,358.9c2.6,0,4.9-1.3,4.9-9.6s-2.3-9.5-4.9-9.5s-4.9,1.3-4.9,9.5
		S446.9,358.9,449.4,358.9z"/>
	<path class="st1" d="M477.3,353.1c-0.4,4.7-3,7.9-7.2,7.9c-4.7,0-7.5-3.3-7.5-11.7c0-7.7,2.8-11.6,7.7-11.6s7.2,3.4,7.2,10.8v0.9
		h-12.2v1c0,6.4,2.3,8.4,4.8,8.4c2.7,0,4.3-1.9,4.7-5.8L477.3,353.1z M474.8,347.3c-0.1-5.5-1.6-7.6-4.8-7.6s-4.7,2-4.8,7.6H474.8z"
		/>
	<path class="st1" d="M513.8,350.3c-0.4,6.9-3.5,10.7-8.9,10.7c-6.1,0-9.6-4.7-9.6-15.5s3.5-15.5,9.6-15.5s8.6,4.3,8.6,9.2h-2.7
		c0-4.1-2.1-7-5.9-7c-4.3,0-6.9,3.5-6.9,13.2s2.6,13.2,6.9,13.2c3.8,0,5.9-3.2,6.2-8.4L513.8,350.3z"/>
	<path class="st1" d="M519.1,344.8c0-4.6,2.2-7.1,6.9-7.1s6.3,2.4,6.3,5.9v13.2c0,1.3,0.4,1.9,1.3,1.9h0.7v1.9
		c-0.4,0.2-0.8,0.2-1.2,0.2c-2,0-3.2-0.5-3.2-2.8v-0.8h-0.1c-1,2.9-3.3,3.8-5.8,3.8c-3.9,0-5.7-2.4-5.7-6.3c0-3,1.3-5.3,4.5-6.2
		l4.7-1.3c1.8-0.5,2.2-0.9,2.2-3.5c0-2.9-1.6-3.9-3.9-3.9c-3,0-4.3,1.8-4.3,5L519.1,344.8z M529.8,347.9L529.8,347.9
		c-0.3,0.8-1.8,1.2-2.8,1.5l-2.1,0.5c-2.5,0.7-3.8,2-3.8,4.6s1.3,4.4,3.5,4.4c3.1,0,5.2-2.3,5.2-6.3V347.9z"/>
	<path class="st1" d="M539.8,338.2h2.3v3.1h0.1c1-2.3,3.2-3.7,5.7-3.6c2.3-0.2,4.4,1.6,4.7,3.9h0.1c0.8-2.4,3.1-4,5.7-3.9
		c3.1,0,5.2,1.8,5.2,5.8v17.1h-2.5v-16.7c0-2.6-1.2-4-3.5-4c-2.5,0-4.5,2.3-4.5,5.7v15h-2.5v-16.7c0-2.6-1.2-4-3.5-4
		c-2.5,0-4.5,2.3-4.5,5.7v15h-2.5L539.8,338.2z"/>
	<path class="st1" d="M570,344.8c0-4.6,2.2-7.1,6.9-7.1s6.3,2.4,6.3,5.9v13.2c0,1.3,0.4,1.9,1.3,1.9h0.7v1.9
		c-0.4,0.2-0.8,0.2-1.2,0.2c-2,0-3.2-0.5-3.2-2.8v-0.8h-0.1c-1,2.9-3.3,3.8-5.8,3.8c-3.9,0-5.7-2.4-5.7-6.3c0-3,1.3-5.3,4.5-6.2
		l4.8-1.3c1.8-0.5,2.2-0.9,2.2-3.5c0-2.9-1.6-3.9-3.9-3.9c-3,0-4.3,1.8-4.3,5L570,344.8z M580.7,347.9L580.7,347.9
		c-0.3,0.8-1.8,1.2-2.8,1.5l-2.1,0.5c-2.5,0.7-3.8,2-3.8,4.6s1.3,4.4,3.5,4.4c3.1,0,5.2-2.3,5.2-6.3L580.7,347.9z"/>
	<path class="st1" d="M590.5,338.2h2.5v3.5h0.1c0.8-2.4,3.1-4,5.6-4c0.3,0,0.6,0,0.9,0.1v2.5c-0.4-0.1-0.8-0.1-1.2-0.1
		c-2.8,0-5.4,2-5.4,6.4v14h-2.5L590.5,338.2z"/>
	<path class="st1" d="M610.8,337.7c4.9,0,7.7,3.9,7.7,11.6s-2.8,11.7-7.7,11.7s-7.7-3.9-7.7-11.7S605.9,337.7,610.8,337.7z
		 M610.8,358.9c2.8,0,5-2.4,5-9.6s-2.2-9.5-5-9.5s-5,2.4-5,9.5S608,358.9,610.8,358.9L610.8,358.9z M615.1,329.5l-4.1,5.9h-2
		l3.2-5.9H615.1z"/>
	<path class="st1" d="M624.3,338.2h2.3v3.1h0.1c1-2.2,3.3-3.6,5.7-3.6c3.4,0,5.7,1.8,5.7,6v16.8h-2.5v-16.1c0-3.1-1.2-4.6-3.8-4.6
		c-2.9,0-4.9,2.3-4.9,5.7v15h-2.5V338.2z"/>
	<path class="st0" d="M200.6,316.9l13.9-91v-62.9h-16.3v95.8l-26.6-95.8h-17.5v155.4h16.5v-94.7l28.4,94.7h1.5
		C200.5,317.9,200.6,317.4,200.6,316.9z"/>
	<path class="st2" d="M270.8,318h-17.7l-2.6-19.2h-22l-2.4,19.2h-18.7l23.8-155.3h16.1L270.8,318z M248.5,282.4l-8.9-68l-9.1,68
		H248.5z"/>
	<path class="st2" d="M332.7,290.6c0,19.3-13.3,30.2-30.2,30.2c-16.5,0-30.1-11.1-30.1-30.2V190.2c0-20.6,13.7-30.2,30.1-30.2
		c16.9,0,30.2,11.9,30.2,30.2v5.1h-17.5v-5.1c0-8.7-5.8-12.7-12.7-12.7c-7.1,0-12.7,4-12.7,12.7v100.4c0,7,5.7,12.7,12.7,12.7
		c7,0,12.7-5.7,12.7-12.7v-2l17.5-5.8L332.7,290.6z"/>
	<path class="st2" d="M399.7,290.6c0,18.5-13.3,30.2-30.2,30.2c-16.5,0-30.1-11.7-30.1-30.2v-128h17.5v128c0,8.9,5.6,12.7,12.7,12.7
		c7,0,12.7-3.8,12.7-12.7v-128h17.5L399.7,290.6z"/>
	<path class="st2" d="M467.4,318h-17.6l-2.6-19.2h-22l-2.4,19.2h-18.7l23.9-155.3h16L467.4,318z M445.2,282.4l-8.9-68l-9.1,68H445.2
		z"/>
	<path class="st1" d="M487.8,105.8c5.2,1.3,9.6,4.8,12.1,9.6l39.7-15.1C522.9,101.8,505.4,103.7,487.8,105.8z"/>
	<path class="st1" d="M464.5,120.4c1.1-5.6,4.7-10.4,9.7-13.1c-75.1,8.9-147,19.4-147,19.4l17-9.1c-15.4,0.8-69.6,10.1-69.6,10.1
		l21.1-11.2c-24.1-3.2-70.5,6.6-70.5,6.6l20.3-11.1c-15.3,0.8-68.1,13.6-68.1,13.6l19.5-9.6c-32.9-1-116,18.3-116,18.3
		C35,131,9.2,152.2,9.2,152.2L0,159c51.4-21.6,68.6-8.9,80.6-8.8c0,0,54-21.4,83.9-20.4l-20.5,14c0,0,51.2-16.7,65.1-17.4
		l-22.9,13.7c0,0,47.8-14.8,69.8-11.9l-26.5,13c0,0,56.7-12.3,70.7-13l-22.4,15.3C277.9,143.6,382.6,128.7,464.5,120.4z"/>
	<path class="st1" d="M464.3,126.6l-29.4,12.6c0,0,12.3-1,32.7-4.2C465.9,132.5,464.8,129.6,464.3,126.6z"/>
	<path class="st1" d="M632.7,86.2c-90.6,25.7-121.4,31-131.8,31.6c0.5,1.3,0.8,2.7,1,4.1c0.3,2.3,0.1,4.7-0.5,7
		c15.3-3.2,32.6-7.2,51.2-12.4c-17.1,12.6-35,23.8-53.7,33.8C565.8,130.7,632.7,86.2,632.7,86.2z"/>
	<path class="st1" d="M496.5,122.5c0.9,7.4-4.4,14.1-11.8,15c-7.4,0.9-14.1-4.4-15-11.8c-0.9-7.4,4.4-14.1,11.8-15
		C488.9,109.8,495.6,115,496.5,122.5C496.5,122.4,496.5,122.4,496.5,122.5z"/>
	<path class="st1" d="M574.2,146.4c-17.2,0-34.4-1.3-51.5-3.7c-1.5-0.2-2.5-1.6-2.2-3.1s1.6-2.5,3.1-2.2
		c1.1,0.2,106.9,16.4,133.3-21.4c9.7-14,7.4-34.1-7-59.8C624.9,11.7,568,4.2,524.6,5.6c-50.8,1.7-112.7,17-165.7,40.8
		c-58.4,26.3-131.2,50.3-202.9,50.3C107,96.7,58.4,85.4,15.5,56c-1.3-0.7-1.8-2.4-1.1-3.7c0.7-1.3,2.4-1.8,3.7-1.1
		c0.1,0.1,0.3,0.2,0.4,0.3c103.7,71,241.1,33.7,338.2-10.1C410.3,17.3,472.9,1.9,524.4,0.2C588.8-2,633.8,16.5,654.5,53.5
		c15.5,27.7,17.8,49.7,6.8,65.5c-12,17.2-39.1,26.4-80.5,27.3C578.5,146.4,576.3,146.4,574.2,146.4z"/>
	<path class="st1" d="M524.6,142.1c-1.5,0-2.7-1.3-2.6-2.8c0-1.4,1.1-2.5,2.5-2.6c1.2-0.1,124.7-7.4,149.7-52.7
		c6.6-11.9,5.6-25.8-2.9-41.1c-14.6-26.3-35.9-36.9-67.1-33.2c-28.1,3.2-60.9,17.9-92.7,32c-27.2,12.1-55.4,24.7-81,30.3
		c-71,15.6-145.5,13.1-195.5,8.2c-59.9-5.8-108.4-16.9-131.8-24.7c-1.4-0.5-2.2-2-1.7-3.4s2-2.2,3.4-1.7c25,8.3,75,19,130.7,24.4
		c49.6,4.8,123.5,7.3,193.8-8.1c25-5.5,52.9-17.9,79.9-29.9c64.9-28.9,132-58.8,166.7,3.6c9.5,17.1,10.5,32.7,3,46.3
		c-11.2,20.2-40.6,35.7-87.5,46c-22,4.7-44.2,7.9-66.6,9.4L524.6,142.1z"/>
	<rect x="481.6" y="164.5" class="st1" width="4" height="157.5"/>
	<path class="st1" d="M559.6,317.4h-17.4V187.7H530v-14.3c7.9,0,12.1-3.8,12.1-11.1h17.4V317.4z"/>
	<path class="st1" d="M512.7,156.8h5l-1.8,45c-0.2,7.7-4.2,10.9-8.3,10.9c-4.4,0-9.3-4-9.3-10.9c0-2.1,0.5-4.2,1.2-6.1L512.7,156.8z
		"/>
	<path class="st1" d="M635.3,288.9c0.1,4.3-0.7,8.5-2.3,12.5c-1.4,3.6-3.5,6.8-6.2,9.5c-2.7,2.6-5.9,4.6-9.5,5.9
		c-3.8,1.4-7.9,2.1-12,2.1c-8.8,0-16-2.7-21.6-8s-8.4-12.7-8.4-22v-5.1h17.4v5.1c0,7,5.7,12.6,12.6,12.6c3.3,0,6.5-1.3,8.9-3.6
		c2.5-2.3,3.8-5.6,3.8-9v-29.4c-1.8,1.2-3.7,2.3-5.7,3.1c-3.3,1.2-6.8,1.8-10.3,1.7c-3.4,0-6.7-0.7-9.8-2c-3.2-1.3-6.2-3.3-8.6-5.8
		c-2.6-2.7-4.6-5.9-6-9.4c-1.6-4.1-2.4-8.4-2.3-12.8V189c0-4,0.8-7.9,2.3-11.6c1.4-3.6,3.6-6.8,6.3-9.6c5.7-5.7,13.4-8.8,21.4-8.8
		c4,0,7.9,0.8,11.5,2.4c3.6,1.5,6.8,3.7,9.6,6.4c5.7,5.6,8.9,13.2,8.9,21.2L635.3,288.9z M617.9,189c0-7-5.7-12.6-12.7-12.6
		c-3.4,0-6.6,1.4-9,3.8c-2.4,2.3-3.7,5.5-3.7,8.9v45.2c-0.1,6.9,5.4,12.5,12.3,12.6c0.1,0,0.2,0,0.3,0c3.5,0.2,7-1.3,9.3-4
		c2.3-2.7,3.5-6.1,3.3-9.7L617.9,189z"/>
</g>
</svg>
