<svg xmlns="http://www.w3.org/2000/svg" width="42.06" height="36" viewBox="0 0 21.03 18">
  <metadata><?xpacket begin="﻿" id="W5M0MpCehiHzreSzNTczkc9d"?>
<x:xmpmeta xmlns:x="adobe:ns:meta/" x:xmptk="Adobe XMP Core 5.6-c140 79.160451, 2017/05/06-01:08:21        ">
   <rdf:RDF xmlns:rdf="http://www.w3.org/1999/02/22-rdf-syntax-ns#">
      <rdf:Description rdf:about=""/>
   </rdf:RDF>
</x:xmpmeta>
                                                                                                    
                                                                                                    
                                                                                                    
                                                                                                    
                                                                                                    
                                                                                                    
                                                                                                    
                                                                                                    
                                                                                                    
                                                                                                    
                                                                                                    
                                                                                                    
                                                                                                    
                                                                                                    
                                                                                                    
                                                                                                    
                                                                                                    
                                                                                                    
                                                                                                    
                                                                                                    
                           
<?xpacket end="w"?></metadata>
<defs>
    <style>
      .cls-1 {
        fill: #fff;
        fill-rule: evenodd;
      }
    </style>
  </defs>
  <path id="carrito" class="cls-1" d="M1219.74,53.566a2.217,2.217,0,1,0,2.22,2.216A2.228,2.228,0,0,0,1219.74,53.566Zm0,3.251a1.034,1.034,0,1,1,1.04-1.035A1.044,1.044,0,0,1,1219.74,56.817Zm7.42-3.251a2.217,2.217,0,1,0,2.21,2.216A2.19,2.19,0,0,0,1227.16,53.566Zm0,3.251a1.034,1.034,0,1,1,1.03-1.035A1.025,1.025,0,0,1,1227.16,56.817Zm2.89-6.945h-11.61q0.18,0.665.27,0.975a0.878,0.878,0,0,0,.68.857h9.3a2.143,2.143,0,0,1,2.04,1.448,0.587,0.587,0,0,1-.38.739,0.386,0.386,0,0,1-.18.03,0.6,0.6,0,0,1-.56-0.385,1.018,1.018,0,0,0-.92-0.62h-9.27a1.948,1.948,0,0,1-1.86-1.744c-0.3-1.182-2.16-8.158-2.66-9.99h-2.31a0.591,0.591,0,0,1,0-1.182h2.75a0.565,0.565,0,0,1,.56.443s1.36,5.143,2.19,8.275h11.52l2.01-6.236h-13.89a0.591,0.591,0,0,1,0-1.183h14.71a0.63,0.63,0,0,1,.48.237,0.594,0.594,0,0,1,.09.532l-2.4,7.419A0.649,0.649,0,0,1,1230.05,49.872Z" transform="translate(-1212 -40)"/>
</svg>
