<svg id="Capa_1" data-name="Capa 1" xmlns="http://www.w3.org/2000/svg" viewBox="0 0 683.87 368.2"><defs><style>.cls-1{fill:#fff;}</style></defs><title>Conacua19_logo-01</title><path class="cls-1" d="M74.55,291.05c0,19.25-13.29,30.15-30.16,30.15-16.45,0-30.16-11.11-30.16-30.15V190.66c0-20.63,13.7-30.16,30.16-30.16,16.87,0,30.16,11.9,30.16,30.16v5.16H57.09v-5.16c0-8.73-5.76-12.69-12.7-12.69-7.14,0-12.7,4-12.7,12.69V291.05a12.7,12.7,0,0,0,25.4,0v-2l17.46-5.76Z"/><path class="cls-1" d="M146.38,291.05c0,17.85-13.29,30.15-30.16,30.15-16.46,0-30.15-12.1-30.15-30.15V190.66c0-18.85,13.69-30.16,30.15-30.16,16.87,0,30.16,11.12,30.16,30.16ZM128.94,190.66c0-7.94-5.75-12.69-12.69-12.69-7.15,0-12.7,4.75-12.7,12.69V291.05c0,8.13,5.55,12.7,12.7,12.7,6.94,0,12.69-4.57,12.69-12.7Z"/><path class="cls-1" d="M28,350.3C27.63,357.15,24.48,361,19.1,361c-6.13,0-9.58-4.74-9.58-15.5S13,330,19.1,330s8.61,4.32,8.61,9.24H25c0-4.08-2-7-5.92-7-4.28,0-6.88,3.53-6.88,13.23s2.6,13.23,6.88,13.23c3.78,0,5.92-3.23,6.22-8.4Z"/><path class="cls-1" d="M40.28,337.66c4.91,0,7.68,3.9,7.68,11.64S45.19,361,40.28,361s-7.69-3.91-7.69-11.67S35.36,337.66,40.28,337.66Zm0,21.21c2.81,0,5-2.44,5-9.57s-2.18-9.54-5-9.54-5,2.43-5,9.54,2.18,9.57,5,9.57Z"/><path class="cls-1" d="M53.75,338.17H56v3.1h.09a6.23,6.23,0,0,1,5.71-3.61c3.41,0,5.72,1.76,5.72,6v16.81H65V344.34c0-3.07-1.27-4.58-3.83-4.58-2.94,0-4.91,2.27-4.91,5.71v15H53.75Z"/><path class="cls-1" d="M86,338.17h2.27v20.7c0,6.18-2.27,9.33-7.32,9.33-4.32,0-6.59-2.27-6.63-5.47h2.52c0,2.11,2,3.37,4.2,3.37,3.07,0,4.7-2.15,4.7-6.09v-3.53h-.08a5.24,5.24,0,0,1-5.21,4c-3.44,0-6.89-2.27-6.89-11.17,0-7.69,2.23-11.64,7.14-11.64a5.3,5.3,0,0,1,5.21,3.95H86Zm-5,20.2c3,0,4.74-2.19,4.74-9.33S84,339.76,81,339.76s-4.75,2.18-4.75,9.28S78,358.37,81,358.37Z"/><path class="cls-1" d="M95.26,338.17h2.52v3.48h.09a5.9,5.9,0,0,1,5.63-4,3.2,3.2,0,0,1,.87.12v2.52a6.14,6.14,0,0,0-1.21-.13c-2.78,0-5.38,2-5.38,6.35v14H95.26Z"/><path class="cls-1" d="M122.77,353.08c-.37,4.74-3,7.89-7.18,7.89-4.7,0-7.48-3.28-7.48-11.67,0-7.74,2.78-11.64,7.69-11.64s7.19,3.4,7.19,10.83v.93H110.8v1.05c0,6.43,2.27,8.4,4.75,8.4,2.65,0,4.28-1.89,4.7-5.79Zm-2.48-5.76c-.08-5.54-1.63-7.56-4.74-7.56s-4.66,2-4.75,7.56Z"/><path class="cls-1" d="M132.56,349.38c-3.15-1.22-4.28-3.07-4.28-5.3,0-4.57,2.85-6.42,6.63-6.42,4.21,0,6.14,2.14,6.14,6.21v.63h-2.52v-.63c0-2.89-1.35-4.11-3.66-4.11-2.94,0-4.08,1.55-4.08,3.78,0,1.56.51,2.77,3,3.74l3.66,1.38c3,1.14,4.16,3.24,4.16,5.68,0,3.82-2.19,6.63-6.9,6.63s-6.84-1.89-6.84-6.93v-.71h2.52v.58c0,3.28,1.43,5,4.28,5,2.69,0,4.42-1.51,4.42-4,0-2-.81-3.23-3-4.12Z"/><path class="cls-1" d="M154,337.66c4.91,0,7.68,3.9,7.68,11.64S158.94,361,154,361s-7.69-3.91-7.69-11.67S149.07,337.66,154,337.66Zm0,21.21c2.81,0,5-2.44,5-9.57s-2.18-9.54-5-9.54-5,2.43-5,9.54,2.18,9.57,5,9.57Z"/><path class="cls-1" d="M191.41,356.77h-.08a5.51,5.51,0,0,1-5.47,4.2c-4.91,0-7.13-4-7.13-11.67s2.22-11.64,7.13-11.64a5,5,0,0,1,5.22,3.86h.08v-11h2.52v30h-2.27Zm-5.12,2.1c2.56,0,4.87-1.3,4.87-9.57s-2.31-9.54-4.87-9.54-4.87,1.3-4.87,9.54S183.77,358.87,186.29,358.87Z"/><path class="cls-1" d="M214.14,353.08c-.38,4.74-3,7.89-7.18,7.89-4.71,0-7.49-3.28-7.49-11.67,0-7.74,2.78-11.64,7.69-11.64s7.19,3.4,7.19,10.83v.93H202.16v1.05c0,6.43,2.28,8.4,4.76,8.4,2.64,0,4.28-1.89,4.7-5.79Zm-2.48-5.76c-.08-5.54-1.64-7.56-4.74-7.56s-4.67,2-4.76,7.56Z"/><path class="cls-1" d="M237.41,330.47h3.36l8.86,30h-2.85l-2.44-8.74h-10.5l-2.44,8.74h-2.85Zm6.34,19-4.62-16.88h-.08l-4.62,16.88Z"/><path class="cls-1" d="M267.53,353.08c-.38,4.74-3,7.89-7.1,7.89-4.71,0-7.48-3.28-7.48-11.67,0-7.74,2.77-11.64,7.69-11.64,4.2,0,6.63,2.56,6.89,7.14H265c-.3-3.49-1.68-5-4.37-5s-5,1.68-5,9.58c0,8.4,2.39,9.53,4.75,9.53,2.56,0,4.2-1.89,4.62-5.79Z"/><path class="cls-1" d="M273.32,338.17h2.52v15.7c0,3.62,1.22,5,3.87,5,2.86,0,4.87-2.27,4.87-5.71v-15h2.52v22.3h-2.26v-3.11h-.09A6.28,6.28,0,0,1,279,361c-3.41,0-5.72-1.76-5.72-6Z"/><path class="cls-1" d="M293.61,344.8c0-4.58,2.18-7.14,6.89-7.14s6.3,2.39,6.3,5.92v13.19c0,1.26.42,1.85,1.3,1.85h.72v1.85a3.66,3.66,0,0,1-1.18.25c-2,0-3.23-.46-3.23-2.77v-.78h-.08c-1,2.94-3.28,3.78-5.76,3.78-3.91,0-5.67-2.43-5.67-6.29,0-3,1.34-5.3,4.49-6.19l4.75-1.3c1.77-.5,2.14-.92,2.14-3.52,0-2.87-1.59-3.87-3.86-3.87-3,0-4.29,1.8-4.29,5Zm10.67,3.07h-.08c-.25.75-1.68,1.21-2.69,1.47l-2.11.54c-2.51.68-3.81,2-3.81,4.62s1.34,4.37,3.53,4.37c3.06,0,5.16-2.31,5.16-6.3Z"/><path class="cls-1" d="M327.47,353.08c-.38,4.74-3,7.89-7.1,7.89-4.71,0-7.47-3.28-7.47-11.67,0-7.74,2.76-11.64,7.68-11.64,4.2,0,6.64,2.56,6.89,7.14h-2.53c-.3-3.49-1.68-5-4.37-5s-5,1.68-5,9.58c0,8.4,2.4,9.53,4.75,9.53,2.56,0,4.2-1.89,4.62-5.79Z"/><path class="cls-1" d="M333.27,338.17h2.52v15.7c0,3.62,1.22,5,3.86,5,2.86,0,4.88-2.27,4.88-5.71v-15h2.52v22.3h-2.27v-3.11h-.09a6.26,6.26,0,0,1-5.75,3.61c-3.4,0-5.71-1.76-5.71-6Z"/><path class="cls-1" d="M354.19,330.47h2.52v30h-2.52Z"/><path class="cls-1" d="M364.77,340.26h-3.06v-2.09h3.06V332h2.52v6.18h3.95v2.09h-3.95v16c0,1.77.76,2.36,2.4,2.36a5.4,5.4,0,0,0,1.55-.25v2.1a4.21,4.21,0,0,1-1.76.25c-3.41,0-4.71-.92-4.71-3.9Z"/><path class="cls-1" d="M376.07,338.17h2.52v15.7c0,3.62,1.22,5,3.87,5,2.86,0,4.87-2.27,4.87-5.71v-15h2.52v22.3h-2.27v-3.11h-.08a6.29,6.29,0,0,1-5.72,3.61c-3.4,0-5.71-1.76-5.71-6Z"/><path class="cls-1" d="M396.82,338.17h2.52v3.48h.09a5.9,5.9,0,0,1,5.63-4,3.28,3.28,0,0,1,.88.12v2.52a6.24,6.24,0,0,0-1.22-.13c-2.77,0-5.38,2-5.38,6.35v14h-2.52Z"/><path class="cls-1" d="M410.14,344.8c0-4.58,2.18-7.14,6.89-7.14s6.3,2.39,6.3,5.92v13.19c0,1.26.42,1.85,1.3,1.85h.71v1.85a3.6,3.6,0,0,1-1.17.25c-2,0-3.24-.46-3.24-2.77v-.78h-.08c-1,2.94-3.28,3.78-5.75,3.78-3.91,0-5.68-2.43-5.68-6.29,0-3,1.35-5.3,4.5-6.19l4.75-1.34c1.76-.5,2.14-.92,2.14-3.52,0-2.87-1.6-3.87-3.87-3.87-3,0-4.28,1.8-4.28,5Zm10.67,3.07h-.09c-.25.75-1.68,1.21-2.69,1.47l-2.09.54c-2.52.68-3.83,2-3.83,4.62s1.35,4.37,3.53,4.37c3.07,0,5.17-2.31,5.17-6.3Z"/><path class="cls-1" d="M454.54,356.77h-.08A5.51,5.51,0,0,1,449,361c-4.91,0-7.13-4-7.13-11.67s2.22-11.64,7.13-11.64a5,5,0,0,1,5.21,3.86h.09v-11h2.51v30h-2.26Zm-5.13,2.1c2.57,0,4.88-1.3,4.88-9.57s-2.31-9.54-4.88-9.54-4.87,1.3-4.87,9.54S446.94,358.87,449.41,358.87Z"/><path class="cls-1" d="M477.26,353.08c-.38,4.74-3,7.89-7.18,7.89-4.71,0-7.48-3.28-7.48-11.67,0-7.74,2.77-11.64,7.69-11.64s7.18,3.4,7.18,10.83v.93H465.29v1.05c0,6.43,2.27,8.4,4.75,8.4,2.65,0,4.29-1.89,4.7-5.79Zm-2.47-5.76c-.08-5.54-1.64-7.56-4.75-7.56s-4.67,2-4.75,7.56Z"/><path class="cls-1" d="M513.85,350.3c-.38,6.85-3.53,10.67-8.9,10.67-6.13,0-9.58-4.74-9.58-15.5S498.82,330,505,330s8.61,4.32,8.61,9.24h-2.69c0-4.08-2.06-7-5.92-7-4.29,0-6.89,3.53-6.89,13.23s2.6,13.23,6.89,13.23c3.78,0,5.92-3.23,6.22-8.4Z"/><path class="cls-1" d="M519.14,344.8c0-4.58,2.19-7.14,6.9-7.14s6.29,2.39,6.29,5.92v13.19c0,1.26.43,1.85,1.31,1.85h.71v1.85a3.6,3.6,0,0,1-1.17.25c-2,0-3.24-.46-3.24-2.77v-.78h-.08c-1,2.94-3.28,3.78-5.76,3.78-3.9,0-5.67-2.43-5.67-6.29,0-3,1.35-5.3,4.5-6.19l4.74-1.34c1.76-.5,2.15-.92,2.15-3.52,0-2.87-1.6-3.87-3.87-3.87-3,0-4.29,1.8-4.29,5Zm10.68,3.07h-.09c-.25.75-1.68,1.21-2.69,1.47l-2.1.54c-2.52.68-3.82,2-3.82,4.62s1.34,4.37,3.53,4.37c3.06,0,5.17-2.31,5.17-6.3Z"/><path class="cls-1" d="M539.77,338.17H542v3.1h.08a5.91,5.91,0,0,1,5.67-3.61,4.39,4.39,0,0,1,4.66,3.9h.09a5.7,5.7,0,0,1,5.67-3.9c3.11,0,5.17,1.76,5.17,5.75v17.06h-2.52V343.79c0-2.65-1.22-4-3.49-4-2.53,0-4.53,2.27-4.53,5.71v15h-2.53V343.79c0-2.65-1.22-4-3.49-4-2.51,0-4.53,2.27-4.53,5.71v15h-2.52Z"/><path class="cls-1" d="M570.05,344.8c0-4.58,2.19-7.14,6.9-7.14s6.3,2.39,6.3,5.92v13.19c0,1.26.41,1.85,1.3,1.85h.71v1.85a3.6,3.6,0,0,1-1.17.25c-2,0-3.24-.46-3.24-2.77v-.78h-.08c-1,2.94-3.28,3.78-5.76,3.78-3.91,0-5.67-2.43-5.67-6.29,0-3,1.34-5.3,4.49-6.19l4.75-1.34c1.77-.5,2.15-.92,2.15-3.52,0-2.87-1.61-3.87-3.87-3.87-3,0-4.28,1.8-4.28,5Zm10.68,3.07h-.09c-.25.75-1.68,1.21-2.69,1.47l-2.09.54c-2.53.68-3.83,2-3.83,4.62s1.35,4.37,3.53,4.37c3.07,0,5.17-2.31,5.17-6.3Z"/><path class="cls-1" d="M590.51,338.17H593v3.48h.09a5.88,5.88,0,0,1,5.62-4,3.35,3.35,0,0,1,.89.12v2.52a6.24,6.24,0,0,0-1.22-.13c-2.77,0-5.38,2-5.38,6.35v14h-2.52Z"/><path class="cls-1" d="M610.8,337.66c4.92,0,7.69,3.9,7.69,11.64S615.72,361,610.8,361s-7.69-3.91-7.69-11.67S605.94,337.66,610.8,337.66Zm0,21.21c2.82,0,5-2.44,5-9.57s-2.18-9.54-5-9.54-5,2.43-5,9.54,2.19,9.57,5,9.57Zm4.33-29.4L611,335.39h-2l3.15-5.92Z"/><path class="cls-1" d="M624.29,338.17h2.26v3.1h.09a6.25,6.25,0,0,1,5.71-3.61c3.4,0,5.72,1.76,5.72,6v16.81h-2.53V344.34c0-3.07-1.25-4.58-3.82-4.58-2.94,0-4.91,2.27-4.91,5.71v15h-2.52Z"/><path class="cls-1" d="M200.63,316.93l13.94-91V163.08H198.31v95.84l-26.59-95.84H154.26V318.44h16.47V223.79l28.37,94.65h1.46A6.92,6.92,0,0,1,200.63,316.93Z"/><path class="cls-1" d="M270.75,318H253.09l-2.57-19.24h-22L226.14,318H207.46l23.81-155.34h16.07Zm-22.22-35.52-8.93-68-9.13,68Z"/><path class="cls-1" d="M332.72,290.59c0,19.26-13.3,30.16-30.16,30.16-16.47,0-30.15-11.11-30.15-30.16V190.17c0-20.63,13.68-30.16,30.15-30.16,16.86,0,30.16,11.9,30.16,30.16v5.15H315.26v-5.15c0-8.73-5.76-12.69-12.7-12.69-7.14,0-12.7,4-12.7,12.69V290.59a12.7,12.7,0,0,0,25.4,0v-2l17.46-5.75Z"/><path class="cls-1" d="M399.73,290.59c0,18.46-13.29,30.16-30.16,30.16-16.46,0-30.15-11.7-30.15-30.16v-128h17.45v128c0,8.93,5.56,12.69,12.7,12.69,6.95,0,12.69-3.76,12.69-12.69v-128h17.47Z"/><path class="cls-1" d="M467.37,318H449.72l-2.57-19.24h-22L422.77,318H404.09l23.85-155.34h16Zm-22.21-35.52-8.92-68-9.13,68Z"/><path class="cls-1" d="M487.79,105.76a18.84,18.84,0,0,1,12.06,9.59l39.7-15.1C522.94,101.85,505.38,103.74,487.79,105.76Z"/><path class="cls-1" d="M464.53,120.38a18.78,18.78,0,0,1,9.72-13c-75.15,8.89-147,19.43-147,19.43l17-9.09c-15.37.8-69.64,10.1-69.64,10.1l21.1-11.16c-24.15-3.17-70.5,6.64-70.5,6.64l20.34-11.08c-15.34.8-68.11,13.58-68.11,13.58l19.5-9.58c-32.95-1-116,18.34-116,18.34C35,131,9.22,152.17,9.22,152.17L0,159c51.42-21.57,68.62-8.89,80.65-8.77,0,0,54-21.38,83.93-20.39l-20.5,14s51.2-16.74,65.15-17.4l-22.9,13.7s47.81-14.84,69.75-11.87l-26.45,13s56.7-12.33,70.66-13l-22.35,15.34S382.58,128.68,464.53,120.38Z"/><path class="cls-1" d="M464.35,126.59l-29.41,12.64s12.27-1,32.71-4.23A18.8,18.8,0,0,1,464.35,126.59Z"/><path class="cls-1" d="M632.67,86.17c-90.64,25.74-121.38,31-131.81,31.6a18.13,18.13,0,0,1,.5,11.09c15.32-3.17,32.61-7.24,51.17-12.45a433.84,433.84,0,0,1-53.71,33.76C565.84,130.71,632.67,86.17,632.67,86.17Z"/><path class="cls-1" d="M496.47,122.46a13.5,13.5,0,1,1-15-11.82,13.5,13.5,0,0,1,15,11.82Z"/><path class="cls-1" d="M574.15,146.38a373.62,373.62,0,0,1-51.45-3.71,2.69,2.69,0,1,1,.84-5.32c1.07.16,106.89,16.42,133.28-21.43,9.73-14,7.36-34.08-7-59.81C624.94,11.73,568,4.17,524.6,5.57c-50.77,1.69-112.66,17-165.66,40.83C300.58,72.7,227.75,96.66,156.08,96.66,107,96.66,58.44,85.42,15.46,56a2.69,2.69,0,0,1,2.6-4.71,2.8,2.8,0,0,1,.4.27c103.66,71,241.14,33.69,338.22-10.06C410.28,17.33,472.94,1.89,524.42.17,588.83-2,633.8,16.46,654.49,53.47c15.45,27.7,17.76,49.7,6.75,65.53-12,17.21-39.08,26.39-80.48,27.31C578.54,146.36,576.33,146.38,574.15,146.38Z"/><path class="cls-1" d="M524.59,142.11a2.7,2.7,0,0,1-.14-5.39c1.24-.07,124.73-7.4,149.71-52.68,6.58-11.92,5.59-25.75-2.94-41.11-14.61-26.3-35.94-36.87-67.1-33.25-28.1,3.25-60.93,17.86-92.68,32C484.2,53.8,456,66.34,430.44,71.94c-71,15.56-145.5,13-195.5,8.23C175.06,74.36,126.5,63.25,103.1,55.5a2.69,2.69,0,0,1,1.7-5.11c25,8.27,75,19,130.66,24.42C285,79.62,358.93,82.12,429.3,66.7c25-5.48,52.93-17.9,79.93-29.92,64.92-28.89,132-58.77,166.68,3.56,9.5,17.09,10.49,32.68,3,46.34-11.17,20.25-40.61,35.74-87.5,46a475.11,475.11,0,0,1-66.64,9.42Z"/><rect class="cls-1" x="481.63" y="164.5" width="3.96" height="157.53"/><path class="cls-1" d="M559.56,317.41H542.13V187.69H530.05V173.43c7.92,0,12.08-3.77,12.08-11.09h17.43Z"/><path class="cls-1" d="M512.65,156.79h5l-1.78,45c-.2,7.72-4.16,10.89-8.32,10.89-4.36,0-9.31-4-9.31-10.89a18.65,18.65,0,0,1,1.19-6.14Z"/><path class="cls-1" d="M635.31,288.92A33.24,33.24,0,0,1,633,301.46a27.5,27.5,0,0,1-6.22,9.48,27,27,0,0,1-9.48,5.92,34.1,34.1,0,0,1-12,2.08q-13.23,0-21.62-8t-8.39-22v-5.13H592.7v5.13a12.64,12.64,0,0,0,21.52,9,12.08,12.08,0,0,0,3.75-9V259.51a27.6,27.6,0,0,1-5.72,3.06,26.85,26.85,0,0,1-10.31,1.68,25.59,25.59,0,0,1-9.77-2,25.2,25.2,0,0,1-8.59-5.82,29.08,29.08,0,0,1-6-9.38,33.51,33.51,0,0,1-2.27-12.83V189a30.17,30.17,0,0,1,2.27-11.64,28.61,28.61,0,0,1,6.32-9.58A30.17,30.17,0,0,1,605.32,159a28.71,28.71,0,0,1,11.55,2.37,31.74,31.74,0,0,1,9.57,6.42A29.75,29.75,0,0,1,635.33,189ZM617.94,189a12.64,12.64,0,0,0-21.63-8.85,12.32,12.32,0,0,0-3.65,8.88v45.22A12.47,12.47,0,0,0,605,246.9h.33a11.52,11.52,0,0,0,9.28-4,14.46,14.46,0,0,0,3.35-9.67Z"/></svg>