<svg xmlns="http://www.w3.org/2000/svg" width="48" height="48" viewBox="0 0 24 24">
  <metadata><?xpacket begin="﻿" id="W5M0MpCehiHzreSzNTczkc9d"?>
<x:xmpmeta xmlns:x="adobe:ns:meta/" x:xmptk="Adobe XMP Core 5.6-c140 79.160451, 2017/05/06-01:08:21        ">
   <rdf:RDF xmlns:rdf="http://www.w3.org/1999/02/22-rdf-syntax-ns#">
      <rdf:Description rdf:about=""/>
   </rdf:RDF>
</x:xmpmeta>
                                                                                                    
                                                                                                    
                                                                                                    
                                                                                                    
                                                                                                    
                                                                                                    
                                                                                                    
                                                                                                    
                                                                                                    
                                                                                                    
                                                                                                    
                                                                                                    
                                                                                                    
                                                                                                    
                                                                                                    
                                                                                                    
                                                                                                    
                                                                                                    
                                                                                                    
                                                                                                    
                           
<?xpacket end="w"?></metadata>
<defs>
    <style>
      .cls-1 {
        fill: #fff;
        fill-rule: evenodd;
      }
    </style>
  </defs>
  <path id="Instagram_Icono" data-name="Instagram Icono" class="cls-1" d="M1106.85,41h-9.7a7.16,7.16,0,0,0-7.15,7.15v9.7a7.16,7.16,0,0,0,7.15,7.15h9.7a7.16,7.16,0,0,0,7.15-7.15v-9.7A7.16,7.16,0,0,0,1106.85,41Zm4.74,16.851a4.736,4.736,0,0,1-4.74,4.735h-9.7a4.736,4.736,0,0,1-4.74-4.735v-9.7a4.736,4.736,0,0,1,4.74-4.735h9.7a4.736,4.736,0,0,1,4.74,4.735v9.7h0ZM1102,46.793A6.207,6.207,0,1,0,1108.21,53,6.218,6.218,0,0,0,1102,46.793Zm0,10A3.793,3.793,0,1,1,1105.79,53,3.794,3.794,0,0,1,1102,56.793Zm6.22-11.441a1.487,1.487,0,1,1-1.49,1.487A1.49,1.49,0,0,1,1108.22,45.352Z" transform="translate(-1090 -41)"/>
</svg>
