<svg xmlns="http://www.w3.org/2000/svg" width="54" height="34" viewBox="0 0 27 17">
  <metadata><?xpacket begin="﻿" id="W5M0MpCehiHzreSzNTczkc9d"?>
<x:xmpmeta xmlns:x="adobe:ns:meta/" x:xmptk="Adobe XMP Core 5.6-c140 79.160451, 2017/05/06-01:08:21        ">
   <rdf:RDF xmlns:rdf="http://www.w3.org/1999/02/22-rdf-syntax-ns#">
      <rdf:Description rdf:about=""/>
   </rdf:RDF>
</x:xmpmeta>
                                                                                                    
                                                                                                    
                                                                                                    
                                                                                                    
                                                                                                    
                                                                                                    
                                                                                                    
                                                                                                    
                                                                                                    
                                                                                                    
                                                                                                    
                                                                                                    
                                                                                                    
                                                                                                    
                                                                                                    
                                                                                                    
                                                                                                    
                                                                                                    
                                                                                                    
                                                                                                    
                           
<?xpacket end="w"?></metadata>
<defs>
    <style>
      .cls-1 {
        fill: #fff;
        fill-rule: evenodd;
      }
    </style>
  </defs>
  <path id="Mail_Icono" data-name="Mail Icono" class="cls-1" d="M1163.98,45a1.95,1.95,0,0,0-1.05.306l11.69,9.818a1.356,1.356,0,0,0,1.79,0l11.66-9.818a1.95,1.95,0,0,0-1.05-.306h-23.04Zm-1.87,1.318a1.959,1.959,0,0,0-.11.644V60.038a1.935,1.935,0,0,0,.32,1.063l8.36-7.57Zm26.78,0-8.55,7.2,8.34,7.581a1.935,1.935,0,0,0,.32-1.063V46.962A1.959,1.959,0,0,0,1188.89,46.318Zm-9.56,8.061-2.08,1.747a2.717,2.717,0,0,1-3.49,0l-2.07-1.737-8.3,7.519a1.954,1.954,0,0,0,.59.092h23.04a1.954,1.954,0,0,0,.59-0.092Z" transform="translate(-1162 -45)"/>
</svg>
