<svg id="Capa_1" data-name="Capa 1" xmlns="http://www.w3.org/2000/svg" viewBox="0 0 55 88.82"><defs><style>.cls-1{fill:#2e4e96;}.cls-2{fill:#fff;}</style></defs><title>Mapa_icono</title><path class="cls-1" d="M55,27.5c0,15.19-27.5,61.32-27.5,61.32S0,42.69,0,27.5a27.5,27.5,0,0,1,55,0Z"/><path class="cls-2" d="M9.78,35.61a1.89,1.89,0,0,1-2,2,1.9,1.9,0,0,1-2-2V29a1.85,1.85,0,0,1,2-2,1.92,1.92,0,0,1,2,2v.35H8.63V29a.78.78,0,0,0-.85-.84.78.78,0,0,0-.84.84v6.65a.85.85,0,1,0,1.69,0v-.13l1.15-.38Z"/><path class="cls-2" d="M14.54,35.61a2,2,0,1,1-4,0V29a1.9,1.9,0,0,1,2-2,1.89,1.89,0,0,1,2,2ZM13.39,29a.82.82,0,0,0-.85-.84.8.8,0,0,0-.84.84v6.65a.8.8,0,0,0,.84.85.81.81,0,0,0,.85-.85Z"/><path class="cls-2" d="M18.14,37.33l.92-6V27.14H18v6.35l-1.76-6.35H15.06V37.43h1.1V31.16L18,37.43h.09A.34.34,0,0,1,18.14,37.33Z"/><path class="cls-2" d="M22.78,37.4H21.61l-.17-1.28H20l-.15,1.28H18.59l1.58-10.29h1.06Zm-1.47-2.35-.59-4.51-.61,4.51Z"/><path class="cls-2" d="M26.89,35.58a1.89,1.89,0,0,1-2,2,1.91,1.91,0,0,1-2-2V28.93a1.85,1.85,0,0,1,2-2,1.92,1.92,0,0,1,2,2v.34H25.73v-.34a.84.84,0,0,0-1.68,0v6.65a.84.84,0,1,0,1.68,0v-.13l1.16-.38Z"/><path class="cls-2" d="M31.33,35.58a2,2,0,0,1-4,0V27.11h1.16v8.47a.84.84,0,1,0,1.68,0V27.11h1.16Z"/><path class="cls-2" d="M35.81,37.4H34.64l-.17-1.28H33l-.16,1.28H31.62L33.2,27.11h1.06Zm-1.47-2.35-.59-4.51-.61,4.51Z"/><path class="cls-2" d="M37.16,23.34A1.24,1.24,0,0,1,38,24l2.63-1C39.49,23.08,38.33,23.2,37.16,23.34Z"/><path class="cls-2" d="M35.62,24.31a1.32,1.32,0,0,1,.65-.87c-5,.59-9.75,1.29-9.75,1.29l1.13-.6c-1,.05-4.61.67-4.61.67l1.4-.74a19.31,19.31,0,0,0-4.68.44l1.35-.74c-1,.06-4.51.9-4.51.9L17.89,24a48.17,48.17,0,0,0-7.68,1.22,7,7,0,0,0-4.75,1.17l-.62.46a7.45,7.45,0,0,1,5.35-.58s3.58-1.42,5.56-1.36l-1.36.93a32.48,32.48,0,0,1,4.32-1.15l-1.52.91s3.17-1,4.62-.79l-1.75.86s3.76-.81,4.68-.86l-1.48,1S30.19,24.86,35.62,24.31Z"/><path class="cls-2" d="M35.61,24.72l-2,.84s.82-.07,2.17-.28A1.37,1.37,0,0,1,35.61,24.72Z"/><path class="cls-2" d="M46.76,22c-6,1.7-8,2.05-8.73,2.09a1.31,1.31,0,0,1,.06.27,1.23,1.23,0,0,1,0,.47c1-.21,2.16-.48,3.39-.83a28.54,28.54,0,0,1-3.56,2.24A37.65,37.65,0,0,0,46.76,22Z"/><path class="cls-2" d="M37.74,24.44a.9.9,0,1,1-1-.78A.89.89,0,0,1,37.74,24.44Z"/><path class="cls-2" d="M42.89,26a22.8,22.8,0,0,1-3.41-.25.17.17,0,0,1-.15-.2.18.18,0,0,1,.2-.15c.07,0,7.08,1.09,8.83-1.42.65-.92.49-2.26-.46-4-1.65-2.94-5.42-3.45-8.3-3.35a30.66,30.66,0,0,0-11,2.71,34.09,34.09,0,0,1-13.44,3.33A16.13,16.13,0,0,1,5.87,20a.18.18,0,1,1,.2-.29c6.87,4.7,16,2.23,22.41-.67a31.33,31.33,0,0,1,11.11-2.74c4.27-.14,7.25,1.08,8.62,3.53,1,1.84,1.18,3.3.45,4.35S46.07,26,43.32,26Z"/><path class="cls-2" d="M39.6,25.75a.19.19,0,0,1-.18-.17.18.18,0,0,1,.17-.19c.08,0,8.27-.49,9.92-3.49a2.69,2.69,0,0,0-.19-2.72A4,4,0,0,0,44.87,17a23.77,23.77,0,0,0-6.14,2.12,29.29,29.29,0,0,1-5.36,2,43.4,43.4,0,0,1-13,.54A44.26,44.26,0,0,1,11.68,20a.18.18,0,0,1-.12-.23.19.19,0,0,1,.23-.11,44.86,44.86,0,0,0,8.66,1.62,43.26,43.26,0,0,0,12.84-.54,29.89,29.89,0,0,0,5.3-2c4.3-1.92,8.74-3.9,11,.23a3,3,0,0,1,.19,3.07c-.74,1.34-2.69,2.37-5.79,3.05a34.26,34.26,0,0,1-4.42.63Z"/><rect class="cls-2" x="36.76" y="27.23" width="0.26" height="10.44"/><path class="cls-2" d="M41.92,37.36H40.76V28.77H40v-.95c.53,0,.8-.25.8-.73h1.16Z"/><path class="cls-2" d="M38.81,26.72h.33l-.12,3c0,.51-.27.72-.55.72a.67.67,0,0,1-.62-.72,1.34,1.34,0,0,1,.08-.41Z"/><path class="cls-2" d="M46.94,35.47a2.16,2.16,0,0,1-.15.83,1.86,1.86,0,0,1-.41.63,2.05,2.05,0,0,1-.63.4,2.32,2.32,0,0,1-.8.13,2,2,0,0,1-1.43-.53A1.92,1.92,0,0,1,43,35.47v-.34h1.15v.34a.81.81,0,0,0,.24.6.85.85,0,0,0,1.44-.6V33.53a2.48,2.48,0,0,1-.38.2,1.86,1.86,0,0,1-.68.11,1.64,1.64,0,0,1-.65-.13,1.81,1.81,0,0,1-1-1,2.22,2.22,0,0,1-.15-.85v-3a2,2,0,0,1,.15-.77,1.93,1.93,0,0,1,.42-.63,2.13,2.13,0,0,1,.63-.43,2.09,2.09,0,0,1,.79-.15,1.94,1.94,0,0,1,.76.15,2.18,2.18,0,0,1,.64.43,2,2,0,0,1,.43.63,1.87,1.87,0,0,1,.16.77Zm-1.15-6.62a.81.81,0,0,0-.25-.58.84.84,0,0,0-1.43.58v3a.82.82,0,0,0,.84.84.76.76,0,0,0,.61-.26,1,1,0,0,0,.23-.64Z"/></svg>