<?xml version="1.0" encoding="utf-8"?>
<!-- Generator: Adobe Illustrator 22.1.0, SVG Export Plug-In . SVG Version: 6.00 Build 0)  -->
<svg version="1.1" id="Capa_1" xmlns="http://www.w3.org/2000/svg" xmlns:xlink="http://www.w3.org/1999/xlink" x="0px" y="0px"
	 viewBox="0 0 44 43.9" style="enable-background:new 0 0 44 43.9;" xml:space="preserve">
<style type="text/css">
	.st0{fill:#2E4E96;}
</style>
<path id="Forma_15" class="st0" d="M39.6,21.9c-0.1,9.7-8,17.6-17.7,17.5c-9.7-0.1-17.6-8-17.5-17.7c0.1-9.7,8-17.6,17.7-17.5
	c1.6,0,3.2,0.2,4.7,0.7l3.5-3.5C15.5-3.6,0,5.5,0,21.9c0,12.2,9.8,22,22,22s22-9.8,22-22H39.6z M42.7,9.7l-21.9,22
	c-4-3.6-7.6-7.6-11.4-11.4l4.3-4.4l7.1,7L38.3,5.3L42.7,9.7z"/>
</svg>
