<?xml version="1.0" encoding="utf-8"?>
<!-- Generator: Adobe Illustrator 22.1.0, SVG Export Plug-In . SVG Version: 6.00 Build 0)  -->
<svg version="1.1" id="Capa_1" xmlns="http://www.w3.org/2000/svg" xmlns:xlink="http://www.w3.org/1999/xlink" x="0px" y="0px"
	 viewBox="0 0 117 155" style="enable-background:new 0 0 117 155;" xml:space="preserve">
<style type="text/css">
	.st0{fill:#54A3B7;}
</style>
<path id="Hoteles_icono" class="st0" d="M33.2,58.8h-1.5c-3.8,0-7,3.1-7,7v11.6h4.7V65.8c0-1.3,1-2.3,2.3-2.3h1.5
	c1.3,0,2.3,1,2.3,2.3v11.6h4.6V65.8C40.2,61.9,37.1,58.8,33.2,58.8z M33.2,110h-1.5c-3.9,0-7,3.1-7,7v11.6h4.7V117
	c0-1.3,1-2.3,2.3-2.3h1.5c1.3,0,2.3,1,2.3,2.3c0,0,0,0,0,0v11.6h4.6V117C40.2,113.1,37.1,110,33.2,110z M33.2,83.6h-1.5
	c-3.9,0-7,3.1-7,7v11.6h4.7V90.6c0-1.3,1-2.3,2.3-2.3c0,0,0,0,0,0h1.5c1.3,0,2.3,1,2.3,2.3c0,0,0,0,0,0v11.6h4.6V90.6
	C40.2,86.8,37.1,83.6,33.2,83.6z M56.5,58.8h-1.5c-3.9,0-7,3.1-7,7v11.6h4.6V65.8c0-1.3,1-2.3,2.3-2.3h1.5c1.3,0,2.3,1,2.3,2.3v11.6
	h4.7V65.8C63.4,61.9,60.3,58.8,56.5,58.8L56.5,58.8z M56.5,83.6h-1.5c-3.9,0-7,3.1-7,7v11.6h4.6V90.6c0-1.3,1-2.3,2.3-2.3
	c0,0,0,0,0,0h1.5c1.3,0,2.3,1,2.3,2.3c0,0,0,0,0,0v11.6h4.7V90.6C63.4,86.8,60.3,83.6,56.5,83.6z M11.5,36.1l7.1,3l-0.7-7.7l5.1-5.8
	l-7.5-1.7l-4-6.6l-4,6.6L0,25.6l5.1,5.8l-0.7,7.7L11.5,36.1z M10.5,28l1-1.7l1,1.7l1.9,0.4l-1.3,1.4l0.2,1.9L11.5,31l-1.8,0.8
	l0.2-1.9l-1.3-1.4L10.5,28z M24.9,26.2l7.1-3.1l3.5,1.5l3.6,1.4l-0.7-7.6l5.1-5.8L36,11L32,4.4L28,11l-7.5,1.7l5.1,5.8L24.9,26.2z
	 M31,15.1l1-1.7l1,1.7l1.9,0.4L33.6,17l0.2,1.9L32,18.1l-1.8,0.8l0.2-1.9l-1.3-1.4L31,15.1z M48.7,21.9l7.1-3.1l7.1,3.1l-0.7-7.7
	l5-5.8l-7.4-1.7L55.8,0l-4,6.6l-7.5,1.7l5.1,5.8L48.7,21.9z M54.9,10.8l1-1.6l1,1.6l1.9,0.4l-1.3,1.4l0.2,1.9l-1.8-0.8l-1.8,0.8
	l0.2-1.9L53,11.2L54.9,10.8z M72.5,26.7l7.1-3.1l7.1,3.1L86,19l5.1-5.8l-7.5-1.7l-3.9-6.6l-3.9,6.6l-7.5,1.7l5.1,5.8L72.5,26.7z
	 M78.6,15.5l1-1.6l1,1.6l1.9,0.4l-1.3,1.4l0.2,1.9l-1.8-0.8l-1.8,0.8l0.2-1.9L76.7,16L78.6,15.5z M93.5,32.2l-0.7,7.7l7.1-3.1
	l7.1,3.1l-0.7-7.7l5.1-5.8l-7.6-1.7L99.9,18l-3.9,6.7l-7.6,1.7L93.5,32.2z M98.9,28.8l1-1.6l1,1.6l1.9,0.4l-1.3,1.4l0.2,1.9
	l-1.8-0.8l-1.8,0.8l0.2-1.9L97,29.2L98.9,28.8z M95.9,76.1V54.2h6.2v-4.7H88.2V37.1h3.1v-4.6H20.1v4.6h3.1v12.4H9.2v4.7h6.2V141H4.6
	v4.6h80.5c5,9.3,7,9.3,7.8,9.3c1.2,0,4.4,0,14.4-23.2c2.3-5.3,9.7-23.4,9.7-31.8C117,87.9,108,77.6,95.9,76.1L95.9,76.1z M27.8,37.1
	h55.7v12.4H27.8V37.1z M49.5,141v-27.9h13.9V141H49.5z M68.1,141v-32.6H44.8V141H20.1V54.2h71.2V76c-1.6,0.1-3.1,0.4-4.7,0.8v-11
	c0-3.8-3.1-7-7-7h-1.5c-3.8,0-7,3.1-7,7v11.6h4.6V65.8c0-1.3,1-2.3,2.3-2.3h1.5c1.3,0,2.3,1,2.3,2.3v11.6h2.6
	c-9.4,3.5-15.7,12.5-15.7,22.6c0,8.4,7.4,26.4,9.7,31.8c1.6,3.6,2.9,6.7,4.2,9.2H68.1z M92.9,149.7c-5-6.1-19.4-39.4-19.4-49.7
	c0-10.7,8.7-19.4,19.4-19.4c10.7,0,19.4,8.7,19.4,19.4c0,0,0,0,0,0C112.3,110.3,97.9,143.6,92.9,149.7z M92.9,88.6
	c-6.3,0-11.4,5.1-11.4,11.4c0,6.3,5.1,11.4,11.4,11.4c6.3,0,11.4-5.1,11.4-11.4c0,0,0,0,0,0C104.3,93.7,99.2,88.6,92.9,88.6
	L92.9,88.6z M92.9,106.8c-3.7,0-6.8-3-6.8-6.7s3-6.8,6.7-6.8s6.8,3,6.8,6.7c0,0,0,0,0,0C99.6,103.7,96.6,106.8,92.9,106.8z"/>
</svg>
