<?xml version="1.0" encoding="utf-8"?>
<!-- Generator: Adobe Illustrator 22.1.0, SVG Export Plug-In . SVG Version: 6.00 Build 0)  -->
<svg version="1.1" id="Capa_1" xmlns="http://www.w3.org/2000/svg" xmlns:xlink="http://www.w3.org/1999/xlink" x="0px" y="0px"
	 viewBox="0 0 134 134" style="enable-background:new 0 0 134 134;" xml:space="preserve">
<style type="text/css">
	.st0{fill:#53A2B7;}
</style>
<path id="Mapa_Icono" class="st0" d="M4.5,0C3.3,0,2.2,0.5,1.4,1.3C0.5,2.3,0,3.6,0,4.9v109.9c0,1.3,0.7,2.6,1.7,3.4
	c0.7,0.6,1.6,1,2.5,1.2l40.6,14.4c0.5,0.2,1.1,0.2,1.7,0l42.2-16.4l39.5,16.4c1.6,0.5,3.3,0.1,4.4-1.1c0.9-0.9,1.4-2.2,1.4-3.5v-110
	c0-1.3-0.7-2.5-1.7-3.4c-0.7-0.6-1.6-1-2.5-1.3L89.4,0.2c-0.3-0.1-0.6-0.2-1-0.1c-0.2,0-0.4,0.1-0.6,0.1L45.5,14.3L43,13.4
	c0.1-0.4,0.1-0.9,0.1-1.3c0-6.6-5.3-12-11.9-12c-4.1,0-8,2.1-10.2,5.6L5.7,0.2C5.3,0.1,4.9,0,4.5,0z M31.1,4.9c4,0,7.2,3.2,7.2,7.2
	c0,0,0,0,0,0.1c0,2.5-2.1,6.9-4.4,10.4c-0.8,1.3-1.8,2.6-2.8,3.8c-1-1.2-1.9-2.4-2.8-3.8c-2.3-3.5-4.4-8-4.4-10.4
	C23.9,8.1,27.1,4.9,31.1,4.9C31.1,4.9,31.1,4.9,31.1,4.9L31.1,4.9z M4.8,5l14.6,5.1c-0.1,0.7-0.2,1.3-0.2,2c0,4.6,2.7,9.3,5.2,13.1
	c1.5,2.3,3.2,4.6,5,6.7c0.9,1,2.4,1.1,3.4,0.2c0.1-0.1,0.2-0.1,0.2-0.2c1.8-2.1,3.5-4.3,5-6.7c1.5-2.2,2.8-4.6,3.9-7.1l2.9,1
	c0.5,0.2,1,0.2,1.6,0L88.6,5l39.7,14.1c0.3,0.1,0.6,0.3,0.9,0.4V129l-39.7-16.4c-0.6-0.2-1.2-0.2-1.8,0L45.5,129l-39.7-14
	c-0.3-0.1-0.6-0.2-0.9-0.4V5L4.8,5z M31.1,9.6c-1.3,0-2.4,1.1-2.4,2.4c0,1.3,1.1,2.4,2.4,2.4c1.3,0,2.4-1.1,2.4-2.4
	C33.5,10.7,32.5,9.6,31.1,9.6L31.1,9.6z M43.6,24l-1,4.7l4.7,1.1l1-4.7L43.6,24z M57.7,27.6l-1.4,4.6c1.5,0.4,2.9,0.9,4.3,1.4l2-4.4
	C61,28.6,59.4,28.1,57.7,27.6L57.7,27.6z M71.4,33.6l-2.6,4c1.3,0.7,2.4,1.6,3.4,2.7l3.3-3.5C74.3,35.6,72.9,34.5,71.4,33.6
	L71.4,33.6z M74.6,46.4c-0.3,1.3-0.8,2.5-1.7,3.5l3.9,2.8c1.2-1.4,2.1-3.1,2.4-5L74.6,46.4z M66.6,55.9l-4,2.6l2.6,4l4-2.6
	L66.6,55.9z M54.5,63.6c-1.4,0.9-2.8,1.8-4.1,2.9l2.9,3.8c1.2-1,2.4-1.9,3.7-2.6L54.5,63.6z M43,72.8c-1.2,1.2-2.3,2.5-3.3,3.9
	l3.8,2.9c0.9-1.2,1.8-2.3,2.8-3.4L43,72.8z M110.2,82.2c-6.6,0-12,5.4-12,12c0,4.6,2.7,9.3,5.2,13.1c1.5,2.3,3.2,4.6,5,6.7
	c0.9,1,2.4,1.1,3.4,0.2c0.1-0.1,0.2-0.1,0.2-0.2c1.8-2.1,3.5-4.4,5-6.7c2.5-3.8,5.2-8.4,5.2-13.1C122.1,87.6,116.8,82.2,110.2,82.2
	L110.2,82.2z M40.6,86.5l-4.7,0.9c0.1,1.9,0.7,3.7,1.8,5.3l4.1-2.5C41.1,89.1,40.7,87.8,40.6,86.5L40.6,86.5z M110.2,87
	c4,0,7.2,3.2,7.2,7.2c0,0,0,0,0,0.1c0,2.5-2.1,6.9-4.4,10.4c-0.8,1.3-1.8,2.6-2.8,3.8c-1-1.2-1.9-2.4-2.8-3.8
	c-2.3-3.5-4.4-8-4.4-10.4C102.9,90.3,106.1,87,110.2,87C110.1,87,110.1,87,110.2,87L110.2,87z M110.2,91.8c-1.3,0-2.4,1.1-2.4,2.4
	c0,1.3,1.1,2.4,2.4,2.4s2.4-1.1,2.4-2.4c0,0,0,0,0,0C112.6,92.8,111.5,91.8,110.2,91.8L110.2,91.8z M48,95.6l-2.4,4.1
	c1.5,0.9,3,1.6,4.7,2.1l1.8-4.5C50.7,96.9,49.3,96.3,48,95.6L48,95.6z M60.8,100l-0.9,4.7l4.7,0.9l0.9-4.7L60.8,100z M74.8,102.1
	l-0.5,4.8c1.6,0.2,3.3,0.3,4.9,0.4l0.3-4.8C77.9,102.4,76.4,102.3,74.8,102.1L74.8,102.1z M88.9,102.8l0,4.8l4.8,0l0-4.8L88.9,102.8
	z"/>
</svg>
