<?xml version="1.0" encoding="utf-8"?>
<!-- Generator: Adobe Illustrator 22.1.0, SVG Export Plug-In . SVG Version: 6.00 Build 0)  -->
<svg version="1.1" id="Capa_1" xmlns="http://www.w3.org/2000/svg" xmlns:xlink="http://www.w3.org/1999/xlink" x="0px" y="0px"
	 viewBox="0 0 139 139" style="enable-background:new 0 0 139 139;" xml:space="preserve">
<style type="text/css">
	.st0{fill:#54A3B7;}
</style>
<path id="Programa_icono" class="st0" d="M80.7,35c4.5,2.2,7.3,6.7,7.3,11.7v8.7h4.3v-8.7c0-6-3.1-11.5-8.1-14.7h39.6v36.9h-11.9
	v1.6c0,0.9-0.1,1.8-0.4,2.7h16.7V27.7H85.8C84.7,30.5,83,33,80.7,35z M27.1,70.6V69H15.2V32h39.6c-5,3.2-8.1,8.7-8.1,14.7v8.7H51
	v-8.7c0-5,2.8-9.5,7.3-11.7c-2.3-2-4.1-4.5-5.1-7.3H10.9v45.6h16.7C27.3,72.4,27.1,71.5,27.1,70.6L27.1,70.6z M134.7,0H4.3
	C1.9,0,0,1.9,0,4.3v92.3C0,99,1.9,101,4.3,101h39.9l4.6,34.2c0.3,2.2,2.1,3.8,4.3,3.8h32.6c2.2,0,4-1.6,4.3-3.8l4.6-34.2h39.9
	c2.4,0,4.4-1.9,4.4-4.3c0,0,0,0,0,0V4.3C139,1.9,137.1,0,134.7,0z M85.8,134.6H53.2l-8.1-59.7h48.8L85.8,134.6z M35.8,70.6v-6.5
	h67.3v6.5H35.8z M67.3,46.7c0-2.1,1-3.8,2.2-3.8s2.2,1.7,2.2,3.8s-1,3.8-2.2,3.8S67.3,48.8,67.3,46.7z M134.7,96.6H95.3l2.9-21.7
	h4.9c2.4,0,4.3-1.9,4.3-4.4v-6.5c0-2.4-1.9-4.3-4.3-4.4H71.7v-5.3c2.6-1.1,4.3-4,4.3-7.7c0-4.6-2.8-8.1-6.5-8.1S63,42,63,46.7
	c0,3.7,1.8,6.6,4.3,7.7v5.3H35.8c-2.4,0-4.3,1.9-4.3,4.4v6.5c0,2.4,1.9,4.3,4.3,4.4h4.9l2.9,21.7H4.3V4.3h130.3V96.6z M57.6,96.1
	h23.9c1.2,0,2.2-1,2.2-2.2c0-1.2-1-2.2-2.2-2.2l0,0H57.6c-1.2,0-2.2,1-2.2,2.2C55.4,95.1,56.4,96.1,57.6,96.1L57.6,96.1z
	 M79.3,100.4H59.7c-1.2,0-2.2,1-2.2,2.2c0,1.2,1,2.2,2.2,2.2h19.5c1.2,0,2.2-1,2.2-2.2C81.4,101.4,80.5,100.4,79.3,100.4L79.3,100.4
	z M77.1,109.1H61.9c-1.2,0-2.2,1-2.2,2.2s1,2.2,2.2,2.2l0,0h15.2c2.1,0,3.7-0.1,3.7-2.2C80.8,109.3,79.2,107.6,77.1,109.1
	L77.1,109.1z M67,34.5c1.6-0.4,3.3-0.4,4.9,0c7.1-1.4,11.7-8.2,10.3-15.3C80.9,12.2,74.1,7.6,67,8.9c-7.1,1.4-11.7,8.2-10.3,15.3
	C57.7,29.4,61.8,33.5,67,34.5L67,34.5z M69.5,13c4.8,0,8.7,3.9,8.7,8.7s-3.9,8.7-8.7,8.7c-4.8,0-8.7-3.9-8.7-8.7c0,0,0,0,0,0
	C60.8,16.9,64.7,13,69.5,13C69.5,13,69.5,13,69.5,13L69.5,13z"/>
</svg>
