<?xml version="1.0" encoding="utf-8"?>
<!-- Generator: Adobe Illustrator 22.1.0, SVG Export Plug-In . SVG Version: 6.00 Build 0)  -->
<svg version="1.1" id="Capa_1" xmlns="http://www.w3.org/2000/svg" xmlns:xlink="http://www.w3.org/1999/xlink" x="0px" y="0px"
	 viewBox="0 0 136.7 44.4" style="enable-background:new 0 0 136.7 44.4;" xml:space="preserve">
<style type="text/css">
	.st0{fill:#FFFFFF;}
</style>
<g>
	<path class="st0" d="M19,32.8C19,32.7,18.9,32.7,19,32.8l-0.1,0c-0.5-0.1-1-0.2-1.5-0.4c-0.8-0.5-1.5-1.3-1.7-2.2
		c-1.8-4.9-3.6-9.9-5.3-14.8c0-0.3-0.3-0.4-0.5-0.4c-0.2,0-0.3,0.2-0.4,0.4C7.7,19.4,6,23.6,4.3,27.8c-0.4,1.1-0.8,2.2-1.4,3.2
		c-0.5,1-1.4,1.6-2.5,1.7c-0.2,0-0.3,0.1-0.4,0.2v0.4c0.1,0.1,0.2,0.2,0.3,0.1c0.4,0,0.8,0,1.2-0.1c1-0.1,2-0.1,3,0
		c0.6,0.1,1.3,0.1,1.9,0.1c0.3,0,0.3-0.2,0.3-0.4s0-0.4-0.3-0.4c-0.5,0-1-0.1-1.4-0.3c-0.4-0.2-0.6-0.6-0.6-1c0-0.3,0.1-0.5,0.2-0.8
		c0.5-1.4,1-2.9,1.6-4.3c0-0.1,0.2-0.2,0.3-0.1h4.9c0.1,0,0.3,0.1,0.3,0.2c0,0,0,0,0,0c0.2,0.7,0.5,1.4,0.7,2c0.3,1,0.7,1.9,0.9,2.9
		c0.2,0.5,0,1-0.5,1.2c-0.1,0-0.1,0-0.2,0.1c-0.4,0.1-0.9,0.2-1.3,0.2c-0.1,0-0.3,0.1-0.3,0.2c0,0,0,0,0,0c-0.1,0.4,0.1,0.5,0.5,0.5
		c1.2-0.1,2.4-0.1,3.5-0.1c1.3,0,2.5,0.1,3.8,0.1c0.2,0,0.4,0,0.4-0.3C19.3,33,19.2,32.8,19,32.8z M6.6,25.3c0-0.2,2.2-6.2,2.4-6.6
		c0.8,2.2,1.5,4.4,2.3,6.6H6.6z"/>
	<path class="st0" d="M41.9,32.3L41.9,32.3c-1.1-0.2-1.4-0.4-1.4-1.6c0-2.7,0-5.5,0-8.2c0-0.1,0-0.2,0-0.2c0-0.1-0.1-0.3-0.2-0.3
		c0,0-0.1,0-0.1,0c-1.3,0.3-2.6,0.5-3.9,0.6c-0.3,0-0.2,0.2-0.2,0.4c0,0.2,0,0.3,0.3,0.3c0.2,0,0.5,0,0.7,0c0.6,0,1.1,0.4,1.1,1
		c0,0,0,0,0,0c0,0.2,0,0.3,0.1,0.5c0,2,0,4,0,6c0,0.1,0,0.2-0.1,0.2c-0.8,1-2,1.4-3.2,1.2c-0.8-0.1-1.4-0.7-1.5-1.4
		c-0.1-0.4-0.2-0.8-0.2-1.2v-7.1c0-0.1,0-0.2,0-0.2c0-0.1-0.1-0.3-0.2-0.3c0,0-0.1,0-0.1,0c-1.3,0.3-2.5,0.5-3.8,0.6
		c-0.3,0-0.2,0.3-0.2,0.4c0,0.1,0,0.3,0.2,0.3c0,0,0.1,0,0.1,0c0.2,0,0.4,0,0.7,0c0.6,0,1.1,0.4,1.1,1c0,0,0,0,0,0
		c0,0.3,0.1,0.6,0.1,0.9c0,1.7,0,3.4,0,5.1c0,0.9,0.3,1.9,0.9,2.6c1.1,1.1,2.8,1.4,4.2,0.8c0.8-0.4,1.5-0.9,2.2-1.4
		c0,0.6-0.1,1.1-0.1,1.5c0,0.1,0,0.3,0.2,0.3c0.1,0,0.1,0,0.2,0c0.1,0,0.2-0.1,0.3-0.1c0.3-0.2,0.6-0.3,0.9-0.4
		c0.7-0.2,1.5-0.4,2.3-0.5c0.2,0,0.3-0.2,0.3-0.4C42.2,32.4,42.1,32.3,41.9,32.3z"/>
	<path class="st0" d="M71.5,33.4c0.6-0.3,1.2-0.8,1.7-1.2c0,0.6-0.1,1.1-0.1,1.5c0,0.1,0,0.3,0.2,0.3c0.1,0,0.1,0,0.2,0
		c0.1,0,0.2-0.1,0.3-0.1c0.4-0.3,0.8-0.5,1.2-0.6c0.7-0.2,1.3-0.3,2-0.4c0.2,0,0.3-0.2,0.3-0.4c0-0.1-0.1-0.2-0.3-0.3l0,0
		c-0.2,0-0.5-0.1-0.7-0.1c-0.3-0.1-0.6-0.4-0.6-0.7c0-0.3-0.1-0.6-0.1-0.8c0-2.7,0-5.5,0-8.2c0-0.4-0.1-0.4-0.4-0.3
		c-1.2,0.3-2.5,0.5-3.8,0.6c-0.1,0-0.1,0-0.2,0.1c-0.1,0.2-0.1,0.4,0,0.6c0.1,0.2,0.2,0.1,0.4,0.1h0.2c0.6-0.2,1.3,0.2,1.4,0.9
		c0,0.2,0,0.3,0,0.5c0,2.1,0,4.1,0,6.2c0,0.1,0,0.2-0.1,0.3c-0.7,0.9-1.9,1.3-3,1.1c-0.8-0.1-1.4-0.6-1.6-1.3
		c-0.1-0.5-0.2-1-0.2-1.5c0-2.4,0-4.7,0-7.1c0-0.4-0.1-0.5-0.5-0.4c-1.2,0.3-2.5,0.5-3.7,0.6c-0.3,0-0.3,0.2-0.3,0.4s0,0.4,0.3,0.4
		c0.2,0,0.4,0,0.7,0c0.6,0,1,0.4,1.1,1c0,0,0,0,0,0c0,0.3,0.1,0.5,0.1,0.8c0,1.6,0,3.1,0,4.7c0,0.3,0,0.7,0,1c0.1,1.3,1,2.5,2.3,2.9
		C69.2,34.1,70.5,34,71.5,33.4z"/>
	<path class="st0" d="M95.7,22.4c-2,1-3.3,3.2-3.2,5.4c0,0.2,0,0.4,0,0.6c0.1,2.1,1.4,3.9,3.2,4.8c1.3,0.6,2.8,0.8,4.2,0.5
		c1.2-0.2,2.3-0.8,3.1-1.6c1.8-2,2.1-4.9,0.9-7.2c-0.9-1.9-2.8-3.1-4.9-3.1l0,0C97.9,21.7,96.7,21.9,95.7,22.4z M101.1,23.9
		c0.6,0.9,0.9,1.9,1,3c0,0.3,0,0.6,0.1,0.9c0,1.2-0.2,2.4-0.7,3.5l0,0c-0.6,1.4-2.2,2.1-3.6,1.6c-0.9-0.3-1.6-1-2-1.8
		c-0.4-0.9-0.6-1.8-0.6-2.8c-0.1-1.3,0.1-2.6,0.6-3.8c0.4-0.9,1.1-1.6,2-1.8C99.1,22.4,100.4,22.9,101.1,23.9z"/>
	<path class="st0" d="M53.5,31.9c-0.2-0.1-0.3,0-0.4,0.1c-0.1,0.1-0.2,0.1-0.3,0.2c-0.4,0.3-0.9,0.3-1.2-0.1
		c-0.1-0.2-0.2-0.4-0.2-0.6c0-0.5,0-0.9,0-1.4c0.1-1.6,0.1-3.3,0.2-4.9c0.1-0.8-0.1-1.6-0.5-2.2c-0.7-1-2-1.5-3.2-1.2
		c-1.5,0.2-2.9,0.9-4,1.9c-0.3,0.2-0.5,0.6-0.6,0.9c-0.2,0.5,0,1,0.5,1.2c0,0,0.1,0,0.1,0c0.6,0.1,1.3-0.1,1.6-0.7
		c0.2-0.3,0.2-0.6,0.2-0.9c0-0.6,0.3-1.1,0.9-1.2c0.8-0.5,1.9-0.2,2.4,0.6c0,0.1,0.1,0.1,0.1,0.2c0.1,0.3,0.2,0.6,0.2,1
		c0,0.6-0.1,1.3-0.1,1.9c0,0.2-0.1,0.3-0.3,0.4c0,0,0,0,0,0c-1.2,0.3-2.4,0.7-3.6,1.3c-0.8,0.3-1.4,0.9-1.9,1.5
		c-0.9,1.1-0.7,2.6,0.4,3.5c0.2,0.2,0.5,0.4,0.8,0.4c0.9,0.2,1.9,0.2,2.8-0.2c0.7-0.2,1.3-0.6,1.8-1.1c0.2,0.7,0.8,1.2,1.5,1.3
		c1.1,0.2,2.2-0.2,2.9-1c0.1-0.1,0.2-0.2,0.2-0.3C53.8,32.2,53.7,32,53.5,31.9L53.5,31.9z M49.1,31.2L49.1,31.2
		c0,0.2-0.1,0.4-0.3,0.5c-0.6,0.6-1.4,0.9-2.3,0.8c-0.5,0-1-0.4-1.1-1c-0.4-1,0.1-2.2,1.1-2.7c0.8-0.5,1.7-0.8,2.6-1
		C49.2,29,49.2,30.1,49.1,31.2z"/>
	<path class="st0" d="M125.3,30.6c-0.1-0.2-0.3-0.2-0.4,0c-0.7,0.9-1.8,1.5-2.9,1.6c-1.8,0.3-3.5-0.8-4-2.5c-0.3-1-0.3-2.1-0.2-3.1
		c0-0.2,0.1-0.2,0.3-0.2l0,0h6.8c0.1,0,0.2,0,0.3,0c0.2,0,0.4-0.2,0.4-0.4c0,0,0,0,0-0.1c0-0.7-0.2-1.3-0.6-1.9
		c-1.6-2.4-4.7-3-7.1-1.5c-0.1,0-0.1,0.1-0.2,0.1c-2.7,2.1-3.4,6-1.4,8.9c1.5,2.2,4.4,2.9,6.8,1.7c0.9-0.5,1.7-1.2,2.3-2
		C125.4,31.1,125.4,30.8,125.3,30.6z M119.4,23L119.4,23c0.7-0.5,1.6-0.6,2.4-0.1c0.8,0.3,1.2,1.1,1.2,1.9c0,0.3-0.2,0.6-0.4,0.6
		c0,0,0,0,0,0c-0.5,0.1-1,0.2-1.5,0.1c-1,0-2,0.1-3,0.1c-0.1,0-0.1,0-0.2,0C118,24.6,118.6,23.7,119.4,23z"/>
	<path class="st0" d="M83.5,33.2c0-0.3,0-0.4-0.3-0.5l0,0c-0.3,0-0.6-0.1-0.9-0.2c-0.3-0.1-0.5-0.4-0.6-0.7
		c-0.1-0.4-0.1-0.7-0.1-1.1c0-2.5,0-4.9,0-7.4c0-0.9,0-1.8,0-2.7c0-2,0-4,0.2-6c0-0.1,0.1-0.3-0.1-0.4c-0.2-0.1-0.4,0-0.5,0.1
		c-0.2,0.2-0.5,0.4-0.8,0.5c-0.8,0.4-1.7,0.7-2.6,0.9c-0.2,0-0.3,0.2-0.2,0.3c0,0,0,0,0,0c0,0.2,0.1,0.3,0.2,0.3c0,0,0,0,0,0
		c0.2,0,0.5,0.1,0.7,0.1c0.4,0.1,0.7,0.4,0.7,0.8c0,0.3,0.1,0.6,0.1,1c0,4,0,8,0,12c0,0.4,0,0.9-0.1,1.3c-0.1,0.4-0.3,0.6-0.7,0.8
		c-0.3,0.1-0.6,0.2-0.9,0.2c-0.3,0-0.3,0.2-0.3,0.5c0,0.1,0.1,0.3,0.3,0.3c0,0,0.1,0,0.1,0c0.6,0,1.2-0.1,1.9-0.1
		c1.2-0.1,2.5,0.1,3.7,0.1C83.3,33.5,83.5,33.5,83.5,33.2z"/>
	<path class="st0" d="M60.8,23.7c0,0.1,0.1,0.1,0.1,0.2c0.1,0.2,0.2,0.4,0.3,0.6c0.4,0.5,1.1,0.6,1.7,0.3c0.1-0.1,0.2-0.2,0.3-0.4
		c0.2-0.5,0.1-1-0.2-1.4c-0.2-0.2-0.4-0.3-0.6-0.5c-0.8-0.4-1.7-0.7-2.6-0.7c-2.4-0.3-4.7,0.8-5.8,2.9c-0.8,1.3-1,2.9-0.7,4.4
		c0.5,3.1,3.4,5.2,6.5,4.7c0.3,0,0.6-0.1,0.8-0.2c0.9-0.3,1.8-0.8,2.5-1.6c0.2-0.2,0.3-0.5,0.1-0.7c-0.1-0.2-0.3-0.2-0.4,0
		c-0.2,0.2-0.3,0.3-0.5,0.5c-0.8,0.5-1.6,0.7-2.6,0.7c-1,0-2-0.4-2.7-1.2c-0.8-1-1.2-2.2-1.1-3.5c0-1,0.1-2,0.4-3c0.3-1,1-1.8,2-2.1
		l0,0C59.2,22.3,60.4,22.7,60.8,23.7z"/>
	<path class="st0" d="M27.3,22.4c-0.7-0.4-1.6-0.6-2.4-0.6c-2.4-0.3-4.7,0.9-5.9,3c-0.8,1.4-1,3-0.6,4.5c0.5,2.8,3.1,4.8,5.9,4.6
		c1.4-0.1,2.7-0.7,3.6-1.6c0.1-0.1,0.3-0.3,0.3-0.4c0.1-0.2,0-0.4-0.2-0.5c-0.1-0.1-0.2-0.1-0.3,0c0,0,0,0,0,0
		c-0.7,0.7-1.8,1.2-2.8,1.2c-1.3,0.1-2.6-0.5-3.3-1.6c-0.6-1-0.9-2.1-0.8-3.3c0-1,0.2-2,0.5-3c0.3-0.9,1-1.6,1.9-1.9l0,0
		c1-0.5,2.1,0,2.6,1c0,0.1,0.1,0.2,0.1,0.2c0.1,0.2,0.2,0.3,0.3,0.5c0.4,0.5,1.1,0.7,1.7,0.3c0.2-0.1,0.3-0.3,0.3-0.4
		c0.2-0.4,0.1-0.9-0.2-1.2C27.9,22.8,27.6,22.6,27.3,22.4z"/>
	<path class="st0" d="M88,23.7c1.2,0,2.4,0.1,3.6,0.1c0.2,0,0.3-0.1,0.4-0.3c0.1-0.2,0.1-0.5,0-0.8c0-0.3-0.1-0.4-0.5-0.4l0,0
		c-1.1,0-2.3,0-3.4,0c-0.2,0-0.2-0.1-0.2-0.2c0-0.7,0.1-1.4,0.1-2.1c0-0.1,0-0.3-0.1-0.4c-0.2-0.1-0.3-0.1-0.5,0
		c-0.1,0.1-0.2,0.2-0.2,0.2c-0.5,0.8-1.2,1.5-1.9,2.1c-0.4,0.3-0.8,0.6-1.2,0.8c-0.2,0.1-0.3,0.3-0.2,0.5c0.1,0.2,0.2,0.3,0.4,0.2
		c0,0,0,0,0,0h0.7c0.4,0,0.4,0.1,0.4,0.4c0,1.1,0,2.2,0,3.2h0c0,0.3,0,0.5,0,0.8c0,1,0,2,0,3c0.1,1.1,0.8,2.1,1.9,2.5
		c1.5,0.5,3.1,0.2,4.3-0.8c0.1-0.1,0.2-0.2,0.2-0.3c0-0.2,0-0.3-0.1-0.5c-0.1-0.1-0.2,0-0.3,0c-0.5,0.3-1.1,0.4-1.7,0.4
		c-0.7,0.1-1.3-0.3-1.5-0.9c-0.2-0.4-0.3-0.8-0.3-1.2c0-2.1,0-4.3,0-6.4C87.7,23.6,87.9,23.7,88,23.7z"/>
	<path class="st0" d="M131.5,32.9c-0.8,0.3-1.8,0.1-2.5-0.5c-0.6-0.4-1.1-1-1.3-1.8c-0.1-0.2-0.3-0.4-0.6-0.3c0,0,0,0,0,0
		c-0.3,0.1-0.2,0.3-0.1,0.4c0.2,0.8,0.3,1.6,0.4,2.4c0,0.1,0.1,0.2,0.2,0.2c0,0,0,0,0,0c0.3,0,0.6,0.1,0.9,0.1
		c0.9,0.3,1.9,0.3,2.9,0.3c1.4-0.1,2.7-1,3.3-2.3c0.6-1.1,0.4-2.5-0.5-3.4l0,0c-0.4-0.3-0.8-0.6-1.2-0.8c-0.7-0.4-1.4-0.8-2.1-1.2
		c-0.4-0.2-0.8-0.5-1.1-0.8c-0.6-0.7-0.5-1.7,0.1-2.3c0.1-0.1,0.2-0.1,0.2-0.2c1-0.6,2.3-0.3,3,0.7c0,0.1,0.1,0.1,0.1,0.2
		c0.1,0.3,0.2,0.6,0.3,0.9c0,0.2,0.2,0.3,0.5,0.3c0.1,0,0.2-0.1,0.3-0.2c0,0,0-0.1,0-0.1c-0.1-0.6-0.1-1.3-0.1-1.9
		c0-0.2,0-0.3,0-0.5c-0.2-0.1-0.3-0.1-0.5-0.1c-0.7-0.2-1.5-0.3-2.3-0.3c-1.2,0-2.4,0.4-3.2,1.3c-1.1,1.2-1.1,3.1,0.1,4.2
		c0,0,0.1,0.1,0.1,0.1c0.6,0.5,1.2,0.9,1.9,1.1c0.7,0.3,1.4,0.7,2.1,1.1c0.6,0.4,0.8,1.2,0.6,1.8C132.6,32.2,132.1,32.7,131.5,32.9z
		"/>
	<path class="st0" d="M113.4,21.8L113.4,21.8c-0.7,0-1.4,0.2-1.9,0.6c-0.5,0.3-1,0.7-1.5,1.2c0-0.6,0.1-1,0.1-1.5
		c0-0.1,0-0.3-0.2-0.3c0,0-0.1,0-0.1,0c-0.2,0-0.3,0-0.4,0.1c-0.2,0.2-0.5,0.4-0.8,0.5c-0.8,0.4-1.6,0.7-2.4,0.9
		c-0.2,0-0.3,0.2-0.3,0.4c0,0,0,0,0,0c0,0.2,0.1,0.3,0.2,0.3c0,0,0,0,0,0c0.2,0,0.4,0.1,0.6,0.1c0.4,0.1,0.6,0.4,0.7,0.7
		c0.1,0.3,0.1,0.6,0.1,0.9c0,1.6,0,3.2,0,4.8c0,0.3,0,0.6,0,1c0,0.7-0.5,1.2-1.1,1.3l-0.5,0.1c-0.2,0-0.4,0.2-0.4,0.4
		c0,0,0,0.1,0,0.1c0,0.3,0.2,0.3,0.4,0.3c1,0,2-0.2,3-0.1c0.9,0,1.8,0.1,2.8,0.1c0.1,0.1,0.3,0,0.4-0.1c0.1-0.2,0-0.4-0.2-0.6
		c-0.1,0-0.1-0.1-0.2-0.1c-0.1,0-0.1,0-0.2,0c-0.9,0-1.6-0.6-1.7-1.5c0,0,0,0,0,0c0-0.1,0-0.3,0-0.4c0-2,0-3.9,0-5.9
		c0-0.1,0-0.2,0.1-0.2c0.2-0.2,0.5-0.5,0.8-0.6c0.5-0.4,1.2-0.3,1.6,0c0.3,0.2,0.6,0.3,0.9,0.4c0.3,0.1,0.7,0,0.9-0.3
		c0.4-0.4,0.5-0.9,0.3-1.4C114.5,22.2,114,21.8,113.4,21.8z"/>
	<path class="st0" d="M95.2,43.9C95.2,43.9,95.2,43.9,95.2,43.9L95.2,43.9c-0.6-0.1-0.7-0.3-0.7-0.8c0-0.7,0-1.4,0-2.1
		c0-0.8-0.6-1.5-1.4-1.6c0,0-0.1,0-0.1,0c-0.6,0-1.2,0.2-1.6,0.7c0,0,0-0.1,0-0.1c0-1.1,0-2.2,0.1-3.4c0-0.1,0.1-0.2,0-0.2
		c-0.1,0-0.2,0-0.3,0.1c-0.4,0.3-0.8,0.4-1.2,0.5c-0.1,0-0.2,0-0.2,0.2c0,0.1,0.1,0.1,0.2,0.1c0.3,0,0.5,0.2,0.5,0.5c0,0,0,0,0,0
		c0,0.1,0,0.2,0,0.4c0,1.6,0,3.1,0,4.6c0,0.2,0,0.3,0,0.5c0,0.4-0.3,0.7-0.6,0.7c-0.1,0-0.1,0-0.2,0c-0.7-0.1-1.2-0.5-1.4-1.2
		c-0.7-2-1.4-3.9-2.1-5.9c0-0.1,0-0.3-0.2-0.3c-0.2,0-0.2,0.1-0.3,0.3c-0.4,1.1-0.9,2.1-1.3,3.2c-0.4,1-0.8,2.1-1.3,3.1
		c-0.2,0.4-0.6,0.8-1,0.8c-0.1,0-0.2,0.1-0.2,0.2c0,0,0,0,0,0c0,0.2,0.2,0.1,0.2,0.1c0.7-0.1,1.4-0.1,2.1,0c0.1,0,0.2,0,0.3,0
		c0.1,0,0.1,0,0.1-0.1c0,0,0,0,0,0c0-0.1,0-0.2-0.1-0.2c-0.1,0-0.2,0-0.2,0c-0.3,0-0.6-0.2-0.6-0.5c0-0.1,0-0.2,0.1-0.3
		c0.2-0.6,0.4-1.2,0.6-1.8c0-0.1,0.1-0.2,0.2-0.1c0.6,0,1.2,0,1.8,0c0.1,0,0.2,0.1,0.3,0.2c0.2,0.6,0.4,1.2,0.6,1.8
		c0.1,0.2,0.1,0.5-0.1,0.6c-0.1,0.1-0.2,0.1-0.3,0.1c-0.1,0-0.2,0-0.2,0c-0.1,0-0.3,0-0.3,0.2c0,0.2,0.2,0.2,0.3,0.2
		c0.9-0.1,1.7-0.1,2.6,0c0.7,0.1,1.3-0.1,2-0.1l0.8,0.1c0.1,0,0.2,0,0.2-0.1c0-0.1,0-0.2-0.1-0.2c0,0,0,0,0,0
		c-0.4,0-0.7-0.3-0.7-0.7c0-0.1,0-0.1,0-0.2c0-0.7,0-1.4,0-2.1c0-0.3,0.2-0.7,0.5-0.8c0.5-0.4,1.2-0.3,1.5,0.2
		c0.1,0.2,0.2,0.4,0.2,0.6c0,0.7,0,1.5,0,2.2c0.1,0.3-0.1,0.6-0.4,0.6c0,0-0.1,0-0.1,0c-0.1,0-0.2,0.1-0.2,0.2c0,0,0,0,0,0
		c0,0.1,0.1,0.1,0.2,0.1c0.7-0.1,1.4-0.1,2.1,0c0.1,0,0.2,0,0.2-0.1c0,0,0,0,0,0C95.4,44,95.3,43.9,95.2,43.9z M86.1,40.8L86.1,40.8
		c-0.6,0-1.2,0-1.8,0c0.3-0.9,0.7-1.8,1-2.8c0.3,0.9,0.6,1.7,0.9,2.5C86.3,40.8,86.3,40.8,86.1,40.8z"/>
	<path class="st0" d="M109.3,43.8L109.3,43.8c-0.3,0-0.6-0.2-0.6-0.5c0,0,0-0.1,0-0.1c0-0.1,0-0.2,0-0.4c0-0.7,0-1.5,0-2.2
		c0-0.8-0.6-1.4-1.4-1.3c-0.6,0-1.2,0.2-1.6,0.6c-0.1,0.1-0.2,0.1-0.2,0c-0.2-0.4-0.6-0.6-1.1-0.6c-0.6,0-1.2,0.2-1.7,0.7
		c0-0.1,0-0.2,0-0.2c0-0.2,0-0.3,0-0.5c-0.2-0.1-0.3,0.1-0.4,0.2c-0.3,0.2-0.7,0.3-1.1,0.4c-0.1,0-0.2,0.1-0.2,0.2c0,0,0,0,0,0
		c0,0.1,0.1,0.1,0.1,0.1c0,0,0,0,0,0c0.3,0,0.5,0.2,0.6,0.5c0,0.1,0,0.1,0,0.2c0,0.7,0,1.4,0,2.1c0,0.6-0.1,0.8-0.7,0.8
		c-0.1,0-0.2,0.1-0.2,0.2c0,0,0,0,0,0c0,0.1,0.1,0.1,0.1,0.1c0,0,0,0,0.1,0c0.7-0.1,1.4-0.1,2.1,0c0.1,0,0.2,0,0.2-0.1
		c0-0.1,0-0.2-0.1-0.2c-0.3,0-0.6-0.3-0.6-0.6c0-0.1,0-0.1,0-0.2c0-0.8,0-1.6,0-2.4c0-0.1,0-0.2,0-0.2c0.3-0.4,0.8-0.6,1.3-0.5
		c0.4,0.1,0.7,0.4,0.7,0.9c0,0.8,0,1.6,0,2.5c0,0.3-0.2,0.5-0.5,0.5c0,0,0,0,0,0c-0.1,0-0.2,0.1-0.2,0.1c0,0,0,0,0,0.1
		c0,0.1,0.1,0.1,0.2,0.1c0.4,0,0.8-0.1,1.1-0.1c0.3,0,0.5,0,0.8,0.1c0.1,0,0.2,0,0.2-0.1c0-0.1,0-0.2-0.1-0.2c0,0,0,0,0,0
		c-0.3,0-0.6-0.3-0.6-0.6c0-0.1,0-0.1,0-0.2c0-0.8,0-1.5,0-2.3c0-0.3,0.2-0.6,0.5-0.7c0.2-0.1,0.3-0.1,0.5-0.1
		c0.5-0.1,0.9,0.2,1,0.6c0,0.1,0,0.2,0,0.3c0.1,0.8,0.1,1.7,0,2.5c0,0.3-0.2,0.5-0.4,0.5c-0.1,0-0.2,0.1-0.2,0.2s0.2,0.1,0.3,0.1
		c0.6-0.1,1.3-0.1,1.9,0c0.1,0,0.2,0.1,0.3-0.1S109.4,43.9,109.3,43.8z"/>
	<path class="st0" d="M74.9,43.6L74.9,43.6c-0.3,0-0.5-0.2-0.5-0.5c0,0,0,0,0,0c0-0.1,0-0.2,0-0.3c0-2.1-0.1-4.2,0.1-6.3
		c0-0.1,0-0.2-0.1-0.2c-0.1,0-0.2,0-0.2,0c-0.4,0.3-0.8,0.5-1.3,0.6c-0.1,0-0.2,0.1-0.2,0.2c0,0,0,0,0,0c0,0.1,0.1,0.1,0.2,0.2
		c0.2,0,0.4,0.2,0.5,0.4c0.1,0.7,0,1.4,0,2.1c-0.5-0.3-1.1-0.5-1.7-0.3c-1.4,0.2-2.3,1.5-2,2.9c0,0.2,0.1,0.3,0.1,0.5
		c0.3,1.2,1.5,1.8,2.7,1.5c0.3-0.1,0.5-0.2,0.7-0.4c0,0,0.1,0,0.1-0.1c0,0.1,0,0.2,0,0.3c0,0.3,0,0.3,0.3,0.2
		c0.4-0.2,0.8-0.3,1.2-0.4c0.1,0,0.3,0,0.3-0.2S75,43.7,74.9,43.6z M73.5,41.8c0,0.4,0,0.8,0,1.2c0,0.1,0,0.3-0.1,0.4l0,0
		c-0.4,0.6-1.2,0.7-1.8,0.3c-0.2-0.2-0.4-0.4-0.5-0.7c-0.3-0.8-0.3-1.8,0.1-2.6c0.3-0.7,1.1-1,1.8-0.6c0.1,0,0.2,0.1,0.2,0.1
		c0.2,0.1,0.3,0.4,0.3,0.6C73.5,41,73.5,41.4,73.5,41.8z"/>
	<path class="st0" d="M123.8,43.9L123.8,43.9c-0.7-0.1-1.2-0.5-1.4-1.2c-0.7-2-1.4-3.9-2.1-5.9c0-0.1,0-0.3-0.2-0.3
		c-0.1,0-0.2,0.1-0.2,0.2c-0.6,1.4-1.2,2.8-1.7,4.3c-0.3,0.7-0.6,1.5-0.9,2.2c-0.2,0.4-0.5,0.6-0.9,0.7c-0.1,0-0.3,0-0.2,0.2
		s0.2,0.1,0.3,0.1c0.7-0.1,1.3-0.1,2,0c0.1,0,0.2,0,0.3,0c0.1,0,0.2,0,0.2-0.1s-0.1-0.2-0.2-0.2c0,0-0.1,0-0.1,0
		c-0.6-0.1-0.8-0.3-0.6-0.9c0.2-0.5,0.4-1,0.5-1.5c0-0.2,0.2-0.4,0.4-0.3c0,0,0,0,0,0c0.2,0,0.5,0,0.7,0c0.3,0,0.6,0,0.9,0
		c0.1,0,0.3,0.1,0.3,0.2c0,0,0,0,0,0c0.2,0.5,0.3,1,0.5,1.5c0.3,0.8,0.2,0.9-0.6,1c-0.1,0-0.2,0-0.2,0.2s0.1,0.2,0.2,0.1
		c1-0.1,2-0.1,3,0c0.1,0,0.2,0,0.2-0.1C124,44,123.9,43.9,123.8,43.9z M120.5,40.8L120.5,40.8c-0.6,0-1.2,0-1.8,0
		c0.3-0.9,0.7-1.8,1-2.7c0.3,0.9,0.6,1.7,0.9,2.6C120.7,40.8,120.6,40.8,120.5,40.8z"/>
	<path class="st0" d="M133.7,42.1c-0.1,0-0.2,0-0.2,0.1c0,0,0,0,0,0c0,0.1-0.1,0.2-0.1,0.3c-0.7,1.4-2.4,1.9-3.8,1.2
		c-0.3-0.1-0.6-0.4-0.8-0.6c-0.7-0.8-1-1.8-1-2.8c0-1,0.4-2,1.2-2.7c1-1,2.5-1,3.5,0c0.3,0.3,0.5,0.6,0.6,0.9c0,0.1,0.1,0.2,0.2,0.2
		c0,0,0,0,0,0c0.1,0,0.1-0.1,0.1-0.2c-0.1-0.4-0.1-0.7-0.2-1.1c0-0.2,0-0.4-0.1-0.6c-0.2-0.1-0.4-0.1-0.6-0.1c0,0-0.1,0-0.1,0
		c-0.9-0.2-1.8-0.2-2.7,0c-2,0.4-3.4,2.3-3.1,4.4c0.2,1.9,1.9,3.4,3.8,3.4c1,0,1.9-0.2,2.9-0.3c0.1,0,0.1-0.1,0.1-0.1c0,0,0,0,0,0
		c0.1-0.5,0.2-1.1,0.3-1.6C133.8,42.2,133.8,42.1,133.7,42.1L133.7,42.1z"/>
	<path class="st0" d="M98.2,39.3c0,0-0.1,0-0.1,0l0,0c-1.4-0.1-2.5,1-2.6,2.4c0,0,0,0.1,0,0.1c0,1.4,1.1,2.5,2.5,2.5
		c1.4,0,2.5-1.1,2.5-2.4C100.6,40.5,99.5,39.4,98.2,39.3z M99.2,43.2L99.2,43.2C99,43.7,98.5,44,98,44c-0.5,0-1-0.3-1.1-0.8
		c-0.4-0.9-0.4-1.9,0-2.7c0.2-0.5,0.6-0.8,1.2-0.8c0.5,0,1,0.3,1.1,0.8C99.5,41.3,99.5,42.3,99.2,43.2z"/>
	<path class="st0" d="M79.4,40.3c-0.6-1-1.9-1.3-2.9-0.6c-0.1,0.1-0.2,0.2-0.3,0.2c-0.7,0.6-1,1.6-0.8,2.5c0.2,1.2,1.3,2.1,2.6,1.9
		c0.2,0,0.3-0.1,0.5-0.1c0.4-0.2,0.8-0.5,1.1-0.9c0.1-0.1,0.1-0.2,0-0.3c0,0,0,0,0,0c-0.1-0.1-0.2,0-0.2,0.1
		c-0.2,0.2-0.5,0.4-0.8,0.5c-0.7,0.3-1.5-0.1-1.9-0.8c-0.2-0.5-0.2-0.9-0.2-1.4c0-0.2,0.1-0.1,0.2-0.1l0,0H79c0.7,0,0.8-0.2,0.5-0.8
		C79.4,40.4,79.4,40.3,79.4,40.3z M78.4,40.9c0,0-0.1,0-0.1,0c-0.3,0-0.6,0-1.1,0.1h-0.6c-0.1,0-0.1,0-0.1-0.2l0,0
		c0.1-0.3,0.2-0.6,0.4-0.8c0.3-0.3,0.7-0.4,1-0.2c0.3,0.1,0.6,0.4,0.6,0.8C78.7,40.7,78.6,40.8,78.4,40.9z"/>
	<polygon class="st0" points="111,41.3 111,41.3 111,41.3 	"/>
	<path class="st0" d="M113.7,40.2c-0.7-1-2-1.2-2.9-0.5c0,0-0.1,0-0.1,0.1c-0.8,0.6-1.2,1.6-0.9,2.6c0.1,0.9,0.7,1.6,1.5,1.9
		c0.8,0.3,1.7,0.1,2.3-0.6c0.1-0.1,0.3-0.3,0.4-0.4c0.1-0.1,0-0.2-0.1-0.2c-0.1-0.1-0.1,0-0.2,0.1c-0.2,0.2-0.4,0.3-0.6,0.4
		c-0.7,0.4-1.6,0.2-2.1-0.6c-0.1-0.2-0.1-0.3-0.2-0.5c-0.1-0.3-0.1-0.7,0-1c0-0.1,0.1-0.1,0.2-0.1h0l0,0c0,0,0,0,0,0h2.4
		c0.7,0,0.7-0.1,0.5-0.8C113.8,40.4,113.8,40.3,113.7,40.2z M112.8,40.9c0,0-0.1,0-0.1,0c-0.3,0-0.6,0-1.1,0.1H111
		c-0.1,0-0.1,0-0.1-0.2l0,0c0.1-0.3,0.2-0.5,0.4-0.8c0.3-0.3,0.7-0.4,1-0.3c0.3,0.1,0.6,0.4,0.6,0.8C113,40.7,112.9,40.8,112.8,40.9
		z"/>
	<path class="st0" d="M125.1,43L125.1,43c-0.4,0-0.7,0.3-0.7,0.6c0,0,0,0,0,0c0,0.4,0.3,0.6,0.6,0.6s0.6-0.3,0.6-0.6
		C125.7,43.3,125.4,43,125.1,43z"/>
	<path class="st0" d="M135.2,43L135.2,43c-0.4,0-0.7,0.3-0.7,0.6c0,0,0,0,0,0c0,0.4,0.3,0.6,0.6,0.6s0.6-0.3,0.6-0.6
		C135.8,43.3,135.5,43,135.2,43z"/>
	<path class="st0" d="M136.5,6.7L136.5,6.7c0-0.5-0.1-1-0.1-1.5c-0.5,0.4-1.1,0.6-1.6,1c-1.1,0.8-2.3,1.6-3.6,2.2
		c-0.1,0.1-0.2,0.2-0.3,0.3c-0.4,0.7-0.8,1.4-1.1,2.2c-0.3,0.6-0.6,1.1-1,1.6c-0.9,1-2,1.8-3.2,2.5c-0.2,0.2-0.4,0.2-0.6,0
		c0,0-0.1-0.1-0.1-0.1c-0.2-0.3-0.4-0.6-0.6-1c-0.6-1.4-1-2.9-1.3-4.4c-0.2-0.5,0-1.1,0.6-1.3c0,0,0.1,0,0.2,0
		c0.4-0.2,0.8-0.3,1.2-0.5c1.3-0.5,2.6-1.1,3.8-1.9c1-0.7,2-1.4,3-2.1c0.1-0.1,0.2-0.1,0.3-0.1c-0.1,0.2-0.3,0.4-0.5,0.5
		c-0.4,0.3-0.8,0.7-1.2,1c0,0-0.1,0,0,0c0,0,0,0,0.1,0c0.9-0.4,1.7-0.9,2.5-1.5c0.6-0.4,1.1-0.9,1.7-1.3c-0.6,1.6-1.6,3-2.8,4.2
		c0.2-0.1,0.5-0.1,0.8,0c-0.2,0.2-0.3,0.4-0.4,0.6c0,0,0,0,0.1,0c0.3-0.1,0.5-0.2,0.8-0.3c1.3-0.4,2.4-1.1,3.3-2.1
		c0.1-0.1,0.1-0.2,0.1-0.3c0-0.6-0.1-1.3-0.1-1.9c0-0.1-0.1-0.2-0.2-0.2c-0.5-0.2-1-0.3-1.6-0.5c-0.4-0.2-0.8-0.3-1.3-0.3
		c-0.7,0.1-1.4,0.2-2.1,0.3c-1.7,0.4-3.4,0.8-5,1.4c-0.1,0-0.2,0.1-0.2,0.1c-0.2,0.2-0.4,0.4-0.6,0.6c-1.4,1.5-3.2,2.7-5.1,3.4
		c-0.1,0-0.2,0.1-0.2,0.3c0,0,0,0,0,0c0,0.2,0,0.5,0,0.7c0,0.6,0,1.2,0.1,1.9c0.2-0.1,0.4-0.3,0.6-0.4c0.8-0.5,1.2-0.4,1.6,0.5
		c0,0,0,0.1,0,0.1c0.5,1.5,1.1,3,1.8,4.4c0.1,0.1,0.1,0.3,0.2,0.4c0.2,0.5,0.1,1.1-0.3,1.5c0,0,0,0,0,0.1c2.3,0.9,4.8,1.3,7.2,0.9
		c1-0.1,2.1-0.5,2.9-1.1c1.6-1.1,2.5-3,2.4-4.9C136.7,10,136.6,8.4,136.5,6.7z"/>
	<path class="st0" d="M83.9,5c0.2-0.2,0.5-0.2,0.8-0.2C85.3,5,86,5.2,86.6,5.3c-0.1,0.1-0.2,0.1-0.2,0.2c-0.6,0.5-1.1,1.1-1.5,1.8
		c0,0,0,0,0,0.1c0,0,0,0,0,0C85,7.2,85.2,7.1,85.3,7c0.6-0.6,1.3-1.2,2.1-1.8c0.1-0.1,0.2-0.1,0.3-0.2c1.6-0.5,3.3-0.7,5-0.6
		c1.8,0.1,3.5,0.5,5.1,1.2C98,5.8,98,5.8,97.9,6.1c-0.1,0.2-0.2,0.3-0.3,0.5c0,0.1-0.1,0.1,0,0.2c0.1,0.1,0.1,0,0.2,0
		c0.2,0,0.3,0,0.5-0.1c0.3,0,0.4,0.1,0.2,0.4c-1,1.8-2.3,3.4-3.9,4.8c-0.3,0.2-0.6,0.3-1,0.3c-0.9-0.2-1.8-0.7-2.5-1.4
		c-0.4-0.4-0.7-0.8-1.1-1.3c0.4,1.5,1.3,2.9,2.6,3.8c-2.7,1.7-5.8,2.7-8.9,2.8c0,0.1,0.1,0.1,0.1,0.1c0.8,0.2,1.6,0.5,2.4,0.7
		c2.3,0.7,4.6,1,7,1c0.9,0,1.8-0.1,2.6-0.5c2-0.9,3.3-2.9,3.3-5c0-0.7,0-1.4,0-2.2c0-2.2-0.1-4.5-0.2-6.7l0,0c0-0.2-0.1-0.4-0.3-0.5
		c-1.5-0.9-3.1-1.6-4.8-2.1c-2-0.6-4.2-0.8-6.3-0.4c-1.9,0.3-3.5,1.5-4.3,3.3c-0.3,0.7-0.5,1.5-0.6,2.3c0.1-0.1,0.2-0.1,0.3-0.2
		C83.2,5.6,83.5,5.3,83.9,5z"/>
	<path class="st0" d="M120.6,4.3L120.6,4.3c1.7-0.3,3.5-0.8,5.2-1.3c0.1,0,0.3-0.1,0.4-0.2c0.8-0.9,1.7-1.7,2.7-2.4
		c-0.5-0.1-1.1-0.2-1.6-0.2c-0.7,0-1.4,0-2.1,0c-2.2,0.2-4.1,1.7-4.8,3.8C120.3,4.3,120.3,4.3,120.6,4.3z"/>
	<path class="st0" d="M120.5,6.9L120.5,6.9c1.6-0.6,3-1.5,4.2-2.7c0.3-0.3,0.6-0.5,0.9-0.9c-0.1,0-0.2,0-0.3,0
		c-1.6,0.5-3.2,0.9-4.8,1.2c-0.1,0-0.2,0.1-0.2,0.2c-0.1,0.6-0.1,1.3-0.1,1.9C120.1,7,120.1,7,120.5,6.9z"/>
	<path class="st0" d="M126.6,2.7c0.1,0,0.2,0,0.3,0c0.5-0.2,1-0.3,1.6-0.5c1.5-0.5,3-0.8,4.5-0.9c-0.1,0-0.1-0.1-0.2-0.1
		c-1.1-0.3-2.2-0.5-3.3-0.7c-0.2,0-0.3,0-0.5,0.1C128.1,1.2,127.3,1.9,126.6,2.7z"/>
	<path class="st0" d="M126.6,2.7C126.6,2.7,126.6,2.7,126.6,2.7C126.5,2.7,126.5,2.7,126.6,2.7L126.6,2.7z"/>
	<path class="st0" d="M93.3,6.6L93.3,6.6c0-0.5-0.4-0.9-0.9-0.8c-0.5,0-0.8,0.4-0.8,0.9c0,0.5,0.4,0.8,0.9,0.8
		C93,7.4,93.3,7.1,93.3,6.6z"/>
	<path class="st0" d="M128.1,7.1C128.1,7.1,128.1,7.1,128.1,7.1c-0.4,0-0.7,0.3-0.7,0.7l0,0c0,0.4,0.3,0.6,0.7,0.6
		c0.4,0,0.6-0.3,0.6-0.7c0,0,0,0,0,0C128.8,7.3,128.5,7.1,128.1,7.1z"/>
	<path class="st0" d="M131.4,8c0.7-0.4,1.4-0.8,2.1-1.3c-0.4,0.1-0.8,0.3-1.2,0.4C131.9,7.3,131.5,7.6,131.4,8z"/>
	<path class="st0" d="M131.4,8C131.4,8,131.4,8,131.4,8C131.4,8,131.4,8,131.4,8L131.4,8z"/>
	<path class="st0" d="M101.4,12.3c0.1-0.1,0.1-0.2,0.2-0.3c0.1-0.5,0.4-1,0.7-1.4c0.4-0.5,0.7-0.9,1.1-1.4c0.5-0.6,1-1.1,1.6-1.6
		c0.4-0.3,0.9-0.4,1.3-0.2c0.2,0.1,0.4,0.2,0.6,0.3c0.6,0.3,1.4,0.3,2,0c0.2-0.1,0.3-0.1,0.5-0.1c0.8-0.3,1.6,0.2,1.9,0.9
		c0.1,0.3,0.1,0.6,0,0.9c-0.2,0.9-0.7,1.8-1.4,2.5c-0.4,0.4-0.7,0.9-0.9,1.4c-0.3,0.6-0.6,1.2-1,1.7c-0.3,0.4-0.7,0.7-1.2,0.9
		c-0.7,0.2-1.3,0.4-2,0.6c0.1,0,0.1,0,0.1,0.1c2.1,0.9,4.4,1.3,6.8,1.1c1.1-0.1,2.1-0.3,3-0.8c2-1.1,3.2-3.3,3.1-5.6
		c0-2-0.1-4-0.2-6c0-1,0-1.9-0.1-2.9l0,0c0-0.2-0.1-0.3-0.3-0.3c-1.6-0.6-3.3-1-5-1.4C110.5,0.2,108.8,0,107,0
		c-0.9,0-1.8,0.2-2.7,0.6c-2,1-3.2,3.1-3.1,5.3c0,1.2,0.1,2.4,0.1,3.6C101.4,10.5,101.4,11.4,101.4,12.3z M108.1,15.3L108.1,15.3
		L108.1,15.3L108.1,15.3z M103,7.2c0.3-1,0.7-2,1.3-2.8c0.2-0.3,0.4-0.5,0.7-0.6c0.4-0.3,1-0.3,1.4,0c0.9,0.5,1.9,0.7,2.8,0.6
		c1.1-0.1,2.2-0.3,3.2-0.5c0.6-0.1,1.1,0.1,1.5,0.5c0.6,0.7,0.9,1.5,1,2.4c0.3,1.3,0.3,2.7,0,4.1l0,0c0,0.3-0.2,0.6-0.4,0.9
		c-0.8,0.8-1.8,1.5-2.9,2c0.3-0.8,0.8-1.5,1.6-2c0.6-0.4,1-1.1,0.9-1.8c-0.1-0.9-0.3-1.7-0.5-2.6c0-0.2-0.1-0.4-0.1-0.6
		c-0.1-0.9-0.9-1.7-1.8-1.7c-0.6,0-1.1,0.1-1.7,0.3c-0.9,0.4-1.9,0.4-2.7-0.2c-0.4-0.3-0.9-0.5-1.4-0.6c-0.4-0.1-0.9,0-1.2,0.3
		c-0.5,0.4-1,1-1.4,1.6c-0.2,0.3-0.3,0.6-0.5,0.8C102.9,7.3,102.9,7.2,103,7.2z M102.1,10.4c0.2-1,0.5-2,1-2.8
		c0.4-0.8,0.9-1.5,1.5-2.1c0.5-0.6,1.4-0.8,2.1-0.4c0.3,0.1,0.5,0.3,0.8,0.4c0.8,0.5,1.8,0.5,2.6,0.1c0.5-0.2,1-0.3,1.6-0.3
		c0.9,0,1.7,0.7,1.7,1.6c0.1,0.6,0.2,1.3,0.4,1.9c0.2,0.6,0.2,1.2,0.1,1.8c-0.1,0.4-0.3,0.7-0.7,0.9c-0.6,0.3-1.1,0.8-1.4,1.4
		c-0.3,0.7-0.9,1.3-1.6,1.5l0,0c-0.6,0.2-1.3,0.5-1.9,0.7c-0.1,0.1-0.2,0.1-0.3,0c0.4-0.5,0.8-1.1,1.1-1.7c0.3-0.7,0.7-1.2,1.2-1.8
		c0.6-0.7,1.1-1.5,1.3-2.4c0.3-0.9-0.2-1.9-1.1-2.2c-0.4-0.1-0.8-0.1-1.1,0c-0.2,0.1-0.4,0.1-0.6,0.2c-0.5,0.2-1.1,0.2-1.7,0
		c-0.2-0.1-0.5-0.2-0.7-0.3c-0.6-0.2-1.2-0.1-1.7,0.3c-0.6,0.5-1.2,1.1-1.7,1.7C102.8,9.6,102.4,10,102.1,10.4
		C102.1,10.4,102.1,10.5,102.1,10.4C102.1,10.5,102.1,10.5,102.1,10.4C102.1,10.4,102.1,10.4,102.1,10.4z"/>
	<polygon class="st0" points="108.1,15.3 108.1,15.3 108.1,15.3 	"/>
</g>
</svg>
