<?xml version="1.0" encoding="utf-8"?>
<!-- Generator: Adobe Illustrator 22.1.0, SVG Export Plug-In . SVG Version: 6.00 Build 0)  -->
<svg version="1.1" id="Capa_1" xmlns="http://www.w3.org/2000/svg" xmlns:xlink="http://www.w3.org/1999/xlink" x="0px" y="0px"
	 viewBox="0 0 143.8 46.2" style="enable-background:new 0 0 143.8 46.2;" xml:space="preserve">
<style type="text/css">
	.st0{fill:#FFFFFF;}
</style>
<path id="Forma_32" class="st0" d="M52.6,31.4c-0.3,0-0.5-0.1-0.7-0.3c-0.2-0.3-0.3-0.7-0.3-1.1c-0.1-0.4,0-0.8,0.3-1.1
	c0.2-0.2,0.4-0.3,0.7-0.3c0.5,0,0.9,0.3,0.9,0.8h-0.4c0-0.3-0.3-0.5-0.5-0.4c-0.1,0-0.3,0.1-0.4,0.2c-0.2,0.5-0.2,1.1,0,1.6
	c0.1,0.1,0.2,0.2,0.4,0.2c0.3,0,0.5-0.2,0.5-0.4h0.4C53.5,31,53,31.4,52.6,31.4 M55.6,31.1c-0.4,0.4-1,0.4-1.4,0
	c-0.2-0.3-0.3-0.7-0.3-1.1c-0.1-0.4,0-0.8,0.3-1.1c0.4-0.4,1-0.4,1.4,0c0.2,0.3,0.3,0.7,0.2,1.1C55.9,30.4,55.8,30.8,55.6,31.1
	 M55.3,29.2c-0.2-0.2-0.5-0.2-0.8,0c0,0,0,0,0,0c-0.2,0.5-0.2,1.1,0,1.6c0.2,0.2,0.5,0.2,0.8,0c0,0,0,0,0,0
	C55.5,30.3,55.5,29.7,55.3,29.2 M58,31.3l-1.2-1.8v1.8h-0.4v-2.6h0.4l1.2,1.8v-1.8h0.4v2.6H58L58,31.3z M59.8,31.4
	c-0.3,0-0.7-0.1-0.9-0.3l0.3-0.3c0.2,0.2,0.4,0.3,0.7,0.3c0.2,0.1,0.5-0.1,0.5-0.3c0,0,0,0,0-0.1c0-0.1,0-0.2-0.1-0.3
	c-0.1-0.1-0.2-0.1-0.3-0.1l-0.3,0c-0.2,0-0.4-0.1-0.5-0.2c-0.1-0.1-0.2-0.3-0.2-0.5c0-0.4,0.3-0.8,0.8-0.8c0,0,0.1,0,0.1,0
	c0.3,0,0.6,0.1,0.8,0.3l-0.3,0.2C60.2,29.1,60,29,59.8,29c-0.2,0-0.4,0.1-0.5,0.4c0,0,0,0,0,0.1c0,0.1,0,0.2,0.1,0.2
	c0.1,0.1,0.2,0.1,0.3,0.1l0.3,0c0.2,0,0.4,0.1,0.5,0.2c0.1,0.1,0.2,0.3,0.2,0.5C60.7,31,60.3,31.4,59.8,31.4
	C59.8,31.4,59.8,31.4,59.8,31.4 M61.2,31.3v-2.6h1.7v0.4h-1.3v0.8h1.1v0.4h-1.1V31h1.3v0.4L61.2,31.3L61.2,31.3z M63.8,31.4
	c-0.2,0-0.5-0.1-0.6-0.2l0.3-0.3c0.1,0.1,0.2,0.2,0.4,0.2c0.3,0,0.5-0.2,0.5-0.4c0,0,0-0.1,0-0.1v-1.8h0.4v1.8
	c0,0.4-0.3,0.8-0.8,0.9C63.9,31.4,63.8,31.4,63.8,31.4 M66.9,31.1c-0.4,0.4-1,0.4-1.4,0c-0.2-0.3-0.3-0.7-0.3-1.1
	c-0.1-0.4,0-0.8,0.3-1.1c0.4-0.4,1-0.4,1.4,0c0.2,0.3,0.3,0.7,0.2,1.1C67.2,30.4,67.1,30.8,66.9,31.1 M66.6,29.2
	c-0.2-0.2-0.5-0.2-0.8,0c0,0,0,0,0,0c-0.2,0.5-0.2,1.1,0,1.6c0.2,0.2,0.5,0.2,0.8,0c0,0,0,0,0,0C66.8,30.3,66.8,29.7,66.6,29.2
	 M70.2,31.3L69,29.5v1.8h-0.4v-2.6h0.4l1.2,1.8v-1.8h0.4v2.6H70.2L70.2,31.3z M72.7,31.3l-0.2-0.5h-1l-0.2,0.5h-0.4l1-2.6h0.3l1,2.6
	H72.7L72.7,31.3z M72.1,29.3l-0.4,1.2h0.8L72.1,29.3z M74.3,31.4c-0.3,0-0.5-0.1-0.7-0.3c-0.2-0.3-0.3-0.7-0.3-1.1
	c-0.1-0.4,0-0.8,0.3-1.1c0.2-0.2,0.4-0.3,0.7-0.3c0.5,0,0.9,0.3,0.9,0.8h-0.4c0-0.3-0.3-0.5-0.5-0.4c-0.1,0-0.3,0.1-0.4,0.2
	c-0.2,0.5-0.2,1.1,0,1.6c0.1,0.1,0.2,0.2,0.4,0.2c0.3,0,0.5-0.2,0.5-0.4h0.4C75.2,31,74.8,31.4,74.3,31.4 M75.8,28.7h0.4v2.6h-0.4
	V28.7z M78.4,31.1c-0.4,0.4-1,0.4-1.4,0c-0.2-0.3-0.3-0.7-0.3-1.1c-0.1-0.4,0-0.8,0.3-1.1c0.4-0.4,1-0.4,1.4,0
	c0.2,0.3,0.3,0.7,0.2,1.1C78.8,30.4,78.7,30.8,78.4,31.1 M78.1,29.2c-0.2-0.2-0.5-0.2-0.8,0c0,0,0,0,0,0c-0.2,0.5-0.2,1.1,0,1.6
	c0.2,0.2,0.5,0.2,0.8,0c0,0,0,0,0,0C78.3,30.3,78.3,29.7,78.1,29.2 M80.9,31.3l-1.2-1.8v1.8h-0.4v-2.6h0.4l1.2,1.8v-1.8h0.4v2.6
	H80.9z M83.4,31.3l-0.2-0.5h-1L82,31.3h-0.4l1-2.6h0.3l1,2.6H83.4z M82.8,29.3l-0.4,1.2h0.8L82.8,29.3z M84.2,31.3v-2.6h0.4V31h1.3
	v0.4H84.2L84.2,31.3z M88.8,31.1c-0.2,0.2-0.4,0.3-0.7,0.2h-0.9v-2.6h0.9c0.3,0,0.5,0.1,0.7,0.2c0.2,0.3,0.3,0.7,0.3,1
	C89.2,30.4,89.1,30.8,88.8,31.1 M88.6,29.2c-0.1-0.1-0.3-0.2-0.4-0.2h-0.5V31h0.5c0.2,0,0.3-0.1,0.4-0.2c0.1-0.2,0.2-0.5,0.1-0.8
	C88.7,29.7,88.7,29.5,88.6,29.2 M89.7,31.3v-2.6h1.7v0.4h-1.3v0.8h1.1v0.4h-1.1V31h1.3v0.4L89.7,31.3L89.7,31.3z M93.2,29.1v0.8h1.1
	v0.4h-1.1v1.1h-0.4v-2.6h1.7v0.4L93.2,29.1L93.2,29.1z M96.2,31.3L96,30.8h-1l-0.2,0.5h-0.4l1-2.6h0.3l1,2.6H96.2z M95.5,29.3
	l-0.4,1.2h0.8L95.5,29.3z M98.1,31.3H97v-2.6h1c0.4,0,0.7,0.2,0.8,0.6c0,0,0,0.1,0,0.1c0,0.2-0.1,0.5-0.4,0.6
	c0.2,0.1,0.4,0.3,0.4,0.6c0,0.4-0.3,0.7-0.7,0.7C98.2,31.3,98.1,31.3,98.1,31.3 M98,29.1h-0.6v0.8H98c0.2,0,0.4-0.1,0.4-0.3
	c0,0,0,0,0-0.1C98.4,29.2,98.3,29.1,98,29.1C98,29.1,98,29.1,98,29.1 M98,30.2h-0.6V31H98c0.2,0,0.4-0.2,0.4-0.4
	C98.4,30.4,98.3,30.2,98,30.2 M100.9,31.3l-0.6-1.1h-0.5v1.1h-0.4v-2.6h1c0.4,0,0.8,0.3,0.8,0.7c0,0,0,0.1,0,0.1
	c0,0.3-0.2,0.6-0.5,0.7l0.6,1.2L100.9,31.3L100.9,31.3z M100.4,29.1h-0.6v0.8h0.6c0.2,0,0.4-0.2,0.4-0.4
	C100.9,29.3,100.7,29.1,100.4,29.1C100.5,29.1,100.5,29.1,100.4,29.1 M101.9,28.7h0.4v2.6h-0.4V28.7z M103.8,31.4
	c-0.3,0-0.5-0.1-0.7-0.3c-0.2-0.3-0.3-0.7-0.3-1.1c-0.1-0.4,0-0.8,0.3-1.1c0.2-0.2,0.4-0.3,0.7-0.3c0.5,0,0.9,0.3,0.9,0.8h-0.4
	c0-0.3-0.3-0.5-0.5-0.4c-0.1,0-0.3,0.1-0.4,0.2c-0.2,0.5-0.2,1.1,0,1.6c0.1,0.1,0.2,0.2,0.4,0.2c0.3,0,0.5-0.2,0.5-0.4h0.4
	C104.7,31,104.3,31.4,103.8,31.4 M106.7,31.3l-0.2-0.5h-1l-0.2,0.5h-0.4l1-2.6h0.3l1,2.6H106.7L106.7,31.3z M106,29.3l-0.4,1.2h0.8
	L106,29.3z M109.1,31.3l-1.2-1.8v1.8h-0.4v-2.6h0.4l1.2,1.8v-1.8h0.4v2.6H109.1L109.1,31.3z M111.1,29.1v2.3h-0.4v-2.3H110v-0.4h1.8
	v0.4H111.1L111.1,29.1z M112.2,31.3v-2.6h1.7v0.4h-1.3v0.8h1.1v0.4h-1.1V31h1.3v0.4L112.2,31.3L112.2,31.3z M115.2,31.4
	c-0.3,0-0.7-0.1-0.9-0.3l0.3-0.3c0.2,0.2,0.4,0.3,0.7,0.3c0.2,0.1,0.5-0.1,0.5-0.3c0,0,0,0,0-0.1c0-0.1,0-0.2-0.1-0.3
	c-0.1-0.1-0.2-0.1-0.3-0.1l-0.3,0c-0.2,0-0.4-0.1-0.5-0.2c-0.1-0.1-0.2-0.3-0.2-0.5c0-0.4,0.3-0.8,0.8-0.8c0,0,0.1,0,0.1,0
	c0.3,0,0.6,0.1,0.8,0.3l-0.3,0.2c-0.2-0.1-0.4-0.2-0.6-0.2c-0.2,0-0.4,0.1-0.5,0.4c0,0,0,0,0,0.1c0,0.1,0,0.2,0.1,0.2
	c0.1,0.1,0.2,0.1,0.3,0.1l0.3,0c0.2,0,0.4,0.1,0.5,0.2c0.1,0.1,0.2,0.3,0.2,0.5C116.1,31,115.7,31.4,115.2,31.4
	C115.2,31.4,115.2,31.4,115.2,31.4 M119.1,31.1c-0.2,0.2-0.4,0.3-0.7,0.2h-0.9v-2.6h0.9c0.3,0,0.5,0.1,0.7,0.2
	c0.2,0.3,0.3,0.7,0.3,1C119.4,30.4,119.4,30.8,119.1,31.1 M118.8,29.2c-0.1-0.1-0.3-0.2-0.4-0.2h-0.5V31h0.5c0.2,0,0.3-0.1,0.4-0.2
	c0.1-0.2,0.2-0.5,0.1-0.8C119,29.7,119,29.5,118.8,29.2 M120,31.3v-2.6h1.7v0.4h-1.3v0.8h1.1v0.4h-1.1V31h1.3v0.4L120,31.3L120,31.3
	z M124.6,31.3l-0.2-0.5h-1l-0.2,0.5h-0.4l1-2.6h0.3l1,2.6H124.6L124.6,31.3z M123.9,29.3l-0.4,1.2h0.8L123.9,29.3z M125.4,31.3v-2.6
	h0.4V31h1.3v0.4H125.4L125.4,31.3z M127.5,28.7h0.4v2.6h-0.4V28.7z M130.5,31.3v-1.8l-0.6,1.3h-0.3l-0.6-1.3v1.8h-0.4v-2.6h0.4
	l0.8,1.6l0.8-1.6h0.4v2.6H130.5L130.5,31.3z M131.6,31.3v-2.6h1.7v0.4H132v0.8h1.1v0.4H132V31h1.3v0.4L131.6,31.3L131.6,31.3z
	 M135.4,31.3l-1.2-1.8v1.8h-0.4v-2.6h0.4l1.2,1.8v-1.8h0.4v2.6H135.4L135.4,31.3z M137.3,29.1v2.3h-0.4v-2.3h-0.7v-0.4h1.8v0.4
	H137.3L137.3,29.1z M140,31.1c-0.4,0.4-1,0.4-1.4,0c-0.2-0.3-0.3-0.7-0.3-1.1c-0.1-0.4,0-0.8,0.3-1.1c0.4-0.4,1-0.4,1.4,0
	c0.2,0.3,0.3,0.7,0.2,1.1C140.3,30.4,140.2,30.8,140,31.1 M139.7,29.2c-0.2-0.2-0.5-0.2-0.8,0c0,0,0,0,0,0c-0.2,0.5-0.2,1.1,0,1.6
	c0.2,0.2,0.5,0.2,0.8,0c0,0,0,0,0,0C139.9,30.3,139.9,29.7,139.7,29.2 M141.5,31.4c-0.3,0-0.7-0.1-0.9-0.3l0.3-0.3
	c0.2,0.2,0.4,0.3,0.7,0.3c0.2,0.1,0.5-0.1,0.5-0.3c0,0,0,0,0-0.1c0-0.1,0-0.2-0.1-0.3c-0.1-0.1-0.2-0.1-0.3-0.1l-0.3,0
	c-0.2,0-0.4-0.1-0.5-0.2c-0.1-0.1-0.2-0.3-0.2-0.5c0-0.4,0.3-0.8,0.8-0.8c0,0,0.1,0,0.1,0c0.3,0,0.6,0.1,0.8,0.3l-0.3,0.2
	c-0.2-0.1-0.4-0.2-0.6-0.2c-0.2,0-0.4,0.1-0.5,0.4c0,0,0,0,0,0.1c0,0.1,0,0.2,0.1,0.2c0.1,0.1,0.2,0.1,0.3,0.1l0.3,0
	c0.2,0,0.4,0.1,0.5,0.2c0.1,0.1,0.2,0.3,0.2,0.5C142.4,31,142.1,31.4,141.5,31.4C141.6,31.4,141.5,31.4,141.5,31.4 M57.3,35.1h-1.1
	v-2.6h1c0.4,0,0.7,0.2,0.8,0.6c0,0,0,0.1,0,0.1c0,0.2-0.1,0.5-0.4,0.6c0.2,0.1,0.4,0.3,0.4,0.6c0,0.4-0.3,0.7-0.7,0.7
	C57.4,35.1,57.3,35.1,57.3,35.1 M57.2,32.9h-0.6v0.8h0.6c0.2,0,0.4-0.1,0.4-0.3C57.7,33.1,57.5,32.9,57.2,32.9
	C57.3,32.9,57.2,32.9,57.2,32.9 M57.3,34h-0.6v0.8h0.6c0.2,0,0.4-0.1,0.4-0.3c0,0,0,0,0-0.1C57.7,34.2,57.5,34,57.3,34
	C57.3,34,57.3,34,57.3,34 M60.2,35.1L60,34.6h-1l-0.2,0.5h-0.4l1-2.6h0.3l1,2.6H60.2z M59.5,33.1l-0.4,1.2h0.8L59.5,33.1z M61,35.1
	v-2.6h0.4v2.3h1.3v0.4H61L61,35.1z M64.6,35.1l-0.2-0.5h-1l-0.2,0.5h-0.4l1-2.6h0.3l1,2.6H64.6z M63.9,33.1l-0.4,1.2h0.8L63.9,33.1z
	 M67,35.1l-1.2-1.8v1.8h-0.4v-2.6h0.4l1.2,1.8v-1.8h0.4v2.6L67,35.1L67,35.1z M68.9,35.2c-0.3,0-0.5-0.1-0.7-0.3
	c-0.2-0.3-0.3-0.7-0.3-1.1c-0.1-0.4,0-0.8,0.3-1.1c0.2-0.2,0.4-0.3,0.7-0.3c0.5,0,0.9,0.3,0.9,0.8h-0.4c0-0.3-0.3-0.5-0.5-0.4
	c-0.1,0-0.3,0.1-0.4,0.1c-0.2,0.2-0.2,0.5-0.2,0.8c-0.1,0.3,0,0.6,0.2,0.8c0.1,0.1,0.2,0.2,0.4,0.2c0.3,0,0.5-0.2,0.5-0.4h0.4
	C69.8,34.8,69.4,35.2,68.9,35.2 M70.4,35.1v-2.6H72v0.4h-1.3v0.8h1.1V34h-1.1v0.8H72v0.4L70.4,35.1L70.4,35.1z M74.1,35.1l-0.2-0.5
	h-1l-0.2,0.5h-0.4l1-2.6h0.3l1,2.6H74.1L74.1,35.1z M73.4,33.1L73,34.3h0.8L73.4,33.1z M76.5,34.9c-0.2,0.2-0.4,0.3-0.7,0.2h-0.9
	v-2.6h0.9c0.3,0,0.5,0.1,0.7,0.2c0.2,0.3,0.3,0.7,0.3,1C76.8,34.2,76.7,34.6,76.5,34.9 M76.2,33.1c-0.1-0.1-0.3-0.2-0.4-0.2h-0.5
	v1.9h0.5c0.2,0,0.3-0.1,0.4-0.2c0.1-0.2,0.2-0.5,0.1-0.8C76.4,33.5,76.3,33.3,76.2,33.1 M78.9,34.9c-0.4,0.4-1,0.4-1.4,0
	c-0.2-0.3-0.3-0.7-0.3-1.1c-0.1-0.4,0-0.8,0.3-1.1c0.4-0.4,1-0.4,1.4,0c0.2,0.3,0.3,0.7,0.2,1.1C79.2,34.2,79.1,34.6,78.9,34.9
	 M78.6,33c-0.2-0.2-0.6-0.2-0.8,0c-0.2,0.2-0.2,0.5-0.2,0.8c-0.1,0.3,0,0.6,0.2,0.8c0.2,0.2,0.6,0.2,0.8,0c0.2-0.2,0.2-0.5,0.2-0.8
	C78.8,33.5,78.7,33.3,78.6,33 M80.4,35.2c-0.3,0-0.7-0.1-0.9-0.4l0.3-0.3c0.2,0.2,0.4,0.3,0.7,0.2c0.2,0.1,0.5-0.1,0.5-0.3
	c0,0,0,0,0-0.1c0-0.1,0-0.2-0.1-0.3c-0.1-0.1-0.2-0.1-0.3-0.1l-0.3,0c-0.2,0-0.4-0.1-0.5-0.2c-0.1-0.1-0.2-0.3-0.2-0.5
	c0-0.4,0.3-0.8,0.8-0.8c0,0,0.1,0,0.1,0c0.3,0,0.6,0.1,0.8,0.3L81,33c-0.2-0.1-0.4-0.2-0.6-0.2c-0.2,0-0.4,0.1-0.5,0.3
	c0,0,0,0,0,0.1c0,0.1,0,0.2,0.1,0.2c0.1,0.1,0.2,0.1,0.3,0.1l0.3,0c0.2,0,0.4,0.1,0.5,0.2c0.1,0.1,0.2,0.3,0.2,0.5
	C81.3,34.9,80.9,35.2,80.4,35.2C80.4,35.2,80.4,35.2,80.4,35.2 M83.6,34.1v1.1h-0.4v-1.1l-0.8-1.5h0.4l0.5,1.1l0.5-1.1h0.4
	L83.6,34.1z M87.2,34.9c-0.2,0.2-0.4,0.3-0.7,0.2h-0.9v-2.6h0.9c0.3,0,0.5,0.1,0.7,0.2c0.2,0.3,0.3,0.7,0.3,1
	C87.6,34.2,87.5,34.6,87.2,34.9 M87,33.1c-0.1-0.1-0.3-0.2-0.4-0.2H86v1.9h0.5c0.2,0,0.3-0.1,0.4-0.2c0.1-0.2,0.2-0.5,0.1-0.8
	C87.1,33.5,87.1,33.3,87,33.1 M88.1,35.1v-2.6h1.7v0.4h-1.3v0.8h1.1V34h-1.1v0.8h1.3v0.4L88.1,35.1L88.1,35.1z M91.2,35.1v-2.6h0.4
	v2.3h1.3v0.4H91.2L91.2,35.1z M94.8,35.1l-0.2-0.5h-1l-0.2,0.5H93l1-2.6h0.3l1,2.6H94.8L94.8,35.1z M94.1,33.1l-0.4,1.2h0.8
	L94.1,33.1z M98.1,35.1l-1.2-1.8v1.8h-0.4v-2.6h0.4l1.2,1.8v-1.8h0.4v2.6H98.1z M100,35.2c-0.5,0-0.9-0.4-0.9-0.8c0,0,0,0,0-0.1
	v-1.7h0.4v1.7c0,0.3,0.2,0.6,0.5,0.6c0.3,0,0.6-0.2,0.6-0.5c0,0,0,0,0-0.1v-1.7h0.4v1.7C101,34.8,100.6,35.2,100,35.2
	C100.1,35.2,100.1,35.2,100,35.2 M102.5,32.9v2.3h-0.4v-2.3h-0.7v-0.4h1.8v0.4H102.5L102.5,32.9z M105.1,35.1l-0.6-1.1h-0.5v1.1
	h-0.4v-2.6h1c0.4,0,0.8,0.3,0.8,0.7c0,0,0,0.1,0,0.1c0,0.3-0.2,0.6-0.5,0.7l0.6,1.2L105.1,35.1L105.1,35.1z M104.7,32.9h-0.6v0.8
	h0.6c0.2,0,0.4-0.2,0.4-0.4C105.1,33.1,105,32.9,104.7,32.9C104.7,32.9,104.7,32.9,104.7,32.9 M106.1,32.5h0.4v2.6h-0.4V32.5z
	 M108,35.2c-0.3,0-0.5-0.1-0.7-0.3c-0.2-0.3-0.3-0.7-0.3-1.1c-0.1-0.4,0-0.8,0.3-1.1c0.2-0.2,0.4-0.3,0.7-0.3c0.5,0,0.9,0.3,0.9,0.8
	h-0.4c0-0.3-0.3-0.5-0.5-0.4c-0.1,0-0.3,0.1-0.4,0.1c-0.2,0.2-0.2,0.5-0.2,0.8c-0.1,0.3,0,0.6,0.2,0.8c0.1,0.1,0.2,0.2,0.4,0.2
	c0.3,0,0.5-0.2,0.5-0.4h0.4C108.9,34.8,108.5,35.2,108,35.2 M109.5,32.5h0.4v2.6h-0.4V32.5z M112.1,34.9c-0.4,0.4-1,0.4-1.4,0
	c-0.3-0.7-0.3-1.4,0-2.1c0.4-0.4,1-0.4,1.4,0c0.2,0.3,0.3,0.7,0.3,1.1C112.4,34.2,112.4,34.6,112.1,34.9 M111.8,33
	c-0.2-0.2-0.6-0.2-0.8,0c-0.2,0.2-0.2,0.5-0.2,0.8c-0.1,0.3,0,0.6,0.2,0.8c0.2,0.2,0.6,0.2,0.8,0c0.2-0.2,0.2-0.5,0.2-0.8
	C112,33.5,112,33.3,111.8,33 M111.5,32.3h-0.3l0.3-0.6h0.4L111.5,32.3z M114.6,35.1l-1.2-1.8v1.8H113v-2.6h0.4l1.2,1.8v-1.8h0.4v2.6
	H114.6L114.6,35.1z M118,35.1l-0.2-0.5h-1l-0.2,0.5h-0.4l1-2.6h0.3l1,2.6H118z M117.3,33.1l-0.4,1.2h0.8L117.3,33.1z M120.4,35.1
	l-1.2-1.8v1.8h-0.4v-2.6h0.4l1.2,1.8v-1.8h0.4v2.6H120.4L120.4,35.1z M121.5,32.5h0.4v2.6h-0.4V32.5z M124.5,35.1v-1.8l-0.6,1.3
	h-0.3l-0.6-1.3v1.8h-0.4v-2.6h0.4l0.8,1.6l0.8-1.6h0.4v2.6H124.5L124.5,35.1z M127,35.1l-0.2-0.5h-1l-0.2,0.5h-0.4l1-2.6h0.3l1,2.6
	H127z M126.4,33.1l-0.4,1.2h0.8L126.4,33.1z M127.8,35.1v-2.6h0.4v2.3h1.3v0.4H127.8L127.8,35.1z M129.9,35.7v-1h0.4v0.6L129.9,35.7
	z M133.3,35.1l-0.2-0.5h-1l-0.2,0.5h-0.4l1-2.6h0.3l1,2.6H133.3z M132.7,33.1l-0.4,1.2h0.8L132.7,33.1z M134.1,34.7h0.4v0.4h-0.4
	V34.7z M136,35.2c-0.3,0-0.5-0.1-0.7-0.3c-0.2-0.3-0.3-0.7-0.3-1.1c-0.1-0.4,0-0.8,0.3-1.1c0.2-0.2,0.4-0.3,0.7-0.3
	c0.5,0,0.9,0.3,0.9,0.8h-0.4c0-0.3-0.3-0.5-0.5-0.4c-0.1,0-0.3,0.1-0.4,0.1c-0.2,0.2-0.2,0.5-0.2,0.8c-0.1,0.3,0,0.6,0.2,0.8
	c0.1,0.1,0.2,0.2,0.4,0.2c0.3,0,0.5-0.2,0.5-0.4h0.4C136.9,34.8,136.5,35.2,136,35.2 M137.4,34.7h0.4v0.4h-0.4L137.4,34.7
	L137.4,34.7z M63.6,21.9c-0.1,0.2-0.3,0.4-0.4,0.5s-0.3,0.3-0.4,0.5c-0.4,0.5-0.9,0.9-1.5,1.2c-0.3,0.2-0.6,0.3-0.8,0.4
	c-0.3,0.1-0.6,0.2-0.9,0.3c-0.6,0.2-1.3,0.3-2,0.3c-1,0-1.9-0.2-2.8-0.6c-0.9-0.4-1.7-0.9-2.3-1.6c-0.7-0.7-1.2-1.4-1.6-2.3
	c-0.8-1.8-0.8-3.8,0-5.6c0.4-0.9,0.9-1.7,1.6-2.3c0.7-0.7,1.5-1.2,2.3-1.6c0.9-0.4,1.9-0.6,2.8-0.6c1.6,0,3.2,0.5,4.5,1.6
	c0.2,0.2,0.5,0.4,0.7,0.6c0.3,0.3,0.6,0.7,0.8,1c0.1,0.1,0.1,0.3,0.1,0.4c-0.1,0.1-0.2,0.2-0.3,0.3L62,15c-0.1,0.1-0.3,0.1-0.5,0
	c-0.2,0-0.3-0.1-0.4-0.3c-0.1-0.1-0.1-0.1-0.2-0.2s-0.1-0.1-0.2-0.2c-0.1-0.1-0.3-0.3-0.4-0.4c-0.1-0.1-0.3-0.2-0.5-0.3
	c-0.2-0.1-0.3-0.2-0.5-0.3c-0.2-0.1-0.4-0.1-0.5-0.2C58.4,13.1,58,13,57.6,13c-0.6,0-1.2,0.1-1.8,0.4c-0.5,0.3-1,0.6-1.4,1.1
	c-0.4,0.4-0.7,1-1,1.5c-0.2,0.6-0.4,1.2-0.4,1.8c0,0.6,0.1,1.2,0.4,1.8c0.2,0.6,0.6,1.1,1,1.5c0.4,0.4,0.9,0.8,1.4,1
	c0.6,0.3,1.2,0.4,1.8,0.4c0.4,0,0.8-0.1,1.2-0.2c0.2-0.1,0.4-0.1,0.5-0.2c0.2-0.1,0.4-0.2,0.5-0.3c0.2-0.1,0.3-0.2,0.5-0.3
	s0.3-0.2,0.4-0.4c0.1-0.1,0.1-0.1,0.2-0.2s0.1-0.1,0.2-0.2c0.1-0.1,0.3-0.2,0.4-0.3c0.2,0,0.3,0,0.5,0l1.4,0.6
	c0.1,0.1,0.3,0.2,0.3,0.3C63.7,21.6,63.7,21.7,63.6,21.9 M71.8,25.1c-1,0-1.9-0.2-2.8-0.6c-0.9-0.4-1.6-0.9-2.3-1.6
	c-0.7-0.7-1.2-1.4-1.6-2.3c-0.8-1.8-0.8-3.9,0-5.7c0.4-0.9,0.9-1.7,1.6-2.3c0.7-0.7,1.4-1.2,2.3-1.6c1.8-0.8,3.9-0.8,5.7,0
	c0.9,0.4,1.6,0.9,2.3,1.6c0.7,0.7,1.2,1.5,1.6,2.3c0.8,1.8,0.8,3.9,0,5.7c-0.7,1.7-2.1,3.1-3.9,3.9C73.8,24.9,72.8,25.1,71.8,25.1
	 M71.8,13c-0.6,0-1.2,0.1-1.8,0.4c-0.5,0.3-1,0.6-1.5,1.1c-0.4,0.4-0.8,1-1,1.5c-0.2,0.6-0.4,1.2-0.4,1.8c0,0.6,0.1,1.2,0.4,1.8
	c0.2,0.6,0.6,1.1,1,1.5c0.4,0.4,0.9,0.8,1.5,1.1c1.1,0.5,2.4,0.5,3.6,0c0.5-0.3,1-0.6,1.5-1.1c0.4-0.4,0.8-1,1-1.5
	c0.2-0.6,0.4-1.2,0.4-1.8c0-0.6-0.1-1.2-0.4-1.8c-0.2-0.6-0.6-1.1-1-1.5c-0.4-0.4-0.9-0.8-1.5-1.1C73.1,13.1,72.4,13,71.8,13
	 M83.4,17.1v7.2c0,0.2-0.1,0.3-0.2,0.4c-0.1,0.1-0.3,0.2-0.4,0.2h-1.5c-0.2,0-0.3-0.1-0.4-0.2c-0.1-0.1-0.2-0.3-0.2-0.4V11.1
	c0-0.1,0.1-0.3,0.2-0.3c0,0,0,0,0,0c0.1,0,0.3,0,0.4,0.1l8.4,8C89.9,19,90,19,90.1,19c0.1-0.1,0.1-0.2,0.1-0.3v-7.3
	c0-0.3,0.2-0.6,0.6-0.6c0,0,0,0,0,0h1.5c0.3,0,0.6,0.3,0.6,0.6c0,0,0,0,0,0v13.1c0,0.1-0.1,0.3-0.2,0.3c0,0,0,0,0,0
	c-0.2,0-0.3,0-0.4-0.1l-8.4-7.8c-0.1-0.1-0.2-0.1-0.3-0.1C83.4,16.8,83.4,17,83.4,17.1 M94.1,24.3l6.7-13.3c0.1-0.2,0.4-0.3,0.6-0.2
	c0.1,0,0.1,0.1,0.2,0.2l6.7,13.3c0.1,0.1,0.1,0.2,0,0.4c-0.1,0.1-0.2,0.2-0.3,0.2h-1.8c-0.2,0-0.4-0.1-0.5-0.2
	c-0.2-0.1-0.3-0.2-0.3-0.4l-0.6-1.1c-0.1-0.2-0.2-0.3-0.4-0.4c-0.1-0.1-0.3-0.1-0.5-0.1h-5.5c-0.2,0-0.4,0.1-0.5,0.1
	c-0.2,0.1-0.3,0.2-0.3,0.4L97,24.3c-0.1,0.2-0.2,0.3-0.4,0.4c-0.1,0.1-0.3,0.2-0.5,0.2h-1.7c-0.1,0-0.3,0-0.3-0.2
	C94,24.6,94,24.4,94.1,24.3 M99.7,20.3h2.8c0.1,0,0.3-0.1,0.3-0.2c0.1-0.1,0.1-0.3,0-0.4l-1.5-3.2c0-0.1-0.1-0.2-0.2-0.2
	s-0.2,0.1-0.2,0.2l-1.5,3.2c-0.1,0.1-0.1,0.3,0,0.4C99.4,20.2,99.6,20.3,99.7,20.3 M112,13.7V16c0,0.2,0.1,0.3,0.2,0.4
	c0.1,0.1,0.3,0.2,0.4,0.2h5.6c0.2,0,0.3,0.1,0.4,0.2c0.1,0.1,0.2,0.3,0.2,0.4v1.3c0,0.2-0.1,0.3-0.2,0.4c-0.1,0.1-0.3,0.2-0.4,0.2
	h-5.6c-0.2,0-0.3,0.1-0.4,0.2c-0.1,0.1-0.2,0.3-0.2,0.4v4.5c0,0.2-0.1,0.3-0.2,0.4c-0.1,0.1-0.3,0.2-0.4,0.2h-1.5
	c-0.2,0-0.3-0.1-0.4-0.2c-0.1-0.1-0.2-0.3-0.2-0.4V11.4c0-0.3,0.2-0.6,0.6-0.6c0,0,0,0,0,0h9.2c0.2,0,0.3,0.1,0.4,0.2
	c0.1,0.1,0.2,0.3,0.2,0.4v1.2c0,0.2-0.1,0.3-0.2,0.4c-0.1,0.1-0.3,0.2-0.4,0.2h-6.5c-0.2,0-0.3,0.1-0.4,0.2
	C112.1,13.4,112,13.6,112,13.7 M117.7,24.3l6.7-13.3c0.1-0.2,0.4-0.3,0.6-0.2c0.1,0,0.1,0.1,0.2,0.2l6.7,13.3c0.1,0.1,0.1,0.2,0,0.4
	c-0.1,0.1-0.2,0.2-0.3,0.2h-1.7c-0.2,0-0.4-0.1-0.5-0.2c-0.2-0.1-0.3-0.2-0.3-0.4l-0.6-1.1c-0.1-0.2-0.2-0.3-0.4-0.4
	c-0.1-0.1-0.3-0.1-0.5-0.1H122c-0.2,0-0.4,0.1-0.5,0.1c-0.2,0.1-0.3,0.2-0.3,0.4l-0.6,1.1c-0.1,0.2-0.2,0.3-0.4,0.4
	c-0.1,0.1-0.3,0.2-0.5,0.2H118c-0.1,0-0.3,0-0.3-0.2C117.6,24.6,117.6,24.4,117.7,24.3 M123.3,20.3h2.8c0.1,0,0.3-0.1,0.3-0.2
	c0.1-0.1,0.1-0.3,0-0.4l-1.5-3.2c0-0.1-0.1-0.2-0.2-0.2s-0.2,0.1-0.2,0.2l-1.5,3.2c-0.1,0.1-0.1,0.3,0,0.4
	C123,20.2,123.2,20.3,123.3,20.3 M143,15.6c-0.1,0.3-0.3,0.6-0.5,0.9c-0.2,0.3-0.4,0.5-0.7,0.7c-0.1,0.1-0.3,0.2-0.4,0.2
	c-0.1,0-0.2,0.1-0.2,0.1c0.1,0,0.1,0.1,0.2,0.1c0.2,0.1,0.3,0.1,0.5,0.2c0.3,0.2,0.6,0.4,0.9,0.7c0.3,0.3,0.5,0.6,0.7,1
	c0.2,0.4,0.3,0.8,0.2,1.2c0,0.7-0.1,1.3-0.3,2c-0.2,0.5-0.5,0.9-0.9,1.3c-0.4,0.3-0.9,0.6-1.4,0.7c-0.3,0.1-0.5,0.1-0.8,0.2
	c-0.3,0-0.6,0.1-0.9,0.1h-5.9c-0.2,0-0.3-0.1-0.4-0.2c-0.1-0.1-0.2-0.3-0.2-0.4V11.4c0-0.3,0.2-0.6,0.6-0.6c0,0,0,0,0,0h5.6
	c0.3,0,0.6,0,0.8,0c0.3,0,0.5,0.1,0.8,0.1c0.5,0.1,0.9,0.3,1.3,0.6c0.4,0.3,0.7,0.7,0.9,1.2c0.2,0.6,0.4,1.3,0.3,1.9
	C143.2,15,143.1,15.3,143,15.6 M136.2,16.5h2.7c0.5,0,0.9-0.2,1.2-0.6c0.1-0.2,0.2-0.4,0.3-0.6c0.1-0.2,0.1-0.4,0.1-0.6
	c0-0.2,0-0.4-0.1-0.6c-0.1-0.2-0.2-0.4-0.3-0.5c-0.1-0.1-0.3-0.3-0.4-0.3c-0.2-0.1-0.4-0.1-0.6-0.1h-2.9c-0.2,0-0.3,0.1-0.4,0.2
	c-0.1,0.1-0.2,0.3-0.2,0.4v2.1c0,0.2,0.1,0.3,0.2,0.4C135.9,16.4,136,16.5,136.2,16.5 M140,22.3c0.2-0.1,0.4-0.3,0.5-0.4
	c0.2-0.2,0.3-0.4,0.4-0.6c0.1-0.2,0.1-0.4,0.1-0.7c0-0.5-0.2-0.9-0.5-1.2c-0.4-0.3-0.9-0.5-1.5-0.5h-2.9c-0.2,0-0.3,0.1-0.4,0.2
	c-0.1,0.1-0.2,0.3-0.2,0.4v2.4c0,0.2,0.1,0.3,0.2,0.4c0.1,0.1,0.3,0.2,0.4,0.2h3.2C139.6,22.5,139.8,22.4,140,22.3 M23.1,0
	C10.3,0,0,10.3,0,23.1c0,12.8,10.3,23.1,23.1,23.1c12.8,0,23.1-10.3,23.1-23.1C46.2,10.4,35.9,0,23.1,0 M23.1,44.7
	C11.2,44.7,1.5,35,1.5,23.1c0-11.9,9.6-21.6,21.5-21.6c11.9,0,21.6,9.6,21.6,21.6c0,0,0,0,0,0C44.6,35,35,44.7,23.1,44.7 M34.7,37.7
	c-0.5,0.2-0.9,0.3-1.1,0.4c-0.2,0.1-0.4,0.3-0.5,0.4c0.2-0.1,0.3-0.1,0.5-0.2C33.9,38.2,34.3,38,34.7,37.7 M35.8,36.9
	c0.5-0.2,1-0.6,1.2-1.1c0.2-0.4,0.2-0.8,0-1.1c-0.3-0.6-0.8-1.1-1.5-1.4c-1.4-0.5-3-0.4-4.4,0.3c-0.1,0.1-0.3,0.1-0.4,0.2
	c1.1-0.3,2.4-0.3,3.5,0.2c0.7,0.3,1.3,0.8,1.5,1.6C35.9,36,35.9,36.5,35.8,36.9 M43.5,23.2c0-11.3-9.1-20.4-20.4-20.4
	c-6.5,0-12.6,3.1-16.5,8.4c0.9-0.1,1.7-0.2,2.6-0.2c3.2-0.3,6.3-1,9.3-2.1c-0.2-0.1-0.4-0.3-0.6-0.4c-0.5-0.4-0.6-1.2-0.2-1.7
	c0.5-0.5,1.4,0,1.9,0.3c0.3,0.1,0.5,0.3,0.8,0.4c0-0.3,0.2-0.7,0.5-0.9c0.8-0.7,2.3-0.9,3.5-1.4c0.3-0.1,0.7-0.2,0.2,0.4
	c-0.4,0.3-0.9,0.6-1.3,0.9l0,0c0,0-0.1,0.1-0.1,0.1c0,0,0,0,0.1,0c0.1-0.1,0.3-0.1,0.4-0.1h0c0,0,1.3-0.3,1.8-0.4l0,0
	c0,0,0.5-0.2,0.1,0.2c0,0,0,0,0,0c0,0-0.1,0.1-0.1,0.1l-0.1,0.1c0,0-0.1,0.1-0.1,0.1c-0.3,0.2-0.6,0.4-0.9,0.5l0,0
	c0,0-0.2,0.1-0.6,0.3v0c-0.1,0.1-0.2,0.2-0.3,0.3c-0.1,0.1-0.1,0.2,0,0.3c0,0,0,0,0,0c1.1,0.3,2.1,1,2.7,2c0,0,0,0.1,0.1,0.1
	c0,0.1,0.1,0.1,0.1,0.2h0c0,0,2.1,4,3.9,5.2c0,0,0,0,0,0c0.9,0.5,1.2,1.7,0.6,2.5c0,0,0,0,0,0v0c-0.3,0.7-0.9,1.1-1.6,1.3
	c0,0,0,0,0,0c-0.8,0.1-2-0.4-3.2-0.1c-1.2,0.4-2.4,0.4-3.6,0.2c-0.5,0-1,0.1-1.4,0.3c0,0,0,0,0,0c-0.7,0.4-1.3,0.9-1.8,1.5l0,0
	c0,0,0,0.1-0.1,0.1c-0.1,0.1-0.2,0.3-0.4,0.4h0c-0.1,0.1-0.3,0.3-0.3,0.4c-0.1,0.1-0.1,0.2,0,0.3c0.1,0.1,0.2,0.1,0.4,0
	c0.8-0.5,1.8-0.7,2.7-0.7h0.1c1.7,0,3.2,0,3.8,0l0,0c0.2,0,0.4-0.1,0.5-0.2c0,0,0,0,0,0c0.2-0.3,0.6-0.5,0.9-0.4
	c0.7,0.2,1.5,0.2,2.2,0l0,0c0.1,0,0.2,0,0.3-0.1c0.1-0.1,0.2-0.1,0.3,0c0,0.2-0.1,0.4-0.2,0.5c0,0,0,0,0,0c-0.1,0.2-0.2,0.3-0.2,0.3
	s0,0.1,0.1,0.1c0.1,0,1-0.1,1.9-0.3h0c0,0,0.5-0.1,0.6-0.1s0.4-0.1,0.2,0.5c0,0,0,0,0,0c-0.4,0.8-1,1.4-1.8,1.8
	c0.1,0.1,0.3,0.2,0.4,0.2c0.8,0.4,1.4,1.1,1.9,1.8c0.4,0.4,0.9,0.7,1.5,0.9c0.3,0.1,0.7,0.1,1,0c0,0,0,0,0.1,0l0,0c0,0,0.1,0,0.1,0
	c0,0,0,0,0,0c0,0,0.1,0,0.1,0c0,0,0,0,0,0c0,0,0.1,0,0.1,0c0,0,0,0,0,0c0,0,0,0,0,0c0.4,0.4,0.6,1,0.4,1.5c0,0,0,0.1,0,0.1
	c-0.2,1.4-2.9,2.6-4.7,3.3c-0.1,0-0.1,0.1-0.2,0.1c-0.8,0.3-2.8,1.1-2.8,1.1l0,0c-3.9,2.1-4.4,5.1-4.5,5.9c0.1,1.4,0.2,3.3,0.8,4.1
	c0.2,0.3,0.4,0.6,0.6,1c1.5-0.2,3-0.5,4.4-0.9c-1.1-1-1.4-2.6-0.7-3.9c1.4-2.6,4.9-2.4,4.9-2.4c-0.1,0.2,0.1,0.4,0.3,0.5
	c0,0,0,0,0.1,0c0.2,0,0.4-0.2,0.4-0.4c0,0,0-0.1,0-0.1l0.6,0c0.3,0,0.2,0.1,0.2,0.1c-0.2,0.4-0.5,0.8-0.9,1.1
	c0.2-0.1,0.4-0.1,0.7-0.2c0,0,0,0,0,0c0.3-0.4,0.3-0.9,0.2-1.4c-0.2-0.6-0.7-1.1-1.3-1.3c-1.4-0.6-2.9-0.5-4.3,0.2
	c0,0-0.1,0.1-0.3,0.1c-0.8,0.6-1.3,1.5-1.7,2.4c-0.4,1.1-0.4,2.4,0,3.5c-0.1,0-0.2,0-0.3,0c0,0,0,0-0.1,0c-0.4-1.2-0.4-2.5,0-3.6
	c0.2-0.4,0.4-0.8,0.6-1.2c-0.7,0.6-1.2,1.4-1.5,2.2c-0.5,1.5-0.3,3.1,0.5,4.4c0,0.1,0,0.2-0.1,0.3c0,0,0,0,0,0c-0.1,0-0.2,0-0.3-0.1
	c-0.8-1.4-1-3.2-0.5-4.7c0.6-1.5,1.7-2.7,3.1-3.4c0.5-0.5,1.1-0.8,1.7-1.1c1.4-0.8,3.1-0.9,4.7-0.3c0.8,0.3,1.4,0.8,1.7,1.6
	c0.2,0.5,0.2,1,0,1.4c-0.1,0.3-0.3,0.5-0.6,0.8c-0.4,0.3-0.8,0.6-1.3,0.7c-0.1,0.2-0.3,0.4-0.5,0.6c-0.4,0.3-0.8,0.6-1.3,0.7
	c-1.5,0.5-2.3,0.8-2.3,0.8c0,0,0,0,0,0c-0.5,0.2-0.7,0.7-0.6,1.2c0,0,0,0,0,0c0.3,0.5,0.8,0.7,1.4,0.5c0.7-0.3,1.3-1,1.5-1.7
	c0.4-1,0.4,0.1,0.4,0.1c0.6-1.1,0.5,0,0.5,0c0.3-0.7,0.4-0.3,0.4-0.3c0,0.2,0,0.3,0,0.5C40.3,36,43.5,29.8,43.5,23.2 M27.3,33.7
	c-0.1-0.1-0.4-0.3-0.5-0.3s-0.1-0.1-0.1-0.1c-0.2-0.8-0.8-1.4-1.5-1.8c0,0,0,0,0,0c-0.1,0-0.1-0.1-0.1-0.2c0-0.3,0.1-0.7,0.2-1
	c0,0,0,0,0,0c0,0,0,0,0,0c0,0,0-0.1,0-0.1l0,0c0,0,0,0,0,0c0,0-0.1,0-0.1,0c-0.3,0.2-0.6,0.4-0.8,0.7c-0.1,0.1-0.1,0-0.1-0.1
	c0-0.3,0.1-0.6,0.1-0.8c0-0.1,0-0.2-0.1-0.3l0,0c-0.3-0.1-1,0.9-1.3,1.3c-0.2,0.3-0.5,0.6-0.8,0.8l0,0c0,0-0.1,0.1-0.1,0.1v0
	c-0.8,0.8-1.5,1.8-1.9,2.8C20,35,20,35.3,20,35.5l0,0c0.2,2.4-0.4,4-0.5,4s-0.1-0.3-0.1-0.3c0.2-1.1,0.1-2.1,0-3.2l0,0
	c-0.5-2.3-1.4-4.5-2.6-6.6c0-0.1-0.1-0.2,0.1-0.2l0,0c0.6,0.1,2.2,0.3,1.9-1.1c-0.1-0.7-0.9-1.2-0.9-1.8c0-0.1,0-0.2,0.1-0.2
	C18.2,26,18.6,26,19,26l0,0c0.4,0,0.1-0.2,0.1-0.2s0,0,0,0c-0.2-0.2-0.5-0.4-0.8-0.5c-0.1,0,0-0.2,0-0.2c0.3-0.2,0.4-0.6,0.5-0.9
	c0-0.5-0.3-0.9-0.8-1c-0.1,0-0.2,0-0.3,0c-0.1,0-0.2,0-0.3,0c-0.3,0-0.5-0.1-0.7-0.3l0,0c-0.1-0.1-0.1-0.2-0.2-0.2
	c-0.1-0.2-0.3-0.3-0.5-0.2c0,0-0.1,0-0.1,0.1c-0.1,0.1-0.2,0.1-0.2,0.1c-0.3,0.2-0.8,0.2-1.1,0.1c-0.2-0.1-0.5,0-0.6,0.2
	c0,0,0,0,0,0c0,0.1,0,0.2,0,0.3v0c0,0.1,0,0.1,0,0.1c0,0.4,0.4,0.8,0.8,0.9l0,0c0,0,0.1,0.1-0.1,0.2c-1.2,0.2-2.3,0.9-3,1.9
	c0.4-2,1.2-4,2.3-5.8c0.9-0.1,2,0.2,2.8,0.2H17c1.1-0.1,2-0.8,2.3-1.8l0,0c0.2-0.3,0.2-0.6,0.1-0.9c-0.4-0.4-0.9-0.7-1.4-1
	c-0.4-0.3-0.9-0.5-1.3-0.8c0,0,0,0,0,0c-0.3-0.2-0.5-0.4-0.6-0.7c-0.6-1.9-2.5-3.2-4.5-3c0-0.2-0.1-0.4-0.2-0.6
	c-0.1-0.2-0.3-0.2-0.5-0.1c-0.2,0.1-0.5,0.3-0.7,0.5c-0.4,0.4-0.9,0.7-1.5,0.9c-0.7,0.2-0.9,0.6-0.6,1c0.1,0.1,0.2,0.3,0.4,0.4
	c-1.8,2.8-2,5-5.4,6.4c-0.1,0-0.1,0.1-0.2,0.1c-0.1,0.7-0.1,1.4-0.1,2.1c0,0.4,0,0.8,0,1.1c0.1,1.2,0.3,2.2,0.5,3.3
	C3.8,30.3,5,33,6.7,35.3c0.5-0.2,1-0.5,1.4-0.9c1.1-1.1,1.9-2.4,2.4-3.8c-0.2,2.8,0.5,4.8-1.9,5.3c-0.3,0.1-0.8,0.1-1.3,0.2
	c2.7,3.2,6.3,5.6,10.3,6.7c0.4,0.1,0.8,0.2,1.3,0.3c0,0,0,0,0,0l0,0c1.3,0.2,2.6,0.4,3.8,0.4c1.2-1.3,2.2-4.5,2.5-6.6
	c0-0.4,0.2-0.7,0.6-0.9c0.2,0,0.4-0.1,0.7-0.2l0,0c0.6-0.2,1-0.8,1-1.4C27.5,34.1,27.5,33.9,27.3,33.7"/>
</svg>
