<svg id="Capa_1" data-name="Capa 1" xmlns="http://www.w3.org/2000/svg" viewBox="0 0 49.6 49.6"><defs><style>.cls-1{fill:#94d8ea;}</style></defs><title>instagram-logo-02</title><path class="cls-1" d="M24.8,20.7A4.2,4.2,0,1,0,29,24.9,4.1,4.1,0,0,0,24.8,20.7Z"/><path class="cls-1" d="M30.8,14H18.9a5,5,0,0,0-5,5V30.8a5,5,0,0,0,5,5H30.7a5,5,0,0,0,5-5V18.9A4.91,4.91,0,0,0,30.8,14Zm-6,18.4a7.5,7.5,0,1,1,7.5-7.5A7.49,7.49,0,0,1,24.8,32.4Zm7.4-12.8a2.2,2.2,0,1,1,2.2-2.2A2.22,2.22,0,0,1,32.2,19.6Z"/><path class="cls-1" d="M24.8,0A24.8,24.8,0,1,0,49.6,24.8,24.86,24.86,0,0,0,24.8,0ZM39.1,30.8a8.28,8.28,0,0,1-8.3,8.3H18.9a8.28,8.28,0,0,1-8.3-8.3V18.9a8.28,8.28,0,0,1,8.3-8.3H30.7A8.28,8.28,0,0,1,39,18.9l.1,11.9Z"/></svg>