<?xml version="1.0" encoding="utf-8"?>
<!-- Generator: Adobe Illustrator 22.1.0, SVG Export Plug-In . SVG Version: 6.00 Build 0)  -->
<svg version="1.1" id="Capa_1" xmlns="http://www.w3.org/2000/svg" xmlns:xlink="http://www.w3.org/1999/xlink" x="0px" y="0px"
	 viewBox="0 0 30 30" style="enable-background:new 0 0 30 30;" xml:space="preserve">
<style type="text/css">
	.st0{fill:#94D8EA;}
</style>
<path id="Forma_34" class="st0" d="M15,0C6.8,0,0,6.7,0,15C0,23.3,6.7,30,15,30c8.3,0,15-6.7,15.1-15c0,0,0,0,0,0
	C30,6.7,23.3,0,15,0z M8,9h14c0.5,0,1,0.2,1.4,0.5l-8.1,7.6c-0.2,0.2-0.5,0.2-0.8,0L6.6,9.5C7,9.1,7.5,9,8,9z M5.7,19.3v-8
	c0-0.4,0.1-0.8,0.3-1.1l6,5.6l-5.9,4.8C5.8,20.2,5.7,19.7,5.7,19.3z M22.1,21.7H8c-0.5,0-0.9-0.1-1.3-0.4l5.9-4.8l1.3,1.3
	c0.6,0.5,1.5,0.5,2.1,0l1.3-1.3l5.9,4.8C23,21.5,22.5,21.7,22.1,21.7z M24.1,20.6L24.1,20.6l-6-4.8l6-5.7c0.2,0.4,0.3,0.8,0.3,1.2
	l0,8C24.5,19.8,24.3,20.2,24.1,20.6L24.1,20.6z"/>
</svg>
