<?xml version="1.0" encoding="utf-8"?>
<!-- Generator: Adobe Illustrator 22.1.0, SVG Export Plug-In . SVG Version: 6.00 Build 0)  -->
<svg version="1.1" id="Capa_1" xmlns="http://www.w3.org/2000/svg" xmlns:xlink="http://www.w3.org/1999/xlink" x="0px" y="0px"
	 viewBox="0 0 24 24" style="enable-background:new 0 0 24 24;" xml:space="preserve">
<style type="text/css">
	.st0{fill:#94D8EA;}
</style>
<path id="Forma_33" class="st0" d="M12,0C5.4,0,0,5.4,0,12s5.4,12,12,12s12-5.4,12-12l0,0C24,5.4,18.6,0,12,0z M14.2,18
	C9.6,17.7,6.1,14,6,9.5c0-1.6,1-3,2.5-3.5c1.1,0.8,1.8,2,2,3.4C10,10,9.4,10.5,8.6,10.9c0.9,2,2.4,3.6,4.4,4.4
	c0.3-0.8,0.8-1.4,1.4-1.9c1.4,0.2,2.6,0.9,3.4,2C17.3,17,15.8,18,14.2,18z"/>
</svg>
