<?xml version="1.0" encoding="utf-8"?>
<!-- Generator: Adobe Illustrator 22.1.0, SVG Export Plug-In . SVG Version: 6.00 Build 0)  -->
<svg version="1.1" id="Capa_1" xmlns="http://www.w3.org/2000/svg" xmlns:xlink="http://www.w3.org/1999/xlink" x="0px" y="0px"
	 viewBox="0 0 442 180.3" style="enable-background:new 0 0 442 180.3;" xml:space="preserve">
<style type="text/css">
	.st0{fill:#94D8EA;}
</style>
<g>
	<path id="Forma_21" class="st0" d="M275.7,180.3c-3.3,0.1-6.5-0.6-9.5-2.1l-12.5-6.5c-4.7-2.5-12.4-2.5-17.2,0l-12.5,6.5
		c-5.2,2.7-13.8,2.7-19,0l-12.5-6.5c-4.7-2.5-12.4-2.5-17.2,0l-12.5,6.5c-0.5,0.3-1.1,0.2-1.4-0.3c-0.3-0.5-0.2-1.1,0.3-1.4
		c0.1,0,0.1-0.1,0.2-0.1l12.5-6.5c5.2-2.7,13.8-2.7,19,0l12.5,6.5c4.7,2.5,12.4,2.5,17.2,0l12.5-6.5c5.2-2.7,13.8-2.7,19,0l12.5,6.5
		c4.7,2.5,12.4,2.5,17.2,0l12.5-6.5c5.2-2.7,13.8-2.7,19,0l12.5,6.5c0.5,0.3,0.7,0.9,0.4,1.3c0,0,0,0,0,0c-0.3,0.5-0.9,0.7-1.4,0.4
		l-12.5-6.5c-4.7-2.5-12.4-2.5-17.2,0l-12.5,6.5C282.2,179.6,278.9,180.4,275.7,180.3z M275.7,174.7c-3.3,0.1-6.5-0.6-9.5-2
		l-12.5-6.5c-4.7-2.5-12.4-2.5-17.2,0l-12.5,6.5c-5.2,2.7-13.8,2.7-19,0l-12.5-6.5c-4.7-2.5-12.4-2.5-17.2,0l-12.5,6.5
		c-0.5,0.3-1.1,0.1-1.4-0.4c-0.3-0.5-0.1-1.1,0.4-1.3c0,0,0,0,0,0l12.5-6.5c5.2-2.7,13.8-2.7,19,0l12.5,6.5c4.7,2.5,12.4,2.5,17.2,0
		l12.5-6.5c5.2-2.7,13.8-2.7,19,0l12.5,6.5c4.7,2.5,12.4,2.5,17.2,0l12.5-6.5c5.2-2.7,13.8-2.7,19,0l12.5,6.5
		c0.5,0.3,0.7,0.9,0.4,1.3c0,0,0,0,0,0c-0.3,0.5-0.9,0.7-1.4,0.4l-12.5-6.5c-4.7-2.5-12.4-2.5-17.2,0l-12.5,6.5
		C282.2,174,278.9,174.7,275.7,174.7L275.7,174.7z M275.7,169.1c-3.3,0.1-6.6-0.6-9.5-2.1l-12.5-6.5c-4.7-2.5-12.4-2.5-17.2,0
		l-12.5,6.5c-5.2,2.8-13.8,2.8-19,0l-12.5-6.5c-4.7-2.5-12.4-2.5-17.2,0l-12.5,6.5c-0.5,0.3-1.1,0.1-1.4-0.4
		c-0.3-0.5-0.1-1.1,0.4-1.3c0,0,0,0,0,0l12.5-6.5c5.2-2.8,13.8-2.8,19,0l12.5,6.5c4.7,2.5,12.4,2.5,17.2,0l12.5-6.5
		c5.2-2.8,13.8-2.8,19,0l12.5,6.5c4.7,2.5,12.4,2.5,17.2,0l12.5-6.5c5.2-2.8,13.8-2.8,19,0l12.5,6.5c0.5,0.2,0.7,0.8,0.4,1.3
		c0,0,0,0,0,0c-0.3,0.5-0.9,0.7-1.4,0.4l-12.5-6.5c-4.7-2.5-12.4-2.5-17.2,0l-12.5,6.5C282.2,168.4,278.9,169.1,275.7,169.1
		L275.7,169.1z M275.7,163.5c-3.3,0.1-6.5-0.6-9.5-2.1l-12.5-6.5c-4.7-2.5-12.4-2.5-17.2,0l-12.5,6.5c-5.2,2.8-13.8,2.8-19,0
		l-12.5-6.5c-4.7-2.5-12.4-2.5-17.2,0l-12.5,6.5c-0.5,0.3-1.1,0.2-1.4-0.3c-0.3-0.5-0.2-1.1,0.3-1.4c0.1,0,0.1-0.1,0.2-0.1l12.5-6.5
		c5.2-2.7,13.8-2.7,19,0l12.5,6.5c4.7,2.5,12.4,2.5,17.2,0l12.5-6.5c5.2-2.7,13.8-2.7,19,0l12.5,6.5c4.7,2.5,12.4,2.5,17.2,0
		l12.5-6.5c5.2-2.7,13.8-2.7,19,0l12.5,6.5c0.5,0.2,0.8,0.8,0.5,1.3s-0.8,0.8-1.3,0.5c-0.1,0-0.1-0.1-0.2-0.1l-12.5-6.5
		c-4.7-2.5-12.4-2.5-17.2,0l-12.5,6.5C282.2,162.8,278.9,163.5,275.7,163.5L275.7,163.5z M275.7,157.9c-3.3,0.1-6.5-0.6-9.5-2.1
		l-12.5-6.6c-4.7-2.5-12.4-2.5-17.2,0l-12.5,6.6c-5.2,2.7-13.8,2.7-19,0l-12.5-6.6c-4.7-2.5-12.4-2.5-17.2,0l-12.5,6.6
		c-0.5,0.3-1.1,0.1-1.4-0.4c-0.3-0.5-0.1-1.1,0.4-1.3c0,0,0,0,0,0l12.5-6.5c5.2-2.7,13.8-2.7,19,0l12.5,6.5c4.7,2.5,12.4,2.5,17.2,0
		l12.5-6.5c5.2-2.7,13.8-2.7,19,0l12.5,6.5c4.7,2.5,12.4,2.5,17.2,0l12.5-6.5c5.2-2.7,13.8-2.7,19,0l12.5,6.5
		c0.5,0.3,0.7,0.8,0.4,1.3c0,0,0,0,0,0c-0.3,0.5-0.9,0.7-1.4,0.4l-12.5-6.6c-4.7-2.5-12.4-2.5-17.2,0l-12.5,6.6
		C282.2,157.2,278.9,157.9,275.7,157.9L275.7,157.9z M275.7,152.3c-3.3,0.1-6.5-0.6-9.5-2.1l-12.5-6.5c-4.7-2.5-12.4-2.5-17.2,0
		l-12.5,6.5c-5.2,2.7-13.8,2.7-19,0l-12.5-6.5c-4.7-2.5-12.4-2.5-17.2,0l-12.5,6.5c-0.5,0.3-1.1,0.1-1.4-0.4
		c-0.3-0.5-0.1-1.1,0.4-1.3c0,0,0,0,0,0l12.5-6.5c5.2-2.7,13.8-2.7,19,0l12.5,6.5c4.7,2.5,12.4,2.5,17.2,0l12.5-6.5
		c5.2-2.7,13.8-2.7,19,0l12.5,6.5c4.7,2.5,12.4,2.5,17.2,0l12.5-6.5c5.2-2.7,13.8-2.7,19,0l12.5,6.5c0.5,0.3,0.7,0.8,0.4,1.3
		c0,0,0,0,0,0c-0.3,0.5-0.9,0.7-1.4,0.4l-12.5-6.5c-4.7-2.5-12.4-2.5-17.2,0l-12.5,6.5C282.2,151.6,278.9,152.3,275.7,152.3
		L275.7,152.3z M275.7,146.7c-3.3,0.1-6.5-0.6-9.5-2.1l-12.5-6.5c-4.7-2.5-12.4-2.5-17.2,0l-12.5,6.5c-5.2,2.7-13.8,2.7-19,0
		l-12.5-6.5c-4.7-2.5-12.4-2.5-17.2,0l-12.5,6.5c-0.5,0.3-1.1,0.1-1.4-0.4c-0.3-0.5-0.1-1.1,0.4-1.3c0,0,0,0,0,0l12.5-6.5
		c5.2-2.7,13.8-2.7,19,0l12.5,6.5c4.7,2.5,12.4,2.5,17.2,0l12.5-6.5c5.2-2.7,13.8-2.7,19,0l12.5,6.5c4.7,2.5,12.4,2.5,17.2,0
		l12.5-6.5c5.2-2.7,13.8-2.7,19,0l12.5,6.5c0.5,0.3,0.7,0.8,0.4,1.3c0,0,0,0,0,0c-0.3,0.5-0.9,0.7-1.4,0.4l-12.5-6.5
		c-4.7-2.5-12.4-2.5-17.2,0l-12.5,6.5C282.2,146,278.9,146.7,275.7,146.7L275.7,146.7z M275.7,141.1c-3.3,0.1-6.6-0.6-9.5-2.1
		l-12.5-6.5c-4.7-2.5-12.4-2.5-17.2,0l-12.5,6.5c-5.2,2.7-13.8,2.7-19,0l-12.5-6.5c-4.7-2.5-12.4-2.5-17.2,0l-12.5,6.5
		c-0.5,0.3-1.1,0.1-1.4-0.4c-0.3-0.5-0.1-1.1,0.4-1.3c0,0,0,0,0,0l12.5-6.5c5.2-2.7,13.8-2.7,19,0l12.5,6.5c4.7,2.5,12.4,2.5,17.2,0
		l12.5-6.5c5.2-2.7,13.8-2.7,19,0l12.5,6.5c4.7,2.5,12.4,2.5,17.2,0l12.5-6.5c5.2-2.7,13.8-2.7,19,0l12.5,6.5
		c0.5,0.3,0.7,0.8,0.4,1.3c0,0,0,0,0,0c-0.3,0.5-0.9,0.7-1.4,0.4l-12.5-6.5c-4.7-2.5-12.4-2.5-17.2,0l-12.5,6.5
		C282.2,140.4,278.9,141.1,275.7,141.1L275.7,141.1z M89.4,18.6c-2.6,0.1-5.1-0.5-7.4-1.6l-9.8-5.2c-4.3-1.9-9.2-1.9-13.4,0L49,17
		c-4.7,2.2-10.1,2.2-14.9,0l-9.8-5.2c-4.3-1.9-9.2-1.9-13.4,0L1.1,17c-0.4,0.2-0.9,0.1-1.1-0.3c-0.2-0.4-0.1-0.9,0.3-1.1l0,0
		l9.8-5.2c4.7-2.2,10.1-2.2,14.9,0l9.8,5.2c4.3,1.9,9.2,1.9,13.4,0l9.8-5.2c4.7-2.2,10.1-2.2,14.9,0l9.8,5.2c4.3,1.9,9.2,1.9,13.4,0
		l9.8-5.2c4.7-2.2,10.1-2.2,14.9,0l9.8,5.2c0.4,0.2,0.5,0.7,0.3,1.1c-0.2,0.4-0.7,0.5-1.1,0.3l0,0l-9.8-5.2c-4.3-1.9-9.2-1.9-13.4,0
		L96.9,17C94.6,18.1,92,18.7,89.4,18.6z M89.4,14.2c-2.6,0.1-5.1-0.5-7.4-1.6l-9.8-5.2c-4.3-1.9-9.2-1.9-13.4,0L49,12.6
		c-4.7,2.2-10.1,2.2-14.9,0l-9.8-5.2c-4.3-1.9-9.2-1.9-13.4,0l-9.8,5.2c-0.4,0.2-0.9,0-1-0.4c-0.2-0.4,0-0.8,0.3-1L10.2,6
		c4.7-2.2,10.1-2.2,14.9,0l9.8,5.2c4.3,1.9,9.2,1.9,13.4,0L58.1,6c4.7-2.2,10.1-2.2,14.9,0l9.8,5.2c4.3,1.9,9.2,1.9,13.4,0l9.8-5.2
		c4.7-2.2,10.1-2.2,14.9,0l9.8,5.2c0.4,0.2,0.5,0.7,0.3,1.1c-0.2,0.4-0.7,0.5-1,0.3l-9.8-5.2c-4.3-1.9-9.2-1.9-13.4,0l-9.8,5.2
		C94.6,13.7,92,14.2,89.4,14.2L89.4,14.2z M89.4,9.8c-2.6,0.1-5.1-0.5-7.4-1.6L72.2,3C68,1.1,63.1,1.1,58.8,3L49,8.2
		c-4.7,2.2-10.1,2.2-14.9,0L24.4,3c-4.3-1.9-9.2-1.9-13.4,0L1.1,8.2C0.8,8.4,0.3,8.2,0.1,7.8C-0.1,7.4,0,7,0.4,6.8l9.8-5.2
		c4.7-2.2,10.2-2.2,14.9,0l9.8,5.2c4.3,1.9,9.2,1.9,13.4,0l9.8-5.2c4.7-2.2,10.1-2.2,14.9,0l9.8,5.2c4.3,1.9,9.2,1.9,13.4,0l9.8-5.2
		c4.7-2.2,10.2-2.2,14.9,0l9.8,5.2c0.4,0.2,0.5,0.7,0.3,1.1c-0.2,0.4-0.7,0.5-1.1,0.3L120.1,3c-4.3-1.9-9.2-1.9-13.4,0l-9.8,5.2
		C94.6,9.3,92,9.8,89.4,9.8z M425,49.7c-2.5,0-4.9-0.5-7.2-1.6l-9.4-5.1c-4.1-1.9-8.8-1.9-12.9,0l-9.4,5.1c-0.4,0.2-0.8,0.1-1-0.3
		c0,0,0,0,0,0c-0.2-0.4-0.1-0.8,0.3-1l9.4-5.1c4.5-2.1,9.8-2.1,14.3,0l9.4,5.1c4.1,1.9,8.8,1.9,12.9,0l9.4-5.1
		c0.4-0.2,0.8-0.1,1,0.3c0,0,0,0,0,0c0.2,0.4,0.1,0.8-0.3,1l-9.4,5.1C430,49.2,427.5,49.7,425,49.7z M425,54c-2.5,0-4.9-0.5-7.2-1.6
		l-9.4-5.1c-4.1-1.9-8.8-1.9-12.9,0l-9.4,5.1c-0.4,0.2-0.8,0.1-1-0.3c0,0,0,0,0,0c-0.2-0.4-0.1-0.8,0.3-1l9.4-5.1
		c4.5-2.1,9.8-2.1,14.3,0l9.4,5.1c4.1,1.9,8.8,1.9,12.9,0l9.4-5.1c0.4-0.2,0.8-0.1,1,0.3c0,0,0,0,0,0c0.2,0.4,0.1,0.8-0.3,1
		l-9.4,5.1C430,53.5,427.5,54.1,425,54L425,54z"/>
</g>
</svg>
