<?xml version="1.0" encoding="utf-8"?>
<!-- Generator: Adobe Illustrator 22.1.0, SVG Export Plug-In . SVG Version: 6.00 Build 0)  -->
<svg version="1.1" id="Grupo_2" xmlns="http://www.w3.org/2000/svg" xmlns:xlink="http://www.w3.org/1999/xlink" x="0px" y="0px"
	 viewBox="0 0 524 325.2" style="enable-background:new 0 0 524 325.2;" xml:space="preserve">
<style type="text/css">
	.st0{fill:#5B7ECC;}
	.st1{fill:#94D8EA;}
</style>
<g>
	<path class="st0" d="M508.7,14.6C490.5-2.5,440.1,0.2,414.8,0.2c-61.6,0-124.4,1.9-182.6,28c-18.4,9-38.2,15.6-55.3,27
		c-6.7,4.5-13.8,9.2-18.3,16c-14.5,22-1.4,50.2,6.1,74.3c38.2,123.5,142.3,88.7,229.4,120.3c44.5,16.1,81.5,59.3,129.9,59.5V44.2
		C521.9,33.1,517.5,22.9,508.7,14.6z"/>
	<path id="Forma_24" class="st1" d="M0.8,152.8c18.5,45.3,71.9,65.2,113.7,63.3c34.4-1.6,66.6-16.8,101.1-16.1
		c37.6,0.8,89.7,16.4,116.6-19.7c29.3-39.4-23.7-77.6-56.1-81.5c-63-7.7-130.9-15.3-194.2-6.8c-18.2,2.3-36,6.8-53.1,13.4
		C28.9,105.2-5.5,122.4,0.8,152.8z"/>
</g>
</svg>
