<?xml version="1.0" encoding="utf-8"?>
<!-- Generator: Adobe Illustrator 22.1.0, SVG Export Plug-In . SVG Version: 6.00 Build 0)  -->
<svg version="1.1" id="Capa_1" xmlns="http://www.w3.org/2000/svg" xmlns:xlink="http://www.w3.org/1999/xlink" x="0px" y="0px"
	 viewBox="0 0 75.9 29.3" style="enable-background:new 0 0 75.9 29.3;" xml:space="preserve">
<style type="text/css">
	.st0{fill:#94D8EA;}
</style>
<path id="Forma_20" class="st0" d="M53.3,12.5c-3.3,0.1-6.5-0.6-9.5-2.1L31.2,3.8c-4.7-2.5-12.4-2.5-17.2,0L1.6,10.4
	c-0.5,0.3-1.1,0.2-1.4-0.3S0,9,0.5,8.7c0.1,0,0.1-0.1,0.2-0.1l12.5-6.6c5.2-2.8,13.8-2.8,19,0l12.5,6.6c4.7,2.5,12.4,2.5,17.2,0
	l12.5-6.6c0.5-0.3,1.1-0.2,1.4,0.3s0.2,1.1-0.3,1.4c-0.1,0-0.1,0.1-0.2,0.1l-12.5,6.6C59.8,11.8,56.5,12.5,53.3,12.5z M53.3,18.1
	c-3.3,0.1-6.5-0.6-9.5-2.1L31.2,9.4C26.5,7,18.8,7,14.1,9.4L1.6,16c-0.5,0.3-1.1,0.2-1.4-0.3S0,14.6,0.5,14.3c0.1,0,0.1-0.1,0.2-0.1
	l12.5-6.6c5.2-2.8,13.8-2.8,19,0l12.5,6.6c4.7,2.5,12.4,2.5,17.2,0l12.5-6.6c0.5-0.3,1.1-0.2,1.4,0.3s0.2,1.1-0.3,1.4
	c-0.1,0-0.1,0.1-0.2,0.1L62.8,16C59.8,17.4,56.5,18.1,53.3,18.1z M53.3,23.7c-3.3,0.1-6.5-0.6-9.5-2.1l-12.5-6.6
	c-4.7-2.5-12.4-2.5-17.2,0L1.6,21.6c-0.5,0.3-1.1,0.2-1.4-0.3S0,20.3,0.4,20c0.1,0,0.1-0.1,0.2-0.1l12.5-6.6c5.2-2.8,13.8-2.8,19,0
	l12.5,6.6c4.7,2.5,12.4,2.5,17.2,0l12.5-6.6c0.5-0.3,1.1-0.2,1.4,0.3s0.2,1.1-0.3,1.4c-0.1,0-0.1,0.1-0.2,0.1l-12.5,6.6
	C59.8,23.1,56.5,23.8,53.3,23.7z M53.3,29.3c-3.3,0.1-6.5-0.6-9.5-2.1l-12.5-6.6c-4.7-2.5-12.4-2.5-17.2,0L1.6,27.3
	c-0.5,0.3-1.1,0.2-1.4-0.3S0,25.9,0.5,25.6c0.1,0,0.1-0.1,0.2-0.1l12.5-6.6c5.2-2.8,13.8-2.8,19,0l12.5,6.6c4.7,2.5,12.4,2.5,17.2,0
	l12.5-6.6c0.5-0.3,1.1-0.2,1.4,0.3s0.2,1.1-0.3,1.4c-0.1,0-0.1,0.1-0.2,0.1l-12.5,6.6C59.8,28.7,56.5,29.4,53.3,29.3z"/>
</svg>
