<svg id="Capa_1" data-name="Capa 1" xmlns="http://www.w3.org/2000/svg" viewBox="0 0 629.59 338.96"><defs><style>.cls-1{fill:#0b4c9a;}</style></defs><title>Conacua 2019 - Logo</title><path class="cls-1" d="M68.63,267.93c0,17.72-12.24,27.76-27.77,27.76-15.15,0-27.76-10.23-27.76-27.76V175.51c0-19,12.61-27.76,27.76-27.76,15.53,0,27.77,10.95,27.77,27.76v4.75H52.56v-4.75c0-8-5.3-11.68-11.7-11.68-6.57,0-11.68,3.65-11.68,11.68v92.42a11.53,11.53,0,0,0,11.68,11.69,11.66,11.66,0,0,0,11.7-11.69v-1.82l16.07-5.3Z"/><path class="cls-1" d="M134.76,267.93c0,16.44-12.24,27.76-27.77,27.76-15.15,0-27.76-11.14-27.76-27.76V175.51c0-17.35,12.61-27.76,27.76-27.76,15.53,0,27.77,10.23,27.77,27.76Zm-16.08-92.42c0-7.31-5.3-11.68-11.69-11.68-6.58,0-11.69,4.37-11.69,11.68v92.42c0,7.49,5.11,11.69,11.69,11.69,6.39,0,11.69-4.2,11.69-11.69Z"/><path class="cls-1" d="M25.79,322.48c-.36,6.31-3.25,9.83-8.21,9.83-5.64,0-8.81-4.37-8.81-14.27s3.17-14.28,8.81-14.28,7.93,4,7.93,8.51H23c0-3.75-1.9-6.42-5.46-6.42-3.94,0-6.34,3.25-6.34,12.19s2.4,12.18,6.34,12.18c3.48,0,5.46-3,5.73-7.74Z"/><path class="cls-1" d="M37.08,310.84c4.52,0,7.07,3.6,7.07,10.72s-2.55,10.75-7.07,10.75S30,328.71,30,321.56,32.55,310.84,37.08,310.84Zm0,19.53c2.58,0,4.59-2.24,4.59-8.81s-2-8.78-4.59-8.78-4.6,2.24-4.6,8.78S34.48,330.37,37.08,330.37Z"/><path class="cls-1" d="M49.49,311.31h2.08v2.86h.09a5.77,5.77,0,0,1,5.25-3.33c3.14,0,5.26,1.63,5.26,5.5v15.5H59.86V317c0-2.82-1.17-4.21-3.53-4.21-2.7,0-4.52,2.08-4.52,5.26v13.8H49.49Z"/><path class="cls-1" d="M79.19,311.31h2.09v19.06c0,5.69-2.09,8.59-6.73,8.59-4,0-6.08-2.09-6.11-5h2.32c0,1.93,1.82,3.09,3.86,3.09,2.83,0,4.34-2,4.34-5.6v-3.25h-.08a4.8,4.8,0,0,1-4.8,3.67c-3.17,0-6.34-2.09-6.34-10.28,0-7.08,2.05-10.72,6.57-10.72a4.89,4.89,0,0,1,4.8,3.64h.08Zm-4.6,18.6c2.74,0,4.37-2,4.37-8.59s-1.63-8.54-4.37-8.54-4.37,2-4.37,8.54S71.84,329.91,74.59,329.91Z"/><path class="cls-1" d="M87.69,311.31H90v3.21h.08a5.43,5.43,0,0,1,5.18-3.68,2.84,2.84,0,0,1,.81.12v2.32a5.63,5.63,0,0,0-1.12-.12c-2.56,0-5,1.86-5,5.84v12.84H87.69Z"/><path class="cls-1" d="M113,325c-.35,4.36-2.75,7.27-6.62,7.27-4.33,0-6.88-3-6.88-10.75,0-7.12,2.55-10.72,7.08-10.72s6.61,3.13,6.61,10v.85H102v1c0,5.91,2.09,7.73,4.36,7.73,2.44,0,3.95-1.74,4.34-5.33Zm-2.29-5.31c-.07-5.1-1.5-7-4.37-7s-4.29,1.85-4.36,7Z"/><path class="cls-1" d="M122,321.63c-2.9-1.12-4-2.82-4-4.87,0-4.21,2.63-5.92,6.11-5.92,3.87,0,5.65,2,5.65,5.73v.57h-2.32v-.57c0-2.67-1.24-3.79-3.37-3.79-2.7,0-3.75,1.42-3.75,3.48,0,1.43.47,2.55,2.79,3.44l3.36,1.27a5.26,5.26,0,0,1,3.83,5.23c0,3.52-2,6.11-6.34,6.11s-6.3-1.74-6.3-6.39v-.65h2.32v.54c0,3,1.31,4.56,3.94,4.56,2.47,0,4.06-1.39,4.06-3.67,0-1.82-.74-3-2.78-3.79Z"/><path class="cls-1" d="M141.76,310.84c4.52,0,7.08,3.6,7.08,10.72s-2.56,10.75-7.08,10.75-7.08-3.6-7.08-10.75S137.24,310.84,141.76,310.84Zm0,19.53c2.59,0,4.6-2.24,4.6-8.81s-2-8.78-4.6-8.78-4.6,2.24-4.6,8.78S139.17,330.37,141.76,330.37Z"/><path class="cls-1" d="M176.22,328.44h-.08a5.06,5.06,0,0,1-5,3.87c-4.52,0-6.57-3.64-6.57-10.75s2.05-10.72,6.57-10.72a4.58,4.58,0,0,1,4.8,3.56H176V304.23h2.33v27.61h-2.09Zm-4.72,1.93c2.36,0,4.48-1.2,4.48-8.81s-2.12-8.78-4.48-8.78S167,314,167,321.56,169.18,330.37,171.5,330.37Z"/><path class="cls-1" d="M197.14,325c-.35,4.36-2.75,7.27-6.61,7.27-4.34,0-6.89-3-6.89-10.75,0-7.12,2.55-10.72,7.08-10.72s6.61,3.13,6.61,10v.85H186.11v1c0,5.91,2.1,7.73,4.38,7.73s3.94-1.74,4.33-5.33Zm-2.28-5.31c-.08-5.1-1.51-7-4.37-7s-4.3,1.85-4.38,7Z"/><path class="cls-1" d="M218.56,304.23h3.1l8.15,27.61h-2.62l-2.24-8h-9.68l-2.24,8H210.4Zm5.84,17.48-4.25-15.55h-.08l-4.25,15.55Z"/><path class="cls-1" d="M246.29,325c-.35,4.36-2.74,7.27-6.54,7.27-4.33,0-6.88-3-6.88-10.75,0-7.12,2.55-10.72,7.08-10.72,3.87,0,6.11,2.36,6.34,6.57H244c-.27-3.21-1.55-4.63-4-4.63s-4.6,1.54-4.6,8.81c0,7.74,2.2,8.78,4.37,8.78,2.35,0,3.86-1.74,4.25-5.33Z"/><path class="cls-1" d="M251.63,311.31H254v14.46c0,3.33,1.12,4.6,3.56,4.6,2.63,0,4.48-2.09,4.48-5.26v-13.8h2.32v20.53h-2.09V329h-.07a5.78,5.78,0,0,1-5.26,3.33c-3.14,0-5.26-1.63-5.26-5.5Z"/><path class="cls-1" d="M270.3,317.41c0-4.21,2-6.57,6.35-6.57s5.8,2.21,5.8,5.45v12.15c0,1.16.39,1.7,1.2,1.7h.65v1.7a3,3,0,0,1-1.08.23c-1.82,0-3-.42-3-2.55v-.69h-.07c-.93,2.7-3,3.48-5.3,3.48-3.6,0-5.22-2.25-5.22-5.8a5.4,5.4,0,0,1,4.14-5.69l4.37-1.24c1.62-.46,2-.85,2-3.24,0-2.64-1.47-3.56-3.56-3.56-2.74,0-3.94,1.66-3.94,4.63Zm9.83,2.83h-.08c-.23.7-1.55,1.12-2.47,1.35l-1.94.51c-2.32.62-3.52,1.81-3.52,4.25s1.24,4,3.25,4c2.82,0,4.76-2.12,4.76-5.8Z"/><path class="cls-1" d="M301.48,325c-.35,4.36-2.75,7.27-6.54,7.27-4.33,0-6.88-3-6.88-10.75,0-7.12,2.55-10.72,7.07-10.72,3.87,0,6.12,2.36,6.35,6.57h-2.32c-.28-3.21-1.55-4.63-4-4.63s-4.6,1.54-4.6,8.81c0,7.74,2.2,8.78,4.37,8.78,2.36,0,3.87-1.74,4.26-5.33Z"/><path class="cls-1" d="M306.81,311.31h2.32v14.46c0,3.33,1.12,4.6,3.56,4.6,2.63,0,4.49-2.09,4.49-5.26v-13.8h2.32v20.53h-2.09V329h-.08a5.77,5.77,0,0,1-5.26,3.33c-3.13,0-5.26-1.63-5.26-5.5Z"/><path class="cls-1" d="M326.07,304.23h2.32v27.61h-2.32Z"/><path class="cls-1" d="M335.82,313.24H333v-1.93h2.83v-5.69h2.31v5.69h3.64v1.93h-3.64V328c0,1.63.7,2.17,2.21,2.17a4.9,4.9,0,0,0,1.43-.23v1.93a3.77,3.77,0,0,1-1.62.23c-3.14,0-4.33-.84-4.33-3.59Z"/><path class="cls-1" d="M346.22,311.31h2.32v14.46c0,3.33,1.12,4.6,3.56,4.6,2.63,0,4.48-2.09,4.48-5.26v-13.8h2.32v20.53h-2.09V329h-.07a5.79,5.79,0,0,1-5.26,3.33c-3.13,0-5.26-1.63-5.26-5.5Z"/><path class="cls-1" d="M365.32,311.31h2.32v3.21h.08a5.44,5.44,0,0,1,5.18-3.68,2.84,2.84,0,0,1,.81.12v2.32a5.55,5.55,0,0,0-1.12-.12c-2.55,0-4.95,1.86-4.95,5.84v12.84h-2.32Z"/><path class="cls-1" d="M377.58,317.41c0-4.21,2-6.57,6.34-6.57s5.8,2.21,5.8,5.45v12.15c0,1.16.39,1.7,1.2,1.7h.66v1.7a3,3,0,0,1-1.08.23c-1.82,0-3-.42-3-2.55v-.69h-.08c-.93,2.7-3,3.48-5.29,3.48-3.6,0-5.23-2.25-5.23-5.8a5.41,5.41,0,0,1,4.14-5.69l4.37-1.24c1.62-.46,2-.85,2-3.24,0-2.64-1.47-3.56-3.56-3.56-2.74,0-3.94,1.66-3.94,4.63Zm9.82,2.83h-.08c-.22.7-1.54,1.12-2.47,1.35l-1.93.51c-2.32.62-3.52,1.81-3.52,4.25s1.24,4,3.24,4c2.83,0,4.76-2.12,4.76-5.8Z"/><path class="cls-1" d="M418.46,328.44h-.08a5.06,5.06,0,0,1-5,3.87c-4.52,0-6.57-3.64-6.57-10.75s2.05-10.72,6.57-10.72a4.58,4.58,0,0,1,4.8,3.56h.07V304.23h2.32v27.61h-2.08Zm-4.72,1.93c2.36,0,4.48-1.2,4.48-8.81s-2.12-8.78-4.48-8.78-4.49,1.19-4.49,8.78S411.42,330.37,413.74,330.37Z"/><path class="cls-1" d="M439.38,325c-.35,4.36-2.75,7.27-6.61,7.27-4.34,0-6.89-3-6.89-10.75,0-7.12,2.55-10.72,7.08-10.72s6.61,3.13,6.61,10v.85H428.35v1c0,5.91,2.1,7.73,4.38,7.73,2.44,0,3.94-1.74,4.33-5.33Zm-2.28-5.31c-.08-5.1-1.51-7-4.37-7s-4.3,1.85-4.38,7Z"/><path class="cls-1" d="M473.06,322.48c-.35,6.31-3.25,9.83-8.19,9.83-5.65,0-8.82-4.37-8.82-14.27s3.17-14.28,8.82-14.28,7.92,4,7.92,8.51h-2.48c0-3.75-1.89-6.42-5.44-6.42-3.95,0-6.35,3.25-6.35,12.19s2.4,12.18,6.35,12.18c3.47,0,5.44-3,5.72-7.74Z"/><path class="cls-1" d="M477.94,317.41c0-4.21,2-6.57,6.34-6.57s5.8,2.21,5.8,5.45v12.15c0,1.16.39,1.7,1.2,1.7h.65v1.7a3,3,0,0,1-1.08.23c-1.82,0-3-.42-3-2.55v-.69h-.07c-.93,2.7-3,3.48-5.31,3.48-3.59,0-5.21-2.25-5.21-5.8a5.41,5.41,0,0,1,4.14-5.69l4.37-1.24c1.62-.46,2-.85,2-3.24,0-2.64-1.47-3.56-3.56-3.56-2.75,0-3.95,1.66-3.95,4.63Zm9.82,2.83h-.08c-.23.7-1.54,1.12-2.47,1.35l-1.94.51c-2.32.62-3.52,1.81-3.52,4.25s1.24,4,3.25,4c2.82,0,4.76-2.12,4.76-5.8Z"/><path class="cls-1" d="M496.92,311.31H499v2.86h.08a5.46,5.46,0,0,1,5.22-3.33,4,4,0,0,1,4.29,3.6h.08a5.25,5.25,0,0,1,5.22-3.6c2.86,0,4.76,1.63,4.76,5.3v15.7h-2.32V316.49c0-2.44-1.12-3.71-3.22-3.71-2.32,0-4.17,2.08-4.17,5.26v13.8h-2.32V316.49c0-2.44-1.13-3.71-3.21-3.71-2.32,0-4.18,2.08-4.18,5.26v13.8h-2.32Z"/><path class="cls-1" d="M524.8,317.41c0-4.21,2-6.57,6.35-6.57s5.8,2.21,5.8,5.45v12.15c0,1.16.38,1.7,1.2,1.7h.66v1.7a3.13,3.13,0,0,1-1.09.23c-1.81,0-3-.42-3-2.55v-.69h-.07c-.93,2.7-3,3.48-5.3,3.48-3.6,0-5.22-2.25-5.22-5.8a5.41,5.41,0,0,1,4.13-5.69l4.37-1.24c1.63-.46,2-.85,2-3.24,0-2.64-1.48-3.56-3.56-3.56-2.75,0-3.94,1.66-3.94,4.63Zm9.83,2.83h-.08c-.23.7-1.55,1.12-2.47,1.35l-1.94.51c-2.32.62-3.52,1.81-3.52,4.25s1.24,4,3.25,4c2.83,0,4.76-2.12,4.76-5.8Z"/><path class="cls-1" d="M543.64,311.31H546v3.21H546a5.43,5.43,0,0,1,5.17-3.68,2.86,2.86,0,0,1,.82.12v2.32a5.55,5.55,0,0,0-1.12-.12c-2.55,0-4.95,1.86-4.95,5.84v12.84h-2.32Z"/><path class="cls-1" d="M562.32,310.84c4.52,0,7.08,3.6,7.08,10.72s-2.56,10.75-7.08,10.75-7.08-3.6-7.08-10.75S557.79,310.84,562.32,310.84Zm0,19.53c2.59,0,4.6-2.24,4.6-8.81s-2-8.78-4.6-8.78-4.6,2.24-4.6,8.78S559.73,330.37,562.32,330.37Zm4-27.07-3.79,5.45h-1.86l2.9-5.45Z"/><path class="cls-1" d="M574.73,311.31h2.09v2.86h.08a5.77,5.77,0,0,1,5.26-3.33c3.13,0,5.26,1.63,5.26,5.5v15.5h-2.33V317c0-2.82-1.15-4.21-3.51-4.21-2.71,0-4.53,2.08-4.53,5.26v13.8h-2.32Z"/><path class="cls-1" d="M184.7,291.76,197.54,208V150.12h-15v88.23l-24.47-88.23H142v143h15.16V206l26.13,87.14h1.34A6.45,6.45,0,0,1,184.7,291.76Z"/><path class="cls-1" d="M249.25,292.72H233L230.63,275H210.35l-2.19,17.72H191l21.92-143H227.7ZM228.8,260l-8.22-62.64L212.18,260Z"/><path class="cls-1" d="M306.3,267.51c0,17.73-12.24,27.77-27.76,27.77-15.16,0-27.76-10.23-27.76-27.77V175.1c0-19,12.6-27.77,27.76-27.77,15.52,0,27.76,10.95,27.76,27.77v4.74H290.24V175.1c0-8-5.31-11.69-11.7-11.69-6.57,0-11.69,3.65-11.69,11.69v92.41a11.54,11.54,0,0,0,11.69,11.69,11.66,11.66,0,0,0,11.7-11.69v-1.82l16.06-5.29Z"/><path class="cls-1" d="M368,267.51c0,17-12.24,27.77-27.77,27.77-15.15,0-27.76-10.78-27.76-27.77V149.71h16.07v117.8c0,8.22,5.12,11.69,11.69,11.69,6.4,0,11.69-3.47,11.69-11.69V149.71H368Z"/><path class="cls-1" d="M430.27,292.72H414L411.65,275H391.38l-2.19,17.72H372l21.92-143h14.8ZM409.82,260l-8.21-62.64L393.2,260Z"/><path class="cls-1" d="M449.07,97.35a17.42,17.42,0,0,1,11.1,8.83l36.55-13.9C481.42,93.75,465.26,95.49,449.07,97.35Z"/><path class="cls-1" d="M427.66,110.81a17.32,17.32,0,0,1,8.94-12c-69.18,8.18-135.37,17.89-135.37,17.89l15.67-8.38c-14.14.74-64.11,9.3-64.11,9.3l19.42-10.27c-22.23-2.91-64.89,6.11-64.89,6.11l18.74-10.21c-14.13.74-62.71,12.5-62.71,12.5l17.92-8.85C151,106,74.54,123.82,74.54,123.82c-42.33-3.24-66.05,16.24-66.05,16.24L0,146.38c47.33-19.86,63.17-8.19,74.25-8.08,0,0,49.73-19.68,77.27-18.77L132.64,132.4s47.14-15.41,60-16L171.53,129s44-13.66,64.22-10.93l-24.35,12s52.2-11.35,65-12l-20.58,14.09S352.21,118.45,427.66,110.81Z"/><path class="cls-1" d="M427.49,116.53l-27.06,11.63s11.3-.91,30.11-3.89A17.44,17.44,0,0,1,427.49,116.53Z"/><path class="cls-1" d="M582.45,79.28C499,103,470.7,107.84,461.1,108.37a16.87,16.87,0,0,1,.9,3.77,17.13,17.13,0,0,1-.46,6.45c14.1-2.92,30-6.67,47.11-11.46a399.09,399.09,0,0,1-49.42,31.13C520.93,120.32,582.45,79.28,582.45,79.28Z"/><path class="cls-1" d="M457.06,112.73a12.43,12.43,0,1,1-13.81-10.88A12.41,12.41,0,0,1,457.06,112.73Z"/><path class="cls-1" d="M528.57,134.75a341.25,341.25,0,0,1-47.36-3.42,2.48,2.48,0,0,1,.77-4.9c1,.16,98.4,15.12,122.7-19.73,9-12.84,6.78-31.37-6.47-55.06C575.36,10.78,522.92,3.78,483,5.11,436.22,6.67,379.19,20.72,330.42,42.7,276.69,66.92,209.64,89,143.66,89,98.47,89,53.77,78.62,14.2,51.54A2.49,2.49,0,0,1,17,47.44c95.42,65.33,222,31,311.37-9.26C377.71,15.94,435.44,1.73,482.79.15c59.3-2,100.7,15,119.75,49.07,14.26,25.49,16.35,45.79,6.21,60.32-11,15.84-36,24.3-74.09,25.14Q531.59,134.76,528.57,134.75Z"/><path class="cls-1" d="M483,130.81a2.48,2.48,0,0,1-.14-5c1.15-.06,114.84-6.81,137.84-48.49,6.06-11,5.14-23.71-2.71-37.85C604.48,15.3,584.85,5.57,556.16,8.9c-25.86,3-56.09,16.44-85.32,29.45-25.08,11.17-51,22.71-74.54,27.86-65.42,14.33-134,12-180,7.56-55.12-5.35-99.83-15.58-121.36-22.71a2.48,2.48,0,1,1,1.56-4.71c23,7.61,69.08,17.51,120.28,22.48,45.66,4.43,113.67,6.73,178.46-7.46,23-5,48.73-16.49,73.58-27.55,59.77-26.6,121.57-54.1,153.45,3.28C631,52.83,631.93,67.19,625,79.76c-10.29,18.64-37.39,32.9-80.55,42.38a438,438,0,0,1-61.35,8.67Z"/><rect class="cls-1" x="443.4" y="151.43" width="3.65" height="145.03"/><path class="cls-1" d="M515.14,292.2h-16V172.77H488V159.65c7.29,0,11.12-3.47,11.12-10.21h16Z"/><path class="cls-1" d="M472,144.33h4.55l-1.64,41.39c-.18,7.11-3.83,10-7.65,10-4,0-8.57-3.65-8.57-10a17.12,17.12,0,0,1,1.09-5.65Z"/><path class="cls-1" d="M584.88,266a30.64,30.64,0,0,1-2.09,11.54,25.27,25.27,0,0,1-5.73,8.72,24.65,24.65,0,0,1-8.72,5.46,31.42,31.42,0,0,1-11.09,1.91q-12.18,0-19.9-7.37T529.62,266v-4.73h16V266a11.63,11.63,0,0,0,19.81,8.27,11.1,11.1,0,0,0,3.45-8.27V238.89a23.78,23.78,0,0,1-14.72,4.37,23.68,23.68,0,0,1-9-1.82,23.26,23.26,0,0,1-7.91-5.36,26.68,26.68,0,0,1-5.54-8.64,31,31,0,0,1-2.09-11.81V174a28.06,28.06,0,0,1,2.09-10.73,26.45,26.45,0,0,1,5.82-8.81,27.79,27.79,0,0,1,8.81-5.91,27.46,27.46,0,0,1,10.91-2.18,26.36,26.36,0,0,1,10.63,2.18,29.37,29.37,0,0,1,8.82,5.91A27.36,27.36,0,0,1,584.88,174Zm-16-92a11.63,11.63,0,0,0-19.9-8.18,11.33,11.33,0,0,0-3.36,8.18v41.62a11.48,11.48,0,0,0,11.63,11.63,10.62,10.62,0,0,0,8.54-3.63,13.29,13.29,0,0,0,3.09-8.91Z"/></svg>