<?xml version="1.0" encoding="utf-8"?>
<!-- Generator: Adobe Illustrator 22.1.0, SVG Export Plug-In . SVG Version: 6.00 Build 0)  -->
<svg version="1.1" id="Capa_1" xmlns="http://www.w3.org/2000/svg" xmlns:xlink="http://www.w3.org/1999/xlink" x="0px" y="0px"
	 viewBox="0 0 20 20" style="enable-background:new 0 0 20 20;" xml:space="preserve">
<style type="text/css">
	.st0{fill:#53A2B7;}
</style>
<path id="Mail_icono" class="st0" d="M10,0C4.5,0,0,4.5,0,10c0,5.5,4.5,10,10,10c5.5,0,10-4.5,10-10C20,4.5,15.5,0,10,0z M5.3,6h9.4
	c0.3,0,0.7,0.1,1,0.3l-5.4,5.1c-0.2,0.1-0.3,0.1-0.5,0L4.3,6.3C4.6,6.1,4.9,6,5.3,6L5.3,6z M3.7,12.8V7.5c0-0.3,0.1-0.5,0.2-0.8
	l4,3.8l-4,3.2C3.8,13.4,3.7,13.1,3.7,12.8z M14.7,14.4H5.2c-0.3,0-0.6-0.1-0.9-0.3l4-3.2l0.9,0.8c0.4,0.4,1,0.4,1.4,0l0.9-0.8l4,3.2
	C15.3,14.3,15,14.4,14.7,14.4L14.7,14.4z M16,13.7L16,13.7l-4-3.2l4-3.8c0.1,0.2,0.2,0.5,0.2,0.8l0,5.3C16.3,13.2,16.2,13.5,16,13.7
	L16,13.7z"/>
</svg>
