<?xml version="1.0" encoding="utf-8"?>
<!-- Generator: Adobe Illustrator 22.1.0, SVG Export Plug-In . SVG Version: 6.00 Build 0)  -->
<svg version="1.1" id="Forma_mapa" xmlns="http://www.w3.org/2000/svg" xmlns:xlink="http://www.w3.org/1999/xlink" x="0px" y="0px"
	 viewBox="0 0 508 324" style="enable-background:new 0 0 508 324;" xml:space="preserve">
<style type="text/css">
	.st0{fill:#54A3B7;}
	.st1{fill:#94D8EA;}
</style>
<g>
	<g>
		<path class="st0" d="M343.8,25.1C259.5-0.1,176.2-0.2,110.4,0c-28,0.2-79.1-2.4-97.2,14.6C5.6,21.9,2.3,31.4,0,40.7V324
			c46.8-10.5,83.4-42.1,128.8-54.1c43.5-11.2,98.1-2,145.1-13.1C395,231.5,477.5,70.6,343.8,25.1z"/>
	</g>
	<path id="Forma_24_copia" class="st1" d="M507.7,156.3c-17.3,54.7-80,74-126.4,68.2c-37.8-4.7-71.6-24.4-106.1-25.9
		c-36.9-1.6-80.4,8.5-107.4-27.3c-20.9-43.2,20-77.1,48.3-80.9c54.7-7.2,122.4-15.7,191.2-6.4c21,2.8,41.5,8,61.3,15.4
		C468.4,99.4,511.6,120.1,507.7,156.3z"/>
</g>
</svg>
