<?xml version="1.0" encoding="utf-8"?>
<!-- Generator: Adobe Illustrator 22.1.0, SVG Export Plug-In . SVG Version: 6.00 Build 0)  -->
<svg version="1.1" id="Capa_1" xmlns="http://www.w3.org/2000/svg" xmlns:xlink="http://www.w3.org/1999/xlink" x="0px" y="0px"
	 viewBox="0 0 20 20" style="enable-background:new 0 0 20 20;" xml:space="preserve">
<style type="text/css">
	.st0{fill:#53A2B7;}
</style>
<path id="Telefono_icono" class="st0" d="M10,0C4.5,0,0,4.5,0,10c0,5.5,4.5,10,10,10c5.5,0,10-4.5,10-10C20,4.5,15.5,0,10,0
	C10,0,10,0,10,0z M11.8,15C8,14.8,5.1,11.7,5,7.9C5,6.6,5.8,5.4,7.1,5C8,5.7,8.6,6.7,8.8,7.8c-0.4,0.5-1,1-1.6,1.3
	c0.7,1.7,2,3,3.7,3.7c0.2-0.6,0.7-1.2,1.2-1.6c1.1,0.2,2.1,0.8,2.8,1.7C14.4,14.2,13.1,15,11.8,15L11.8,15z"/>
</svg>
